<?xml version="1.0" encoding="utf-8"?>
<svg version="1.1" xmlns="http://www.w3.org/2000/svg" xmlns:xlink="http://www.w3.org/1999/xlink" viewBox="0 0 1876 1887">
	<style type="text/css">
	 .st0{fill:#E8913A;}
	 .st1{fill:#83acff;}
	 .st2{fill:url(#SVGID_1_);}
	 .st3{fill:#FFDC94;}
	 .st4{fill:#FFCA55;}
	 .st5{fill:#DED4CE;}
	 .st6{opacity:0.24;fill:#3F444F;}
	 .st7{fill:#FF7E55;}
	 .st8{fill:#E66947;}
	 .st9{fill:#494F5C;}
	 .st10{opacity:0.3;fill:#C2C2C2;}
	 .st11{fill:#EEA886;}
	 .st12{fill:#162D40;}
	 .st13{fill:#0E1E2B;}
	 .st14{fill:#EDDAD3;}
	 .st15{fill:#DB9C7C;}
	 .st16{fill:#EB4747;}
	 .st17{fill:#1D3B54;}
	 .st18{fill:#FCCCA2;}
	 .st19{fill:#AB3434;}
	 .st20{fill:#FFCC63;}
	 .st21{fill:#285173;}
	 .st22{fill:#D6C5BE;}
	 .st23{fill:#252E3B;}
	 .st24{fill:#FAE6DE;}
	 .st25{fill:#A77860;}
	 .st26{fill:#2C5396;}
	 .st27{fill:#202338;}
	 .st28{fill:#81807E;}
	 .st29{fill:#292C47;}
	 .st30{fill:#D8D5E0;}
	 .st31{fill:#5D676C;}
	 .st32{fill:#7F827F;}
	 .st33{fill:#B4B1BA;}
	 .st34{fill:#EAE6F2;}
	 .st35{fill:#1F3B6B;}
	 .st36{fill:#323657;}
	 @keyframes gt {0% {transform: translateY(0px); animation-timing-function: linear;} 50% {transform: translateY(-50px); animation-timing-function: linear;} 100% {transform: translateY(0px); animation-timing-function: linear;}}
     #lupa {-webkit-animation: gt 5s infinite linear;-moz-animation: gt 5s infinite linear;animation: gt 5s infinite linear;}
	</style>
	<path class="st0" d="M1534.6691895,380.5801086H842.123291 c-177.6323242,11.8198242-176.8466797,207.4989929-176.8466797,207.4989929l0,0v935.0566406h693.4130859V588.0791016 C1358.6896973,588.0791016,1361.9729004,391.7432251,1534.6691895,380.5801086z"/>
	<rect x="616.9528809" y="599.8984375" class="st1" width="8" height="719.6777954"/>
	<path class="st1" d="M1416.4250488,270.8633118H993.427002V36.5410233h422.9980469V270.8633118z M1001.427002,262.8633118 h406.9980469V44.5410233H1001.427002V262.8633118z"/>
	<path class="st1" d="M624.9528809,515.2518921H201.9557953V220.5176239h422.9970703V515.2518921z M209.9557953,507.2519226 h406.9970703v-278.734314H209.9557953V507.2519226z"/>
	<path class="st1" d="M1823.5432129,985.187561h-422.9990234V749.9902344h422.9990234V985.187561z M1408.5441895,977.187561 h406.9990234V757.9902344h-406.9990234V977.187561z"/>
	<linearGradient id="SVGID_1_" gradientUnits="userSpaceOnUse" x1="1255.0229492" y1="1368.8459473" x2="769.1091919" y2="226.2899933">
		<stop  offset="0" style="stop-color:#FF9F55"/>
		<stop  offset="1" style="stop-color:#FFD255"/>
	</linearGradient>
	<path class="st2" d="M1506.9807129,367.8852234c-172.696167,11.1625977-175.9794922,207.4986267-175.9794922,207.4986267 v935.0565796H637.5881958V575.3838501c0,0-0.7880859-195.6792297,176.8466187-207.4986267H1506.9807129z"/>
	<rect x="728.642395" y="612.1558228" class="st3" width="476.2836914" height="42.0248985"/>
	<rect x="728.642395" y="709.3384399" class="st3" width="406.6801147" height="29.7679996"/>
	<rect x="728.642395" y="787.9165649" class="st3" width="204.4349976" height="44.2138977"/>
	<rect x="993.4876099" y="787.9165649" class="st3" width="211.4385071" height="44.2138977"/>
	<rect x="728.642395" y="873.0610352" class="st3" width="325.6947937" height="31.5191212"/>
	<rect x="728.642395" y="951.8584595" class="st3" width="366.9536133" height="17.5098"/>
	<rect x="728.642395" y="1030.6553955" class="st3" width="441.263092" height="17.5096817"/>
	<path class="st3" d="M934.5773926,1207.2598877H727.142395v-99.3077393h207.4349976V1207.2598877z M730.142395,1204.2598877 h201.4345093v-93.3077393H730.142395V1204.2598877z"/>
	<rect x="984.2941895" y="1109.4521484" class="st3" width="185.6112976" height="22.7636986"/>
	<rect x="984.2941895" y="1157.6055908" class="st3" width="131.5576019" height="22.7635994"/>
	<rect x="728.642395" y="1267.0458984" class="st3" width="396.8305054" height="17.5098"/>
	<rect x="728.642395" y="1345.8427734" class="st3" width="209.0307007" height="17.5096989"/>
	<path class="st4" d="M1518.4412842,898.4680176l-31.1568604-23.8425293  c-2.5556641-1.9549561-3.0412598-5.6116943-1.0863037-8.1662598c1.9559326-2.5545044,5.6108398-3.0403442,8.1663818-1.0858765  l22.0332031,16.8604126l27.6394043-35.0966187c1.9903564-2.5275269,5.6533203-2.9630737,8.1799316-0.97229  c2.5286865,1.9904785,2.9628906,5.6529541,0.9724121,8.1804199L1518.4412842,898.4680176z"/>
	<path class="st4" d="M1549.8754883,941.6464233c-37.8188477,14.6377563-80.4942627-4.2208252-95.1318359-42.0392456 c-14.6375732-37.8182373,4.2208252-80.4941406,42.0396729-95.131958 c37.817749-14.6373901,80.4943848,4.2213745,95.1318359,42.0396118 C1606.5528564,884.333252,1587.6932373,927.0090332,1549.8754883,941.6464233z M1500.5756836,814.2732544 c-32.4155273,12.5463867-48.5800781,49.1254883-36.0335693,81.5413818 c12.5466309,32.4159546,49.1257324,48.5805664,81.5411377,36.0341187 c32.4155273-12.5463867,48.5810547-49.1258545,36.0344238-81.541748 C1569.571167,817.8910522,1532.9910889,801.7268066,1500.5756836,814.2732544z"/>
	<polygon class="st4" points="1170.7805176,129.1875153 1172.2199707,160.0962219 1184.4886475,159.5254211 1182.0754395,107.6714249 1129.1223145,110.1357193 1129.692749,122.4048233 1161.701416,120.9155197 1105.2766113,182.8496246 1046.5656738,129.360321 1038.2941895,138.4404297 1106.0843506,200.2007294 "/>
	<rect x="418.2698059" y="304.421936" class="st5" width="166.1304016" height="23.6385994"/>
	<rect x="418.2698059" y="356.0654297" class="st5" width="130.5751953" height="23.6392002"/>
	<rect x="418.2698059" y="407.7095337" class="st5" width="146.5137024" height="23.6390991"/>
	<rect x="1627.3654785" y="829.9477539" class="st5" width="118.7040939" height="23.6392002"/>
	<rect x="1627.3654785" y="881.5913696" class="st5" width="133.1942902" height="23.6392002"/>
	<rect x="1220.2473145" y="90.2392197" class="st5" width="151.0283966" height="23.6392002"/>
	<rect x="1220.2473145" y="141.8828278" class="st5" width="118.7041016" height="23.6392002"/>
	<rect x="1220.2473145" y="193.526825" class="st5" width="133.194397" height="23.6392002"/>
	<polygon class="st5" points="1510.9807129,1141.46875 1382.6564941,1141.46875 1382.6564941,1133.46875 1502.9807129,1133.46875 1502.9807129,990.3809204 1510.9807129,990.3809204 "/>
	<polygon class="st5" points="895.4890137,353.8652344 887.4890137,353.8652344 887.4890137,312.2402344 1165.9055176,312.2402344 1165.9055176,282.9590149 1173.9055176,282.9590149 1173.9055176,320.2402344 895.4890137,320.2402344 "/>
	<polygon class="st5" points="584.4002075,844.8984375 438.3464966,844.8984375 438.3464966,529.8555298 446.3464966,529.8555298 446.3464966,836.8984375 584.4002075,836.8984375 "/>
	<path class="st1" d="M1382.7425537,717h-8v-95.2128906c-0.1123047-1.5800781-10.2647705-184.2147827,143.8417969-210.7851868 l1.3583984,7.8829041c-147.0917969,25.3612976-137.3251953,200.8710938-137.2091064,202.640625L1382.7425537,717z"/>
	<polygon class="st0" points="1843.8977051,899.9766235 1835.8977051,899.9766235 1835.8977051,738.5039063 1662.6057129,738.5039063 1662.6057129,730.5039063 1843.8977051,730.5039063 "/>
	<polygon class="st0" points="343.9528809,539.28125 179.4118958,539.28125 179.4118958,384.2539368 187.4118958,384.2539368 187.4118958,531.28125 343.9528809,531.28125 "/>
	<polygon class="st0" points="982.3156738,141.8828278 974.3156738,141.8828278 974.3156738,19.8047218 1178.5100098,19.8047218 1178.5100098,27.8047218 982.3156738,27.8047218 "/>
	<polygon class="st1" points="1386.6564941,1550.6601563 1236.8820801,1550.6601563 1236.8820801,1542.6601563 1378.6564941,1542.6601563 1378.6564941,1315.5234375 1386.6564941,1315.5234375 "/>
	<path class="st3" d="M1271.9973145,1391.9941406h-130.4168701v-130.4178467h130.4168701V1391.9941406z M1153.5804443,1379.9941406 h106.4168701v-106.4178467h-106.4168701V1379.9941406z"/>
	<polygon class="st3" points="1208.848877,1353.8574219 1163.0461426,1310.6796875 1176.763916,1296.125 1209.7570801,1327.2285156 1281.7512207,1268.0742188 1294.4484863,1283.5273438 "/>
	<g id="lupa">
		<path class="st6" d="M1167.1828613,1016.6210327c-97.8398438-168.4935913-313.7694702-225.7792969-482.289978-127.9130249 c-16.9151001,9.8232422-32.7006836,20.828125-47.3046875,32.8583984v80.9248047 c21.0917969-24.7695923,46.6743164-46.4121704,76.4072266-63.6953735 c140.8358765-81.7910156,321.3065796-33.9086304,403.0985718,106.9277954 c25.1103516,43.2333984,37.9794922,90.1962891,39.7138672,136.8964844c0.1308594,3.6512451,0.210083,7.2753906,0.210083,10.9267578 c0,101.6484375-52.6104736,200.5644531-146.8516235,255.2763672 c-125.2871094,72.7294922-281.9614258,42.890625-372.578125-63.7470703v81.0028076 c21.3016968,17.5977783,44.4677124,32.4375,68.8944702,44.3886719h311.2217407 c7.2763062-3.5712891,14.446228-7.4335938,21.5643921-11.555542 C1207.7629395,1401.071167,1265.0480957,1185.1414795,1167.1828613,1016.6210327z"/>
		<rect x="-10.7706337" y="1582.5822754" transform="matrix(-0.768196 0.6402147 -0.6402147 -0.768196 1529.2939453 2708.3903809)" class="st7" width="570.2022095" height="96.9408493"/>
		<rect x="489.8139954" y="1401.9869385" transform="matrix(-0.7681971 0.6402134 -0.6402134 -0.7681971 1814.1391602 2220.7058105)" class="st8" width="30.4572201" height="73.5797424"/>
		<path class="st9" d="M465.677002,1370.9892578c97.8544922,168.5058594,313.7827148,225.7802734,482.2891235,127.9257813 c168.5059204-97.8554688,225.7802124-313.7832031,127.9257202-482.2891235 C978.036377,848.1196289,762.1087036,790.8457031,593.6022949,888.7001343 C425.0964966,986.555603,367.8220825,1202.4832764,465.677002,1370.9892578z M515.7791138,1341.8914795 c-43.4033203-74.7402344-50.2896118-160.6494141-26.1421204-237.0457764 c21.3496094-67.5499268,66.9682922-127.6630859,133.0605164-166.0440063 c140.8364868-81.7865601,321.3056641-33.9144897,403.0909424,106.9180298 c25.1044922,43.2303467,37.9920654,90.1953125,39.7254639,136.8934326 c-0.0029297,0.0020752-0.0009766,0.0050049-0.0009766,0.0050049 c3.9160156,105.4345703-49.0351563,209.5136719-146.6415405,266.1951904 C778.0354004,1530.6004639,597.5656738,1482.7285156,515.7791138,1341.8914795z"/>
		<path class="st10" d="M489.6369934,1104.8457031c0,0,307.110321-233.1948853,575.8759766,77.7724609 c0,0-0.0019531-0.0029297,0.0009766-0.0050049c-1.7333984-46.6981201-14.6209717-93.6630859-39.7254639-136.8934326 C944.0031738,904.887207,763.5339966,857.0151367,622.6975098,938.8016968 C556.6052856,977.1826172,510.9866028,1037.2957764,489.6369934,1104.8457031z"/>
	</g>
	<path class="st11" d="M1294.2912598,1332.8701172c0,0-6.6386719,2.5274658-11.7431641,3.0274658 s-12.5058594,5.836792-14.3925781,8.1551514c-1.8875732,2.3183594-17.3320313,18.90625-17.6015625,21.0214844 c-0.2714844,2.1152344,3.9472656,1.4121094,5.3652344-0.2645264c1.4189453-1.6778564,14.890625-15.0313721,14.890625-15.0313721 s-15.1152344,16.8272705-15.0175781,18.8007813c0.0976563,1.9726563,2.3712158,3.6601563,5.163208,1.9150391 c0,0,2.227417,4.5664063,6.1600342,0.6114502l7.8681641-7.8575439c0,0-3.3291016,4.7919922,1.0400391,3.4161377 c2.3233643-0.7333984,10.1123047-10.6436768,12.2919922-12.1104736 c2.1796875-1.4686279,10.5175781-14.1601563,10.5175781-14.1601563L1294.2912598,1332.8701172z"/>
	<path class="st12" d="M1348.0179443,1658.9013672c0,0-5.75,11.4990234-9.2344971,13.7636719 c-3.484375,2.265625-22.9989014,21.2578125-27.0068359,22.9990234 c-4.0068359,1.7421875-16.9003906,4.1826172-16.7254639,10.2802734c0.1737061,6.0986328,33.2781982,4.1816406,39.7254639,1.9160156 c6.4462891-2.2646484,17.2490234-16.9002686,21.6044922-16.7255859c4.3564453,0.1738281,2.7871094,17.9462891,2.7871094,17.9462891 h4.7050781c0,0,5.9238281-18.8173828,5.7490234-25.4384766c-0.1738281-6.6210938-3.8330078-24.7412109-3.8330078-24.7412109 H1348.0179443z"/>
	<path class="st12" d="M1428.7141113,1651.7578125c0,0-2.5292969,11.3847656-6.6855469,15.3603516 c-4.1572266,3.9755859-19.7440186,20.7822266-23.6972656,22.5888672 c-3.9521484,1.8076172-11.5419922,3.0712891-13.8916016,5.9638672c-2.3486328,2.890625-0.9501953,11.3847656,13.8916016,10.4804688 c14.8417969-0.9033203,19.6757813-0.7675781,23.1992188-3.75c3.5245361-2.9814453,14.9091797-13.2822266,18.296875-13.5527344 v16.3994141h4.0664063c0,0,7.1826172-21.5498047,4.6074219-30.6298828 c-2.5750732-9.0810547-2.4384766-21.4140625-2.4384766-21.4140625L1428.7141113,1651.7578125z"/>
	<path class="st11" d="M1422.8205566,1164.1435547c0,0,6.7675781,17.4257813,1.5029297,30.8945313 c0,0,24.8144531-1.5701904,25.7539063-4.3905029c0.9394531-2.819458-0.9969482-28.928833,2.4151611-36.6456299 C1455.904541,1146.2851563,1422.8205566,1164.1435547,1422.8205566,1164.1435547z"/>
	<path class="st11" d="M1467.755249,1397.8271484c0,0-1.4375,3.803833-1.2198486,6.6083984 c0.1728516,2.2197266-1.0633545,5.859375-1.5332031,7.8243408c-0.46875,1.9647217-1.5751953,10.6376953-1.3037109,12.7713623 c0.1113281,0.8730469,2.9365234,5.9199219,2.9658203,7.7216797c0.03125,1.8028564-0.3554688,5.4697266,1.2177734,5.3681641 c1.5742188-0.1015625,2.8291016-3.3105469,2.8291016-3.3105469s0.1298828,1.6376953,1.5332031,1.9707031 c2.7285156,0.6484375,3.8858643-0.6904297,3.8858643-0.6904297s1.2333984,1.5654297,2.4422607,1.5507813 c2.6679688-0.0322266,3.75-1.3583984,3.75-1.3583984s1.3046875,0.7451172,3.0800781,0.3261719 c2.2705078-0.5369873,2.8847656-2.7529297,2.8847656-2.7529297s2.9873047-0.0263672,3.5888672-1.5820313 c0.6015625-1.5546875,0.2060547-2.9892578,0.3388672-4.3095703c0.1347656-1.3193359-2.0516357-12.5087891-7.1787109-19.796875 c-5.1268311-7.2900391-2.5498047-16.4492188-2.5498047-16.4492188L1467.755249,1397.8271484z"/>
	<path class="st13" d="M1459.9631348,1459.0136719l-3.0771484-21.2138672 c-0.4951172-3.4160156,1.881958-6.5986328,5.2978516-7.09375l33.640625-4.8789063 c3.4160156-0.4960938,6.5986328,1.8808594,7.09375,5.2958984l3.0771484,21.2138672 c0.4960938,3.4160156-1.8808594,6.5986328-5.2978516,7.0947266l-33.6396484,4.8789063 C1463.6418457,1464.8057861,1460.4593506,1462.4296875,1459.9631348,1459.0136719z M1462.7873535,1434.8632813 c-1.1239014,0.163208-1.90625,1.2099609-1.7431641,2.3341064l3.0771484,21.2127686 c0.163208,1.1240234,1.2091064,1.9052734,2.3341064,1.7421875l33.6395264-4.8779297 c1.1240234-0.1640625,1.90625-1.2099609,1.7431641-2.3339844l-3.0771484-21.2137451 c-0.1630859-1.1241455-1.2098389-1.9053955-2.3339844-1.7423096L1462.7873535,1434.8632813z"/>
	<rect x="1427.1563721" y="1450.5665283" transform="matrix(-0.9896461 0.1435286 -0.1435286 -0.9896461 3179.1274414 2763.1706543)" class="st14" width="125.4857712" height="91.3729019"/>
	<path class="st15" d="M1470.1252441,1433.84375c0,0-1.9822998-10.0341797,0.2509766-12.7431641 c2.234375-2.7099609,3.1533203,0.8681641,3.1533203,0.8681641s-0.9697266-3.5224609,1.7900391-4.6220703 s3.6104736,3.1503906,3.6104736,3.1503906s-0.0089111-2.8759766,3.0751953-2.9501953 c3.0838623-0.0742188,2.977417,3.6210938,2.977417,3.6210938s2.2587891-4.0888672,4.6796875-1.1523438 c4.0859375,4.9580078,2.2138672,12.2587891,2.2138672,12.2587891s-0.6201172,1.7158203-3.5888672,1.5820313 c0,0-1.2322998,4.3193359-5.9648438,2.4267578c0,0-3.9355469,3.3857422-6.1922607-0.1923828 C1476.130249,1436.0908203,1471.7297363,1439.453125,1470.1252441,1433.84375z"/>
	<path class="st16" d="M1420.4230957,1189.1435547c0,0-14.6621094,5.0761719-21.2880859,6.4863281 c-6.6258545,1.4093018-20.4892578,7.8009033-19.3623047,31.8613281c1.1289063,24.0615234,5.2646484,44.9267578,6.7675781,55.265625 c1.5039063,10.3398438,0.5644531,36.65625-1.8798828,49.4384766c0,0,35.1523438,8.6474609,76.5078125,0 c0,0-7.3310547-21.8056641-7.1435547-27.4443359c0.1884766-5.6396484,24.4375-52.0701904,25.5644531-59.4013672 c1.1289063-7.3310547,6.015625-39.6630859-5.0751953-46.8066406s-20.1132813-6.203125-24.8125-9.3994141 C1445.0012207,1185.9482422,1427.2814941,1186.8516846,1420.4230957,1189.1435547z"/>
	<path class="st16" d="M1401.5970459,1195.0391846c0,0-16.1835938-0.4434814-27.6503906,24.9334717 c-11.4669189,25.3769531-14.2871094,40.2275391-16.9180908,43.7988281 c-2.6317139,3.5714111-11.84375,17.4814453-20.8662109,24.2490234 c-9.0234375,6.7675781-46.5906982,44.8857422-46.5906982,44.8857422l10.3114014,13.1993408 c0,0,54.1376953-38.3468018,59.7764893-44.9259033c5.6395264-6.5800781,39.8865967-56.3935547,41.9375-63.9130859 C1403.6468506,1229.7480469,1419.4720459,1202.8125,1401.5970459,1195.0391846z"/>
	<path class="st16" d="M1498.6691895,1321.1044922c0.1015625,10.1514893-10.4384766,79.4189453-10.4384766,79.4189453 l-19.9179688,0.8466797c0,0,6.3896484-68.7050781,8.6455078-84.4951172 c0.6650391-4.6572266,0.1015625-11.8983154-1.0205078-19.7880859v-0.0058594 c-0.7109375-5.0125732-1.6531982-10.2861328-2.6503906-15.328125c-2.7470703-13.9178467-5.9160156-26.0644531-5.9160156-26.0644531 s-17.9501953-59.1396484,9.6318359-54.8035889c0,0,9.5410156,11.3807373,12.6436768,29.1444092 c3.1014404,17.7636719,6.2030029,44.2685547,5.6385498,54.7012939 C1494.7220459,1295.1641846,1498.5970459,1313.6387939,1498.6691895,1321.1044922z"/>
	<path class="st17" d="M1384.6604004,1332.1953125c0,0-6.390625,15.1104736-6.9549561,18.9277344 c-0.5635986,3.8173828-20.5987549,53.6982422-21.9932861,68.2939453 c-1.4101563,14.7558594-5.6396484,54.1376953-7.1435547,59.7773438s3.3837891,30.8282471,4.1357422,36.4677734 c0.7519531,5.6396484,0.3760986,97.7480469-6.390625,143.2392578c0,0,15.7890625,6.7666016,27.8204346,0 c0,0,19.9256592-71.0556641,18.7977295-112.0351563c-1.1279297-40.9785156-6.3261719-58.2724609,0.0322266-74.8144531 c6.3583984-16.5429688,43.5791016-66.1689453,47.3378906-71.4316406c3.7597656-5.2645264,27.3125-34.3505859,5.0097656-65.8613281 C1423.0091553,1303.2471924,1384.6604004,1332.1953125,1384.6604004,1332.1953125z"/>
	<path class="st17" d="M1461.630249,1466.7851563c-1.9786377,13.1630859,0.1014404,30.453125,4.2352295,78.5791016 c4.1397705,48.1210938-7.2352295,106.3917236-7.2352295,106.3917236c-14.2843018,4.8895264-30.7344971,0-30.7344971,0 c0.3779297-3.3829346,0-117.2979736,0-127.4493408c0-10.1503906-2.9150391-21.6717529-3.6650391-33.3222656 c-0.5136719-7.9404297-4.2080078-22.5800781-8.3631592-37.524292c-1.2462158-4.4776611-2.5323486-8.9776611-3.7843018-13.3370361 c0-0.0058594,0-0.0058594,0-0.0058594c-0.7050781-2.4414063-1.3935547-4.8446045-2.0644531-7.1669922 c-5.8535156-20.3017578-13.7255859-98.6942139-13.7255859-98.6942139s43.6318359-35.1446533,64.875-2.0585938 c21.2431641,33.0809326,10.3370361,57.1434326,9.5870361,61.2772217 C1470.005249,1397.6142578,1463.6096191,1453.6298828,1461.630249,1466.7851563z"/>
	<path class="st16" d="M1381.2541504,1270.6464844c0,0,2.9365234,59.1992188-11.1611328,93.3175049 c0,0,46.5245361,15.5076904,106.5831299,0c0,0-12.8721924-42.4356689-11.8428955-48.9210205 s23.5068359-81.296875,16.59375-98.8984375S1388.1867676,1215.1132813,1381.2541504,1270.6464844z"/>
	<path class="st11" d="M1436.7307129,1095.53125c-10.4754639-1.1865234-37.5957031,0.9394531-35.5283203,41.7314453 c2.0683594,40.7910156,16.9189453,38.3476563,31.7685547,34.0234375 c14.850708-4.3232422,32.5205078-35.9042969,32.5205078-44.3632813 C1465.4914551,1118.4639893,1466.6193848,1098.9150391,1436.7307129,1095.53125z"/>
	<path class="st18" d="M1402.7062988,1118.585083c0,0,11.8007813,15.0487061,23.6650391,18.6494141 c0,0,9.1339111,16.3309326,25.0673828,20.4921875c0,0,33.9785156-32.4952393,5.4052734-56.9327393 C1428.2718506,1076.3574219,1402.5187988,1106.1123047,1402.7062988,1118.585083z"/>
	<path class="st11" d="M1424.1359863,1131.6230469c0.3964844-2.2285156,5.3447266-6.7674561,9.1572266-1.6922607 c3.8134766,5.0760498-3.1416016,16.9178467-5.7734375,16.9178467S1422.6330566,1140.0820313,1424.1359863,1131.6230469z"/>
	<path class="st18" d="M1461.6311035,1108.1445313c0.8505859-1.2910156,26.6054688-12.8955078,31.9628906,11.3544922 c5.3574219,24.2490234-20.7421875,52.4453125-25.3144531,64.5703125c-4.5740967,12.1241455,0,40.8847656,0,40.8847656 s-13.640625-14.7910156-18.390625-29.9160156C1444.6721191,1178.4296875,1442.9211426,1136.5498047,1461.6311035,1108.1445313z"/>
	<path class="st12" d="M1443.5393066,1396.085083c-0.3378906,0.75-22.078125,49.0057373-27.6717529,57.375 c-1.2462158-4.4776611-2.5323486-8.9776611-3.7843018-13.3370361c0-0.0058594,0-0.0058594,0-0.0058594 S1442.8117676,1397.1455078,1443.5393066,1396.085083z"/>
	<path class="st19" d="M1480.482666,1247.8154297c0,0-0.6826172,30.6953125-4.5449219,49.265625 c-0.7109375-5.0125732-1.6531982-10.2861328-2.6503906-15.328125 C1473.4445801,1281.0596924,1479.732666,1252.6152344,1480.482666,1247.8154297z"/>
	<path class="st11" d="M709.0617676,1404.8105469c0,0,2.6748047,2.5566406,3.5981445,4.9423828 c0.730957,1.8896484,3.1757813,4.3896484,4.3330078,5.8164063c1.1572876,1.4287109,5.4736938,8.109375,6.0899048,9.9677734 c0.2514648,0.7597656-0.0820313,6.0107422,0.6010742,7.5009766s2.4423218,4.3468018,1.1112671,4.8828125 c-1.3314819,0.5351563-3.6225586-1.6044922-3.6225586-1.6044922s0.5375977,1.3945313-0.4829102,2.21875 c-1.984314,1.6044922-3.5737305,0.4853516-3.5737305,0.4853516s-0.2826538,2.2451172-1.2807617,2.7089844 c-2.2015991,1.0214844-3.5839844-0.1152344-3.5839844-0.1152344s-0.8041382,1.5976563-2.4257202,1.9511719 c-2.0733032,0.453125-3.3867798-1.4355469-3.3867798-1.4355469s-2.4418335,1.0556641-3.546814,0.015625 c-1.1044922-1.0390625-1.4248047-1.9628906-2.0532227-2.9931641 c-0.6289673-1.0302734-3.2329712-11.0693359-1.8911743-19.0654297 c1.3413086-7.9960938-4.9047241-13.9921875-4.9047241-13.9921875L709.0617676,1404.8105469z"/>
	<path class="st13" d="M731.1331177,1466.2900391H696.607666c-3.5063477,0-6.3588867-2.8515625-6.3588867-6.3583984v-21.7714844 c0-3.5068359,2.8525391-6.3583984,6.3588867-6.3583984h34.5254517c3.5057983,0,6.3583984,2.8515625,6.3583984,6.3583984 v21.7714844C737.4915161,1463.4384766,734.638916,1466.2900391,731.1331177,1466.2900391z M696.607666,1436.0684814 c-1.1532593,0-2.0917969,0.9383545-2.0917969,2.0916748v21.7714844c0,1.1534424,0.9385376,2.0917969,2.0917969,2.0917969 h34.5254517c1.1532593,0,2.0917969-0.9383545,2.0917969-2.0917969v-21.7714844 c0-1.1533203-0.9385376-2.0916748-2.0917969-2.0916748H696.607666z"/>
	<rect x="649.1038208" y="1456.9462891" class="st20" width="129.5326996" height="92.8055954"/>
	<path class="st11" d="M658.8513184,1208.6064453c0,0-6.6351929,0.0948486-9.465332,19.9335938 c-2.8300781,19.8398438,2.5332031,28.1318359,3.171936,36.3867188 c0.6386719,8.2558594,10.3241577,61.5771484,10.586853,63.9345703s1.5625,30.7333984,5.3389282,38.2646484 c3.7758789,7.5302734,31.5355835,50.2109375,31.9071655,52.3417969 c0.3716431,2.1308594,13.4795532-7.4355469,13.4795532-7.4355469s-21.8096313-45.6512451-23.0742188-50.8603516 c-1.2647095-5.2089844-10.0424805-31.8056641-8.6547852-39.9257813s-3.887207-52.9082031-3.3770142-57.8925781 C679.2747192,1258.3682861,671.5651855,1211.6348877,658.8513184,1208.6064453z"/>
	<path class="st21" d="M658.8513184,1208.6064453c0,0-6.6351929,0.0948486-9.465332,19.9335938 c-2.8300781,19.8398438-0.2723999,26.9825439,1.4395142,35.5830078 c1.6162109,8.1202393,7.1201172,57.8017578,7.3828125,60.1591797c0.2631836,2.3574219,6.8500977,32.3085938,10.2753906,42.84375 c2.6040039,8.0117188,27.3574219,49.9560547,27.7290039,52.0869141s19.2440796-9.7998047,19.2440796-9.7998047 s-24.2025757-47.2196045-25.4672852-52.4287109c-1.2645874-5.2099609-5.3623047-23.2410889-5.4940796-31.4775391 c-0.1548462-9.6757813-6.2412109-57.1689453-5.7310181-62.1533203 C679.2747192,1258.3682861,677.3659668,1215.3916016,658.8513184,1208.6064453z"/>
	<path class="st14" d="M603.3439941,1671.3027344c0,0,11.5541992,17.1591797,16.2105103,21.2978516 c0,0,10.7172852,3.7509766,11.3817749,11.0371094c0.4346313,4.7646484,0.0176392,12.4179688-12.2265625,12.7636719 c-12.2435913,0.3447266-20.1010132-3.9296875-22.3427124-11.3457031 c-2.2421875-7.4160156-6.4741211-10.7304688-6.4741211-10.7304688v15.5205078h-2.7587891 c0,0-0.6900024-15.0029297-0.8623047-17.7617188c-0.1724243-2.7597656-1.9815063-13.3681641,3.8378296-18.0664063 C595.9290161,1669.3193359,603.3439941,1671.3027344,603.3439941,1671.3027344z"/>
	<path class="st14" d="M681.7229004,1657.59375c0,0,2,4.7285156,5.7774048,9.6572266 c2.7689819,3.6132813,11.3817749,18.4511719,15.1757813,19.4863281c3.793396,1.0352783,15.5205078,3.1035156,16.5551147,9.6572266 c1.034668,6.5527344,1.5518188,11.2099609-10.0023804,11.7265625c-11.5537109,0.5175781-19.1416016,1.2070313-24.6602173-6.8984375 c-5.5184937-8.1044922-14.3134155-13.9677734-14.3134155-13.9677734v21.1474609h-4.4838867 c0,0-2.069397-22.0097656-3.2764282-23.5625c-1.2069702-1.5517578-4.3114624-18.4511719,6.3804321-27.2460938 C679.567688,1648.7978516,681.7229004,1657.59375,681.7229004,1657.59375z"/>
	<path class="st11" d="M595.5838013,1340.1113281c0,0-14.5899048,18.9697266-18.5474243,41.4746094 c-3.9569702,22.5048828,2.3374023,98.0380859,2.1646118,109.1611328 c-0.1723633,11.1230469-10.5195923,38.8007813-8.4497681,59.7548828 c2.069397,20.9521484,19.3583984,123.515625,19.3583984,123.515625l13.234375-2.7148438c0,0-1.2929077-106.3154297,0-115.1103516 c1.2935181-8.7947998,3.8897095-40.8533936,4.4067993-44.4746094 c0.5175171-3.6220703,32.8427124-98.7158203,32.8427124-114.9412842 C640.5935059,1380.5517578,630.763916,1313.6396484,595.5838013,1340.1113281z"/>
	<path class="st11" d="M668.8753052,1347.5264893c0,0,23.9707031,91.4852295,26.8164063,104.1600342 c2.8451538,12.6757813,6.9667969,23.1289063,6.9667969,28.5108643c0,12.4871826-4.6387329,32.5369873-4.6387329,32.5369873 l-16.296875,144.859375h-12.8475952c0,0-8.1049805-84.5877686-9.3984985-101.6601563 c-1.293396-17.0732422,9.3125-43.4569092,6.7255859-50.7001953c-2.5869141-7.2431641-41.6464844-90.7958984-41.6464844-90.7958984 S594.9802856,1320.96875,668.8753052,1347.5264893z"/>
	<path class="st11" d="M621.5432129,1693.4794922c0,0-10.0664063,5.171875-19.2059937-1.6582031 c-9.1401367-6.8310547-12.2276001-17.8037109-12.2276001-17.8037109l13.234375-2.7148438L621.5432129,1693.4794922z"/>
	<path class="st11" d="M702.6760864,1686.7373047c0,0-10.347168,2.5869141-14.3134766,0 c-3.9667969-2.5869141-17.4507446-25.3779297-21.9180298-26.7441406c0,0,4.3276367-8.7802734,15.2783203-2.3994141 C681.7229004,1657.59375,699.7443848,1682.9434814,702.6760864,1686.7373047z"/>
	<path class="st17" d="M699.5540161,1466.2764893c0,0-44.0419922,25.9217529-126.5917969,25.9217529 c0,0-4.6748047-95.7431641,7.3261719-122.6796875c12.0014038-26.9365234,91.6748047-10.1855469,91.6748047-10.1855469 S696.7189941,1446.4707031,699.5540161,1466.2764893z"/>
	<path class="st14" d="M639.3825684,1201.4580078c0,0,12.8013306,6.0449219,17.2461548,6.9345703 c4.4447632,0.8886719,21.6913452,23.2910156,24.7138672,31.4697266c3.0223999,8.1787109,0,20.4473877-6.2232056,34.8477783 c-6.2225952,14.4022217-0.3554688,19.2030029-3.2001953,33.6043701 c-2.8446655,14.4013672-5.3339844,44.8935547-4.800293,52.8945313c0.5332031,8.0010986-71.9140015,9.5107422-88.4492188-5.0683594 c0,0,16.6187134-24.890625,18.7524414-28.4462891c2.1337891-3.555542,0.3554688-22.9355469-1.6000366-27.9140625 c-1.9555664-4.9785156-14.9727173-47.3144531-14.9727173-47.3144531s-10.6488647-32.5136719-1.0292969-39.984375 c8.3564453-6.4902344,31.1313477-8.8027344,35.2207031-10.2254639 C619.130188,1200.8330078,631.0256958,1200.2139893,639.3825684,1201.4580078z"/>
	<path class="st22" d="M643.4719849,1229.9951172l7.7783203-9.109375l-6.7543945-23.9803467 C644.4959106,1196.9053955,642.2272949,1210.2587891,643.4719849,1229.9951172z"/>
	<path class="st11" d="M623.2268066,1110.6035156c7.6069946-2.6767578,35.5595703-9.2451172,42.1381836,26.4912109 c6.5786133,35.7382813-13.1571655,61.1630859-31.2924805,54.4072266 c-18.1351929-6.7568359-29.3364258-31.4707031-30.4033203-50.3172607 C602.6022949,1122.3378906,613.6257935,1113.9814453,623.2268066,1110.6035156z"/>
	<path class="st23" d="M665.3649902,1137.0947266c0,0,1.3692017-30.5800781-29.0341797-31.6473389 c-30.4033203-1.0664063-38.5820313,23.9656982-36.0927124,42.2080078 c2.4891968,18.243042,15.0742188,27.8671875,15.0742188,27.8671875s-1.0928345-14.7608643,4.8065796-18.5938721 c5.8999023-3.8310547,29.546875-11.4765625,39.8588867-29.2567139 C659.9777832,1127.6719971,664.7570801,1133.2822266,665.3649902,1137.0947266z"/>
	<path class="st23" d="M627.4578247,1133.8555908c-4.0054321,12.1785889-15.8823242,19.2128906-26.527832,15.7108154 c-10.6455078-3.5009766-16.0283813-16.2119141-12.0230103-28.3896484 c4.0054321-12.1777344,15.8823242-19.2119141,26.527832-15.7109375 C626.0803833,1108.9678955,631.4631958,1121.6787109,627.4578247,1133.8555908z"/>
	<path class="st11" d="M645.4924927,1186.6855469c0,0-2.5541992,23.484375-2.0205078,31.1298828 c0,0-13.3012695,13.3291016-28.4312134-15.5594482c0,0,6.3662109-11.9073486,1.574707-28.1329346 C611.8239746,1157.897583,645.4924927,1186.6855469,645.4924927,1186.6855469z"/>
	<polygon class="st11" points="643.4719849,1217.8154297 643.4719849,1229.9951172 628.1633911,1218.5557861 "/>
	<polygon class="st22" points="643.4719849,1229.9951172 637.1154785,1222.1269531 615.7053833,1200.7891846 608.7791138,1207.4580078 "/>
	<path class="st21" d="M612.7332153,1202.8300781c0,0,17.9672852,27.2675781,18.8256836,39.2685547 c0.8583984,12-6.6777954,101.7744141-12.7119141,130.6328125c-6.0341797,28.8575439-49.6397095-3.2547607-49.6397095-3.2547607 s29.3018188-47.4268799,18.0541992-85.4034424c-11.2475586-37.9746094-15.3353882-53.1582031-15.3353882-53.1582031 s3.8701172-21.1474609,17.5839233-24.1230469C601.5344849,1204.1826172,612.7332153,1202.8300781,612.7332153,1202.8300781z"/>
	<path class="st21" d="M682.5247192,1243.5048828c0,0,3.2421875,11.4677734-9.3838501,36.8144531 c0,0,0.2007446,32.4405518,0.5566406,42.5742188c0.3554688,10.1347656,2.7553711,48.4501953,2.7553711,48.4501953 l-12.4848633,7.3125c-2.515625,1.4736328-5.6293335-0.5693359-5.2788086-3.4627686 c3.5361938-29.1641846,15.0390625-139.7901611-9.8085938-169.5255127l9.9707031,2.9384766 C658.8513184,1208.6064453,676.5656738,1223.1025391,682.5247192,1243.5048828z"/>
	<path class="st11" d="M623.1740723,1150.4658203c-1.105957-2.8046875-4.8007813-3.5917969-6.934082-1.9912109 c-2.1337891,1.6005859-3.378418,6.4003906,0,12.6240234 C619.6179199,1167.3212891,631.5305176,1171.6591797,623.1740723,1150.4658203z"/>
	<polygon class="st24" points="651.2503052,1220.8857422 661.0515137,1223.59375 644.4959106,1196.9053955 "/>
	<polygon class="st24" points="637.1154785,1222.1269531 628.1633911,1233.8613281 609.7791138,1203.2216797 615.7053833,1200.7891846 "/>
	<path class="st25" d="M644.9661255,1191.8544922l-0.4399414,4.7109375c0,0-10.5728149,1.9775391-24.4072876-14.8974609 C620.1188965,1181.6679688,629.9251099,1193.6298828,644.9661255,1191.8544922z"/>
	<path class="st11" d="M699.3693848,1335.6259766c0,0,6.2167969,4.0050049,9.7944336,1.7666016 c3.0419922-1.9042969,8.3491821-2.1689453,9.9824829-2.2529297c2.1854858-0.1131592,8.7636108-2.9570313,8.9331055-0.203125 c0.1688843,2.7539063-10.6192017,5.2110596-12.7783203,6.1787109c-2.1591797,0.9677734,7.3486328,5.609375,8.418396,7.8261719 c1.0698242,2.2167969-7.5116577,17.5292969-13.668396,13.5878906 c-6.156311-3.9414063-10.1323853-12.2158203-11.3526001-12.6942139 c-1.2196655-0.4786377-4.5927734-2.6905518-4.5927734-2.6905518L699.3693848,1335.6259766z"/>
	<path class="st11" d="M581.2819824,1211.0684814c0,0,8.6298828-2.1427002,16.097229,5.8582764 c7.4677734,8,11.2011719,21.1572266,13.1571655,25.4249268c1.9556274,4.2666016,26.6694336,43.7373047,28.0917969,44.6268311 c1.4224243,0.8897705,26.5361328,21.1552734,37.9150391,32.0009766 c11.3793945,10.8457031,33.5595703,22.9384766,33.5595703,22.9384766l-8.3563843,11.734375 c0,0-67.3853149-35.9150391-75.9194946-49.0712891c-8.5341187-13.1582031-42.605896-49.6083984-42.605896-49.6083984 S562.880188,1224.3223877,581.2819824,1211.0684814z"/>
	<path class="st11" d="M722.4992676,1347.6826172c0,0,18.046936,13.3173828,18.5068359,15.2109375 c0.460022,1.8956299-0.3198242,2.8300781-2.059021,1.6542969c-1.7387695-1.1748047-17.809082-12.3623047-17.809082-12.3623047 s18.7113647,19.3525391,19.4271851,20.8212891c0.4194336,0.8614502-0.9823608,2.7607422-1.9716797,2.2177734 c-0.9887085-0.5419922-20.6312866-18.6621094-20.6312866-18.6621094s17.4379883,18.0996094,17.6698608,19.5068359 c0.2036133,1.2324219-1.5199585,2.6533203-2.9052734,1.4003906 c-1.3856812-1.2539063-18.5200195-17.1376953-18.5200195-17.1376953s11.8638306,13.9716797,11.3579102,15.2783203 c-0.3085938,0.7988281-1.4432983,2.4980469-4.3925781-1.203125c-2.9487305-3.7011719-10.821228-11.7011719-10.821228-11.7011719 L722.4992676,1347.6826172z"/>
	<path class="st17" d="M676.1126099,1273.960083c0,0,0.5957031,40.4959717-1.8760376,60.0262451l-1.0957031-53.6669922 L676.1126099,1273.960083z"/>
	<path class="st21" d="M585.7316895,1208.0976563c0,0,4.9146118,0.828125,12.381897,8.8291016 c7.4677124,8,11.2011108,21.1572266,13.1572266,25.4249268c1.9559937,4.2666016,26.6693726,43.7373047,28.0917969,44.6268311 c1.4227905,0.8897705,22.0023804,15.0214844,33.3812866,25.8671875 c11.3793945,10.8457031,32.5585938,23.8027344,32.5585938,23.8027344l-10.868103,16.1347656 c0,0-59.4257813-32.9130859-68.8510742-45.4462891c-10.0674438-13.3895264-45.9614258-52.6972656-45.9614258-52.6972656 S556.3527832,1218.835083,585.7316895,1208.0976563z"/>
	<path class="st15" d="M721.2731934,1435.2929688c0,0-2.3168945-9.0126953-5.2147827-10.3574219 c-2.8980103-1.3457031-2.2451172,1.9521484-2.2451172,1.9521484s-0.5894165-3.2714844-3.2861938-3.0888672 c-2.6962891,0.1817627-1.7236328,4.0029297-1.7236328,4.0029297s-1.1230469-2.3623047-3.6820679-1.2119141 c-2.5596313,1.1513672-1.0205078,4.1416016-1.0205078,4.1416016s-3.4594727-2.4667969-4.2915039,0.8945313 c-1.4047852,5.6748047,3.0014038,10.9287109,3.0014038,10.9287109s1.1831055,1.1640625,3.5668945-0.1132813 c0,0,2.7084961,3.0595703,5.847229-0.3535156c0,0,4.5595703,1.2305908,5.0048828-2.5908203 C717.2297974,1439.4970703,722.1624146,1440.5253906,721.2731934,1435.2929688z"/>
	<path class="st17" d="M626.2692871,1316.8164063l-20.343689-32.8242188c0,0,17.3457031,20.4814453,19.1533203,22.6796875 c1.8075562,2.1982422,1.9608765,2.359375,1.9608765,2.359375S626.5114746,1315.6982422,626.2692871,1316.8164063z"/>
	<path class="st11" d="M838.4348145,1395.9482422c0,0,1.4042969,6.3642578,3.8701782,12.8515625 c1.2020874,3.1641846,1.7963257,23.9238281,1.6748047,26.6103516c-0.1016235,2.2529297-1.5961914,0.9208984-2.359375-0.5634766 c-0.4375-0.8515625-1.7979126-8.0281982-3.1255493-11.84375c-1.1151733-3.2041016-2.0775757-4.4023438-2.6425781-3.3642578 c-0.5648804,1.0380859-1.5888062,14.3798828-0.3671875,20.0791016c1.222168,5.6992188-0.0516968,18.8339844-3.0521851,16.9355469 c-3.0010376-1.8973389-10.0220337-25.6533203-9.4317017-34.5986328c0.5908813-8.9462891,3.7890625-20.1601563,3.7890625-20.1601563 L838.4348145,1395.9482422z"/>
	<path class="st26" d="M835.6213989,1407.9766846c0,0,9.7904663-65.1016846,12.3886108-77.4737549 c1.1773071-5.6053467,4.4125977-19.5449219,6.4628906-30.9941406c0.6773071-3.7705078,1.2451172-7.6552734,1.7294922-11.4580078 c0.0025024-0.0087891-0.0004883-0.0146484-0.0004883-0.0146484c1.9234009-15.1844482,2.4151001-29.0351563,2.4151001-29.0351563 s8.4921875-38.9033203-16.0552368-41.3007813c0,0-6.5785522,2.0527344-6.9647827,4.7539063 c-1.4848633,10.397583-4.8726196,32.8769531-5.0161743,38.203125c-0.1171265,4.3271484-6.4677124,47.9776611-6.5599976,49.5224609 c-0.1802368,2.9980469-1.6514282,23.2178955-2.2510376,32.0928955 c-1.4013672,20.7283936-1.9296875,67.0858154-1.9296875,67.0858154L835.6213989,1407.9766846z"/>
	<path class="st27" d="M827.7927856,1685.4609375c0,0-9.4765625,10.5800781-19.097168,12.7958984 c-9.6201172,2.2167969-16.3500977,5.0449219-16.4224243,11.1162109 c-0.0722046,6.0704346,27.6860962,10.0712891,38.6958008,3.9511719 c16.4307251-9.1347656,18.1016235-6.3807373,19.9229126-10.9472656 c1.8217773-4.5664063-2.1879883-16.7753906-2.0698242-18.2285156 C848.9685059,1682.3544922,827.7927856,1685.4609375,827.7927856,1685.4609375z"/>
	<path class="st27" d="M924.4749146,1688.2197266c0,0-6.9707031,10.3066406-16.2954102,12.6826172 c-9.194397,2.34375-15.1524048,6.8046875-15.6030884,12.7060547c-0.4501953,5.9003906,21.6767578,13.6269531,37.2241821,3.2626953 c10.2163086-6.8105469,14.0249023-6.4238281,16.0834961-10.75c2.0576172-4.328125-1.078186-16.4560547-0.8720703-17.8603516 C945.2669067,1686.5244141,924.4749146,1688.2197266,924.4749146,1688.2197266z"/>
	<path class="st28" d="M828.8582153,1680.3994141c0,0-1.2515259,4.9560547-1.0654297,5.0615234 c0.1860352,0.1044922,21.6791992,2.6660156,21.0292969-1.3125c-0.5269165-3.2255859-1.2792969-6.7304688-1.2792969-6.7304688 L828.8582153,1680.3994141z"/>
	<path class="st28" d="M924.7600098,1683.1240234c0,0-0.4594116,4.9824219-0.2850952,5.0957031 c0.1742554,0.1142578,20.6591797,3.9667969,20.5371094,0.0410156c-0.0967407-3.1181641-1.2979126-6.9980469-1.2979126-6.9980469 L924.7600098,1683.1240234z"/>
	<path class="st29" d="M848.4011841,1383.6865234c0,0-7.8178711,75.9111328-11.8828735,101.8985596 c-4.7529297,30.383667-6.3646851,55.4881592-7.6899414,71.2147217 c-1.6669922,19.7802734-1.9892578,117.0811768-3.15625,122.8652344 c-1.1669312,5.7832031,25.8916016,1.5976563,25.8916016,1.5976563s13.3115845-127.1357422,18.2774048-148.2011719 c4.6239624-19.6152344,21.784668-104.0644531,26.0033569-98.7080078 c4.2192383,5.3565674,9.4506836,98.5498047,12.5751953,114.0205078 c3.1245117,15.4697266,12.6279297,136.5830078,12.6279297,136.5830078s21.5357056,4.2880859,27.2631836-0.5594482 c0,0,2.6074219-104.375,0.6162109-133.3790283c-0.7578125-11.0537109,12.9511719-132.5322266-4.6279297-181.4375 C935.0090942,1343.7363281,848.4011841,1383.6865234,848.4011841,1383.6865234z"/>
	<path class="st30" d="M982.3742676,1394.4639893c0,0-13.1796875,4.0018311-18.6981812,2.9881592 c-5.5263672-1.0126953-2.7294922-68.7392578-2.9483032-82.8320313c-0.1669922-11.4306641-6.421875-41.609375-6.421875-41.609375 s0,0.0175781-0.0087891,0.0507813c-0.008728,0.0078125-0.008728,0.0253906-0.008728,0.0332031 c0,0.0175781-0.0078735,0.0341797-0.0078735,0.0507813c-0.6191406,2.2607422-9.0605469,33.578125-9.3535156,48.6259766 c-0.3095093,15.6173096,2.0352173,75.3544922,2.0352173,75.3544922l-20.9761353,9.8808594l-72.5327148,2.0859375 l-10.5678711,0.1582031c0,0,1.6665039-35.4119873,2.2861938-47.5449219 c0.3847046-7.7127686,1.883728-21.5205078,1.4984741-34.96875c0,0,0.2432251-14.1767578-1.1635742-20.28125 c-0.1508789-26.946167-1.7836914-53.633667-1.7836914-53.633667c-0.9042969-12.2167969-1.5327148-23.6387939-1.8925171-34.2979736 c2.9476929-1.5585938,6.4896851-3.3828125,9.328125-4.7314453c8.7758789-4.1787109,21.0014038-9.8056641,28.8475952-13.4072266 c4.5966797-2.1092529,9.093811-3.6503906,9.093811-3.6503906s31.359375-3.0058594,33.9047852-2.8465576 c0.8041992,0.0496826,4.7225952,1.414917,9.8637085,3.375c11.1210938,4.2196045,32.5576782,12.8114014,35.9736938,15.2645264 c5.0078125,3.5839844,15.5927124,88.7608643,16.0692749,94.7236328 C985.7736816,1317.9951172,982.3742676,1394.4639893,982.3742676,1394.4639893z"/>
	<path class="st11" d="M922.8449707,1193.8212891c-2.3036499,21.1347656-25.7728882,21.1347656-25.7728882,21.1347656 s-9.7128906-8.4970703-9.4042969-14.7871094c0.0078125-0.1347656,0.015625-0.2773438,0.0346069-0.4090576 c0.1425781-1.1573486,1.4545898-2.5968018,1.5899048-4.9161377c0.0194702-0.3164063,0.0267944-0.640625,0.0346069-0.9609375 c0.0078125-0.3125,0.0078125-0.6289063,0.0078125-0.9414063c-0.0078125-1.6054688-0.1000977-3.1914063-0.1928101-4.2949219 c-0.034729-0.3857422-0.0654907-0.7177734-0.0928345-0.9765625c-0.0385742-0.3895264-0.0653687-0.6132813-0.0653687-0.6132813 s3.7855835-3.9863281,8.5897827-8.7363281c8.4008789-8.3046875,19.9541016-18.9472656,19.9736328-14.7177734 c0,0.2237549-0.0350952,0.4941406-0.1005249,0.8028564 C915.4168091,1173.9326172,922.8449707,1193.8212891,922.8449707,1193.8212891z"/>
	<path class="st31" d="M920.6511841,1368.3721924c0,0,1.8999023,11.9813232,2.0649414,15.1044922l4.0263672-0.803833 c0,0-1.1088867-12.6767578-1.7612915-14.8006592L920.6511841,1368.3721924z"/>
	<path class="st32" d="M986.5422974,1438.1455078c0,0-1.2305298-16.7978516-5.7227173-19.3397217 c-4.4921875-2.5430908-1.8388672,2.6190186-1.8388672,2.6190186s2.6845703,12.1641846,3.3115845,17.0977783 C982.3225098,1438.7626953,986.5422974,1438.1455078,986.5422974,1438.1455078z"/>
	<polygon class="st32" points="942.1594849,1450.0039063 1001.3557129,1432.2421875 1002.2835083,1505.4639893 943.6536255,1541.8115234 "/>
	<polygon class="st32" points="943.6536255,1541.8115234 951.1223145,1543.0751953 1008.1281738,1506.4208984 1006.3010864,1432.5059814 1001.3557129,1432.2421875 "/>
	<path class="st33" d="M906.8405762,1206.2617188l-9.7689819,8.6943359c0,0,11.2767944-0.75,13.3842163-2.6289063 L906.8405762,1206.2617188z"/>
	<path class="st29" d="M844.8986816,1397.8662109c0,0,45.8926392,3.9072266,86.0864258,0v13.1884766 c0,0-60.3632202,8.7158203-88.0996094-2.5155029L844.8986816,1397.8662109z"/>
	<path class="st26" d="M880.0061035,1200.3857422c-2.5371094,1.1650391-5.5350952,2.5380859-8.7172852,4.0118408 c-6.6738281,3.0819092-14.1932983,6.5731201-20.1303101,9.3953857c-3.1480103,1.4990234-7.0458984,3.2607422-10.0606079,4.5341797 c0.3516235,10.8349609,0.8779907,22.4580078,1.7988892,34.9013672c0,0,0.8685913,30.3886719,2.618103,59.2149658 c0.5947266,4.1278076,0.8959961,8.3485107,0.5610962,12.6688232c-0.4356079,5.6357422-1.046875,11.7900391-1.7836914,18.2128906 c-0.0083008,0.0839844-0.0166016,0.1680908-0.0253906,0.2432861c-0.1757813,1.5233154-0.3599243,3.055542-0.5440063,4.6053467 c0,0.0244141-0.0083008,0.0419922-0.0083008,0.0673828c-3.9022827,32.1123047-10.5092163,68.9561768-13.9594116,80.1025391 c-0.7280884,2.3271484,1.7841187,4.4794922,3.5756226,6.1368408l12.5523071,7.9129639 c0,0,5.175293-47.6375732,6.8916016-63.8066406c1.6582031-15.6083984,6.875-36.5351563,9.1610718-56.9238281v-0.0087891 c2.8970337-25.8662109,6.8858032-51.2108154,9.0375977-66.2666016 c5.6021118-39.1972656,13.0664063-56.7362061,13.0664063-56.7362061L880.0061035,1200.3857422z"/>
	<path class="st26" d="M959.770813,1315.2607422c0.9716797,13.0791016-4.5615234,85.4453125,0.9598999,86.4638672 c5.5205078,1.0126953,25.8115845-3.4453125,25.8115845-3.4453125s2.5438843-78.0400391,1.7294922-86.2207031 c-0.593811-5.9550781-10.0742798-95.2685547-15.0791016-98.8554688 c-2.8897095-2.0751953-24.3106079-9.6669922-34.8203735-13.8095703c-1.921814-0.7597656-3.7822266-1.4814453-5.5039063-2.133667 c-2.2294922,2.4803467-25.875,46.2244873-27.7211914,81.7723389c-0.5620117,10.8222656,1.9732056,33.6690674,3.9024048,52.3349609 c2.0580444,19.9140625,4.3374023,35.4560547,6.0077515,52.1094971c3.2915039,32.8104248,5.593811,58.9178467,5.593811,58.9178467 l32.6538086-14.5380859c5.2841187-2.6445313,12.6015015-13.4902344,10.6141968-19.0546875 c-7.5487671-21.1435547-17.0546875-57.2675781-17.0643921-75.821167c0,0,3.6416016-45.4307861,6.5292969-55.4171143 C953.3840942,1277.5634766,958.5335083,1298.6328125,959.770813,1315.2607422z"/>
	<path class="st11" d="M965.8547974,1400.8701172c0,0-1.6143188,7.2940674-3.7891235,14.5938721 c-2.1727905,7.3006592-4.2411499,9.649292-3.2626953,13.7996826c0.7383423,3.1308594,4.3301392,5.4365234,5.2119141,4.4160156 c0.8828125-1.0224609,1.1328125-13.2470703,6.1973267-13.2666016c5.0634766-0.0195313-1.2861328,15.1542969,1.7098999,14.0019531 c2.9970703-1.1523438,14.5029907-7.6816406,13.6806641-13.8299561c-0.8231812-6.1485596-5.531189-10.5274658-5.3710938-19.7325439 c0.1445313-8.3505859-2.5078125-11.7967529-2.5078125-11.7967529L965.8547974,1400.8701172z"/>
	<path class="st32" d="M969.7033691,1419.9072266c0,0-6.7147827,1.8242188-5.9716797,24.6230469l7.6143188-1.3886719 c0,0-0.3291016-12.602417,1.8466797-19.5048828C973.192688,1423.6367188,972.7365723,1419.1807861,969.7033691,1419.9072266z"/>
	<path class="st26" d="M958.9104004,1351.8457031l0.335022,57.5126953c0,0,11.477478-0.5107422,27.296875-6.352417 l1.0966187-81.1026611L958.9104004,1351.8457031z"/>
	<path class="st30" d="M886.3953247,1207.7978516c0,0-0.8374023,12.0019531,9.3153687,12.28125 c10.1533203,0.2792969,18.2128906-9.4696045,18.2128906-9.4696045l-16.8519897,4.3465576l-10.2578735-8.6943359 L886.3953247,1207.7978516z"/>
	<path class="st34" d="M921.4885864,1189.8682861c0,0-9.6235962,12.3465576-14.6480103,16.3934326l8.234436,13.8173828 l14.2041016-24.1601563L921.4885864,1189.8682861z"/>
	<path class="st33" d="M888.3840942,1208.5303955l8.6875,6.4256592c0,0-7.6309204-13.9179688-7.7817993-20.1142578 L888.3840942,1208.5303955z"/>
	<polygon class="st34" points="889.2897949,1194.8417969 883.7141113,1198.7822266 877.498291,1217.3223877 888.3840942,1208.5303955 "/>
	<path class="st35" d="M844.3518066,1290.6973877c0,0,2.468811,21.3973389,1.1660767,40.9248047 c-1.3023071,19.5253906-6.6397095,50.7469482-6.6397095,50.7469482S838.8289185,1313.8564453,844.3518066,1290.6973877z"/>
	<path class="st11" d="M861.6546021,1132.9726563c0,0-6.1275024,14.9091797-2.1245117,16.7070313 c3.3071289,1.4853516-2.0053711,16.0439453-2.6528931,18.3994141c-0.6478882,2.3555908,6.0562134,3.3125,7.5961914,4.6221924 c1.5396118,1.3104248,7.5366211,18.7938232,12.972229,18.7684326 c5.4354858-0.0253906,28.7860718-11.0018311,34.6640015-18.5576172c5.878479-7.5556641,8.034668-39.1191406,2.2548828-51.7294922 C908.5852051,1108.5723877,872.494873,1106.9130859,861.6546021,1132.9726563z"/>
	<path class="st36" d="M860.4567871,1136.1894531c0,0-9.3710938-14.4208984,3.5518188-27.2088623 c12.9223022-12.7871094,41.0288086,4.3164063,44.0404663,4.7645264 c3.012207,0.4483643,20.6670532,4.2207031,14.7958984,31.0811768c-5.227478,23.9188232-5.727478,24.5458984-5.727478,24.5458984 s-7.012207-12.6466064-10.2958984-14.5411377c-5.1289063-2.9580078-15.4887695-1.0292969-15.4887695-1.0292969 s3.5883789-13.7392578-4.3877563-14.7929688C878.9689941,1137.9560547,868.0203247,1132.4404297,860.4567871,1136.1894531z"/>
	<path class="st11" d="M898.8245239,1145.3623047c0.4955444-1.8847656,1.8949585-9.9082031,9.0614624-6.0360107 c7.1665039,3.8719482-2.140564,19.6971436-3.2860718,20.0087891 C903.4544067,1159.647583,894.6546021,1161.2246094,898.8245239,1145.3623047z"/>
	<path class="st25" d="M911.1838989,1173.9873047c-0.1621094,0.4042969-5.4951782,13.359375-21.8569946,19.8955078 c0.0078125-0.3125,0.0078125-0.6289063,0.0078125-0.9414063c-0.0078125-1.6054688-0.1000977-3.1914063-0.1928101-4.2949219 c-0.034729-0.3857422-0.0654907-0.7177734-0.0928345-0.9765625 C889.0490723,1187.6699219,906.6262207,1179.4082031,911.1838989,1173.9873047z"/>
	<rect x="261.6824036" y="304.421936" class="st5" width="121.8176041" height="126.9266968"/>
</svg>