<?xml version="1.0" encoding="utf-8"?>
<!-- Generator: Adobe Illustrator 27.3.1, SVG Export Plug-In . SVG Version: 6.00 Build 0)  -->
<svg version="1.1" id="Слой_1" xmlns="http://www.w3.org/2000/svg" xmlns:xlink="http://www.w3.org/1999/xlink" x="0px" y="0px"
	 viewBox="0 0 574.2999878 783" style="enable-background:new 0 0 574.2999878 783;" xml:space="preserve">
<style type="text/css">
	.st0{fill:#F0F0F0;}
	.st1{opacity:0.5;fill:#D4D4D4;enable-background:new    ;}
</style>
<rect class="st0" width="574.2999878" height="783"/>
<path id="icon-noimage" class="st1" d="M107,257.8999939c3-2.5,7.1999969-2.3999939,11-2.5
	c92.8999939,0,185.7000122,0.1000061,278.6000061,0c5.7000122,0.1000061,11.5-0.5,17,0.8999939
	c4.7000122,1.3999939,6.5,6.6000061,6.6000061,11c0.2000122,6.7999878,0.2000122,13.7000122,0,20.5
	c-7.2999878,0-14.6000061,0.1000061-21.8999939-0.1000061c-0.1000061-3.3999939,0-6.7999878-0.2000122-10.2999878
	c-17.7000122-0.6000061-35.2999878-0.1000061-53-0.2999878c-63,0-126.1000061,0.1000061-189.1000061,0
	c-10.1999969,0.2000122-20.3999939-0.3999939-30.5,0.2999878c-0.3000031,63.1000061-0.0999985,126.1999817-0.1999969,189.3000183
	C128.9000092,466.9000244,132.5,466.6000061,136,466.9000244c0.1000061,7.2000122,0.1000061,14.6000061,0,21.7999878
	c-4.6999969,0.2000122-9.5,0-14.3000031,0.1000061c-4.1999969-0.1000061-8.5999985,0.2999878-12.5999985-1.2000122
	C105.6999969,486.7000122,104,483,103.5,479.7000122c-0.8000031-5.3999939,0-11-0.0999985-16.3999939
	C103.3000031,398.5,103.5,333.6000366,103.3000031,268.7000122C103.4000015,264.8999939,104,260.7000122,107,257.8999939z
	 M164.3000031,306.7000122c1.6999969-0.2999878,3.3999939-0.2999878,5.1000061-0.2999878c95.5000153,0,191.0000153,0,286.5,0
	c4.3999939,0.1000061,9.2999878,0.2999878,12.7000122,3.6000061c2.2999878,2.8999939,2.2999878,6.7999878,2.3999939,10.3999939
	c-0.1000061,66.5-0.1000061,132.8999939,0,199.2999878C470.8000183,525.2999878,472.1000366,531.5,468.9000244,536.5
	c-2.7999878,3.7999878-8,3.7999878-12.2000122,3.9000244c-96.5-0.2000122-193.1000061,0-289.6000061-0.0999756
	c-3.3999939-0.2000122-7.1999969-0.5-9.6999969-3.0999756c-2.6000061-3.0999756-3-7.4000244-3.1000061-11.2999878
	c0-68.2000122,0-136.3999939,0-204.6000061c0.1000061-3.7000122,0.3999939-7.7999878,2.8000031-10.8999939
	C158.6999969,307.8999939,161.6000061,307.1000061,164.3000031,306.7000122 M176.1999969,329
	c-0.5,22.2000122-0.1000061,44.3999939-0.1999969,66.7000122c0.1000061,40.7999878-0.3000031,81.6000061,0.1999969,122.4000244
	c88.6999969,0.4000244,177.5000153,0,266.2999878,0.2000122c2.2999878,0.0999756,4.5,0,6.7999878-0.2999878
	c0.5-19.5,0.1000061-38.8999939,0.2000122-58.3999939c0-43.6000061,0.2000122-87.1999817-0.2000122-130.6999817
	c-86-0.3999939-172.1000061,0-258.1000061-0.2000122C186.1999969,328.7999878,181.1999969,328.5,176.1999969,329z M247.3000031,365
	c7.3000031,0,14.8000031,3.1000061,19.4999847,8.7999878c8.2999878,9.5,8.3999939,25.1000061-0.2000122,34.3999939
	c-9,10.7999878-27.3000031,11.2999878-37.1999969,1.2999878c-10.1999969-9.7000122-10-27.8999939,0.1999969-37.5
	C234.5,367.7999878,240.8000031,365,247.3000031,365z M333.2000122,389.2000122
	c2.2999878-3.6000061,4.3999939-7.3999939,7.5-10.3999939C352.6000061,396.3000183,365,413.5000305,377,430.9000244
	c0.8999939,1.2000122,2,2.2999878,3.1000061,3.2999878c6.6000061-9.2999878,13-18.7999878,20.1000061-27.7000122
	c5.6000061,14.2000122,9.7999878,28.7999878,14.8999939,43.1000061c4.3999939,13.7999878,9.5,27.2000122,13.5,41.1000061
	c-77.1000061,0.1000061-154.1000061,0-231.1999969,0.1000061c2.1999969-11.5,9.1000061-22,18.8000031-28.6000061
	c8.6000061-5.5,18.3999939-9.1000061,28.6000061-10.2999878c14-1.2000122,28,0.6000061,42,1.6000061
	c2.7000122,0.2999878,5.7999878-0.3999939,7.2000122-3C307.1000061,429.8999939,320.1000061,409.6000061,333.2000122,389.2000122z"
	/>
</svg>
