<?xml version="1.0" encoding="utf-8"?>
<!-- Generator: Adobe Illustrator 27.3.1, SVG Export Plug-In . SVG Version: 6.00 Build 0)  -->
<svg version="1.1" id="Слой_1" xmlns:xodm="http://www.corel.com/coreldraw/odm/2003"
	 xmlns="http://www.w3.org/2000/svg" xmlns:xlink="http://www.w3.org/1999/xlink" x="0px" y="0px" viewBox="0 0 2663 1405"
	 style="enable-background:new 0 0 2663 1405;" xml:space="preserve">
<style type="text/css">
	.st0{opacity:0.18;fill-rule:evenodd;clip-rule:evenodd;fill:#FAFAFA;}
	.st1{opacity:0.4;}
	.st2{fill:#DEDEDE;}
</style>
<g id="Слой_x0020_1">
	<rect x="6.3861799" y="4.6587791" class="st0" width="2656.6137695" height="1392.7050781"/>
	<g class="st1">
		<path class="st2" d="M1085.2436523,496.5259705c4.1973877-4.3926392,10.835083-4.0997925,16.4967041-4.1974182
			c131.4862061,0,262.9724121,0,394.3609619,0c6.1496582,0.0976257,12.3969727-0.6832886,18.3514404,1.073761
			c6.4425049,2.0498962,8.8829346,9.3709717,9.078125,15.5206604c0.2928467,9.5661621,0,19.1323242,0,28.6008911h-30.6507568
			c0.1951904-4.8806763-0.0976562-9.6637573-0.0976562-14.4468384c-22.8416748-0.87854-45.6834717-0.1952515-68.5251465-0.3905029
			c-101.8115234,0-203.6229248,0-305.5321045,0c-2.2451172,0-4.3925781,0.1952515-6.6376953,0.3905029
			c-0.2928467,88.1455078,0,176.1934204-0.0976562,264.3389282l15.0325928-0.0975952v30.7484131h-25.3796387
			c-4.9783936-0.0975952-10.4447021,0.2928467-14.8374023-2.4403076
			c-5.4664307-4.1974487-5.8568115-11.7136841-5.7591553-18.0586548
			c0.5855713-12.2017212,0.2927246-24.4035034,0.2927246-36.6052856
			c-0.0975342-80.7268066,0.0976562-161.4536743-0.0975342-242.180542
			C1081.4366455,511.3633118,1079.8748779,502.6756592,1085.2436523,496.5259705z M1161.5778809,564.855835
			c3.3188477-1.3665771,7.0281982-1.5618286,10.5422363-1.5618286c133.8289795,0,267.6578369,0,401.4868164,0
			c5.9544678,0,12.5921631,0.4880981,17.0823975,4.6854858c3.4165039,3.8069458,3.2213135,9.3709717,3.5141602,14.1540527
			c-0.1951904,80.8244629-0.0976562,161.5513306-0.0976562,242.2781982
			c0.0976562,15.0325317-0.1951904,29.9674683,0.1953125,45.000061c0,6.2473145,0.0975342,14.0564575-5.8569336,17.8634033
			c-6.7353516,3.5140991-14.6420898,2.2451172-21.8654785,2.4403076c-132.4624023-0.0975952-264.8270264,0-397.2894287,0
			c-5.1734619-0.2927856-11.4207764-1.0737305-14.2515869-6.052063c-3.7093506-6.3449097-2.9284668-14.0563965-2.9284668-21.182251
			c0-93.416687,0-186.833374,0-280.3476562C1152.0115967,575.3005371,1154.3543701,567.1985474,1161.5778809,564.855835
			L1161.5778809,564.855835z M1182.7601318,595.1162109c-0.2928467,34.164917-0.0976562,68.329834-0.0976562,102.494812
			c0.1951904,53.7853394-0.3905029,107.5707397,0.1951904,161.3560791c125.6293945,0.2928467,251.1611328,0,376.6928711,0.0975952
			c1.4641113-0.2928467,5.0759277,0.6832886,4.5877686-1.9522705c0.1953125-15.130188,0.0976562-30.260376,0.0976562-45.2929077
			c-0.1951904-72.4296875,0.2928467-144.7617188-0.1951904-217.09375c-125.0437012-0.3905029-249.9897461,0-374.935791-0.1952515
			C1186.9575195,594.5305176,1184.8099365,594.8233643,1182.7601318,595.1162109z M1272.8579102,646.4612427
			c12.2993164-3.5140991,26.4533691,0.1951904,35.2386475,9.5661621
			c12.4946289,12.6898193,13.4708252,34.8482056,1.9522705,48.4165649
			c-11.8112793,15.7158813-37.2885742,17.1801147-51.6378174,4.1974487
			c-15.7158203-13.3731689-15.8134766-39.8265991-0.9761963-53.8829956
			C1261.9251709,650.9514771,1267.0986328,647.7302246,1272.8579102,646.4612427z M1408.3463135,669.107666
			c1.2689209-1.757019,2.7331543-3.2212524,4.2949219-4.7830811c15.4230957,23.3297729,32.0174561,45.9762573,47.9285889,69.0131836
			c1.9522705,3.026062,3.904541,6.2473145,6.930542,8.4924316c9.078125-13.1779175,18.2539062-26.355835,28.112915-39.0456543
			c7.6138916,20.0109253,13.6658936,40.5098267,20.791748,60.7160034
			c6.052124,19.1323242,13.1779785,37.9718628,18.8395996,57.2018433c-107.668335-0.0976562-215.2391357-0.0976562-322.9074707,0
			c3.3188477-16.6920166,13.4707031-31.8222046,27.8200684-40.9979248
			c11.8112793-7.4187012,25.3796387-12.104187,39.2408447-13.6659546
			c17.3752441-1.1713867,34.6529541,0.5856323,51.9306641,2.0498657c5.3687744,0.1952515,12.982666,2.2451172,15.9111328-3.8069458
			C1367.5435791,732.5568237,1387.7496338,700.7346802,1408.3463135,669.107666z"/>
	</g>
</g>
</svg>
