<?xml version="1.0" encoding="utf-8"?>
<svg version="1.1" id="Слой_1" xmlns="http://www.w3.org/2000/svg" xmlns:xlink="http://www.w3.org/1999/xlink" x="0px" y="0px" viewBox="0 0 574.3 783">
<style type="text/css">
	.st0{fill:#D4D4D4;opacity:.5}
</style>
<path id="icon-noimage" class="st0" d="M107,257.9c3-2.5,7.2-2.4,11-2.5c92.9,0,185.7,0.1,278.6,0c5.7,0.1,11.5-0.5,17,0.9 c4.7,1.4,6.5,6.6,6.6,11c0.2,6.8,0.2,13.7,0,20.5c-7.3,0-14.6,0.1-21.9-0.1c-0.1-3.4,0-6.8-0.2-10.3c-17.7-0.6-35.3-0.1-53-0.3 c-63,0-126.1,0.1-189.1,0c-10.2,0.2-20.4-0.4-30.5,0.3c-0.3,63.1-0.1,126.2-0.2,189.3c3.6,0.2,7.2-0.1,10.7,0.2 c0.1,7.2,0.1,14.6,0,21.8c-4.7,0.2-9.5,0-14.3,0.1c-4.2-0.1-8.6,0.3-12.6-1.2c-3.4-0.9-5.1-4.6-5.6-7.9c-0.8-5.4,0-11-0.1-16.4 c-0.1-64.8,0.1-129.7-0.1-194.6C103.4,264.9,104,260.7,107,257.9z M164.3,306.7c1.7-0.3,3.4-0.3,5.1-0.3c95.5,0,191,0,286.5,0 c4.4,0.1,9.3,0.3,12.7,3.6c2.3,2.9,2.3,6.8,2.4,10.4c-0.1,66.5-0.1,132.9,0,199.3c-0.2,5.6,1.1,11.8-2.1,16.8 c-2.8,3.8-8,3.8-12.2,3.9c-96.5-0.2-193.1,0-289.6-0.1c-3.4-0.2-7.2-0.5-9.7-3.1c-2.6-3.1-3-7.4-3.1-11.3c0-68.2,0-136.4,0-204.6 c0.1-3.7,0.4-7.8,2.8-10.9C158.7,307.9,161.6,307.1,164.3,306.7 M176.2,329c-0.5,22.2-0.1,44.4-0.2,66.7 c0.1,40.8-0.3,81.6,0.2,122.4c88.7,0.4,177.5,0,266.3,0.2c2.3,0.1,4.5,0,6.8-0.3c0.5-19.5,0.1-38.9,0.2-58.4 c0-43.6,0.2-87.2-0.2-130.7c-86-0.4-172.1,0-258.1-0.2C186.2,328.8,181.2,328.5,176.2,329z M247.3,365c7.3,0,14.8,3.1,19.5,8.8 c8.3,9.5,8.4,25.1-0.2,34.4c-9,10.8-27.3,11.3-37.2,1.3c-10.2-9.7-10-27.9,0.2-37.5C234.5,367.8,240.8,365,247.3,365z M333.2,389.2 c2.3-3.6,4.4-7.4,7.5-10.4c11.9,17.5,24.3,34.7,36.3,52.1c0.9,1.2,2,2.3,3.1,3.3c6.6-9.3,13-18.8,20.1-27.7 c5.6,14.2,9.8,28.8,14.9,43.1c4.4,13.8,9.5,27.2,13.5,41.1c-77.1,0.1-154.1,0-231.2,0.1c2.2-11.5,9.1-22,18.8-28.6 c8.6-5.5,18.4-9.1,28.6-10.3c14-1.2,28,0.6,42,1.6c2.7,0.3,5.8-0.4,7.2-3C307.1,429.9,320.1,409.6,333.2,389.2z"/>
</svg>
