<?xml version="1.0" encoding="utf-8"?>
<svg version="1.1" xmlns="http://www.w3.org/2000/svg" xmlns:xlink="http://www.w3.org/1999/xlink" viewBox="0 0 121.5 96.5">
<style type="text/css">
	.st0{fill:#00CCFF;}
	.st1{fill:#D4302D;}
	.st2{fill:#FFDD00;stroke:#000000;stroke-width:2.8346;stroke-miterlimit:22.9256001;}
	.st3{fill:#212B38;}
	@keyframes roll1 {100% {transform: rotate(360deg);}}
	@keyframes roll2 {100% {transform: rotate(-360deg);}}
	#bgear {animation: roll1 15s infinite linear; transform-origin: center; transform-box: fill-box;}
	#mgear {animation: roll2 15s infinite linear;transform-origin: center;transform-box: fill-box;}
</style>
<path id="bgear" class="st0" d="M35.4847984,36.6690369c0.1284027,0.0227013,0.2420998,0.0918007,0.3552017,0.1536026 c1.8847008,1.0992966,3.7820015,2.1767998,5.6641998,3.2799988c0.1657982,0.0858994,0.2425995,0.2965012,0.1743011,0.4696999 c-0.3572006,1.1196976-0.7383995,2.2322998-1.1052017,3.3497009c-0.1162987,0.3630981-0.2727013,0.7222977-0.2888985,1.1088982 c-0.0213013,0.5993004,0.1735001,1.1962013,0.5062981,1.6917c0.3554001,0.533802,0.6627007,1.097599,0.9978027,1.6439018 c0.2768974,0.4748001,0.4982986,1.0081978,0.9398994,1.3591995c0.4078979,0.3131981,0.8892975,0.5373993,1.3969994,0.6280975 c1.2142982,0.2251015,2.4216003,0.4862022,3.6337013,0.7240028c0.2486,0.0421982,0.4237976,0.2941971,0.4177971,0.5396996 c0.0286026,2.1097984,0.0581017,4.2198982,0.0932999,6.3297997c0.0048027,0.3264999-0.185997,0.6865005-0.5053978,0.7965012 c-1.0049019,0.206398-2.0121002,0.3983002-3.0155029,0.6122971c-0.6743965,0.1436996-1.3883972,0.2642021-1.950798,0.6935997 c-0.3011017,0.2152023-0.5097008,0.5287018-0.6826019,0.8501015c-0.5065994,0.8757019-1.0159988,1.7500992-1.5136986,2.6309013 c-0.3537979,0.6272964-0.2900009,1.3915024-0.0881996,2.0570984c0.3473015,1.1137009,0.7276993,2.2161026,1.101799,3.3212967 c0.0419998,0.1341019,0.1032028,0.264801,0.1197014,0.4062042c-0.0070992,0.3115997-0.1999016,0.6085968-0.4760017,0.7518005 c-1.8401985,1.0230026-3.6787987,2.0499954-5.5167999,3.0775986c-0.2059975,0.1227036-0.5067978,0.0943985-0.6626968-0.0955963 c-0.7228012-0.8161011-1.4488029-1.629303-2.1626015-2.4531021c-0.2127991-0.2387009-0.4042015-0.4989014-0.6562004-0.6987 c-0.4832993-0.4122009-1.103199-0.7005005-1.7483997-0.6786041c-0.7557011,0.0214996-1.5111008,0.0093002-2.2663002-0.010498 c-0.2765999-0.0034027-0.5533009-0.0376968-0.8302002-0.0169983c-0.483099,0.0319977-0.9664001,0.1715012-1.3696995,0.4435959 c-0.3311005,0.2262039-0.5599003,0.5607071-0.8274994,0.8518066c-0.770401,0.8375931-1.5089016,1.7041931-2.2782001,2.5434952 c-0.1168003,0.1500015-0.3432999,0.1902008-0.5023003,0.0854034c-1.8430996-1.0497055-3.6731014-2.1222992-5.5142002-3.175705 c-0.1874008-0.115097-0.4187012-0.2043991-0.5235996-0.4113007c-0.0360012-0.1490936,0.0178986-0.300499,0.0611992-0.4413986 c0.4127998-1.2304993,0.8139-2.4646988,1.2299995-3.6942978C17.9375,64.6705399,17.7597008,63.862339,17.368,63.2259369 c-0.3936996-0.5965996-0.7432003-1.2206001-1.1126003-1.8325996c-0.2528-0.4430008-0.4679995-0.9294014-0.8704996-1.2613983 c-0.5009003-0.4107018-1.1296005-0.6242027-1.7643003-0.7126007c-1.099-0.2098007-2.1928997-0.4439011-3.2901993-0.661602 c-0.2491007-0.0402985-0.4286003-0.2961998-0.4189005-0.5422974c-0.0267-2.1098022-0.0629997-4.219902-0.0916004-6.3300018 c-0.0044994-0.3307991,0.1905003-0.6936989,0.5170002-0.7996979c1.1845999-0.2316017,2.3692007-0.4651031,3.5485001-0.7245026 c0.7242002-0.1431999,1.4813004-0.4512978,1.8935003-1.0984001c0.4955006-0.8353996,0.9745007-1.6795998,1.4610004-2.5200005 c0.1723003-0.3052979,0.3766994-0.6037979,0.4455986-0.9532967c0.1261005-0.5837021,0.0142002-1.1906013-0.175499-1.7476006 c-0.3651009-1.1497002-0.7567997-2.2912025-1.1462994-3.4322014c-0.0482006-0.3237,0.1549988-0.656498,0.4305992-0.8185997 c1.8425007-1.0279007,3.6877995-2.0514984,5.5270004-3.0854988c0.2122993-0.1327019,0.5254993-0.1151009,0.6907997,0.0846977 c0.7922001,0.9062996,1.5995998,1.7997017,2.3832989,2.7136002c0.3753014,0.4601021,0.8768005,0.8265991,1.4429016,1.013401 c0.5110989,0.1585007,1.0501995,0.0779991,1.5756989,0.0890007c0.6431999,0.0149994,1.2870007,0.0030975,1.9290009,0.0439987 c0.7335987,0.032299,1.5142994-0.1848984,2.0273991-0.7324982c0.9014015-1.0046005,1.7923012-2.0177002,2.6934013-3.0223007 C35.1733017,36.7821388,35.3084984,36.624836,35.4847984,36.6690369L35.4847984,36.6690369L35.4847984,36.6690369z  M32.1436005,47.4438362c-1.6879997-0.7075996-3.6182003-0.8089981-5.3725014-0.2893982 c-1.6332989,0.4733009-3.1084995,1.478199-4.1396999,2.8308983c-1.0085983,1.304203-1.6012993,2.9239998-1.6707993,4.5706024 c-0.0818996,1.7693977,0.4391003,3.5592003,1.4573002,5.0084991c1.3215008,1.9054985,3.5002003,3.1833,5.8087997,3.405899 c2.0727005,0.2171021,4.2173996-0.4104996,5.8464012-1.7098999c1.8218994-1.4318008,2.9696007-3.6778984,3.0569-5.9932976 c0.0790977-1.782402-0.4538002-3.5847015-1.4896011-5.0369034C34.7672997,48.9980392,33.5399017,48.0195389,32.1436005,47.4438362z" />
<path id="mgear" class="st0" d="M74.2817001,21.6683369c0.2145996-0.0781994,0.4481964-0.0730991,0.6741028-0.0781994 c3.8238983,0.0167007,7.6478958-0.0105,11.4720993,0.0144997c0.3267975-0.0144997,0.6278992,0.2375011,0.6757965,0.5604 c0.4395981,2.0125999,0.8356018,4.0354004,1.2583008,6.0534c0.1417007,0.653101,0.2188034,1.3353996,0.5335007,1.9363003 c0.4925995,0.9281006,1.3115997,1.6637001,2.2509995,2.1239986c1.0074005,0.4989014,1.967804,1.0853996,2.9553986,1.620903 c0.8362045,0.478199,1.6395035,1.0935974,2.6175003,1.2394981c0.8936996,0.1176987,1.8209,0.0363007,2.6707993-0.2709007 c2.0406036-0.7229004,4.1023026-1.3841972,6.1500015-2.0851974c0.4147034-0.1542015,0.9011993,0.0747986,1.1074982,0.4529991 c1.8927002,3.1769981,3.786499,6.3540993,5.6886063,9.5261002c0.2936935,0.4915009,0.3196945,1.2052994-0.0689011,1.6520004 c-1.3448029,1.1936989-2.705101,2.3677979-4.0405045,3.5718994c-0.897995,0.8092995-1.876297,1.6177979-2.353302,2.7626991 c-0.2686996,0.5904007-0.3103943,1.2489014-0.2916946,1.888401c-0.0009003,1.7728004-0.0082016,3.5470009,0.0084991,5.3197975 c0.0124969,1.2625999,0.7791977,2.366703,1.6687012,3.2000008c1.5032959,1.3865013,3.0469971,2.7261009,4.5833969,4.076004 c0.1810989,0.1666946,0.3886032,0.3115005,0.5373993,0.5115967c0.2625046,0.4791031,0.2302017,1.098999-0.0634995,1.558197 c-1.8968964,3.165802-3.7875977,6.3355026-5.6772003,9.5063019c-0.2052002,0.3667984-0.6862946,0.5876007-1.0893021,0.4354019 c-1.8127975-0.6052017-3.6272964-1.2030029-5.4325943-1.8281021c-0.5321045-0.1759949-1.0508041-0.4029999-1.6081009-0.485199 c-1.0951004-0.2022018-2.2887039-0.0970001-3.2490997,0.5019989c-1.1282043,0.6947021-2.2855988,1.338501-3.4488983,1.9698029 c-0.422905,0.2374954-0.8731003,0.4280014-1.2750015,0.702095c-0.7052994,0.4717026-1.3167038,1.1072006-1.6906052,1.8740005 c-0.3041992,0.6332016-0.3582993,1.3416061-0.5093994,2.0177002c-0.4353943,1.9468002-0.7970963,3.9092026-1.2294006,5.8572006 c-0.0455933,0.3302994-0.3539963,0.5895996-0.6873932,0.5698013c-3.7176056,0.0218048-7.4356003-0.0019989-11.1532059,0.0125046 c-0.3852005-0.0103073-0.8146973,0.0563965-1.155098-0.1656036c-0.1854019-0.1947021-0.2363968-0.4720001-0.2937012-0.723999 c-0.452095-2.2291031-0.9252014-4.4540024-1.3711014-6.6855011c-0.2602005-1.3113022-1.2384949-2.3822021-2.3904953-3.0053024 c-1.1208038-0.5603943-2.1978989-1.2009964-3.294899-1.8061981c-0.771904-0.4509964-1.5248032-1.0009003-2.4271011-1.1520004 c-1.1197014-0.1842957-2.2615013,0.0428009-3.3021011,0.4645996c-1.8521004,0.6449051-3.7176018,1.2478027-5.5740013,1.8791046 c-0.4132996,0.1572952-0.9101982-0.0740051-1.1114998-0.4561005c-1.8894997-3.179306-3.7935982-6.3502045-5.6862984-9.5280991 c-0.2970009-0.4980011-0.3189011-1.2200012,0.084198-1.6668015c1.5951004-1.3895035,3.1887016-2.7825012,4.7512016-4.209404 c0.973999-0.8520966,1.8532982-1.9833984,1.9113998-3.3269997c0.0197983-1.7022972,0.0073013-3.4032974,0.0093002-5.1051979 c-0.0061989-0.6146011,0.0428009-1.2470016-0.1593018-1.8376999c-0.3196983-0.9967003-1.0219002-1.8199005-1.7980003-2.4988022 c-1.5612984-1.4251976-3.1560974-2.8148003-4.7476997-4.2054977c-0.3563995-0.4487-0.3395996-1.1320992-0.0634995-1.6197014 c1.8958015-3.1750984,3.7998009-6.3458977,5.6854019-9.5268974c0.2061005-0.3875008,0.6968002-0.635601,1.1227989-0.4771004 c1.9970016,0.6811981,4.0054016,1.329998,5.9958992,2.0301971c0.9728012,0.3696022,2.0550995,0.4864006,3.0781021,0.2737999 c0.9146957-0.2071991,1.6624985-0.8022003,2.4697952-1.2458c0.9896011-0.5405998,1.9562073-1.1227989,2.9668045-1.6239967 c1.1415024-0.5939026,2.1363983-1.6073017,2.4351959-2.8885021c0.4876022-2.3148003,0.9522018-4.6334991,1.4397049-6.948 C73.9077988,22.1131382,73.9756012,21.7556381,74.2817001,21.6683369L74.2817001,21.6683369L74.2817001,21.6683369z  M78.6528015,40.9516373c-3.1825027,0.4053001-6.2011032,1.9429016-8.4085007,4.2686996 c-2.0643997,2.1501007-3.4227982,4.967701-3.8031998,7.9251022c-0.3875046,2.8634987,0.1324005,5.8415985,1.4697952,8.4021988 c1.4261017,2.7572021,3.7856064,5.017601,6.6013031,6.3248978c3.6760025,1.7345047,8.1031036,1.7646027,11.802002,0.0793991 c3.3363953-1.486496,6.0418015-4.3188972,7.3760986-7.7190971c1.5105972-3.7696991,1.2843018-8.1852989-0.6126022-11.7759018 c-1.4416962-2.7750969-3.8302002-5.0436974-6.6749954-6.3405991C83.9974976,41.0111389,81.2768021,40.6015358,78.6528015,40.9516373 z"/>
<path id="mark" class="st1" d="M24.9195004,13.6877375h8.1410999c0,3.6241007,0,7.2484999,0,10.8725004h-0.1893997 c-1.2982006-1.2709999-2.5965004-2.5962009-3.8948002-3.8945007c-1.2979012,1.325201-2.5962009,2.5965996-3.8945007,3.8945007 h-0.1893005c0-3.4619007,0-6.9236012,0-10.3858004C24.8925991,14.0122375,24.8654003,13.8498373,24.9195004,13.6877375z"/>
<g id="znak">
	<path class="st2" d="M65.3499985,12.1295376l28.0496979,28.0496006c3.1164017,3.1165009,3.1167068,8.2156982,0,11.3324013 L65.3499985,79.5612411c-3.1163979,3.116394-8.2158966,3.116394-11.3322983,0L25.9680004,51.5115395 c-3.1167011-3.116703-3.1163998-8.2159004,0-11.3324013l28.0496998-28.0496006 C57.1343994,9.0128374,62.2333984,9.0128374,65.3499985,12.1295376z"/>
	<path class="st3" d="M56.9207001,48.2156372l-0.8092995-11.4997978c-0.1463013-2.2391014-0.2237015-3.8549004-0.2237015-4.8311024 c0-1.3288994,0.3614006-2.3624001,1.0931015-3.108799c0.7318993-0.7462997,1.6870995-1.1154003,2.8750992-1.1154003 c1.4463005,0,2.4103012,0.4757004,2.8922005,1.4272003c0.4910011,0.9513988,0.7318993,2.3295994,0.7318993,4.1175995 c0,1.0582008-0.0602989,2.1325989-0.1722984,3.2235985l-1.0846024,11.8361015 c-0.1203995,1.4108009-0.3701973,2.4933014-0.7574005,3.2481995c-0.3786964,0.7463989-1.0158997,1.1236-1.9110985,1.1236 c-0.903698,0-1.5321007-0.3607979-1.8849983-1.0909996C57.3251991,50.815937,57.0668983,49.7084389,56.9207001,48.2156372 L56.9207001,48.2156372z M59.7097015,64.0299377c-1.0245018,0-1.9197006-0.3198013-2.6771011-0.9514008 c-0.766201-0.6315002-1.1449013-1.517601-1.1449013-2.6576996c0-0.9924011,0.3614006-1.8373985,1.0931015-2.5345001 c0.7318993-0.6973,1.6184998-1.0416985,2.6772995-1.0416985c1.0587006,0,1.9538994,0.3443985,2.7028008,1.0416985 c0.7488976,0.6971016,1.1190987,1.542099,1.1190987,2.5345001c0,1.1239014-0.3787003,2.0097008-1.1275978,2.6495018 C61.5946999,63.7101364,60.7168007,64.0299377,59.7097015,64.0299377z"/>
</g>
</svg>
