<?xml version="1.0" encoding="utf-8"?>
<svg version="1.1" id="giac" xmlns="http://www.w3.org/2000/svg" xmlns:xlink="http://www.w3.org/1999/xlink" x="0px" y="0px" viewBox="0 0 265.4 138.1">
<style type="text/css">
	.st0{fill:#F5F5F5;opacity:.3}
	.st1{fill:#DEDEDE;}
</style>
<g id="map">
	<path class="st0" d="M159.8,126.4l0.8-0.8l0.2-1.5l1,0.1l0.9-1.2l1.3-0.4l0.9-1.4l0-0.7l0.7-0.2l0.3-0.7l-0.2-0.7l0.2-0.4l0.6-0.6 l0.4-1l-0.3-1.1l-0.1-1.9l0.4-2l-0.1-0.9l-0.9-0.1l-0.6,1.1l-0.4,2.2l-0.1,0.3l-0.1,0.2l-0.7,2.1l-0.7,2.1l-1.8,2.9l-0.3,0.9 l-1.4,1.3l-0.7,1l-1.8,1.3l-1,0.1l-0.7,0.4l0.3,0.8h1.5l0.2,0L159.8,126.4L159.8,126.4z M114.9,54.1l-0.1-3.4l0.9-1.3l0.9-0.3 l0.9-0.8l0.6-1.6l-2.7-0.9l-0.3,2.3l-1.8,1.6l0.3,1.4l-0.3,1.1l-2.7,6.3l0.3,1.7l-1.6,3.1L107,65l-1.5,0.6l-2.7-1.3v1.2l4.1,2.5 l1.2-1.3l1.8-0.7l2-2l0.1-2.6l1.2-1.1l2.1,0.3l0.6,1.8l-1.4,2.5l0.5,1.9l1.9-0.4l-1-0.6l-0.4-0.7l1.3-1.5v-2.1l-1.8-2.1h-2.2 l-0.1-2.1L114.9,54.1L114.9,54.1z M51.3,48.2l0.3-1.3l1.3-1.5l0.8-0.7l0.2-1.1L53.6,43l-1.1-0.3l-1.8,2l-0.5,1l0.1,1.4l-0.2,0.5 L49,46.1l-0.7-0.1l-0.4-1.2l-0.7,0.1l-0.1,0.7l-0.2,0l-0.3-0.6L46,45.1l0,0.8l-0.4-0.1l-0.3-0.5l0.2-0.5l0.7-0.6l0.1-1l-0.1-1.1 l0.5-0.6l0-1l-0.6-0.8l-1.4-0.2l-1.1,0.2l0-1.2h-0.2l0.1,2.8L41.4,44l0.4,0.5h1.3l0.6,0.9l1.4,0l0.3,0.6l0.6,0.2l0.1-0.9l0.3-0.1 l0.3,0.5l0.5,0.1l0.1-0.7l0.4-0.1l0.4,1.2l0.8,0.2l1.1,1.5l-0.6,0.5l-1.2,0l0,0.2h0.5l0.6,0.6l1.3,0l0.6-0.6L51.3,48.2L51.3,48.2z  M47.1,77l0,0.5v0v0l-0.4,0.5l1.1,1.4l0,0l0,0l0.2,0.4l0.8-0.2l0,0l0,0l1.1-0.1l0.1-0.9v0l0,0l0.6-0.3l0,0l0,0l1.2-0.3l0.1-1 l-0.3-1.7l-2.2-0.7l-1.2,0.3l-0.1,1.3v0l-0.1,0L47.1,77L47.1,77z M58.7,42.1l-0.1-0.7l0.1-0.6L58.1,40l0.5-0.9l1.6-2l1.3-0.5 l0.8-1.4l0.3-1.9l-0.3-0.5L61,32.1l-0.1,0l0,0l0.2-1.3l-1.6-2.1l-1.9,2.3l-1,0l-1.2,0.8l-0.9,0l-0.4,0.9L54,33.3l-0.7,0.5l0.4,0.7 L53.2,35l-1.6-0.2l-0.4,1.5l-0.3,2.3l-1,0.4l-4.3-0.5l-1.9,0.1l0,1.2l1.1-0.2l0,0h0l1.4,0.2h0l0,0l0.5,0.8l0,0v0l0,0.9v0l0,0 l-0.5,0.5l0.1,1.1h0h0l-0.1,0.9v0l0,0l-0.7,0.5l-0.2,0.5l0.3,0.5l0.4,0.1l0-0.8v0H46l0.4-0.1l0.1,0l0,0.1l0.3,0.5l0.2,0l0-0.7l0,0 l0,0l0.6,0h0.1l0,0.1l0.3,1.1l0.7,0.1h0l0,0l1.1,1.4l0.2-0.5l-0.1-1.3l0,0l0,0l0.5-0.9v0l0,0l1.8-1.9l0,0h0.1l1,0.2l0,0l0,0 l0.3,0.6l0,0l0,0l-0.1,1.1v0h0L53,45.5L51.7,47l-0.3,1.3h0.8h0.1v1.2l0.7,0.2l0.5-0.5l0-0.1h0.7l0.3-1.2l0,0v0l1.2-1.3l-0.3-0.5 l0,0L55,45.5v0v-0.1l0.3-0.9v0l0,0l1.2-1.2l0.1-0.6l0-0.1l0.1,0l0.8,0.2l0.5,0.1l0.6-0.7l0,0l0,0L58.7,42.1L58.7,42.1z M77,51 L75.4,53l0.5,0.9l0,0l0,0.1l-0.3,0.7l0.2,1.1l0,0l0,0l-1,0.6l0,0l0,0l-1.3-0.9l-1.3,0.1H72l0-0.1l-0.2-0.9l-3.2-2.5l-0.3,0.5 l0.9,1.5v0v0l-0.3,1.2v0v0l-0.8,0.7l0.4,0.6v0l0,0l0.1,0.7l0,0.1h-0.1l-1.3,0l-1,1.3l0,0.8l1.2,0.5l0.5-0.6l0,0h0l1.1-0.4h0.1 l0,0.1l0.7,1.4l0,0l0,0.1l-2.6,2.1L67.1,64v0l0,0l-0.9,0.7l0,0h-0.1L65,64.3L64.1,65l-2.4,2.7l0.2,0.6h0v0v1.8l0.4,0.3l1-1.2l0.1,0 h0l3.1,1.2l1.1-0.5l0.6-1.5l0-0.1l0.1,0l2,0.2h0h0l1.5,1.7l1.7,0.9l2.3,0.2l0.9-0.5l0.1,0l0,0l2.5,2.1l1.5,0.2l2.8-4.8l0,0l0,0 l2.1-1.8l0.3-1.1v0l0,0l2.1-1.8l0.1-0.1l0.1,0.1l0.4,0.7l1.1,0l1.4-1.2h0h0l2.1-0.1l1.5-1.2l0,0h0l3-0.1l0.8-0.9h0v0l1.2-0.4 l0.7-1.1l-0.5-1.5v0l0,0l0.5-1l-0.6-0.1L99.8,57l0,0H99l-0.9,0.8l0,0H98l-1.1-0.2l-0.8,1l0,0h0l-2.5,0.2h0l0,0l-10.8-7.7l-1,0.3 l0,0h0L77,51L77,51z M23.6,104.8l1.3,0l1.3-0.6l-0.8-1.2l-0.1-0.1l0.1-0.1l0.7-0.4l0.7-0.6l-0.6-1.3l0-0.1l0,0l0.5-0.5l0.1-0.1 l0.1,0.1l0.4,0.6l0.5-0.2h0h0l1,0.1l-0.2-1v0v0l0.6-1.7l-0.6-1l0,0v0l0.5-2.3l-0.4-1.2L27.8,93h-0.1l0-0.1l-0.2-1.1l-0.6,0 l-0.2,0.6l0,0.1h-0.1l-2.2-0.2l0,0.7l1,0.1h0.1v0.1l0.1,0.7v0l0,0l-1.1,1.2l0,0h-1.7l-0.3,0.6l0,0h0l-1.2,0.1h0l0,0l-0.5-0.8v0V94 l-0.9-0.4l0,0v-1.2L19,92.2l-0.3,0.6l0,0.1l-0.1,0l-0.9-0.4L17.2,93l0.6,0.7l0.6-0.1l0.1,0l0,0l0.4,0.6l0.8,0.2h0.1v0.1l0.4,0.9 l0.8,1.5l0,0v0l-0.2,1.4l0.9,1.6v0l0,0l0.3,1.3l0,0v0l-0.1,1.3l1.4,1.4v0h0L23.6,104.8L23.6,104.8z M15.2,109.3l-0.5,0.5l0.1,1.3 l1.2,1.8l-0.1,1.8l-0.2,0.9l1.1,1.4l0.5-0.2l0.3-0.5l0.7,0.4l0.7,0.2l0.8-0.5v-2.3l0.6-3.3l2.1-2l0.2-2.1l-0.2-0.9l1-0.7l-0.3-0.8 l-1.3-1.3l-0.5,0.4l0,0h0l-1.4,0l-0.8,0.6l0.3,0.6l0.1,0l-0.1,0.1l-0.7,0.4l0.9,1.3l0.9,0.2h0.1v0.1l0.3,1.2l0,0.1l0,0l-0.7,0.3h0 h0l-0.7,0l-1,1.8l0,0.1l-0.1-0.1l-0.7-0.6l-0.4,0.5l0,0h0L15.2,109.3L15.2,109.3z M14.8,107.7l0.3,0.9l0.1,0.6l1.7,0.1l0.4-0.5 l0-0.1l0.1,0l0.7,0.6l0.9-1.8l0-0.1h0l0.8,0.1l0.7-0.3l-0.3-1l-0.9-0.2h0l0,0l-1.3-1.8l-1-0.1l-0.4,0.2l0.5,2l0,0l-0.1,0.1 L14.8,107.7L14.8,107.7z M14.2,106.9l0,0.3l0.4,0.4l2.4-1.1l-0.5-1.9l-0.4,0.2l-0.4,1.3v0l0,0l-0.6,0.5v0h0L14.2,106.9L14.2,106.9z  M12.4,104.1l0.1,1.5l1.7,0.8l0,0.2l0.8-0.2l0.6-0.5l0.4-1.3v0l0,0l1-0.4l-0.8-0.6l-0.3,0.5l0,0.1h-0.1l-2-0.5L12.4,104.1 L12.4,104.1L12.4,104.1z M11.1,101.1l0.9,1l0.1,1.4l0.3,0.4l0,0l0,0l1.5-0.5h0h0l1.9,0.5l0.6-1.1l-0.3-0.9h-0.9l0,0l-1.8-1.6 l-1.3-0.1L11.1,101.1L11.1,101.1z M8.8,97l1.1,1.8v1.1l1,1.2l1.1-0.9l0,0h0l1.3,0.1l0-1.3v0l0,0l0.7-0.4l-0.9-1.8l-0.3,0.7l0,0 h-0.1l-1.1-0.1h-0.1l0,0l-0.6-0.9L8.8,97L8.8,97z M8.5,94.1l0.1,1l1.2,0.5l1.6-1.8l0.1-0.1l0,0.2l0.1,1.3l1-1.3l0.1-1.3L12,92l0,0 v0l0-1h-1l0-0.1l-0.7-1.1l-0.9-0.3l0,0l-0.1,0.9l0,0l1,1.2l0,0l0,0l0.8,0.6l0.1,0l-0.1,0.1l-1.3,0.9l0,0v0.8H9.7L8.5,94.1L8.5,94.1 z M144.4,125.9l3.7,1.5l3.4,0.8l0.7,2.7l2.5,1.3l1.8,0l2.5-1.5l1.9,0.6l2-0.1l0.5,0.9l1.2,0.1l0.4-1.4v-0.1h0l1.1-0.6l-1.2-1.3 l-0.1-0.1l0.1-0.1l1.2-0.9l-0.5-1.3l0-0.1h2.3l1.3-1.1l0,0h0l1.2,0.2l2.3-3l0,0h0l1.4-0.1l0.4-0.7h0l0,0l1.2-0.5l0.9-1.2l0.1-1.3 l-1-0.7l0,0v-1.3l0,0l2.2-1.6l0.7-1.7v0l0.1,0l1.9-0.7l-0.1-1.5l-1.2-1l-1.3-0.2h0l0-0.1l-1.1-3.3l-0.7-0.6l0,0l0,0l0.7-1l-0.1-0.9 l-0.8,0.9l0,0l0,0l-0.7-0.1l-0.4,1.5l0,0h0l-3.6,1l-0.1,0l0,0l-0.6-0.8h-0.8h0l-0.8-0.4l-0.4,1l0,0h0l-1.7,0.6h0h0l-0.9-0.3l-0.2,1 l0,0.1l0,0l-1.8,0.2l0.1,0.9l1.1,0.9l0.1,0.1l-0.1,0.1l-0.9,1.1l-0.1,1.6l0.6,1.3l0.1-0.3l0.4-2.2v0l0,0l0.6-1l0,0h0l0.8,0.1h0.1 v0.1l0.1,0.8v0l0,0l-0.4,2l0.1,1.9l0.3,1.1l0,0l0,0l-0.4,1l0,0l0,0l-0.6,0.6l-0.2,0.4l0.2,0.7l0,0l0,0l-0.3,0.7l0,0l0,0l-0.7,0.1 l0,0.7l0,0l0,0l-0.8,1.4v0l0,0l-1.3,0.4l-0.8,1.1l0,0h0l-0.9-0.1l-0.2,1.4v0l0,0l-0.7,0.8l0,0l0,0l-2.3,1l-0.3,1l0,0h-0.1l-1.5,0.5 l-0.1,0v-0.1l-0.2-0.9l-1.5-0.3h0v-0.1l-0.2-1.1l-1-1.4h-1.5v0l-3-2.4l0,0l0,0l-0.9-1.3l-1.5,1l0,0h0l-0.9,0l0,0.2v0l0,0l-0.5,0.5 l0.2,0.7l0,0l0,0l-0.7,0.7L144.4,125.9L144.4,125.9z M123.4,132.2l5.6-2.1l2-0.1l0.4,0.5l3,0.7l0.2,1.4l1.2,0.6l3.2,0.4l1.3,0.1 l0.7,0.6l1-0.4l0.9-0.8l0.7-1.6l-1.1-1.3l0.1-2l0.7-0.2l0-0.9l0.9,0l0.2-1l-0.6-1.2l0-0.1l0,0l0.7-0.7l-0.2-0.7l0,0l0,0l0.5-0.5 l-0.1-0.4l-1.3,0.1h0h0l-3.3-2.3l-0.2,0.9v0.1h-0.1l-4,0.4l-0.2,1l0,0.1h0l-0.8,0.2l0.1,0.7v0.1l0,0l-1.1,0.7l0,0.7l0,0l0,0 l-0.7,0.2l-1.3,1.1l0,0h-0.1l-3.1-0.4l0,0h0l-1.9-1.3l-0.9-0.1l-0.5,1.5l0,0h0l-2.2,0.2l0.1,1.5l1.3,2.3l0,0.1l0,0l-0.9,0.6 L123.4,132.2L123.4,132.2z M111.3,127.7l0.1,1.5l1.4,0.8l0.1,1.5l1.4,0.3l0.6,0.7l1.6-0.8l0.3,1.1l1,1.5l1.6,0.2l0.5-1l2.1-0.1 l1.4-1l-0.2-1.5l0-0.1l0.1,0l0.9-0.6l-1.3-2.3v0v0l-0.1-1.5l-1.1,0.9l-0.1,0.1l0-0.1l-1-1.3l0,0l0,0l0.4-1.6l-0.6-0.7l-1.8,0v0 h-0.1l-1.1,0.2h0l0,0l-0.9-0.7l-0.1,0.7v0h0l-0.9,1.3l0,0l-0.1,0l-1.6-0.1l-1.3,0.4l-0.5,0.7l0.8,0.4h0v0l0.2,1v0.1l-0.1,0 L111.3,127.7L111.3,127.7z M124.3,112.2l-0.5,0.2l-0.2,0.9l0.5,1.2v0l0,0.1l-0.9,1.2l0.2,0.7l1.2,0.4l0.1,0l0,0.1l-0.4,1.3l0,0l0,0 l-0.8,1l0.3,1.2h0l0,0l-0.2,0.8l0.3,0.8l0,0l0,0l-1.2,1.2v0h0l-0.7,0.4v0h0l-1,0.4l-0.4,1.5l1,1.2l1.2-0.9l0.1-0.1v0.1l2.2-0.1 l0.5-1.5l0,0h0l0.9,0l0.6-1.3l0,0l0,0l1.2-0.4l0.3-0.7V121l0,0l1.1-0.5l-0.1-0.9l-0.4-1.3l0,0l0,0l-0.2-1.2l-0.9-1.5l0-0.1v0 l0.4-0.9l-0.7-0.5l-1.2,0.1l0,0H125v-0.1L124.3,112.2L124.3,112.2z M6.1,84.2l0.9-1.1L5,80.3l1.3-3.6L5.3,76l-0.8,0.5l-3.1-2.1 l-0.4,0.6l0.1,2.5L0,78.8l0.3,1.7l2-0.1l2.3,2.9L6.1,84.2z M227.4,123.9l-0.1,5.1l0.9,1.5l-3.6,0.3l-1.2,2.6l3.3,3.4l0.1,1.3 l1.8-1.8l3.2,0.1l2.2-1.8l1.4-2.7l0.7-7.4l0.9-3.9l-0.6-4.5l-0.9-0.3h-0.1v-0.1l-0.2-1.1l-1.5-1.1l-1.6,1.3l1,1.1l1.6,0.1h0.1 l0,0.1l-0.4,2.5l0,0.1h-0.1l-1.1,0l0.2,1.6v0l-0.1,0l-1.6,1.1h0l0,0l-2.7,0.2l-0.7,0.9l0.5,1l0,0.1l-0.1,0L227.4,123.9L227.4,123.9 z M225.9,118.4l1.1,1.9l-0.4,1.4l0.7,2l1.2-0.3l-0.5-1l0,0l0,0l0.7-1l0,0h0l2.6-0.2l1.5-1l-0.2-1.6v-0.1h0.1l1.1-0.1l0.3-2.3 l-1.5-0.1h0l0,0l-1-1.2l-0.1-0.1l0.1,0l1.8-1.4l0,0l0,0l1.6,1.1l0,0v0l0.2,1.1l0.8,0.2l0.4-5.2l-0.5-1.6l-2.5-5.1l-0.8-1l-0.7-3.6 l-0.5-1.2l-0.2-0.2l-1.9-0.8l-0.6-0.8l0.6-1.1l-1.4-0.6l-2.9-0.5l-2.2,1.2l-0.8,3.5l-1-1.2L220,99l-0.9-2.7l-1.9,1.2l-1.6-0.2 l0.1-1.5l2.1-5.2l0.5-5.2l0.6-2.5l-0.5-2.1l0.7-1.9l-0.3-2l4.4-4.3l1.4,0.2l0.1-0.5l-0.4-0.6l0.6-0.4l-0.7-1.3h-1.5l-1.3,0.9 l-0.1,0.1l0-0.1l-0.6-1.2l0-0.1l0,0l0.7-1.4l-0.3-1.6l-3-1l-1.4,0.9l-0.3,1.2l0,0.1h0l-1.8,0.3l-0.5,0.9l0,0h0l-1.6,0.3h0h0 l-2.3-0.8l-0.6,0.8l1.2,3.3l0,0l0,0l-0.9,3.1l1.3,0.9l0,0l0,0l0.7,2.7v0.1l0,0l-1,0.5l0,1.3v0l0,0l-0.5,1.3l0,0.1h0l-2,0.1 l-0.1,1.5l0,0l0,0l-3.4,1.3v4h0l-0.8,0.9l1.7,1.2l0,0.1l0,0l-0.9,1.8l1.7,1.1h0l0,0l0.4,1l0,0l0,0.1l-0.9,1l0.6,1.9l2.7-1.4l0,0 l0,0l0.9,1l0,0.1l0,0l-1.3,2.9l0.1,1.4v0l0,0l-1,0.6l0.1,1.2h2.3l0,0l1,1.5l1.1-0.1l1.8-1.7l0.3-1.3v-0.1h1.4l0.4-0.8l0-0.1h0 l1,0.1h0l0,0.1l0.9,2.8v0.1l0,0l-0.6,0.6l0,0h0l-2.2,0.4l0.6,1.2l0,0l0,0l-0.9,1l-0.2,1.3l0,0l0,0l-1.3,1.5l0.5,0.7l0,0.1l0,0 l-0.9,1.2v1.4l2.3,1.2h0v0l1.9,2.6l1.2-1.1l0,0h0l2.5,0h0v0l1.1,0.9l3.4-1.2l0.1-0.1l0,0.1L225.9,118.4L225.9,118.4z M8.4,95.1l0-1 l0,0V94v-0.1h0.1h0.1l1-0.1v-0.7l0,0v-0.1l0,0l0,0l0,0l1.2-0.9l-0.8-0.5l0,0l0,0l0,0l0,0l0,0l0,0l-1-1.2l0,0l0,0l0,0v0v0l0.1-0.9 l0,0l0-0.1v-0.1l0.1,0l0.1,0l0.8,0.3l0,0h0h0l0,0l0,0l0,0l0.7,1.1l1,0h0.1v0.1V91l0.1,1l0.7,0.5l0,0l0,0v0v0l0,1.3v0v0l0,0l0,0 l-1,1.3l-0.1,0.1l-0.1,0.1l0-0.2l0-0.2l-0.1-1.1l-1.5,1.7l-0.1,0l0,0l0,0l0,0l-1.2-0.6l0,0l0,0v0L8.4,95.1L8.4,95.1L8.4,95.1 L8.4,95.1z M6.8,85.5L6.9,87l-0.5,0.6l0.2,0.7l0.7,0.5l0,1.1l0.4,1.8l-0.1,1.6l-0.3,2.7l0.4,0.5L8.3,96l0.4,0.8l2.1-0.7l0,0l0,0 l0.7,0.9l1,0.1l0.7-1.5l0,0h0l0.8-0.3l-0.3-0.4l0-0.1l0,0l0.5-0.9l-0.5-0.4l-0.1,0l0.1-0.1l0.6-0.6l0-0.5v-0.1l0.1,0l0.7-0.3l0.1,0 l0,0.1l0.4,0.8l0.6-0.5l0-1v0v0l0.2-0.4l-1-1.2l0,0l0,0l0.7-1.5l-1-1.2l-0.9,0l0,0l-0.5-1l-1.6-1.5L12,86.3l-0.9-0.4l-1.6,0.1 l-0.6,0.8l-1.2-2.1L6.8,85.5L6.8,85.5L6.8,85.5L6.8,85.5z M16.4,92.3l-0.6,0.5l-0.1,0l-0.1-0.1L15.2,92l-0.6,0.2l0,0.5v0l0,0 L14,93.3l0.5,0.4l0.1,0l-0.1,0.1l-0.4,0.9l0.3,0.5l0.1,0.1l-0.1,0l-0.9,0.4l-0.4,0.7l1.1,1.9l0,0.1l-0.1,0l-0.7,0.5l0,1.3l1.8,1.6 h1l0,0l0.3,1v0l0,0l-0.3,0.5l0.9,0.7l1,0h0.1v0l0.3,0.4l0.6-0.4l-0.3-0.6l0,0l0,0l0.9-0.7l0,0h0l1.4,0.1l0.5-0.4l0-1.3l-0.3-1.3 l-0.9-1.6v0v0l0.2-1.4L20,95.5l0,0l0,0l-0.4-0.9l-0.8-0.2h0l0,0l-0.4-0.6l-0.6,0.1h0l-0.1,0L16.4,92.3L16.4,92.3z M100.3,114.8 l2.1,10.1l1.1-0.2l0.8-1.1l0.7,0.3l0.2,1.2l2.4,1.3l1.9-0.7l1,0.4l0.7,1.5l1.4-0.1l-0.2-0.8l-0.9-0.4l-0.1-0.1l0-0.1l0.6-0.8l0,0h0 l1.3-0.5l0,0h0l1.5,0.2l0.9-1.3l0-0.9l0-0.1l0.1,0.1l1,0.8l1-0.2l0.1-1.4v-0.1l0,0l0.8-0.5l0.2-1.1l-0.6-0.7l0-0.1l0-0.1l0.8-0.9 l-1-0.7l0,0v0l-0.4-1l-1.1-1.2v0l0,0l-0.1-1.1l-0.7,0.1l-1,0.9l0,0h0l-1.9-0.2l-0.6,0.4l0,0l0,0l-0.6-0.5l-1.6,1.6l0,0l-0.1,0 l-1.3-1.2h0v0l-0.2-1l-1-1.4l-4.3,1.5h-0.1h0l-0.9-0.4l-0.4,0.3l0,0l0,0l-0.7-0.4L100.3,114.8L100.3,114.8z M164.6,132.1l0.7,0 l0.8,1.4l5.7,0.5l3.8-2.3l1.2,0l0.4-1.3l1.9-1.7l2.6-0.2l0.8,0.8l1.1-1l4.6,0.8l0.7-1.8l1.6-1.1l-0.7-1.6l0.7-4.4l1.2-1.2l-0.8-2.1 l-1.6-0.2l1.2-2.2l2.1-1.5l-1.9-2.8l0,0l0,0l0.6-0.9l-1.1-0.7h0v0l-0.1-2.2l-1.1,0.3h-0.1l0-0.1l-0.7-1.2l-1.5,0.8l-0.1,0l0,0 l-0.9-0.9l-0.1,0l0,0l0.5-0.7l-1.8-1.2v0l0,0l-2.3-4.3l-1.9,0l-0.7,0.5l0.1,2l1.4,1l0,0v0l-0.1,1.7v0l0,0l-1.3,0.9l0,0h0l-2.2-0.4 l-0.6,0.9l0.6,0.6l0,0v0l1.1,3.2l1.3,0.2h0h0l1.2,1.1l0,0v0l0.1,1.6v0l0,0l-1.9,0.7l-0.7,1.7v0h0l-2.1,1.6v1.1l1,0.7l0,0v0.1 l-0.1,1.3v0v0l-1,1.2h0v0l-1.3,0.5l-0.4,0.7l0,0h0l-1.5,0.1l-2.3,3l0,0h-0.1l-1.2-0.2l-1.4,1.1h0h-2.1l0.4,1.3v0l0,0l-1.2,0.9 l1.2,1.3l0.1,0.1l-0.1,0l-1.2,0.6L164.6,132.1L164.6,132.1z M260.1,79.5l-0.4-4.4l-0.5-2l-1.4-1.4l0.1-2.1l0.8-0.6l-2.5-2.9l0.1-2 l1-1.1l-0.2-1.1l-2.1-0.6l-2.1-3.8l0.5-0.4L254,58l1-0.7l-1.6-1.5l-0.9,0.5l-1.4-0.9l0,0l-0.7-1.7l-1.4,0l-0.2,1l-0.9-0.1l-3-5.9 l0.2-1.9l1.2-0.2l-0.9-3.5l1.9,1.5l0-4.2l1.5-1.5l2.2-0.1l-1.3-3.1l-0.6-6.7l-1.4,0.4h0l0,0l-1.1-0.6l-1.9,5.3l0,0.1h0l-2.4-0.1 l-2.2,0.7l-0.1,0l0-0.1l-0.7-2l-2.9,0.2L236,34l0,0h0l-2,0.5l-0.4,1l0,0.1h0l-1.1,0.1L232,37l0,0l0,0l-1.3,0.4l0.2,1.3l1.8,2.7 l1.1,0.2h0l0,0l0.8,2l1.3-0.1h0l0,0l0.9,0.8l0,0v0l0.2,1.3l1.2,0.7l0.8-0.7l-2.2-2.7l0.5-1.8l2.1-0.7l-1.1,1.7l0.2,1.3l1.7,1.2 l0.8,0l0,1.2l0.7,0.2l-0.7,3.5l0.8,1.3l0.2,4.1l0.6,2.6l0.8,2.6l-0.9,1l0.3,1l-0.5,0.7l1.4,1.6l0.2,2.5l1.9,2.1l0,0l2.2,2.5 L260.1,79.5L260.1,79.5L260.1,79.5L260.1,79.5z M257.7,81.4l0.1,0.5l0.7,0.4l0.3-0.8l-0.4-0.6L257.7,81.4L257.7,81.4L257.7,81.4 L257.7,81.4z M259.8,80.4l-0.1,0.5l0.7,0.3l0.4-0.4l-0.7-0.6L259.8,80.4L259.8,80.4L259.8,80.4z M259.3,81.5l-0.2,2l0.8,1l0.7-0.3 l-0.1-2l-0.6-0.5L259.3,81.5L259.3,81.5L259.3,81.5L259.3,81.5L259.3,81.5z M260.4,85.9l-0.1,0.7l0.3,0.7l0.9-0.4l0.1-0.5 L260.4,85.9L260.4,85.9L260.4,85.9L260.4,85.9z M261.6,91.8l-0.4,0.7l0.5,0.7l0.6-0.6l-0.4-0.7L261.6,91.8L261.6,91.8L261.6,91.8 L261.6,91.8L261.6,91.8z M261.7,95.5l0.4,0.6l0.5-0.2l0.1-0.9l-0.6-0.1L261.7,95.5L261.7,95.5L261.7,95.5z M262.1,97l-0.5,0.6 l0.4,1.1l1.2-0.3l-0.4-1.1L262.1,97L262.1,97L262.1,97z M261.3,101.6l-0.6,0.6l0,1.3l0,1.3l0,0.6h0.6l0.5-1.5l-0.1-1.5L261.3,101.6 L261.3,101.6L261.3,101.6L261.3,101.6L261.3,101.6z M259.5,106.6l0.6,0l0.2,0.8l-0.5,0.7l-0.6,0.9l0,0.9l-0.2,1.2l-0.1,0.9 l-0.3-0.1l-0.2-1.6l0-1.9l0.8-0.8l0.4-0.4L259.5,106.6L259.5,106.6L259.5,106.6L259.5,106.6L259.5,106.6z M257.2,116.9l0.3-0.1 l0.1-2.3l0.4-0.5l0.1-0.6l-0.4-0.2l-0.7,0.3l-0.3,0.3l0.3,1l-0.1,1.3L257.2,116.9L257.2,116.9L257.2,116.9L257.2,116.9L257.2,116.9 z M259.6,114.6l0.2,0.5l0.6-0.2l-0.1-0.7l-0.4-0.5l-0.4,0.3V114.6L259.6,114.6L259.6,114.6L259.6,114.6z M263.4,52.8l0.7,0.7 l1.3-1.1l-0.6-0.1L263.4,52.8L263.4,52.8L263.4,52.8z M247.3,48.3l-0.5,1.5l1.9,2.2l0.3-3.1l-1-0.5L247.3,48.3L247.3,48.3 L247.3,48.3z M260.1,54l0.5,0.8l1.9,0.3l0.8-0.4l-0.5-0.8l-1.4-0.2L260.1,54L260.1,54L260.1,54L260.1,54z M133.2,71.3l-2.4-0.4 h-2.1l-1-0.4l-0.4-1.3l-0.8-1.7l-0.6,1.2l-0.6,1.1l-0.7,0.3l-0.5-0.3l-0.9-1.8l-1-2l-1.5,0.4l0.5,1.2l-0.5,1.6l1.2,1.5l0,0v0 l-0.3,3.1l1,1.4l0,0v0l-0.4,2.2l1.6,1.2l0,0l0,0l0.2,1.6v0v0l-1.4,1.9l-0.1,1.7v0v0l-2.2,2.7V89l1.8,1l0,0l0,0.1l-0.3,0.8l0,0l0,0 l-1.5,0.7v0h0l-1.3,0.1l0.6,2v0.1l0,0l-0.6,0.7v1l4.2,0.7h0.1l0,0.1l1.2,2.5l1.1,0.1l0.1,0v0.1l-0.1,1v0l0,0l-1.6,1.4l0.1,1.2 l0.9,0.9l1.4,0.5l0.1,0l0,0.1l-0.2,0.8l0,0h0l-1.5,1.1l-0.1,1.5v0.1l0,0l-0.2,1l1.3,2.5l0,0.1l0,0l-0.7,0.7v0h0l-0.6,0.2l0.7,1.9 h1.3l1.2-0.1h0l0,0l0.8,0.5l0,0l0,0.1l-0.4,0.9l0.9,1.4l0,0l0,0l0.2,1.2l0.5,1.3v0l0,0l0.1,1v0l0,0l-1.1,0.6v0.8v0l-0.4,0.8v0 l-0.1,0l-1.1,0.4l-0.6,1.3l1.8,1.3l3,0.4l1.3-1.1h0l0,0l0.7-0.2l0-0.7v0l0,0l1.1-0.7l-0.1-0.7v-0.1l0.1,0l0.8-0.2l0.2-1.1l0-0.1 h0.1l4-0.3l0.2-0.9l-2.2-2l0,0V117l0,0l1-0.5l0,0l0,0l1.2,0.1l0.3-3.9v0l0,0l0.8-1.5l0-0.1h0l1.3-0.2l0.2-1.1l-1.4-2.2l0-0.1l0,0 l1.3-2.3l0-0.1h0l3.1-0.1l0.8-1.1l0.1-0.1l0.1,0.1l1.2,2.5l0.7-0.3l-0.1-1.5v0l0,0l2.9-3.2l0.1-0.8l-1.9-0.4l-2.9-1.1l-1.2,0.5 l-2.4,1.6l-1.9,0.5l-2.1-0.8l-1.2-2.3l1.3-1.9l0.1-0.9l-0.3-0.8l-0.6-0.4l-2.3,0.7l-1.6-1.4l-0.6,0.8l-2,1.3l-1.3-2.3l1.4-2 l-0.2-2.7L133,88l1.5-2.6v-2l-1-1l-2.9-1.3l0.4-1.7l-0.8-2.3l0.3-1.3L133.2,71.3L133.2,71.3z M220.2,6.5l1.9,2.2l0.4-0.4l0.5-2.6 l0.6-1.2l-0.7-0.9l-1.7,0.1l-1,1.5L220.2,6.5L220.2,6.5z M216.3,120.8l1.3,2.1l1.4,1.2l2.9-1.4l0.4-1.2l2.2-2.5l1.2-0.6l0.3-1.3 l-3.3,1.1h0l0,0l-1.2-0.9l-2.5,0l-1.2,1.2L216.3,120.8L216.3,120.8z M249.1,28.9l-0.4-4.7l-1.3-0.8l3.1-2.1l-0.4-1.5l-5.8-0.5 l-0.7,0.9l-1.6,0.1l-0.2,1.2l-1.3-0.1v-1.7l1.4-0.5l0.6-1.2l-0.3-3.1l-0.6-0.2l-0.7,0.4l-0.1-1.1l-1.3,0.5l-0.9-1l0.4-1.7l1.1,1 l0.7-0.5l1,1l0.5-1.3l-0.1-1.6l1.1-0.9l1.8,0.2l3.1-2.3l-0.7-0.9L249,7l-0.1-1.5l-1.6,0.3l-0.5-1.1l-2.2-0.4l0.9-1.1l-1.1-0.8 l1-0.7L244,0l-3.7,2.2L240.1,4l-1,1.3l2.5,1l-1.3,0.6l-4-1.1l-4.7,3.1l-7,3.8l-1.9,3.1l0.2,0.9l-1.3,0.4l-1.8,1.6l1.3,1.6l1.1-0.4 l1.7,1l-0.2,1.7l-1.6,0.2l-1,0.6l-2.2-1.4v2.8l-2.3,1.7l-0.9,1.7l3.8,2.8l0,0v1.8l0,0l-2.8,3.3l0.7,1.8l1.4,0.6h1.9l0,0.1l0.7,1.5 l1.2,0.2h0l0,0l0.7,1.3l1.6-0.8h0h0l1.5,0.5l1.1-1l0,0h0l1.7-0.1l1.3-1.3l-0.2-1.3v-0.1l0.1,0l1.3-0.4l0.4-1.2l0,0h0l1.1-0.1l0.4-1 l0,0h0l2-0.5l0.5-0.9l0,0h0l3-0.2h0.1l0,0.1l0.7,1.9l2.1-0.7h0l0,0l2.3,0l1.9-5.3l0-0.1l0.1,0l1.1,0.6L249.1,28.9L249.1,28.9z  M121.6,49.6l-0.9,0l-0.4,1.6l-1.4-1.3l-0.4,1.3l1.5,1.7l0.1,1.4l-2.8-2.5l-0.1-1.6l1.2-1.4l0.2-2.3l-0.5,0.2l-0.6,1.6l-0.9,0.8 l-0.9,0.3l-0.9,1.3l0.1,3.4l-2.1,3.4l0.1,2.1h2.2l1.8,2.1v2.1l-1.3,1.5l0.4,0.7l1,0.6l-1.9,0.4l-0.5-2l1.4-2.5l-0.6-1.8l-2.1-0.3 l-1.2,1.1l-0.1,2.6l-1.9,2l-1.8,0.7l-1.2,1.3l-4.1-2.5v-1.2l2.8,1.3L107,65l2.3-1.5l1.6-3.1l-0.2-1.7l2.7-6.3l0.3-1.1l-0.3-1.4 l1.8-1.7l0.4-2.3l-1.4-1.8l1.4-0.2l-0.2-1.7l-1.4-0.1l-0.1,1.2l0.3,0.7l-0.9-0.4l-1.3,1l-1.6,2l-1.2,1.2l-1.8,0.4l-0.9,0.9l0.9,1.3 l-1,1.9l-1.4,0.4l0,0.7l1.3,1.3l-0.4,1.2l0.2,0.8l0.5,0.7l-1.6,1.5l-0.5-0.8l-0.4-1.9l-1.8-2.8l-1,0.8l0.6,1.1l-1.2,2.2l0.5,1.6v0 l0,0l-0.7,1.2l0,0h0l-1.2,0.4l-0.8,0.9l0,0h0l-3,0.1l-1.5,1.3l0,0l0,0l-1,0l-0.1,2.6v0l0,0l-1.2,1.6l0.7,1.6l2.9,0.2h0l0,0l1.4,1.1 l0,0v0l0.1,1.4l0.5,0.5l3.3,0.2l0,0l0,0l1,1.3l0,0v0l0.1,2.1l0.6,0.7l0,0v0l0,1.4h2.2l0,0l2,1.8l2.8,1.2h0v0l1,1.7l1.8,1.1l1.8,0.2 L115,83l0,0l0.1,0l1.3,1.3l1.4,0h0l0,0l1,1.5l0.6,0.1h0l0,0l1,1l2.1-2.6l0.1-1.7v0l0,0l1.4-1.9l-0.2-1.5l-1.6-1.2l-0.1,0v-0.1 l0.4-2.2l-1-1.4l0,0v0L122,71l-1.3-1.7l0,0l0,0l0.5-1.6l-0.5-1.2l0-0.1l0.1,0l1.7-0.5l0.7-1.8l-0.4-2.1l-1.8-0.5h0l0,0l-1.6-2.1 l0,0v0l0.3-1.3v0l0,0l2.4-1.1l0.2-1l-1-2.2v0v0l0.2-1.4l0,0h0l1-0.2l-1-2.1l0,0v0L121.6,49.6L121.6,49.6L121.6,49.6L121.6,49.6 L121.6,49.6z M119.9,49l0.7,0.3l0.7-0.1l-0.3-1.1l-0.9,0.5L119.9,49L119.9,49L119.9,49z M117.9,45.9l0.6,0.1l0.1-0.4l-0.4-0.5 l-0.5,0.1L117.9,45.9L117.9,45.9L117.9,45.9L117.9,45.9L117.9,45.9z M92.3,63.1l-1,0L90,64.3l0,0h0l-1.2,0l0,0l0-0.1l-0.4-0.6 l-2,1.8l-0.3,1.2v0h0l-2.1,1.9l-2.3,3.9L82,73h0v0l0.2,1.1l1.6,0.9l0,0v0l0.9,2.3v0v0l0.1,1.3v0l0,0L84,79.9l0.3,1.7l0,0l0.2,1v0 l0,0l-0.9,1.2l0.3,0.7l1.7,1.1l0,0v0l-0.2,1.7l0,0l-0.1,0.8l0.6,0.9l1.3-0.2l0.4-0.8l0-0.1l0.1,0l1,0.4h0.7l0.4-0.3l0.1,0h0 l0.6,0.1l0.7-0.4l0.3-0.4l0,0h0l1.2,0l0.2-0.7l0.1-0.1l0.1,0.1l0.9,0.8l1.5,0.6l0.7,0.2l0.1,0v0l1,2.1l0,0l1.2,2.5l2.7,2l1.5-0.8 l0.2-0.9l0,0l0,0l0.9-0.6v0l0,0l1,0.1l0.9-2.9v0h0l1.3-1l0,0l0,0l1.4,0.4h0l0,0l1.9,1.2l2.8,0h0l0,0l1.9,1.4l2.4-1.4l0,0l0.1,0 l1.2,0.9l1.4-0.2l1.5-0.7l0.3-0.7l-1.7-1l0,0v-2.2l-1-1l-0.6,0h0l0,0l-1.1-1.5l-1.4,0h0l0,0L115,83l-1.5,1.1h0h0l-1.9-0.2l0,0h0 l-1.8-1.1h0v0l-1-1.7l-2.7-1.2v0l0,0l-2-1.8h-2.3V78l0.1-1.5l-0.6-0.7v0v0l-0.1-2.1l-1-1.3l-3.3-0.2h0l0,0l-0.5-0.5l0,0l0,0l0-1.4 l-1.3-1l-2.9-0.2h0l0,0L91,67.4l0,0l0,0l1.2-1.7L92.3,63.1L92.3,63.1z M101.8,53.4l-0.8-1.5l-2.2-2.4h-1.6l-0.2,1l0,1.4l-1.2,0.7 l-0.7-0.1l-0.4,0.7l-0.8-0.7l1-0.9v-1l-3.1,0l-1.5-1.1l-2.4,0.2L87,48.6l1.4-0.1l0.7-1.4l-1.9-0.4l-0.9,1L86,46.9l-4.8-1.2 l-0.6,0.6l-0.7-0.7l-2.5,1.5L76,45.9l0.4-1.1L76,43.6l1.6-0.5l1.4,1l0.7-1.1l0-2.1l-1.9-2.1l-0.6,2.1l-2.6,1.7l-0.2,1.3L73.1,45 l0.5,2.6l1.4,2.1l1.3,0.1h0l0,0l0.7,1l4.7,0.5l1-0.3l0,0l0,0l10.8,7.7l2.4-0.2l0.9-1l0,0h0.1l1.1,0.2l0.9-0.8l0,0h0.7l0.4-0.6l0,0 h0.1l0.7,0.2l0.5-1l-0.6-1l0,0l0-0.1L101.8,53.4L101.8,53.4L101.8,53.4L101.8,53.4L101.8,53.4z M98,48.9L97,49l-0.7-1.3l0.2-1.2 l1.2-0.3l0.4,1.3L98,48.9L98,48.9L98,48.9L98,48.9z M83.1,42.9l0.7,1l1.8,0l0.2-0.7l-0.1-1l-0.9-1l-1.4,0.5L83.1,42.9L83.1,42.9 L83.1,42.9z M153.9,62.6l0.8-0.1l1.7-1.6l0,0h0l1,0.1l0.4-1.8v0v0l0.5-0.7l0.1-1v0l0,0l2.1-1.7l-0.9-1.1l0,0v-1.8l-1.8-2.6l0,0v0 l-0.2-1.3L157,48l0,0v0l0-0.8l-1.2,0.6l-1.3,1l-1.8,0.5l-0.7,1.2l0-1.8l3.6-3.8l2-3.6l0.9-3.2L156,35l-2.6-0.1l-0.9,1.3l-1,0.2 l0.8-2.2l-2.1-0.2l0.7-1l-1.3-1.1l-1.2,0.4l-1.9,2.8l0.5,1.6l-2,0.1l0,0.5l0.8,1.1l-1.4-0.3l-0.8,0.7l-1.6-0.3l-0.2-0.7l-2.4,0 l0,1.4l-2.8,0.4l-1.9,1.5l-1.5,0l-1.1,1l-0.5,2l0.9,1.6L131,46l-3.7-0.6l-2.1-0.1l-0.7,1.2l-0.1,3.1l1.4,1.3l0.4,1.4l0.1,1.8 l0.6,1.9l-0.7,1.4l-0.7-0.2l0.4-1.5l-0.2-0.4l-0.6,1.1v-2.9l-0.5-1.1l-1.6-3l-1.2,0.1l-0.1,0.1l1.2,2.5l-1.2,0.2l-0.2,1.4l1,2.2 l-0.3,1.1l-2.4,1.1l-0.3,1.3l1.6,2.1l1.8,0.4l0.4,2.3c-0.3,0.7-0.5,1.2-0.8,1.9l1.8,3.7l0.4,0.3l0.6-0.2l1.3-2.4l1,1.8l0.4,1.2 l0.9,0.3l2.1,0l2.4,0.4l1.7-2.7l1.1-0.7l1.5,0l0.9-1.2l0.9-2.7l5.5-1.7l4.1,1.4l0.4,0.7l2.5-0.6L153.9,62.6L153.9,62.6z  M138.5,17.7l1.6,0.3l-0.4-1.2l-1.2,0L138.5,17.7L138.5,17.7L138.5,17.7z M139.9,20.8l0.9-1.2l-0.2-1.1l0.9-0.6l0.9-0.9l1,0.9 l0.5,1.5l0.3,0.7l-0.9,0.5v0.9l-2.2,1l-1.2-1V20.8L139.9,20.8L139.9,20.8z M139.1,22.1l1.7,0.7l-0.2,0.8l-0.8,0.4l-1.2-0.8 l-0.2-0.7L139.1,22.1L139.1,22.1L139.1,22.1z M140.6,24.8l0.7-1.9l2.1-1l0.4,1.4l0.6-0.2l0.1-0.6l1,0.9l-0.1,1.2l-0.7,1.2l0.6,0.7 l-0.2,1.1l-0.8,0.4l-1.5-1.1l-1.4-1.2l-0.8-0.4L140.6,24.8L140.6,24.8L140.6,24.8L140.6,24.8L140.6,24.8z M146.1,25.9l-0.2,2.4 l-0.9,1.7l0.4,1.3l1.5-1.2l1.6-0.1l0.9-0.8l0.1-2l-0.9-1.2l-0.7,0.7l-0.4-0.4l0.1-1.2L146.1,25.9L146.1,25.9L146.1,25.9z  M150.5,29.4l0.1,0.7l1.2,0.3l0-0.5l-1.2-0.7L150.5,29.4L150.5,29.4L150.5,29.4L150.5,29.4z M131.4,17.7l0.7,0.2l0.7-0.2l-0.5-1 l-0.5-0.4l-0.4,0.4l-0.1,0.6L131.4,17.7L131.4,17.7L131.4,17.7L131.4,17.7L131.4,17.7z M128.1,21.6l-0.1,0.5l0.5,0.5l0.7,0l0-0.7 l-0.5-0.7L128.1,21.6L128.1,21.6L128.1,21.6L128.1,21.6L128.1,21.6z M141.5,34.3l0.6,0.5l0.5-0.3l-0.3-0.7L141.5,34.3L141.5,34.3 L141.5,34.3z M136,33.4l0.8,0.4l0-0.6l-0.5-0.6l-0.4,0.3L136,33.4L136,33.4L136,33.4L136,33.4z M140.8,36l0.3,0.3l0.4-0.4l-0.4-0.5 L140.8,36L140.8,36L140.8,36z M124.4,41.5l0.4,0.5l0.4-0.4l-0.2-0.7l-0.5,0.1L124.4,41.5L124.4,41.5L124.4,41.5z M127.6,44.2 l0.6,0.6l0.4-0.4l-0.1-0.6l-0.5-0.1L127.6,44.2L127.6,44.2L127.6,44.2L127.6,44.2L127.6,44.2z M129,44.9l0.3,0.2l0.2-0.4l-0.4-0.4 L129,44.9L129,44.9L129,44.9L129,44.9z M129.9,43.3l0.3,0.2l0.2-0.4l-0.5-0.3L129.9,43.3L129.9,43.3L129.9,43.3z M130.5,42.4 l0.4,0.3l0.4-0.5l-0.6-0.4l-0.3,0.2L130.5,42.4L130.5,42.4L130.5,42.4z M127.8,39.3l0.4,0.3l0.6-0.4l-0.4-0.6l-0.5-0.1l-0.5,0.5 L127.8,39.3L127.8,39.3L127.8,39.3z M129.1,37.1l-0.1,0.4l0.3,0.5l0.4-0.4l0-0.4L129.1,37.1L129.1,37.1L129.1,37.1z M122.3,47.6 l0.7,1l0.5-0.2l-0.1-1.4l-0.5-0.3L122.3,47.6L122.3,47.6z M158.1,81.4L158.1,81.4H158l-0.9-0.7h-2.2v-0.1l0.1-1.2v0l0,0l1.3-1.5 l0.4-1l-0.8-0.6l-0.1,0v-1.1l-0.7-0.8l0,0v0l0.3-1.4l-0.9-0.7l1.3-1.4l-0.5-5.8l-1.4-2.3l-2,1.1l-2.7,0.6l-0.4-0.8l-4-1.3l-5.4,1.7 l-0.9,2.7l-1,1.3l-1.5,0l-1,0.6l-1.5,2.2l-0.3,0.5l-2.6,4.7l-0.3,1.2l0.8,2.2l-0.3,1.6l2.8,1.2l1.1,1.1v2.2l-1.6,2.7l-1.2,1.2 l0.2,2.7l-1.4,2L132,96l1.9-1.2l0.7-0.9l1.6,1.5l2.2-0.7l0.7,0.5l0.3,0.9l-0.1,1l-1.2,1.8l1.1,2.1l2,0.7l1.8-0.4l2.3-1.6l1.3-0.5 l3,1.1l1.9,0.4l0-0.4l1.5-0.7l0.8,1.6l1.4,0.8l0.3-1.1v0l0,0l0.7-0.7l-0.3-0.9l-0.7-0.2l-0.1,0v0l0.1-0.9v0l0,0l1-1.1l-0.2-0.9 l-1.4-0.4l0,0l0,0l-0.4-1.3v-0.1l0,0l0.7-0.9l-0.7-1.1l0-0.1l0,0l1.7-1l1-1.9l-0.1-1.5l-0.7-1l0,0l0,0l0.7-1.4l-0.3-0.8l0,0v0 l-0.1-1.3v0l0,0l1.2-0.5l0,0l0,0L159,82l0.5-0.6l-0.4-0.6L158.1,81.4L158.1,81.4z M42.8,63.2L42.8,63.2l0.1,0.1v0l-0.2,0.8v0h0 l-0.4,0.5l0.6,0.6l0.8,0.4h0l0,0l1.6,2.1l0,0v0l0.4,1l0.5-0.1l0.4-0.5l0,0h0l1-0.1h0.1l0,0l0.4,0.4l0.6-0.4l0.2-2.1l-1-0.5l0,0l0,0 l0-0.9L47.3,64l-0.7,0.2l0,0l0,0L44.1,63L42.8,63.2L42.8,63.2z M62.7,33.1l0.4-2.2l0.5,0.7l-0.2,1.6l0.7,1.4l0.2,2.3l0.9,1.4 l0.2,1.4l3.4,2.1l2.1-0.4l1.6-2.1l0.4-2.3l-0.7-2.7l0.1-3.9l-0.4-1.4l-1.1-1.8l-0.2-1.4l0.5-0.3l0.7,0.9l0.7-0.4l-0.6-1.2l-2.3-1.6 l-3.3-0.3l-0.7,0.5l-1.6,1l0,1.3l-1.1,1.8l-2.2,0l-0.7,0.9l1.6,2.2l0,0.1v0L61.1,32l1.3,0.7l0,0h0L62.7,33.1L62.7,33.1z M92.9,40.3 l0.5-0.4V39l-0.7-0.1L92.9,40.3L92.9,40.3L92.9,40.3L92.9,40.3L92.9,40.3z M96.2,44.2l0.4-3.9l0.3-1.5l1.3-1.4l1.5-0.5l0.6-0.9 L99.9,35l1.1,0.7l1-0.1l0.2-0.7l0.7,0l0-0.8l0.8,0.3l0.1-0.8l0.6,0.7l0.5-0.6l0.1-0.9l0.9,0.6l0.6-0.5l1.2,0.2l1-1.1l7.4-0.1l1.8-1 l0.2-1.3l-0.8-0.9l-1.8,0.5l-0.3,0.7l-3.1-0.2l-1.3-1.1l-1.2,0.7l-1.2-0.5l-1.5,1h-1.2l-0.6,0.5l-0.8-0.9l-0.4,1.8l-0.9,0l-0.1,0.8 l-2.3,0.7l-0.8-0.4l-0.5,0.6l0.7,0.7l-0.9,0.9l-1.5-0.6l-0.2,1.1l-1.1-0.1l0,0.9l-1.5,0.8L94,36.1l-1,0.8l0,1.1l1,1l0,1.5L93,41.4 l0.7,1.6l0.8,0.1l0,0.7l0.9,0.2L96.2,44.2L96.2,44.2L96.2,44.2L96.2,44.2z M225,71.1l1.2-0.8l0.8-0.7l1.1-0.2l-0.3-2.2l1.9-0.6 l1.5-1.3l1.3,0l-1,1.4l1,0.8l1.4-1.6l0.4-2.5l1.3-0.5l1-1.3l-1.1-0.8l-0.9,1.1l-1-0.9l-0.2-4.5l-0.8-2.7l0.2-2l1.6-2.3l0.9-0.1 l0.4-1.3l1.9,2.6l1.3-0.2l0.1-1l-0.3-1.9l-0.3-1.4l-1.3-0.7l0,0v0l-0.2-1.3l-0.8-0.7l-1.3,0.1l-0.1,0l0-0.1l-0.8-2l-1.1-0.2h-0.1v0 l-1.8-2.6l-1.3,1.3l0,0h0l-1.7,0.1l-1.1,1l-0.1,0h0l-1.5-0.5l-1.6,0.8l-0.1,0l0-0.1l-0.8-1.4l-1-0.1l0.7,1.4l0,0l0,0l-0.8,1.2l0,0 l0,0l-1,0.4l-2.2,2l0.9,1.1l0,0l0,0.1l-0.9,0.8l0.7,1l0,0l0,0l0,1.2l1.1,1l0,0v0l-0.2,2v0l0,0l-1,1.2l0,0h0l-1.7,0.2l-1.9,1.8 l0.7,1.5l0,0.1l0,0l-2,1.5l-0.3,1.5l3,6.1l1.4-0.9h0h0l3.1,1l0,0v0.1l0.4,1.7v0v0l-0.7,1.3l0.6,1.1l1.2-0.9l0,0h1.6l0,0L225,71.1 L225,71.1z M231.5,98.2l-0.1-0.1l2.6,1.4l0.8,2.2l1.3,1.6l1.5,2.4l1.1,1.8l1.3,1l0.4,1.2l0.3,1l1.6,0.7l0.2,1.6l1.6,2.1l0.1-1.8 l-0.2-1.3l1.3-0.1l0.5-0.2l1.2,0.6l-1-2h-1.4l-1.5-0.7l-1.7-1.2l-1.1-2.8l-0.6-1.8l1.3-0.7l2.4-0.1L238,99l-3.9-3.5l-1.8-3.4 l-2.4-1.7l-1.2-1.4l-0.8,0.4l-0.2,0.8l1.4,1l0.8,1.2l-0.4,0.5l-0.7-0.2l-0.2,1l1.4,1l1.4,3.2l-0.1-0.1L231.5,98.2L231.5,98.2z  M192.6,113.1l3-1.5l2.3,0.8l2.7-0.4l4,4l5,5.2l1.9-0.8l1.2,0.6l0.9-0.4l1.6,0.5l0.9-0.1l1.6-2.4l-1.9-2.7l-2.4-1.2l-0.1,0v-1.6 l0,0l0.9-1.2l-0.6-0.7l0-0.1l0,0l1.3-1.5l0.2-1.3l0,0v0l0.9-1l-0.6-1.2l0-0.1l0.1,0l2.3-0.4l0.5-0.5l-0.9-2.7l-0.9-0.1l-0.4,0.9 l0,0h-1.4l-0.3,1.2v0l0,0l-1.9,1.7l0,0h0l-1.2,0.1h-0.1l0,0l-1-1.5H208l0-0.1l-0.1-1.3v0l0,0l1-0.6l-0.1-1.4v0l0,0l1.3-2.9 l-0.8-0.9l-5.5,2.9l0.1,0.9v0.1l0,0l-1.2,0.4l0,0l0,0l-1-0.2L198,103l0,0l0,0l-0.9-0.7l-2.6,1l0,0l0,0l-1.3-1.1l-2.1-0.1l-0.9,0.9 l-0.1,0.1l0-0.1l-0.9-0.8l-0.6,0.5l-0.1,0l0,0l-1.2-0.9l-1.4,0.6l-1.4,0.9l1.8,1.2l0.1,0l0,0.1l-0.5,0.7l0.8,0.8l1.5-0.8l0.1,0 l0,0.1l0.7,1.3l1.2-0.3l0.1,0l0,0.1l0.1,2.3l1.2,0.7l0.1,0l-0.1,0.1l-0.7,0.9L192.6,113.1L192.6,113.1z M215.5,28.2L215,29 l-2.4,1.3l-1.7-1.6l-1.7-0.2l-2.5,1.6l-1.7,2.1l-0.6,2.1l-1.1,0.3L202,34l-1.3,0.1l-0.7,0.9l-0.6-0.5l-0.6,0.6l-0.7-0.6l1-1 l-2.3-0.2l-1.3,1.2l0.7,2.5l-1.3,1.3v-1.9h-0.9l-0.9,0.8l-0.2-1l1.3-1.2l-1.4,0.1l-4.2,2.2l0.8,1l-1.2,1.2l0.5,0.9l0.9-0.4l0.1,1.3 l1,1.2l-1.6,0.4l-0.5,0.6l0.4,1l-1.3,0.2l-1.7-0.5l-0.5,1.9l-2.9-0.5v4.3l-2.1-0.3l-3.2-2.9l1.2-0.8l-1.9-2.9l-1.3-0.6l-1.9,0.6 l-2.1-0.8l-0.3,3.3l-3.8,1.6l-1.5-1l0.2-0.8l-3.9-0.1l-1,1.4l-0.3,0.9l-0.2-1.3l-0.7-0.6l-0.9,0.9l-1.2,0.6l-0.1,0.8l0.6,0.7v0v0 l0.2,1.3l1.9,2.6l0,0v1.7l0.9,1.1l0,0.1l-0.1,0.1l-2.2,1.7l-0.1,1v0v0l-0.5,0.8l-0.4,1.8l0,0.1h-0.1l-1.1-0.1l-1.7,1.4l0,0l0,0 l-0.7,0.1l1.5,2.3v0v0l0.5,5.8v0l0,0l-1.2,1.3l0.8,0.6l0,0v0l-0.3,1.5l0.7,0.8l0,0v1.1l0.8,0.6l0,0l0,0l-0.4,1v0l0,0l-1.2,1.5 l-0.1,1.1l2,0l0,0l0.9,0.7l0.9-0.6l0.1-0.1l0,0.1l0.5,0.6l0,0l0,0l0.7,1l0,0.1l-0.1,0.1l-0.8,0.5v0.9l0.9,0.1l0.7-0.5l0.1-0.1 l0,0.1l0.9,1.7v0v0l-0.1,2l1.1,0.6l0,0l0,0l-0.5,2.1l0.6,1.4l1.5,0.4l0.1,0l0,0.1l-1.1,2.6l-0.2,3.2l1.1,1.2l1.2-0.9l0,0h0l1.8-0.1 l0.6-1.1l0-0.1l0.1,0.1l1,1l1.3-1.5l2-4.3l0,0h0l1.3-0.2h0h0l2.6,1l0,0l0,0l0.6,1.7l1.6-0.7l0,0l0,0l1,0.7l0,0v0l1.8,4l2.3,4.2 l1.4-0.9l0,0l0,0l1.5-0.6l0,0l0,0l1.1,0.9l0.6-0.5l0-0.1l0,0.1l0.9,0.8l0.8-0.8l0,0h0l2.1,0.1h0l0,0l1.3,1l2.6-0.9l0,0l0,0l0.8,0.7 l3.5-1.6h0h0l1,0.2l1.1-0.4l-0.1-0.8V100l0,0l2.7-1.4l-0.7-1.9l0,0l0,0l0.9-1l-0.4-0.9l-1.7-1.1l0,0l0-0.1l0.9-1.8l-1.7-1.2l-0.1,0 l0-0.1l0.8-0.9v-4l0,0l3.3-1.3l0.1-1.5v-0.1h0.1l2-0.1l0.4-1.2l-0.1-1.3v0l0,0l1-0.4l-0.7-2.6l-1.3-0.9l0,0l0-0.1l0.9-3.1l-1.2-3.2 l0-0.1l0,0l0.7-0.9l0,0l0,0l2.4,0.8l1.5-0.3l0.5-0.9l0,0h0l1.8-0.3l0.3-1.1l-3-6.2l0,0v0l0.3-1.5v0l0,0l2-1.4l-0.7-1.4l0,0l0,0 l1.9-1.8l0,0h0l1.7-0.2l1-1.1l0.2-1.9l-1.1-1l0,0v0l0-1.2l-0.7-1.1l0,0l0-0.1l0.8-0.8l-0.9-1.1l0,0l0,0l2.2-2l0,0h0l1-0.4l0.7-1.1 l-1.4-2.9l-1.8,0h0l-1.4-0.6l0,0l0,0l-0.7-1.9l0,0l0,0l2.8-3.3v-1.6L215.5,28.2L215.5,28.2L215.5,28.2L215.5,28.2L215.5,28.2z  M210.1,27.3l-0.2,0.6l0.5,0.4l0.6-0.4l-0.2-0.8L210.1,27.3L210.1,27.3L210.1,27.3L210.1,27.3L210.1,27.3z M180.7,35.9l1.7,0.2 l0.1,0.8l-0.6,0.2l-0.8-0.5L180.7,35.9L180.7,35.9L180.7,35.9L180.7,35.9z M185.1,33.1l0.3,1.3h0.7l0.1-1.2l-0.7-0.6L185.1,33.1 L185.1,33.1L185.1,33.1z M186.7,34.2v1.5l1.7-0.4l1.6-0.8l-0.5-1.2l-1-0.1l-0.8-0.2l-0.6,0.9L186.7,34.2L186.7,34.2L186.7,34.2 L186.7,34.2L186.7,34.2z M187.2,25.7l0.5,1.1l3.3,0L192,25l-0.6-1.3l-0.7,0.8l-1.3-0.1l-0.4,0.6l-0.7,0l-0.1,0.7L187.2,25.7 L187.2,25.7L187.2,25.7L187.2,25.7L187.2,25.7z M186,20.2l-0.2,0.8l0.6,0.1l0.2-0.7L186,20.2L186,20.2L186,20.2L186,20.2z  M184.2,27.3l0.8,1.2l1.4,0.3l0-1.6l-0.5-0.8l-1.7-0.1l-0.9,0.6l-1.3-0.2l-0.1,0.9l0.8,0.8l-0.4,0.5l-1.3-1l-1.5,0.1l-0.1,1.2 l0.1,1.3l0.7,0.9l0.2,1l1.4,0.4l1.3-0.1l-0.1-1.4l0.9,0.1l0.7-1.2l0.9,0.2l0.6-0.6l-0.6-0.6l-1.3-0.4l-1-1.2L184.2,27.3L184.2,27.3 L184.2,27.3L184.2,27.3z M177.8,30.3l0.2,1l0.9,1l0.5-0.2l-0.6-1.2L177.8,30.3L177.8,30.3L177.8,30.3L177.8,30.3z M158.2,43.9 l1,0.8l0.4-0.7l0.1-0.6l-0.5-0.3l-0.7-0.1L158.2,43.9L158.2,43.9L158.2,43.9z M156.2,46.2l0.3,0.4l1.1-0.7l-0.2-0.7l-0.7,0 l-0.4,0.6L156.2,46.2L156.2,46.2L156.2,46.2z M120.7,124l1-0.3l0.7-0.4l1.2-1.2l-0.3-0.8v0v0l0.2-0.9l-0.3-1.2v0l0,0l0.8-1l0.4-1.2 l-1.2-0.4l-0.1,0v0l-0.2-0.7l0,0l0,0l0.9-1.2l-0.5-1.2v0v0l0.2-0.9v-0.1h0l1.2-0.6l0.6-0.6l-1.3-2.5l0,0v0l0.2-0.9l-1.4,0.6l0,0 l0,0l-1.8-0.8l-2.1,0.3l-0.8,0.9l0,0h0l-2.1,0l0,5.7l0.7-0.1h0.1v0.1l0.1,1.1l1.1,1.2v0l0,0l0.4,1l1,0.7l0.1,0.1l-0.1,0.1l-0.8,0.9 l0.6,0.7l0,0l0,0l-0.3,1.2v0l0,0l-0.8,0.5l0,1.4l1.8,0.1h0h0L120.7,124L120.7,124z M97,110.5l2.3,0l-0.9,1l1.9,3.1l0.9-0.5l0.1,0 l0,0l0.7,0.4l0.4-0.3l0,0h0l0.9,0.4l4.3-1.5l0.1,0l0,0l1.1,1.5l0,0l0,0l0.2,0.9l1.2,1.2l1.6-1.6l0.1,0l0.1,0l0.6,0.4l0.5-0.4l0,0h0 l1.8,0.2l1-0.9l0-5.8h-0.7l-1.1,0.9l-0.1,0l0-0.1l-0.5-0.6l0,0v0l0.1-2.2l-3.1-0.1h0l0-0.1l-0.6-1l-1.6,0h-0.1l0,0l-0.3-1.2l-1-1.3 l-5.5-2.6v1.8l0,0l-1,0.6l0.3,1.2l0,0.1l-0.1,0l-1.4-0.1l-1,0.4l-0.6,1.1l0.1,3.1l0,0l0,0L97,110.5L97,110.5z M26.4,104.2l1.4,0.5 l3.7-0.1l-0.3-1.5l0.9-0.2l0.7-3.9l-0.6-0.8l-0.9-0.2l0.1-0.7l1.1-1l-1-1.4l0.5-0.3l0.7-0.3L32,93.2l-2.5-0.5l-0.7,0.4l0.5,1.2v0v0 l-0.5,2.3l0.6,1.1l0,0v0l-0.6,1.7l0.2,1.1l0,0.1h-0.1l-1.1-0.1l-0.5,0.2l-0.1,0l0,0l-0.4-0.6l-0.4,0.4l0.6,1.3l0,0.1l0,0l-0.7,0.6 l0,0l0,0l-0.7,0.4L26.4,104.2L26.4,104.2z M81.4,72.6L81,73.3L80.7,74l0,0l0,0l-1.4,1.9v0l0,0L77.2,78h0v0l-1.8,0.8l0,0.8l0.5,1.1 l0,0.1l0,0l-0.8,0.9L75,82.8l0,0v0l-0.5,0.6l0,0h0l-1.7,0.1l-0.2,1.1l0,0l0,0l-0.7,0.5l-0.1,0l0-0.1L71,84.4l-0.9,1.5l0,0.1h0 L68.5,86l-1.3,1.5l0.2,0.7l0.6,0.5l1.5,0.7l0.5,0.1l0.5-0.1h0l0,0l2.5,2.2l0.5,0.1l0.4-0.2l0.1,0l0,0l0.7,0.7l0,0v0l0.1,0.4 l1.7-0.5h0h0l1.6,0.6l0,0l0,0l0.7,0.9l0.8-0.4l0,0l0,0l1.3,0.6l0.6-0.1l0-1.4l0,0h0l0.7-1.5l0,0h0l2.5,0.1l0.9-1.5l-0.6-1v0v0 l0.1-0.9l0,0l0.2-1.6l-1.7-1.1l0,0v0l-0.3-0.7v0l0,0l1-1.2l-0.2-1l0,0l-0.3-1.8v-0.1l0,0l0.8-1.1l0-1.3l-0.9-2.2l-1.6-0.9l0,0v0 l-0.2-1.1L81.4,72.6L81.4,72.6z M73,45.1l-1.3,1.2l-0.6-1.1L72,45l-1.1-2.1l-1.6,0.2l-1.6-0.6l-2.1,0.3l-1.1,2.8l-0.8-0.5l-1.2-2.8 l0.2-2.1l-1.9,0.2l-0.5,1.8l0.8,1l-0.8,1.1L59,43.8l-0.2-1.5l0,0L58.1,43l0,0h0l-0.6-0.1v0l-0.7-0.2l-0.1,0.5v0l0,0l-1.2,1.2 l-0.2,0.9l0.4,0.6l0.3,0.6l0,0l0,0L54.6,48l-0.3,1.2l0,0.1h-0.7L53,49.9l0,0l-1.1,1.3l-0.2,1.5l2.8,3.2l1,0.9l1,0.7l0,0l0,0 l1.1,1.2l1.7,0h0.1l0,0l0.7,1.7l0.5-0.2l0,0h0l1,0.3l0.1,0l0,0.1l-0.3,0.8l0.9,0.4l0,0v1l0.9-0.1h0l0,0l0.7,0.9l0,0v0l0.1,1.1 l0.7-0.6l0,0l0.1,0l1.2,0.5L67,64l0.1-1.2v0l0,0l2.6-2.1L69,59.5l-1,0.4l-0.5,0.6l-0.1,0.1l0,0L66,59.9l0,0v0l0-0.9v0l0,0l1-1.4 l0,0h0.1l1.2-0.1l0-0.5l-0.4-0.6l0,0l0,0l0.8-0.8l0.2-1.2l-0.9-1.5l0,0l0-0.1l0.4-0.7l0-0.1l0.1,0.1l3.3,2.5l0,0v0l0.2,0.9l1.2,0h0 l0,0l1.3,0.8l0.9-0.6l-0.2-1.1v0l0,0l0.4-0.7l-0.6-0.9l0,0l0,0l1.6-2.1l-0.7-0.9l-1.3-0.1h0l0,0l-1.4-2.1v0v0L73,45.1L73,45.1 L73,45.1L73,45.1z M60.5,39.1l0.3,0.4l0.5-0.3l-0.1-0.5l-0.4-0.2l-0.3,0.4L60.5,39.1L60.5,39.1L60.5,39.1z M33.4,60.3l0.1,0.8 l0.5,0.7l0.7,0.4l0,1.5l-0.4,0.6l-0.2,0.3l0.2,0.6l0.7,0.4c0,0.4,0.1,0.8,0.1,1.2l-0.5,0.5v0.5l0.7,0l0.4-0.3l0.5,0.2l0.9-0.4 l0.1,0l0.5,0.4l0.3,0.2l0.4-0.3l1.1,0l0.7-1.4L39.7,66l-0.5-0.6l0,0l-0.4-1.2c0.1-0.3,0.2-0.6,0.3-0.9l0.9-1l0,0l0.5-0.5l0.1-0.6 l-0.7-0.8l-1.7,0l-1.9-1.2l0,0l0-0.7l-0.2-0.1l-0.2,0.2l-1.6,0.2l0,0.2L33.4,60.3L33.4,60.3L33.4,60.3L33.4,60.3z M38.2,62.7 l-0.9-0.1L37,61.8l-0.4,0.7l-0.9,0.1l0.6,0.6l-0.1,0.9l0.7-0.4l0.7,0.4l-0.1-0.9L38.2,62.7L38.2,62.7L38.2,62.7z M34.4,68L33.6,69 l-0.4,0.6l-0.1,0.4l0.2,0.6L34,71v0h0l0.2,0.6v0l0,0v0.6l0.9,0l0,0l0,0l0.5,1l0.5,0.3l0.4-0.1l0.5-0.3l0,0l0.1,0l0.8,0.9l0.5,0.2 l0.5,0l1.7-1.5l0,0l0,0l0.9-0.6l-0.2-0.5l0,0L41,70.7l-1.7-2.9l-1-0.1l-0.4,0.3l0,0l0,0l-0.4-0.3l0,0L37,67.5l-0.2,0.2l0,0h0 L36,67.9h0h0l-0.4-0.2L35.3,68l0,0h0L34.4,68L34.4,68z M35.5,44.6L35.1,45l-0.2,0.6l0,2.1v0.1h-0.1l-1.5,0.5l-0.1,0.7v0l-0.1,0 L32.7,49l-0.1,0.5v0l0,0l-0.2,0.2l0.5,0.5l1,0.7l1.9,0.5l0,0l0,0l0.6,0.5l1.8,0.1l0.1-0.7v0h0l0.4-0.3l0,0l0.1,0l0.8,0.6h0v0.1 l0.2,0.7l1,0.8l0.9,0h0h0l1.4,1.2l0.1-0.6L43,53.2l-0.6-0.7l0,0l0-0.1l0.6-0.9l-0.1-1l-0.5-1l0,0l0,0l0.1-0.7l-0.5-0.1l0,0l0-0.1 l-0.1-0.5l-0.9,0h-0.1v0l-0.3-0.5l0,0l0-0.1l0.2-0.4l0-0.6l-0.7-0.2l-0.2,0.3l0,0l-0.1,0l-0.5,0h0v0L38.6,46l-0.8,0.1h-0.1l0-0.1 l-0.4-0.8L36.8,45l-0.9,0.4l-0.1,0.1l0-0.1L35.5,44.6L35.5,44.6z M20.5,70.2l-0.6,0.8l-0.3,0.5l0.1,0.7l0.7,0.3l-0.1,1l1.6,1l0,1.9 l1.3,2.4l1.8-1.8l-0.2-0.8v0v0l0.3-0.5l0,0h0l0.6,0l0-0.3l-0.3-0.2l-0.1,0l0-0.1l0.4-0.5v-0.9l-1.2-1.2l-1.2-0.2h0v0l-0.9-0.6l0,0 l0,0l-0.2-0.7l-0.4,0l-0.4,0.2l0,0l-0.1,0L20.5,70.2L20.5,70.2z M21.7,65.9L21,66.2l-0.4,0.7l-0.5,0.1L20,67.9l0.7,0.4L20.6,70 l0.9,0.8l0.4-0.2h0h0l0.5,0.1l0.1,0l0,0l0.2,0.7l0.8,0.6l1.2,0.2h0l0,0l1.2,1.2l0.6-0.5l0,0H27l0,0l0.2,0.3l0.2-0.1l0.1-0.3 l-0.5-0.7v0l0,0l0-0.7l-0.6-0.2l0,0v0l-0.2-0.4l0,0v-0.6L26,69.8l0,0v-1.3L24,66L21.7,65.9z M24.4,60.1L23.2,60l-0.9-0.8l0.1-0.8 l-0.8-0.2l-0.5,1.2l-1.8,1.5l0.1,1l0.9,0l0.7,0.6l0.2,1.2l0.8-0.1l0.9,0.2v0.6l-1.1,1.5l2.2,0.1l2.7-2l-0.2-0.3l0,0V63l0,0l0.3-0.3 l0,0h0l0.5-0.3L27.3,62l-0.5,0l-0.3,0.2l0,0.1l0-0.1L25.9,62l0,0l0,0l-0.3-0.6l0,0v0l0-0.5v0l0,0l0.3-0.5l-1.3-0.1h0v0L24.4,60.1 L24.4,60.1z M23.4,78.9l0.4,0.7l0,1.6l1.1,0.6l0,0l0.8,0.5l0.7-0.5l0,0h0l1.1,0.1l1.2-0.7l0.1-0.9l0-0.1h0.1l1.3,0.2l0.7-0.2l0.1,0 l0,0l0.5,1.1l1.2,0.4l0.2-0.2l0.1-1.3l-0.7-0.6h0v0l-0.1-0.9l-0.5-0.5L31,77.7l0,0v0l0.1-1.3l-1.5-1.2h0v0l-0.1-0.9L28.9,74h-0.1 v-0.6L28.6,73l-0.8-0.1l-0.1,0.4l0,0h-0.1l-0.3,0.1h-0.1l0,0l-0.2-0.3h-0.4L26,73.6v1l0,0L25.7,75l0.3,0.2l0,0v0l0,0.5v0.1h-0.1 l-0.6,0l-0.2,0.4l0.1,0.8v0l0,0L23.4,78.9L23.4,78.9z M30,69.6l-1.6,1.3l-0.3,0.5l0,0.1h0l-0.9-0.1l0.1,0.7l0.5,0.7l0.9,0.1h0l0,0 l0.2,0.4l0,0v0.5l0.5,0.3h0l0,0.1l0.1,0.9l1.4,1.1l0.7-0.3l0.2-0.5l-0.1-0.7l-0.2-0.4l0,0l0,0l0.3-0.5v0l0,0l1.2-0.5l0.7-0.7l0-0.8 l-0.2-0.5l-0.7-0.5h0v0L33,70l-0.6-0.1l-0.9,0.5l0,0h0l-0.7-0.1h0l0,0L30,69.6L30,69.6z M34.1,72.4v0.1v0h0l-0.8,0.7l0,0h0 l-1.2,0.6l-0.3,0.4l0.2,0.4v0l0,0l0.1,0.7v0l0,0L32,75.9v0l0,0l-0.7,0.3l-0.1,1.3l0.7,0.5h0l0,0l0.5,0.5h0v0.1l0,0.8l0.7,0.6 l1.1-0.2l2.2-1.1l0.3-0.4l0-1.8l0,0l0,0l0.2-1.2v0v0l1-1.1l-0.7-0.9l-0.5,0.3l0,0h0l-0.4,0.1h0l0,0l-0.6-0.3v0l0,0l-0.5-1 L34.1,72.4L34.1,72.4z M33.8,64.5l0.2-0.3l0.4-0.6v-1.4L33.9,62l0,0v0l-0.5-0.7h0v0l-0.1-0.8l-0.8,0.5v0h0l-1.6,0.1h0l0,0l-0.3-0.4 l-0.5-0.1l-0.4,0.2l-0.1,0l0-0.1L29,59.5l-0.7,0L27.7,60l0,0h0l-1.1,0L26,60.3l-0.3,0.5l0,0.5l0.3,0.5l0.4,0.2l0.3-0.2l0,0h0 l0.7,0.1h0l0,0.1l0.1,0.5v0l-0.1,0L27,62.8l-0.3,0.3v0.4l0.2,0.4l2.2,1.2l1.4-0.8l0,0l0,0l0.4,0.1l0,0l0,0l1.1,0.7l0.3-0.4v0h0 L33.8,64.5L33.8,64.5z M40.6,61.9l-0.5,0.4l-0.9,1L39,64.1l0.4,1.2l0.4,0.6l0.3,0.3l0,0v0l-0.3,0.9l0,0v0l-0.4,0.6l1.7,2.8l1.2-0.7 v0h0l1.5,0l1.6-1l-0.4-0.9l-1.6-2.1l-0.8-0.3l0,0h0l-0.6-0.7l0-0.1l0-0.1l0.5-0.6l0.2-0.7L42.3,63l-0.8,0.7l-0.1,0l0-0.1l-0.7-0.8 l0,0v0L40.6,61.9L40.6,61.9z M45.1,63.4l1.4,0.7l0.7-0.2h0l0.1,0l0.5,0.5l0,0v0l0,0.9l1,0.6l0,0v0L48.7,68l2.9,0l0.3-0.2h0h0l1,0h0 l0,0.1l0.3,0.7l0.7,0.3h0v0l0.7,0.7l1.1-1.1l0,0h0l2.6,0l0-1.6v-0.1h0l0.5-0.5l-0.6-0.6l-1.4,0.4h0l0,0L55,64.9l0,0l0,0l-1.3-2.3 l-1.9-1.1L49,61.3L48,62h0h0L46.8,62l-0.3,0.5l0,0l0,0L45.1,63.4L45.1,63.4z M40.8,61l1.2-0.5l-0.2-0.6v0v0l0.4-2.1l0-0.1h0.1 l1,0.1l1.4-1.3l-0.2-1.6l-1.3,0l0,0.1l-0.1-0.1l-1.5-1.3l-0.9,0h0l0,0l-1-0.8l0,0v0l-0.2-0.8l-0.8-0.5l-0.3,0.2l-0.1,0.7l0,0.1 h-0.1l-1.9-0.2h0h0l-0.7-0.6l-1.9-0.5l0,0h0l-1-0.7l0,0l0,0l-0.5-0.5l-0.5,0.5l-0.3,1.3l0,0l0,0l-0.5,0.8l0,0h0l-1.3,0.2l0.3,0.8 l1.1,2.1l0.8,0.6l1.8,0.3h0v0.1l0.1,0.8l0.7,0.9l0,0v0l0,0.1l1.5-0.2l0.2-0.2l0-0.1l0.1,0l0.3,0.2l0,0v0.1l0,0.7l1.8,1.2l1.7,0h0 l0,0L40.8,61L40.8,61z M48.8,61.2l-1-1l0,0l0-0.1l0.4-1.5l-0.8-1l-0.7,0h0h0l-1.8-1.2l-1.4,1.3l0,0h0l-1-0.1l-0.4,2l0.2,0.7l0,0 l-0.1,0l-1.3,0.6l-0.1,0.6l0.1,1l0.7,0.7l0.8-0.7l0,0l0.1,0l0.2,0.2l1.6-0.2h0h0l0.7,0.4l1.4-0.8l0.4-0.5l0,0h0l1.2,0L48.8,61.2 L48.8,61.2z M46.8,92.3l0,1l0.5,1.3l0.6-0.1l0.4-0.4l0.9,0.5l0,0.6L49,95.7l0.3,0.3l0.9,0.3l0.4,1.2l0.3,1.5l-0.4,1l0.4,0.8l1-0.6 l0.4,0.1l0.3,0.7l0.2,1.1l0.7,0.5l0.8-0.5l0.7,0.1l1.4,0.6l0,0.7l0.3,0.5l0.7,0.1l0.6-0.6l0.6,0.6l0.8,0.5l-0.2,1.2l0.2,0.7 l0.8,0.9l0.7,0.2l0.7-0.4l0.5,0.2l0.4,0.8l1.6,0.5l0.7-0.5l0.7-1l-1.2-2.7l-0.1-0.1l0,0l0,0l-0.2-0.8l0-0.1l0,0l0.7-0.5l0.2-0.5 l-0.3-0.7l-1.7-0.5l-0.8,0.2l-0.4,1l0,0.1h0l-1-0.1h0l0,0l-1-1l-1.7-0.4l-0.1,0v0l-0.4-0.7l0-0.1l0,0l0.7-0.7l-0.4-0.4l0,0v0l0-0.5 v0l0.1,0l0.6-0.2L58,97L57,97l-0.4,0.3l-0.1,0.1v-0.1L56.3,96v-0.1l0,0l0.4-0.2l0-0.7l-0.4-0.4l0,0v0l0.1-1.8L56,92v0v-2.4 l-0.5-1.1l0,0v0l0.2-0.9l-0.6-0.7l0,0.1l0,0L54.7,88l0,0l0,0l-0.2,0.5l0,0h0l-1.8,1.1l-0.5,0.9l0,0h0l-1.3,0.4v0l0,0l-0.7,0.1 l-1.3,1.2h0h0L46.8,92.3L46.8,92.3L46.8,92.3z M62.7,83.9l-0.8,0.7v0h-0.7l-0.2,1v0h0l-1.3,0.4h0l0,0L58.2,86l-0.1,0.8l0.6,0.6v0 l0,0l0.1,1v0l0,0l-0.2,0.4l0,0.1l-0.1,0l-0.9-0.5l-0.5,0l-0.3,0.8l0,0l-0.3,0.7l0,0.1h-0.3v2.3l0.5,0.7v0v0l-0.1,1.8l0.4,0.4l0,0v0 L57,95.8l0,0.1l0,0L56.5,96l0.1,1.1l0.4-0.2v0h0l1-0.1h0.1v0.1L58,98.1v0l0,0l-0.6,0.2l0,0.4l0.5,0.5l0.1,0l-0.1,0.1l-0.7,0.8 l0.4,0.7l1.7,0.4h0l0,0l1,0.9l1,0.1l0.4-0.9l0-0.1h0l0.8-0.2l0.1-0.7l0.1-0.8v-0.1h0.1l1-0.2l0.1-0.8l0,0l0,0l0.9-1.5l0,0l0,0 l1.4-0.8l0,0l0,0l0.7,0.4h0.4l0.3-1v0l0,0l0.7-0.2l0.4-0.3l-0.5-0.6l-0.4,0.2l-0.5,0.3h0h0L65,93.9l0,0h0l-0.5-0.4l0,0v0l-0.6-1.4 l0-0.1l0,0l0.3-0.8v0l0,0l1.1-0.7l0,0h0l0.6,0h0l0,0l0.5,0.7v0v0l0,1.1l0.4,0.3l0.6-0.2l0,0h0l0.5,0.1h0l0,0l0.4,0.2l0,0h0l0.8,0.8 l0.4-0.2l0.3-0.6l-0.5-0.7l0,0v0l-0.1-0.6v0v0l0.5-1l0.1-0.8l-0.4-0.1h0l0,0L68,88.9l0,0h0l-0.6-0.5l0,0v0l-0.2-0.7l-0.6,0.2h0l0,0 l-0.3-0.4l0,0v0L66,86.7l0,0l-0.1-0.4l-0.7-0.1l-0.1,0v-0.1l-0.1-0.9l-1.6-0.1h-0.1v-1.3L62.7,83.9L62.7,83.9z M57.3,81l0.2,0.5 l0.5,0.8l1.2,0.2l1.1-0.6l0,0l0,0l0.3,0.2l0,0l0,0.1l-0.3,0.6l0.1,0.3l0.6,0.1h0.1l0,0.1l0,0.4v0l0,0l-0.6,0.4l0.2,0.2l0.5,0h0.7 l0.8-0.7l0-1.8v-0.1h0.1l0.7,0l0.7-0.8l0.5-1.2v0h0l0.7-0.7l0.8-2.1l-0.4-0.3l0,0h0l-0.5-0.5l-0.6,0.1h0l0,0l-0.8-0.8l-1.3-0.1 l0,0.5l0,0l-0.1,0.6v0l0,0l-0.9,0.8l-0.1,0l0,0l-0.7-0.4l-0.6,0l-0.6,2.1l0,0l-0.1,0l-1.3,0.2L57.3,81L57.3,81z M52.6,72.9 l-1.2-0.8l-0.6,0.5h0h0l-1.1,0l-0.1,1.8l2.2,0.7l0.1,0v0.1l0.3,1.7v0l0,0l-0.1,0.9l0.6-0.2l0,0l0,0l1.8-0.2h0h0l1.3,0.4l0,0v0 l0.4,0.7l0.7-0.6l0-1.5l-0.3-0.7l-0.9-1l-2.3-0.4l0,0h0l-0.5-0.4l0,0v0L52.6,72.9L52.6,72.9z M42.7,83.9l0,1l1.8,1l0.7,0.2l0.5-0.2 l0.1-0.6l-0.4-0.2l-0.1,0l0-0.1l0-0.3v0v0l0.5-0.7l0,0h0l1.2-0.2l0,0l0.7-0.1h0l0,0l0.7,0.5v0h0l1.1,0.9l0.7,0.1l0.5-0.3l0.9-1l0,0 l0,0l0.2-0.2L51.2,83l0-0.1l0,0l0.3-0.4l-0.1-0.7l-1.4-0.1h0l0,0l-0.8-1.1l-1,0h-0.1v-0.1l-0.4-0.9l-1.1-1.3l-0.1,0.2l-0.2,1v0l0,0 L46,79.8l0,0.1l0,0l-1.7-0.6V81l0,0l-0.4,0.4l0.3,0.6l0,0l0,0l-0.1,0.4v0l0,0L42.7,83.9L42.7,83.9z M45.2,86.2l0,0.6l0.3,1l0.7,1 l0,0v0L46.2,90l0.7,0.9h0v0l0.1,0.5l0,0l0,0l0,0.5l1.8-0.1l1.3-1.1l0,0h0l0.7-0.1l1.3-0.4l0.4-0.9l0,0l0,0l1.8-1l0.2-0.4l0.3-1.1 l0.1-0.5l-0.9-1.4l-0.4-0.4L53.3,85h0l0,0l-0.4,0.1l0,0l-0.1,0L52,84l-0.2,0.1l-0.9,1l0,0l0,0l-0.6,0.3h0h0l-0.7-0.2h0h0l-1.1-0.9 l-0.7-0.6L47,83.9L45.9,84l-0.5,0.6l0,0.3l0.4,0.2l0,0v0.1l-0.1,0.7v0l0,0L45.2,86.2L45.2,86.2z M37.7,91.6l0.8,0.8l-0.1,0.9 l-0.2,0.7l0.5,0.9l1-0.5l0.5-1l0.6-0.6l1.4,0.2l0.7-0.6l0.5-0.1l0.4,0.3l1.4-0.1l1-0.3l0.7-0.1l0-0.1l0-0.6l0-0.5l-0.7-1l0,0v0 l0.1-1.2l-0.7-0.9v0l0,0l-0.3-1.1v0l0,0l0-0.6L44.4,86l0,0h0l-1.8-1l0,0v0l0-1l-1.8-0.3h0l0,0l-1.9-1.1l-0.1,0v-0.7l-0.2-0.5 l-0.9-0.1h0l0,0L36.1,79L34.3,80h0l0,0l-1.1,0.2l-0.1,1.3l0,0l0,0l-0.3,0.3l0.1,1l0.5,0.7l0.8,0.2h0v0l1.5,1.4l0,0v1.1l0,0 l-0.7,0.7l0,0.7l0.5,0l0.6-0.3l0.1,0v0.1l0,1.2l0.4,0.5l0.9,0.2h0.1v0.1L37.7,91.6L37.7,91.6z M39,74.4l-0.5,0h0l0,0l-0.5-0.2 L37,75.4l-0.2,1.2l0,1.8v0h0l-0.3,0.4l0,0h0l-0.2,0.1l1.4,2.1l0.9,0.1h0.1l0,0l0.3,0.5l0,0v0.6l1.9,1.1l1.8,0.3l1.4-1.3l0.1-0.4 l-0.4-0.7l0,0l0,0l0.4-0.4v-1.8l-0.7,0h-0.1l0,0l-0.4-1l-1.1-0.2l-0.4,0.3l-0.1,0.1l0-0.1l-0.6-1l0,0v0l-0.1-1.2h-1.2l0,0L39,74.4 L39,74.4z M41.7,72.3l-0.9,0.6l-1.6,1.5l0.5,1.4h1.2l0,0.1l0.1,1.2l0.6,1l0.3-0.3l0,0l0,0L43,78h0l0,0l0.4,1l0.6,0v0l0.1,0l1.8,0.6 l0.2-0.3l0.2-1v0l0,0l0.2-0.3l0.3-0.6l0-0.4l-0.5-0.3l0,0l0,0l-0.1-0.5L46.1,76l-0.1,0.3l0,0h-0.1l-1.2,0.1l-0.1,0.3l0,0.1l-0.1,0 l-0.6-0.1h0l0,0l-0.6-1.2v0v0L43,73.7L41.7,72.3L41.7,72.3z M41.2,70.7l0.3,0.8l0,0l0.2,0.6l1.4,1.4l0,0v0l0.2,1.7l0.6,1.1l0.5,0.1 l0.1-0.3l0-0.1h0l1.2,0l0.2-0.3l0.1-0.1l0,0l0.4,0.2l0,0v0.1l0.1,0.5l0.4,0.2l1-0.7l0.1-1.3l0-0.1l0.1,0l1.3-0.4l0.1-1.9v-0.1h0.1 l1.1-0.1l0.6-0.5l0,0l0.1,0l1.2,0.8l1-1.4l0-0.1l0.1,0l1.2,0.8l0.8-0.4l0.4-0.4l-0.7-0.9L54,69l-0.8-0.3l-0.1,0v0l-0.2-0.7l-0.9,0 l-0.4,0.2h0h0l-3,0L48,68.5l0,0l-0.1-0.1l-0.4-0.4l-0.9,0.1l-0.4,0.5v0h-0.1l-0.6,0.1l-1.7,1l0,0h0L42.4,70L41.2,70.7L41.2,70.7z  M67.6,70.1l-1.1,0.5l0,0l-0.1,0l-3-1.2l-1,1.2l-0.1,0.1l0,0l-0.5-0.4l0,0v-1.8l-0.2-0.6l0-0.1l0,0l2.4-2.7l-0.1-1.2l-0.7-0.9 l-1,0.1l-1.4,0.9l0,0h0l-1.2-0.1l-0.2,0.4l0.9,0.8l0,0.1l0,0l-1.1,1.1l0,0l-0.5,0.6l0,1.7v0.1h-0.1l-2.6-0.1l-1,1.1l0.7,0.7l0,0v0 l0.7,1l0,0l0,0l-0.4,0.5v0h0l-0.9,0.4l0,0l0,0l-1.1-0.8l-1,1.3l0.2,1l0.5,0.4l2.3,0.4l0,0h0l0.9,1l0,0v0l0.3,0.7h0v0l0.1,1.5v0l0,0 l0,2.5l0.1,0.3l0.6-1.4l0,0l0,0l1.3-0.2l0.6-2.2l0,0h0l0.7,0l0,0h0l0.7,0.3l0.9-0.7l0.1-0.6l0-0.5l0-0.1h0.1l1.4,0h0l0,0l0.8,0.8 l0.7-0.1h0.1l0,0l0.5,0.6l0.4,0.3l0.7-0.8l0.5-0.7L66.8,75l-0.1,0v-0.9l0.1,0l2.3-0.9L69,71.9L67.6,70.1L67.6,70.1z M79.3,73.2 L79.3,73.2L79.3,73.2l-2.5-2.1l-0.9,0.5v0h0l-2.4-0.3v0L72,70.6L71.8,73l-0.7,1.7l0.8,1.4l-0.2,0.6l-2.7,0l-2.3,0.1l-0.1-0.2 l-0.3,0.4l-0.9,2.2l0,0v0l-0.7,0.7l-0.4,1.2l0,0l0,0l-0.7,0.8l0,0l0,0l-0.7,0l0,1.6l0.7,0h0.1V85l1.6,0.1h0l0,0.1l0.1,0.9l0.7,0.2 H66v0.1l0.1,0.4v0l0.1,0.6l0.2,0.3l0.6-0.1l1.4-1.6v0h0l1.5-0.2l0.9-1.5l0.1-0.1l0.1,0.1l0.7,0.8l0.6-0.4l0.2-1.1l0-0.1h0.1 l1.7-0.1l0.5-0.6l0.1-1.2v0h0l0.7-0.9l-0.5-1l0,0v0l0-0.8v-0.1l0.1,0l1.8-0.8l2.1-2.1l1.4-1.8l0.3-0.6L79.3,73.2L79.3,73.2z  M71.9,70.5L71.9,70.5l-1.5-1.7l-2-0.2L67.7,70l1.4,1.9c0,0.5,0.1,0.9,0.1,1.3l-2.4,1l0,0.8l0.7,0.6l-0.9,1.2c0,0,0.1,0.1,0.1,0.1 l1.9-0.1l2.8-0.1l0.2-0.4l-0.8-1.4l0.7-1.8L71.9,70.5L71.9,70.5L71.9,70.5z M85.3,101.4l1.2,0l1,1.7l0.8,0.2l0-0.1l0.3-0.7v0l0,0 l1.4-1.3l0.2-1l0,0v0l0.9-1l0,0h0.1l1.1,0.2l0.3-0.4l0.2-0.8l-0.3-0.8l-0.9-0.4l0,0l0,0l-0.1-0.5v0l0,0l0.4-0.5l0.1-1.3l0-0.1l0,0 l1.5-1.5l0,0l0.1,0l0.9,0.9l0,0l0,0.1L94,94.5l0.6,0.1h0h0l1.5,1.1l1.2-0.2l0,0l0,0l1.1,0.6l1.1,0l1.4-1l-2.6-2v0l0,0l-1.3-2.5l0,0 l-0.9-2.1l-0.7-0.2l0,0l0,0L94,87.8l0,0l0,0l-0.8-0.7L93,87.7l0,0.1h0l-1.2,0L91.4,88l0,0l0,0l-0.8,0.4h0h0l-0.6-0.1l-0.4,0.3l0,0 h-0.8l0,0l-1-0.4L87.3,89l0,0h0l-1.4,0.3L85,90.9l0,0.1l-0.1,0l-2.4-0.1l-0.7,1.4l0,1.4v0.1h-0.1l-0.7,0.2L80.9,95l0.6,1.3h0l0,0 l0.2,0.9l1,0.3h0v0l1,0.9l0,0v0l0,0.9l1.4,1.2h0v0L85.3,101.4L85.3,101.4L85.3,101.4z M73.7,99.9l2.4,0.6l1.4,0.9l0.8-0.7l1.2,0.7 l4.1,0.8l1.5-0.7v0l-0.1-0.8l-1.4-1.3l0,0v0l0-0.9l-0.9-0.8l-1-0.3h-0.1v0l-0.2-0.9L80.8,95l0,0l0,0l0.2-1.1l-1.2-0.5L79,93.7 l-0.1,0l0,0l-0.7-0.9l-1.5-0.5l-1.7,0.5l0.1,0.5l0,0v0l0,1.5v0l0,0l-2.3,1.8l-0.1,0.8l1.8,1.1l0,0l0,0.1L73.7,99.9L73.7,99.9z  M64.1,104.1l0.5-0.7l1.6-0.1l0.1-1.2l0.8-0.4l0.8,0l1,0.8l0.6-0.5l-0.7-1.2l-0.4-1.2l0.8-0.9l0.8-0.2l1.1,1.2l2.4,0.1l0,0v0h0 l0.6-1.2l-1.7-1l0,0v-0.1l0.1-0.9v0l0,0l2.3-1.8l0-1.5l-0.2-1.1L74,91.6l-0.3,0.2l0,0h0L73,91.7h0v0l-2.5-2.1l-0.5,0.1L70,90.5h0v0 l-0.5,1l0.1,0.5l0.5,0.7l0,0l0,0.1l-0.3,0.6l0,0l0,0l-0.5,0.2l-0.1,0l0,0l-0.9-0.8L68,92.6l-0.5,0l-0.6,0.3h-0.1l0,0l-0.5-0.4l0,0 v0l0-1l-0.4-0.6l-0.6-0.1l-1,0.6L63.9,92l0.6,1.3l0.5,0.4l2.3,0.7l0.5-0.2h0l0.4-0.2l0,0l0.1,0l0.7,0.7l0,0.1l0,0.1l-0.5,0.4l0,0h0 l-0.7,0.2l-0.3,1l0,0h-0.5h0l-0.7-0.4l-1.4,0.8L64,98.3l-0.1,0.9l0,0l0,0l-1,0.2l-0.1,0.7l0,0l-0.1,0.7l1.7,0.5h0l0,0l0.4,0.8 l0,0.1l0,0l-0.2,0.5v0l0,0l-0.6,0.5L64.1,104.1L64.1,104.1z M44.9,56.4l1.8,1.1l0.7,0h0.1l0,0l0.8,1l0,0v0.1l-0.4,1.5l1.1,1 l2.9,0.1l0,0h0l1.9,1.2v0h0l1.2,2.3l2,1.2l1.4-0.4h0.1l0,0l0.6,0.6l0.9-1l-0.8-0.8l-0.1,0l0,0l0.2-0.5l0-0.1h0.1l1.3,0.1l1.3-0.9 V62l-0.9-0.5l0,0l0-0.1l0.3-0.8l-0.9-0.3L60,60.6l-0.1,0l0-0.1l-0.7-1.7l-1.7,0h0l0,0l-1.1-1.2l-1-0.7h0l0,0l-1-0.9l0,0l0,0 l-2.9-3.2l0,0v0l0.2-1.6v0l0,0l1.1-1.2l-0.7-0.2l0,0v-1.2h-0.9l-0.6,0.5l0,0h0l-1.2,0h0l0,0l-0.6-0.6h-0.5l-0.8,0.2l-1.3,1 l-0.8,1.8l0,0h-0.1l-1.4-0.1l-0.8,0.4l-0.6,0.8l0.6,0.7l0,0v0l0.2,0.8l0,0v0l-0.1,0.7h1.4h0.1v0.1L44.9,56.4L44.9,56.4z M35.3,40.6 l-0.9,0.1l-1.4,1l-0.8,1.1l-1.5-0.1l-0.9,1.5l-1.1,0.1l0,1.2l-1.6,1l0.1,1.5l0.7,0.8l-0.7,0.9l0.2,0.7l1.1,0.2l0.2,1.1l-0.3,0.6 l0.1,0l0.7-0.2l0,0l0,0l0.4,0.2l1.4-0.3l0.5-0.8l0.3-1.3v0l0,0l0.8-0.8l0.1-0.5v0l0.1,0l0.5,0l0.1-0.7v-0.1l0.1,0l1.5-0.5l-0.1-2v0 l0,0l0.2-0.7l0,0v0l0.5-0.4L36,43l-0.6-1l0,0v0L35.3,40.6L35.3,40.6z M28.2,52.7L28,53.1l-1.4,0.8l-0.7,1.2L25,56.7L24.9,58 l0.2,0.8l-0.6,0.7l0,0.6h0l1.4,0.1l0.6-0.2l0,0h0l1.1,0l0.6-0.6l0,0h0l0.8,0h0.1v0.1l0.3,1.2l0.3-0.2h0h0l0.6,0.1l0,0l0,0l0.3,0.4 l1.6-0.1l0.9-0.6l1-1.5l0-0.4l-0.7-0.8v0l0,0l-0.1-0.8l-1.8-0.3l0,0h0l-0.9-0.6l0,0l0,0l-1.1-2.1l0,0h0l-0.4-0.9L29,52.6l-0.7,0.2 h0h0L28.2,52.7L28.2,52.7z M24.2,66l1.9,2.5h0v1.3l0.3,0.4v0v0.6l0.1,0.3l0.6,0.2l0.9,0l0.3-0.5v0h0l1.6-1.3l0.2-1.4l-0.7-0.7l0,0 v0L29,66.6l0,0v0l0-1.4L26.9,64L24.2,66L24.2,66z M29.2,65.2l0,1.4l0.4,0.8l0.7,0.7l0,0v0.1l-0.2,1.4l0.6,0.7l0.6,0l1-0.5h0h0 l0.6,0.1l0.1-0.4v0l0,0l0.4-0.6h0l0,0l0.9-1v-0.6l0,0l0.5-0.5l-0.1-1.1l-0.6-0.4l0,0v0l-0.3-0.5l-1.3,0l-0.3,0.4l0,0.1l-0.1,0 l-1.2-0.7l-0.3-0.1L29.2,65.2L29.2,65.2z M57,78.1l-0.6,0.6l-0.1,0.1l0-0.1l-0.5-0.7l-1.2-0.4l-1.8,0.2L52.1,78l0,0l0,0l-1.2,0.3 l-0.5,0.3l-0.1,0.9l0,0l0,0l-1.2,0.1L48.1,80l0.1,0.3l1,0.1h0l0,0l0.8,1.1l1.4,0.1h0.1v0.1l0.1,0.9l0,0l0,0l-0.3,0.3l0.7,0.8v0 l0.1,0.1l0.7,1.1l0.3-0.1l0.5-0.3l0,0l0.1,0l0.4,0.4l0,0l0,0l1,1.4l0,0v0.1l0,0.2l0.7,0.8l0,0v0l-0.2,1l0.5,1h0.2l0.3-0.7l0,0 l0.4-0.8l0,0H57l0.6,0h0l0,0l0.8,0.5l0.2-0.3l-0.1-0.9l-0.6-0.6l0,0v0l0.1-0.9v-0.1h0.1l1.5,0.2l1.2-0.4l0.1-1l-0.4,0h0l0,0 l-0.3-0.3l0-0.1l0.1-0.1l0.6-0.5l0-0.2l-0.6-0.1h0l0,0l-0.1-0.4v0l0,0l0.3-0.6l-0.2-0.1l-1.1,0.6l0,0h0l-1.3-0.2l0,0l0,0l-0.5-0.9 l0,0h0l-0.3-1l0,0v0L57,78.1L57,78.1z M43.5,38.5l-1.4,0.1l-1.8,0.7l-0.1,1.4l0.2,0.7l-0.5,0.4l-0.4-1l-0.7-0.1l-1.1-1l-1.4,0.9 l-0.9,0.1l0.1,1.3l0.6,1l0,0v0l-0.5,1.5l0.2,0.7l0.8-0.4l0.1,0l0,0l0.6,0.3h0v0l0.4,0.8l0.8-0.1h0l0,0l0.5,0.5l0.4,0.1l0.2-0.3l0,0 l0.1,0l0.8,0.3h0.1v0.1l0.1,0.7v0l0,0l-0.2,0.4l0.2,0.4l0.9,0h0.1l0,0.1l0.1,0.5l0.6,0.1h0.1l0,0.1l-0.1,0.8l0.5,1.1l0,0l0,0 l0.1,0.9l0.7-0.4l0,0h0l1.4,0.1l0.8-1.8l0,0l0,0l1.3-1l0,0l0,0l0.8-0.3h0l0,0l1.2,0l0.6-0.5l-1.1-1.5l-0.7-0.1l0,0v0l-0.4-1.1 L47.3,45l-0.1,0.7l0,0.1l-0.1,0l-0.4-0.1h0l0,0l-0.3-0.5l-0.3,0.1L46.1,46v0.1l-0.1,0L45.5,46h0v0l-0.3-0.6l-1.4,0h0l0,0l-0.6-0.8 h-1.3l0,0l-0.4-0.4l0,0l0,0l2.2-2.7L43.5,38.5L43.5,38.5z M13.3,34.6l2.9,6.4l1.9-0.9l0.1-3.5l-0.9-1.4L17,36.8l-0.9-0.6l-0.7-2.1 l-0.9,0.5L13.3,34.6z M23.7,81.4v0.4l-1.4,0l-0.5,0.8l-0.7,0.1l-0.8,1.5l-1.4,0.5l-1-1.5l-2.4-0.3L14.4,84l2.4,1.4l-0.7,0.5 l-1.2-0.7l-0.7,0.5l0.4,0.8h0.9l0,0l1,1.3l0,0.1l0,0l-0.8,1.5l1,1.2l0.1,0.1l0,0l-0.2,0.5l-0.1,1l0.6,0.7l0.5-0.6l0,0h0.1l0.9,0.4 l0.3-0.6l0,0l0.1,0l0.7,0.3l0.1,0v1.2l0.8,0.4l0.1,0V95l0.4,0.7l1.1-0.1l0.3-0.6l0,0h1.7l1.1-1.2l0-0.6l-1-0.1l-0.1,0v0l-0.1-0.8 L23.4,91l0,0v0l0.5-1.7l-0.6-0.9l-0.1-0.1l0.1,0l1.3-0.7l0,0l0,0l0.5,0.5l0.9-0.1l0.5-1l-0.2-1.7v0l0,0l1.4-0.9L27.5,82l-1-0.1 l-0.8,0.5l0,0l-0.1,0L24.7,82L23.7,81.4L23.7,81.4z M32.8,94.3l1.5-0.5l0.2-1.1l1.3-0.7l1.4-0.4l0.5-0.1l-0.1-1.9l-0.8-0.2h0l0,0 l-0.4-0.6l0,0v0l0-1.1L35.6,88l0,0h0l-0.6,0l-0.1,0v-0.1l0-0.8v0l0,0l0.6-0.7v-1l-1.4-1.4l-0.8-0.2h0v0l-0.6-0.7v0v0l-0.1-1.1 l-1.2-0.4l0,0v0l-0.5-1l-0.6,0.2h0h0L29,80.4l-0.1,0.8v0.1l0,0L27.6,82l0.2,2.2l0,0.1l-0.1,0l-1.4,0.9l0.2,1.7l0,0v0L26.1,88l0,0.1 h0l-1,0h0l0,0l-0.4-0.4l-1.2,0.7l0.6,0.8l0,0v0l-0.5,1.7l0.9,1.2l2.2,0.2l0.2-0.6v-0.1h0.1l0.7,0.1h0l0,0.1l0.2,1.1l0.8,0.1 l0.7-0.5l0,0l0,0l2.6,0.5h0l0,0L32.8,94.3L32.8,94.3z M88.5,103.2l0.6,0.2l0,1.2l-0.4,0.4l0.3,0.8l-0.9,1l0.2,0.7l1.9,0.4l0.1,1 l0.9,0l0.7,0.2l0.7,0.8l-1,0.8v0.7l1-0.3l0.9,0.5l0.8-0.2l0.7-0.5l1.9-0.4l0.7-1.8l-0.1-3.2v0v0l0.6-1.1l0,0h0l1.1-0.5h0h0l1.3,0.1 l-0.3-1.1v-0.1l0.1,0l1-0.6v-4.4l-0.7-0.8l0,0l0,0l0.8-1l-0.1-0.6l-1.5,1l0,0h0l-1.1,0h0l0,0l-1.1-0.6l-1.2,0.2h0h0l-1.6-1.1 l-0.7-0.1h-0.1l0.1-0.1l0.5-0.7L93.6,93l-1.5,1.4L92,95.8l0,0v0l-0.4,0.5l0.1,0.4l0.9,0.4l0,0l0,0l0.3,0.9v0l0,0l-0.2,0.8l0,0v0 l-0.3,0.5l0,0.1l0,0l-1.1-0.2l-0.8,0.9l-0.2,1v0h0l-1.5,1.4L88.5,103.2L88.5,103.2z M118.9,91.7l-1.2-0.8l-2.3,1.3l-0.1,0l0,0 l-2-1.4l-2.8-0.1h0v0l-1.9-1.2l-1.3-0.4L106,90l-0.9,2.9l0,0.1l-0.1,0l-1.1-0.1l-0.8,0.5l-0.2,0.9l0,0l0,0l-1.5,0.8l0.1,0.7v0l0,0 l-0.8,0.9l0.7,0.8h0v2.6l5.6,2.7l0,0l0,0l1.1,1.4l0,0v0l0.3,1.1l1.6,0h0v0l0.6,1l3.2,0.1h0.1v0.1l-0.1,2.2l0.4,0.5l1-0.8l0,0h1l0,0 h2.1l0.8-0.9l0,0l0,0l2.1-0.3l0,0h0l1.8,0.8l1.4-0.6l0.1-1.5v0l0,0l1.5-1.2l0.2-0.7l-1.3-0.4h0h0l-0.9-1l0,0v0l-0.1-1.3l0-0.1l0,0 l1.6-1.4l0.1-0.9l-1.1-0.1h-0.1l0-0.1l-1.2-2.5l-4.2-0.7h-0.1v-1.3l0,0l0.5-0.7L118.9,91.7L118.9,91.7z M163.1,118.7L163.1,118.7 l0.9-2.3l0.6-1.9l-0.7-1.5v0v0l0.2-1.6v0l0,0l0.9-1l-1-0.9l0,0v0l-0.2-1v-0.1l0.1,0l1.8-0.2l0.2-1V107l0.1,0l0.9,0.3l1.6-0.5l0.4-1 l0-0.1l0.1,0l0.8,0.5h0.9l0,0l0.6,0.8l3.5-0.9l0.4-1.5l0-0.1h0.1l0.7,0.1l0.9-1l0.1-0.1l0,0.2l0.1,1.1l2.1,0.3l1.3-0.9l0.1-1.6 l-1.4-0.9h0v0l-0.1-2.1v0l0,0l0.7-0.6h0h0l1.8-0.1l-1.7-3.9l-0.9-0.6l-1.6,0.7l-0.1,0.1l0-0.1l-0.6-1.8l-2.5-1l-1.3,0.2l-2,4.4l0,0 l0,0l-1.3,1.5l-0.1,0l-0.1,0l-0.9-0.9l-0.6,1.1l-0.1,0l-0.1,0l-1.8,0.1l-1.2,0.9l-0.1,0.1l-0.1-0.1l-1.2-1.3l0,0v0l0.2-3.3l0,0v0 l1.1-2.4l-1.4-0.5l0,0l0,0l-0.7-1.5v0v0l0.5-2.1l-1.2-0.7l0,0v0l0.1-2l-0.8-1.6l-0.7,0.5l0,0h0l-1-0.1l-0.1,0V83l0.1,0l0.8-0.5 l-0.6-0.9l-0.5,0.6l0,0h0l-1.3,0.2l-1.1,0.5l0,1.3L157,85l0,0l0,0l-0.7,1.4l0.7,1l0,0l0,0l0.1,1.5v0l0,0l-1,1.9l0,0l0,0l-1.7,1 l0.6,1l0,0.1l0,0l-0.7,1l0.4,1.3l1.4,0.4l0.1,0l0,0l0.2,0.9v0l0,0.1l-1,1.1l0,0.7l0.7,0.2h0l0,0l0.3,1v0.1l0,0l-0.8,0.8l-0.3,1.2 l0,0.1l-0.1,0l-1.4-0.9h0l0,0l-0.7-1.5l-1.4,0.6l-0.2,1.3v0l0,0l-2.9,3.2l0.1,1.5l0,0l-0.1,0l-0.8,0.3l-0.1,0l-0.1-0.1l-1.1-2.5 l-0.8,1l0,0h0l-3.1,0.2l-1.2,2.2l1.4,2.2v0v0l-0.2,1.2l0,0.1h0l-1.4,0.2l-0.8,1.5l-0.2,4l0,0.1l-0.1,0l-1.3-0.1l-0.9,0.4v0.8l2.2,2 l3.4,2.3l1.3-0.1h0.1v0.1l0,0.2l0.9,0l1.5-1.1l0.1,0l0.1,0.1l1,1.3l3,2.4h1.5l0,0l1.1,1.4h0v0l0.1,1.1l1.5,0.3l0,0l0,0l0.2,0.8 l1.4-0.5l0.3-0.9h-1.5l0-0.1l-0.3-0.7l0-0.1l0,0l0.7-0.4h0l0,0l0.9-0.1l1.8-1.3l0.7-1v0l0,0l1.4-1.2l0.3-0.9l0,0l0,0L163.1,118.7 L163.1,118.7z M37.5,63.9l-0.6-0.4l-0.6,0.3l0.1-0.7l-0.5-0.5l0.7-0.1L37,62l0.3,0.6l0.7,0.1l-0.6,0.5L37.5,63.9L37.5,63.9z"/>
</g>
<g id="icon-list">
	<path class="st1" d="M135.7,64.4c-2.1-1-4.5-1.2-6.8-0.6c-2,0.5-3.9,1.7-5.2,3.4c-1.4,1.7-2.2,3.8-2.3,6c-0.1,2.1,0.5,4.2,1.7,6 c-0.3,0.3-0.5,0.6-0.8,0.9c-0.4-0.2-0.9-0.1-1.2,0.2c-2.5,2.5-5.1,5.1-7.6,7.6c-0.3,0.3-0.6,0.7-0.7,1.1c-0.4,1.1,0.1,2.5,1.1,3.1 c1,0.7,2.5,0.5,3.4-0.4c1.5-1.5,3-3,4.5-4.5c0.2-0.2,0.4-0.4,0.6-0.6c0.1,0,0.2-0.1,0.2-0.2c0.8-0.8,1.6-1.6,2.4-2.4 c0.3-0.3,0.4-0.9,0.2-1.3c0.3-0.2,0.5-0.5,0.8-0.8c0.8,0.4,1.6,0.9,2.5,1.1c3.3,1.1,7.1,0.4,9.8-2c1.8-1.6,3-3.8,3.4-6.1 c0.3-2.1,0-4.2-1-6.1C139.4,67,137.7,65.4,135.7,64.4L135.7,64.4L135.7,64.4z M132.7,65c2.8,0.4,5.3,2.2,6.5,4.7 c1,2,1.2,4.3,0.6,6.4c-0.6,1.9-1.8,3.6-3.5,4.7c-1.7,1.2-3.9,1.7-6,1.4c-3-0.4-5.8-2.5-6.9-5.4c-0.9-2.2-0.8-4.7,0.2-6.8 c0.8-1.7,2.2-3.2,3.9-4.1C129,65.1,130.9,64.8,132.7,65L132.7,65L132.7,65z M124.7,81.1c-0.2,0.2-0.4,0.4-0.6,0.7 c-0.3-0.3-0.5-0.5-0.8-0.8c0.2-0.2,0.4-0.5,0.7-0.6C124.3,80.6,124.5,80.9,124.7,81.1L124.7,81.1L124.7,81.1z M123,80.2L123,80.2z  M156.1,102.2h-27.8v-2.7h27.8V102.2z M161.8,95.4h-33.5v-2.7h33.5V95.4z M161.8,88.9h-33.5v-2.7h33.5V88.9z M149.3,82.1H143v-2.7 h6.4V82.1z M149.3,75.7h-4.6v-2.7h4.6V75.7z M152.5,72.9v9.2h9.2v-9.2H152.5z"/>
</g>
<g id="gerb-giac">
	<path class="st1" d="M199.4,17.6L199.4,17.6c0.3,0.3,0.5,0.6,0.8,1c-0.3,0.3-0.5,0.7-0.8,1c-0.3-0.3-0.5-0.7-0.8-1 C198.9,18.2,199.2,17.9,199.4,17.6z"/>
	<path class="st1" d="M197,20.5c0.1-0.6,0.7-0.8,1.2-0.8c0.4,0.5,0.8,0.9,1.2,1.4c0.4-0.5,0.8-0.9,1.2-1.4c0.4,0,0.8,0.1,1,0.4 c0.3,0.4,0.2,0.9,0,1.3c-0.2,0.5-0.5,0.9-0.7,1.3c0.2,0.9,1,1.6,1.9,1.7c-0.2-0.4-0.4-0.9-0.3-1.3c0.1-0.3,0.5-0.4,0.8-0.4 c0.3,0.2,0.5,0.5,0.8,0.7c0.3-0.2,0.5-0.5,0.8-0.7c0.3,0,0.7,0.2,0.8,0.5c0.1,0.6-0.2,1.1-0.5,1.5c-0.8,0-1.5,0-2.3,0 c-0.8,0-1.5-0.3-2-0.9c-0.3-0.3-0.4-0.7-0.6-1.1c-0.6,0-1.2,0-1.8,0c-0.2,0.8-0.7,1.4-1.4,1.7c-0.7,0.3-1.5,0.3-2.2,0.3 c-0.4,0-0.9,0-1.3,0c-0.3-0.4-0.7-1-0.5-1.6c0.1-0.3,0.5-0.4,0.8-0.5c0.3,0.2,0.5,0.5,0.8,0.7c0.3-0.2,0.5-0.5,0.8-0.7 c0.3,0,0.6,0.1,0.8,0.4c0.2,0.4-0.1,0.9-0.3,1.3c0.9-0.1,1.7-0.8,1.9-1.7C197.5,22.1,196.9,21.4,197,20.5z"/>
	<path class="st1" d="M194.1,21.4c0.2-0.2,0.4-0.5,0.6-0.7c0.2,0.2,0.4,0.5,0.6,0.7c-0.2,0.2-0.4,0.4-0.6,0.7 C194.5,21.9,194.3,21.7,194.1,21.4z"/>
	<path class="st1" d="M203.6,21.5c0.2-0.2,0.4-0.5,0.6-0.7c0.2,0.2,0.4,0.4,0.5,0.7c-0.1,0.3-0.4,0.5-0.5,0.7 C204,21.9,203.8,21.7,203.6,21.5z"/>
	<path class="st1" d="M190.6,21.9c0.3-0.2,0.5-0.6,0.9-0.6c0.3,0.1,0.4,0.5,0.5,0.8c-0.4,0.4-0.7,1-0.5,1.5c0.2,0.6,0.8,0.9,1.4,1 c0,0.1,0,0.2,0,0.2c-0.7,0-1.4-0.3-1.7-0.9c-0.3-0.4-0.2-0.9-0.1-1.4c-0.5-0.1-1,0-1.4,0.3c-0.2,0.2-0.3,0.6-0.2,0.9 c0.2,0.5,0.9,0.8,0.9,1.4c0,0.3-0.2,0.6-0.5,0.7c0-0.2,0.1-0.6-0.2-0.7c-0.4-0.1-0.7,0.2-1,0.3c0.2-0.5,0.2-1.1-0.1-1.5 c-0.2-0.3-0.6-0.6-0.4-0.9c0.3-0.4,0.8-0.3,1.3-0.4C190,22.6,190.3,22.2,190.6,21.9z"/>
	<path class="st1" d="M206.7,22.1c0.1-0.3,0.2-0.6,0.5-0.8c0.2-0.1,0.4,0.1,0.6,0.2c0.4,0.3,0.7,0.7,1.1,1c0.4,0.2,1,0.2,1.4,0.4 c0.2,0.1,0.3,0.4,0.1,0.6c-0.2,0.3-0.5,0.5-0.6,0.9c-0.1,0.4,0,0.8,0.1,1.1c-0.3-0.2-0.6-0.4-0.9-0.4c-0.4,0.1-0.3,0.5-0.2,0.7 c-0.3-0.1-0.5-0.4-0.5-0.7c0.1-0.6,0.8-0.9,1-1.5c0.1-0.3,0-0.7-0.3-0.9c-0.4-0.3-0.9-0.4-1.3-0.3c0.1,0.4,0.1,0.9-0.1,1.3 c-0.3,0.6-1.1,0.9-1.7,0.9c0-0.1,0-0.2,0-0.2c0.6,0,1.2-0.3,1.4-0.9C207.4,23.1,207.2,22.5,206.7,22.1z"/>
	<path class="st1" d="M193.6,25.6c1.6-0.1,3.2,0.1,4.8-0.3c-0.1,0.7-0.7,1.3-1.3,1.7c1.2,1.1,1.9,2.8,2.2,4.4c0,0.1,0.1,0.2,0.2,0.3 c0.3-1.7,0.9-3.5,2.3-4.7c-0.6-0.4-1.2-0.9-1.3-1.7c1.7,0.5,3.5,0.1,5.2,0.4c0.5,0.1,1,0.2,1.2,0.6c0.3,0.5,0.1,1-0.2,1.4 c-0.2-0.2-0.3-0.5-0.6-0.5c-0.7-0.2-1.5,0-2.2,0.4c-0.9,0.6-1.5,1.5-1.8,2.4c-0.2,0.7-0.3,1.5,0.1,2.2c0.1,0.2,0.4,0.3,0.6,0.5 c0.3-0.2,0.5-0.4,0.8-0.6c0-0.5,0.4-1,0.9-0.9c0.6,0,1.1,0.7,0.9,1.2c-0.2,0.4-0.7,0.6-1.1,0.5c-0.2,0.1-0.4,0.3-0.5,0.4 c0.6,0.3,1.2,0.7,1.9,0.5c0.6-0.1,1.1-0.6,1.4-1.2c0.3-0.5,0.2-1.1,0.5-1.6c0.7,0.3,1.5,0,2.1-0.3c0.6-0.3,1.1-0.6,1.4-1.2 c0.2,0,0.3,0.1,0.5,0.1c1.6,0.5,3.2,0.7,4.8,0.9c2.2,0.2,4.4,0.2,6.7,0.1c-0.1,1.1-0.8,2-1.8,2.4c-0.8,0.4-1.7,0.3-2.5,0.2 c-1.7-0.3-3.4-0.9-5-1.5c-0.1,0.1-0.2,0.2-0.4,0.3c0.6,0.5,1.3,0.9,2,1.2c1.8,0.8,3.7,1.3,5.7,1.5c-0.4,1-1.6,1.6-2.7,1.5 c-0.6,0-1.1-0.4-1.6-0.6c-1.4-0.8-2.8-1.8-4-3c-0.1,0.1-0.3,0.1-0.4,0.2c1.3,2,3.4,3.4,5.5,4.5c-0.3,0.3-0.7,0.5-1.1,0.5 c-1.2,0.2-2.4-0.4-3.1-1.3c-0.9-1-1.6-2.2-2.3-3.3c-0.2,0.1-0.4,0.2-0.6,0.2c0.6,2,2.1,3.4,3.5,4.9c-0.4,0.3-1,0.3-1.5,0.1 c-0.9-0.4-1.6-1.1-2-1.9c-0.4-0.9-0.8-1.8-1-2.8c-0.2,0.1-0.4,0.1-0.7,0.2c0.2,1.8,1,3.5,1.8,5.1c-0.4,0.1-0.8,0.1-1.2-0.1 c-0.6-0.4-1.1-1.1-1.4-1.8c-0.3-0.9-0.3-1.9-0.4-2.8c-0.2,0.1-0.5,0.2-0.7,0.3c-0.3,1.4,0.1,2.9,0.4,4.3c-0.8-0.1-1.4-0.9-1.6-1.7 c-0.2-0.6-0.1-1.3,0-2c-0.3,0.2-0.6,0.4-0.9,0.6c0.2,0.9,0.2,1.9-0.1,2.9c0.4,0.3,0.9,0.6,1.3,0.9c0.5-0.1,1,0.1,1.2,0.6 c0.2,0.6-0.3,1.2-0.9,1.2c-0.5,0-0.8-0.4-0.9-0.9c-0.1,0-0.2-0.1-0.2-0.2c-0.1,0.7-0.5,1.4-0.9,2c0.2,0.2,0.5,0.4,0.8,0.5 c0.6,0.3,1.2,0.5,1.8,0.6c0.5-0.5,1.3-0.6,1.8-0.2c0.5,0.3,0.7,1.1,0.5,1.7c4,1.3,7.8,3.4,10.7,6.5c-0.2,0.5-0.4,1-0.5,1.6 c-0.1,0.7-0.2,1.5,0,2.2c0.1,0.7,0.6,1.4,1.2,1.8c1,0.5,2.1,0.6,3.2,0.4c0.9-0.2,1.8-0.4,2.7-0.7c-0.1,0.9-0.2,1.8-0.3,2.7 c-0.1,1.2,0.3,2.5,1,3.4c0.3,0.3,0.5,0.7,0.9,0.9c0.8,0.3,1.6,0.7,2.4,1v0.1l-0.1,0c-0.5,0.6-0.9,1.3-1.4,2 c-0.5,0.7-0.8,1.6-1.2,2.5c-0.6,1.8-1,3.7-1.5,5.6c-1,4.2-1.9,8.4-3.2,12.5c-1,3.2-2.3,6.3-4,9.1c-1.4,2.4-3.2,4.5-5.3,6.4 c-3.4,3.2-7.4,5.7-11.8,7.2c-1,0.4-2,0.6-3,0.9h-0.1c-1-0.3-1.9-0.5-2.9-0.8c-6.2-2.2-11.8-6.3-15.8-11.5 c-2.3-3.2-3.9-6.8-5.2-10.5c-1.4-4-2.3-8.1-3.2-12.2c-0.5-2-0.9-4-1.5-6c-0.3-1.1-0.7-2.2-1.4-3.1c-0.4-0.7-0.8-1.4-1.2-2.1v0 c0.8-0.4,1.6-0.8,2.3-1.2c0.3-0.2,0.5-0.5,0.7-0.7c0.9-1.1,1.2-2.7,0.9-4.1c-0.1-0.7-0.2-1.4-0.3-2.1c0.9,0.2,1.8,0.4,2.7,0.6 c1.1,0.2,2.2,0.1,3.2-0.4c0.7-0.3,1.1-1,1.3-1.7c0.3-1.3,0-2.6-0.5-3.8c0.4-0.4,0.8-0.9,1.2-1.3c2.8-2.5,6.2-4.2,9.8-5.4 c-0.1-0.4-0.1-0.8,0.1-1.1c0.3-0.5,0.9-0.8,1.4-0.7c0.3,0,0.6,0.2,0.8,0.4c0.9-0.2,1.9-0.5,2.6-1.1c-0.4-0.6-0.8-1.3-0.9-2 c-0.1,0.1-0.2,0.1-0.2,0.2c0,0.5-0.5,1-1,0.9c-0.6-0.1-1-0.8-0.7-1.3c0.2-0.4,0.7-0.5,1.1-0.4c0.4-0.3,0.8-0.6,1.2-0.8 c-0.3-1-0.3-2-0.1-3c-0.3-0.2-0.6-0.4-0.9-0.6c0.2,0.7,0.3,1.4,0,2c-0.2,0.7-0.7,1.5-1.6,1.6c0.3-1.4,0.7-2.8,0.4-4.3 c-0.2-0.1-0.5-0.2-0.7-0.3c0,0.7,0,1.3-0.1,2c-0.1,0.9-0.6,1.8-1.3,2.4c-0.4,0.4-1,0.5-1.5,0.4c0.8-1.6,1.6-3.3,1.8-5.1 c-0.2-0.1-0.4-0.1-0.7-0.2c-0.2,1-0.5,1.9-1,2.8c-0.4,0.8-1,1.4-1.8,1.8c-0.5,0.3-1.2,0.3-1.7-0.1c0.6-0.6,1.2-1.2,1.7-1.9 c0.7-0.9,1.4-1.9,1.8-3c-0.2-0.1-0.4-0.2-0.6-0.2c-0.6,1-1.2,1.9-1.8,2.8c-0.5,0.7-1.1,1.3-1.9,1.6c-0.9,0.3-2,0.4-2.7-0.3 c1-0.5,2-1.1,2.9-1.8c1-0.8,2-1.7,2.6-2.8c-0.1-0.1-0.3-0.1-0.4-0.2c-1.4,1.3-3,2.5-4.7,3.4c-1.3,0.7-3.1,0.1-3.6-1.2 c0.8-0.1,1.6-0.2,2.4-0.4c1.9-0.5,3.7-1.1,5.2-2.3c-0.1-0.1-0.2-0.2-0.4-0.4c-1.8,0.6-3.6,1.2-5.4,1.5c-1.2,0.2-2.4-0.1-3.2-1 c-0.4-0.4-0.7-1-0.7-1.7c2.1,0.1,4.3,0.1,6.4-0.1c1.6-0.1,3.2-0.3,4.8-0.8c0.3-0.1,0.6-0.2,0.8-0.2c0.2,0.6,0.8,0.9,1.4,1.2 c0.7,0.3,1.4,0.6,2.1,0.3c0.3,0.5,0.3,1.1,0.5,1.7c0.2,0.6,0.7,1,1.4,1.1c0.7,0.2,1.4-0.2,2-0.5c-0.2-0.1-0.3-0.2-0.5-0.4 c-0.5,0.1-1-0.1-1.2-0.6c-0.2-0.6,0.4-1.2,1-1.1c0.5,0,0.8,0.5,0.8,0.9c0.2,0.2,0.5,0.3,0.7,0.5c0.2-0.1,0.4-0.3,0.7-0.4 c0.6-1.3,0.1-2.8-0.8-3.8c-0.7-0.9-1.9-1.5-3.1-1.3c-0.3,0.1-0.5,0.3-0.7,0.6c-0.3-0.4-0.4-1.1-0.1-1.5 C192.4,25.8,193.1,25.7,193.6,25.6 M198.4,33.4c-1.4,0.3-2.6,1.5-3,2.9c-0.3,1.2-0.1,2.6,0.7,3.5c0.7,0.9,1.8,1.5,3,1.6 c1.2,0.1,2.5-0.4,3.3-1.3c0.8-0.8,1.1-2,1-3.1c-0.1-1.2-0.8-2.3-1.7-2.9C200.7,33.4,199.5,33.2,198.4,33.4 M197,42.6 c-0.3,0.4-0.6,0.8-0.9,1.2c0.3,0,0.6,0,0.9-0.1c0.2-0.3,0.3-0.6,0.5-0.9C197.4,42.8,197.2,42.7,197,42.6 M201.2,42.8 c0.2,0.3,0.4,0.6,0.6,1c0.3,0,0.6,0,1,0.1c-0.3-0.4-0.6-0.9-1-1.2C201.5,42.7,201.3,42.7,201.2,42.8 M198.4,43 c-0.1,0.2-0.2,0.4-0.3,0.7c0.2,0,0.4,0,0.6,0c0-0.2,0.1-0.4,0.1-0.6C198.7,43.1,198.6,43.1,198.4,43 M199.9,43.1 c0,0.2,0.1,0.4,0.1,0.6c0.2,0,0.4,0,0.6,0c-0.1-0.2-0.2-0.5-0.3-0.7C200.2,43,200.1,43.1,199.9,43.1 M192.8,44.3 c0.5-0.1,1.1-0.2,1.6-0.3c0.1-0.2,0.3-0.3,0.4-0.5C194.1,43.6,193.4,43.9,192.8,44.3 M204,43.5c0.1,0.2,0.3,0.4,0.4,0.6 c0.6,0.1,1.2,0.2,1.8,0.3C205.6,43.9,204.8,43.6,204,43.5 M215.7,59.3c0.5,0.6,1.2,1,1.7,1.5c0.2,0.1,0.3,0.3,0.5,0.4 c0.3-0.2,0.3-0.5,0.4-0.8c0-0.7-0.4-1.3-1-1.5C216.8,58.7,216.1,58.9,215.7,59.3 M182.3,59.9c-0.8,0.5-1.3,1.5-1.2,2.4 c0,1.2,0.7,2.2,1.5,2.9c0.6,0.5,1.2,1,1.8,1.5c0.3,0.2,0.7,0.1,1,0.1c1.5,0,3.1,0.1,4.6,0.7c1.6,0.5,3.1,1.3,4.3,2.5 c0.3,0.2,0.4,0.5,0.7,0.8c0.4,0.2,0.9,0.4,1.3,0.7c0.5,0.2,0.9,0.5,1.3,0.7c-0.1-0.4-0.3-0.7-0.4-1.1c-0.6-1.3-1.4-2.6-2.3-3.8 c-0.6-0.7-1.2-1.3-1.9-1.9c0.5-0.3,0.8-0.8,0.9-1.4c0.1-0.7,0.1-1.6-0.5-2.1c-0.2-0.2-0.4-0.2-0.7-0.2c-3.1-0.1-6.1-0.9-9-2 C183.1,59.5,182.7,59.7,182.3,59.9 M215.2,60.3c0.6,0.6,1.2,1.1,1.9,1.6c0.2,0,0.6-0.2,0.4-0.4c-0.4-0.4-0.9-0.8-1.3-1.2 c-0.2-0.2-0.4-0.4-0.7-0.6C215.2,59.9,215.2,60.2,215.2,60.3 M214.9,61.3c0.3,0.5,0.6,1,0.9,1.4c0.2,0.3,0.8,0.1,0.8-0.2 c0.1-0.2-0.1-0.5-0.3-0.6c-0.5-0.4-0.9-0.8-1.4-1.2C214.8,60.8,214.7,61.1,214.9,61.3 M214.1,61.6c-0.3,0.1-0.5,0.5-0.3,0.7 c0.4,0.5,0.7,1,1.1,1.6c0.1,0.2,0.4,0.3,0.7,0.2c0.3-0.1,0.3-0.5,0.1-0.7c-0.4-0.5-0.7-1-1.1-1.5C214.5,61.7,214.3,61.5,214.1,61.6  M212.9,62.6c-0.3,0.1-0.4,0.5-0.2,0.8c0.4,0.5,0.8,1,1.1,1.5c0.2,0.2,0.4,0.5,0.7,0.5c0.4,0,0.5-0.5,0.3-0.8 c-0.4-0.6-0.9-1.1-1.3-1.7C213.4,62.7,213.1,62.6,212.9,62.6 M205.1,63.7c-0.2,0.5,0.1,1,0.6,1.2c0.3,0.1,0.6,0,0.9-0.2 c0.2,0.8,0.4,1.7,0.6,2.5c0,0.1,0.1,0.3,0.2,0.4c0.4-0.4,0.7-0.8,1.1-1.2c-0.1-0.4-0.4-0.8-0.6-1.1c-0.4-0.7-0.8-1.4-1.4-1.9 C205.9,63,205.2,63.2,205.1,63.7 M211.8,63.7c-0.2,0.1-0.4,0.5-0.2,0.7c0.4,0.6,0.9,1.2,1.4,1.8c0.2,0.2,0.4,0.5,0.7,0.5 c0.4,0,0.6-0.5,0.3-0.8c-0.5-0.7-1-1.3-1.5-1.9C212.3,63.7,212,63.5,211.8,63.7 M210.8,64.7c-0.4,0.1-0.6,0.5-0.3,0.8 c0.5,0.7,1.1,1.3,1.7,2c0.1,0.2,0.3,0.4,0.6,0.3c0.4,0,0.6-0.5,0.3-0.8c-0.5-0.7-1.1-1.3-1.6-2C211.3,64.9,211.1,64.6,210.8,64.7  M209.4,66.5c0.2,0.3,0.6,0.5,0.8,0.8c0.7,0.6,1.3,1.2,2,1.7c0.1-0.2,0.1-0.5-0.1-0.7c-0.6-0.7-1.2-1.4-1.8-2.2 c-0.2-0.2-0.4-0.4-0.6-0.4C209.4,65.7,209.2,66.2,209.4,66.5 M208.1,67.4c-0.1,0.2-0.3,0.3-0.4,0.5c0.1,0.1,0.2,0.3,0.3,0.4 c0.7,0.6,1.4,1.2,2.1,1.8c0.2,0.2,0.4,0.4,0.7,0.5c0.4-0.4,0.8-0.8,1.1-1.3c-0.1-0.2-0.4-0.4-0.5-0.5c-0.7-0.6-1.4-1.2-2.1-1.8 c-0.1-0.1-0.2-0.2-0.4-0.2C208.5,66.9,208.3,67.2,208.1,67.4 M183.9,67.4c-0.4,0.1-0.8,0.1-1,0.4c0.2,0.2,0.3,0.4,0.6,0.6 c0.9,0.7,2,1.4,3,2c1.6,0.9,3.3,1.8,5.2,2.1c0.8,0.1,1.8,0.3,2.6-0.1c0-0.2-0.2-0.2-0.3-0.3c-0.7-0.3-1.3-0.7-2-1 c-0.5-0.2-0.9-0.4-1.4-0.7c0.7,0.1,1.2,0.4,1.9,0.6c2,0.8,3.9,1.6,5.8,2.5c0.2,0.1,0.4,0.2,0.6,0.3c-0.2-0.3-0.6-0.5-0.9-0.7 c-1-0.7-2.2-1.4-3.3-1.9c-0.3-0.1-0.5-0.5-0.7-0.7c-0.6-0.6-1.3-1.1-2-1.5c-1.4-0.8-3-1.4-4.6-1.5 C186.2,67.2,185.1,67.2,183.9,67.4 M207,68.7c-0.2,0.3-0.6,0.5-0.6,0.9c0.4,0,0.8,0,1.3,0c0.1,0.4,0,0.9,0.2,1.4 c0.4,0.1,0.9-0.1,1.3,0c0.2,0.3,0,0.8,0.2,1.1c0.2,0.1,0.3-0.1,0.4-0.2c0.2-0.3,0.5-0.5,0.6-0.8c0.1-0.1-0.1-0.2-0.2-0.3 c-0.9-0.7-1.8-1.5-2.7-2.3C207.3,68.3,207.1,68.5,207,68.7 M211.6,70.3c-0.2,0.2-0.4,0.4-0.4,0.7c1,0.1,1.9,0.1,2.9,0.2 c-0.1,0.4-0.2,0.9,0.2,1.2c0.5,0.4,1.3,0.2,1.5-0.5c0.1-0.5-0.3-0.9-0.7-1.2c-0.9-0.5-1.8-0.9-2.8-1.2 C212,69.8,211.9,70.1,211.6,70.3 M206,70.2c-0.2,0.2-0.4,0.4-0.6,0.6c-0.5,0.6-0.9,1.1-1.4,1.6c0.1,0.6,0.3,1.1,0.5,1.7 c0,0.1,0.1,0.3,0.2,0.4c0.5,0.1,1.1,0.1,1.6,0.2c0.3,0,0.6,0.2,0.8-0.1c0.6-0.7,1.2-1.4,1.7-2.1c-0.1-0.4,0-0.8-0.2-1.2 c-0.4,0-0.9,0.1-1.3,0.1c-0.1-0.4-0.1-0.9-0.2-1.3C206.8,70,206.4,70.1,206,70.2 M189.7,72.3c0.2,0.4,0.4,0.7,0.5,1.1 c-0.4,0-0.9-0.1-1.3,0c-0.4,0.1-0.7,0.4-0.9,0.7c-0.2,0.5,0,1.1,0.4,1.5c0.3,0.2,0.7,0.3,1.1,0.3c2.3-0.3,4.5-0.3,6.8-0.1 c0.3,0,0.6,0.1,0.9,0.1c0.5-0.2,0.6-0.8,0.7-1.3c0-0.3,0.2-0.8-0.2-0.9c-0.9-0.4-1.8-0.9-2.7-1.2c-0.2-0.1-0.3,0.1-0.4,0.1 c-0.4,0.2-0.8,0.3-1.2,0.4C192,73,190.8,72.7,189.7,72.3 M203.6,73c-0.2,0.2-0.4,0.4-0.5,0.6c-0.2,0.2-0.4,0.4-0.4,0.6 c0.5,0.1,0.9,0.1,1.4,0.2c0.1-0.4-0.1-0.7-0.2-1.1C203.8,73.2,203.8,73,203.6,73 M201.2,75.7c-3.6,4.2-7.2,8.4-10.8,12.6 c0.2,0.7,0.4,1.4,0.6,2.1c0.7,0.2,1.5,0.2,2.2,0.3c1.3-1.5,2.6-3,3.9-4.5c2.5-3,5.1-5.9,7.6-8.9c0.1-0.1,0.2-0.2,0.1-0.4 c-0.1-0.5-0.3-1-0.4-1.6c-0.1-0.2-0.1-0.3-0.2-0.5c-0.4-0.1-0.9-0.1-1.3-0.2c-0.3,0-0.6-0.1-0.8-0.1 C201.8,75,201.5,75.4,201.2,75.7 M204.9,75.1c0.1,0.5,0.3,1,0.4,1.5c0.1,0,0.3-0.1,0.3-0.2c0.3-0.3,0.5-0.6,0.8-0.9 c0.1-0.1-0.1-0.2-0.2-0.2C205.8,75.1,205.3,75,204.9,75.1 M203.4,82.8c0.5,0.7,1.1,1.4,1.7,2.1c1.3,1.5,2.5,3.1,3.8,4.6 c-0.1,0.2-0.3,0.5-0.5,0.7c-1,1.2-2,2.4-3,3.6c-0.6,0.8-1.4,1.6-2,2.5c0.7,0,1.4,0,2,0c2.8,0,5.6,0,8.5,0c0.1-1.1,0.3-2.2,0.4-3.3 c-0.1,0-0.2,0-0.4,0c-0.1,0.5-0.2,1.2-0.6,1.6c-0.5,0.4-1.1,0.4-1.7,0.4c-2.1,0-4.3,0-6.4,0c0.1-0.2,0.3-0.4,0.5-0.6 c1.3-1.6,2.6-3.2,3.9-4.8c0.2-0.2,0.3-0.4,0.4-0.6c-1.1-1.4-2.2-2.7-3.3-4c-0.3-0.4-0.8-0.8-1-1.3c1.8,0,3.6,0,5.4,0 c0.6,0,1.2,0,1.7,0.4c0.4,0.4,0.5,1,0.6,1.6c0.1,0,0.2,0,0.3,0c-0.1-0.9-0.1-1.8-0.2-2.6C210.2,82.8,206.8,82.8,203.4,82.8 M189,90 c0.4,0.3,1,0.2,1.4,0.3c0-0.4-0.2-0.7-0.3-1.1c0-0.1-0.1-0.3-0.2-0.3C189.6,89.3,189.3,89.7,189,90 M188.3,90.8 c-1,1.2-2.1,2.5-3.2,3.7c0.4,0.4,0.6,1.1,0.3,1.6c-0.2,0.3-0.6,0.4-1,0.6c0.1,0.7,0.8,1.2,1.4,1.2c0-0.7,0.5-1.3,1.2-1.3 c0.4-0.1,0.6,0.2,0.9,0.3c0.3-0.3,0.6-0.7,0.9-1c0.8-1,1.7-1.9,2.4-2.9c0-0.5-0.3-1-0.4-1.4c-0.1-0.3-0.1-0.6-0.3-0.8 c-0.6-0.1-1.3-0.2-1.9-0.3C188.5,90.5,188.4,90.7,188.3,90.8 M191.3,91c0.1,0.5,0.2,0.9,0.4,1.4c0.1,0.2,0.3,0,0.4-0.1 c0.3-0.4,0.6-0.7,0.8-1.1C192.3,91,191.8,91,191.3,91 M183.8,95.1c-0.2,0.3,0,0.6-0.2,0.9c-0.4,0.5-0.3,1.2,0,1.8 c0.4,0.8,1.4,1.3,2.3,1.2c0.4-0.1,0.7-0.3,1-0.5c0.5,0.1,1-0.3,0.9-0.8c-0.1-0.6-0.9-0.8-1.2-0.2c-0.2,0.2-0.1,0.5,0,0.8 c-1.3,0.8-3-0.7-2.5-2.1c0.2,0,0.4,0.1,0.6,0c0.4-0.1,0.5-0.6,0.4-0.9C184.8,94.8,184.1,94.7,183.8,95.1z"/>
	<path class="st1" d="M193.4,28.5c0.1-0.4,0.3-0.7,0.6-1c0.4,0.1,0.8,0.3,1.1,0.7C194.5,28.1,193.9,28.1,193.4,28.5z"/>
	<path class="st1" d="M203.7,28.2c0.3-0.3,0.7-0.5,1.1-0.6c0.3,0.2,0.5,0.6,0.5,0.9C204.9,28.1,204.3,28.1,203.7,28.2z"/>
	<path class="st1" d="M197.8,34c0.2,0.1,0.3,0.3,0.3,0.5c0.8,2,1.7,4,2.6,6c-0.9,0.3-2,0.3-2.8-0.3c-0.2,0-0.5,0-0.7-0.1 c-0.4-0.2-0.4-0.8,0-1.1c0,0.2-0.1,0.5,0.2,0.5c0-0.2,0-0.5,0.3-0.7c0.4-0.3,0.9-0.1,1.3-0.1c0.3-0.3,0.2-0.8,0.1-1.2 c-0.2-0.1-0.3-0.3-0.4-0.5c-0.4,0-0.9-0.1-1.2-0.5c-0.2-0.2-0.2-0.4-0.1-0.6c0.2-0.3,0.6-0.4,0.9-0.5C198.1,35,197.8,34.5,197.8,34 z"/>
	<path class="st1" d="M199.4,34.9c0.1-0.2,0.5-0.2,0.6,0.1c0,0.2-0.2,0.3-0.3,0.5c0.1,0.2,0.2,0.4,0.3,0.5c0.3-0.4,0.9-0.4,1.1,0 c0.1,0.5,0,0.9-0.3,1.3c-0.2,0.3-0.5-0.1-0.6-0.3c0,0.1,0,0.2-0.1,0.3c-0.2,0.2-0.1,0.5,0,0.7c0.1,0.1,0.2,0.3,0.3,0.4 c0.3,0,0.6-0.1,0.8,0.1c0.4,0.3,0.5,1,0.2,1.5c-0.1,0.2-0.4,0.3-0.6,0.5c-0.7-1.7-1.5-3.3-2.2-5c0.2,0,0.4,0,0.6,0 C199.3,35.2,199.2,35,199.4,34.9z"/>
</g>
</svg>
