<?xml version="1.0" encoding="utf-8"?>
<svg version="1.1" id="p404" xmlns="http://www.w3.org/2000/svg" xmlns:xlink="http://www.w3.org/1999/xlink" viewBox="0 0 230.5 135.5">
<style type="text/css">
	.st0{fill:#CF0037;}
	.st1{fill:#2499E3;}
	.st2{fill:#444444;}
	@keyframes roll1 {100% {transform: rotate(360deg);}}
	@keyframes roll2 {100% {transform: rotate(-360deg);}}
	#gear1 {animation: roll1 35s infinite linear; transform-origin: center; transform-box: fill-box;}
	#gear2 {animation: roll2 35s infinite linear;transform-origin: center;transform-box: fill-box;}
	#gear3 {animation: roll1 35s infinite linear;transform-origin: center;transform-box: fill-box;}	
	#b1 {animation: roll2 3s infinite linear; transform-origin: center; transform-box: fill-box;}
	#b2 {animation: roll1 5s infinite linear;transform-origin: center;transform-box: fill-box;}
	#b3 {animation: roll2 1s infinite linear;transform-origin: center;transform-box: fill-box;}	
</style>
<path id="b1" class="st0" d="M115.4602966,34.3711014h0.5598068c1.7954941,0.0475998,3.5738983,0.6312981,5.0382996,1.6730003 	c-1.4995041,1.4955978-2.9919052,2.997097-4.4943008,4.4894981c-0.6128998-0.1413994-1.2674026-0.1237984-1.8575058,0.103199 	c-0.9796982,0.3600006-1.7401962,1.2532005-1.9335938,2.2796021c-0.1743011,0.8583984,0.043396,1.7859001,0.5833969,2.4752998 	c0.5589981,0.730999,1.460701,1.1856995,2.3820038,1.1925011c0.9673996,0.0231972,1.928093-0.4493027,2.504097-1.2268028 	c0.5681-0.7370987,0.740097-1.7294998,0.5250015-2.6274986c1.4946976-1.4984016,2.9925003-2.9930992,4.4880981-4.4902992 	c1.1476974,1.6176987,1.7433014,3.6161003,1.6661987,5.5980988c-0.0661011,2.1813011-0.9570007,4.3205986-2.4503021,5.9101982 	c-1.4524994,1.5653038-3.467598,2.594902-5.5887985,2.8412018c-1.9216003,0.2341003-3.9149017-0.1585007-5.5966949-1.1183014 	c-1.8274994-1.0297966-3.2791061-2.7067986-4.0300064-4.6654968c-0.3795929-0.9743004-0.5771942-2.0146027-0.6111984-3.0586014 	v-0.4901009c0.0626984-2.507,1.2121048-4.9603004,3.1040039-6.6072998 	C111.313797,35.2584,113.3696976,34.4499016,115.4602966,34.3711014z"/>
<path id="b2" class="st0" d="M142.3287964,91.0319977c1.4105072-0.726799,3.0223083-1.0527954,4.604599-0.9427948 	c1.584198,0.1028976,3.1339111,0.6516953,4.4331055,1.5626984c-1.4499969,1.4416962-2.8834076,2.9015961-4.344101,4.3307953 	c-0.8937988-0.1989975-1.8753967,0.0116043-2.5758972,0.6097031c-1.0119019,0.8167038-1.3518066,2.3327026-0.7863007,3.5030975 	c0.5337982,1.1951065,1.9246979,1.9182053,3.210495,1.6563034c1.2792969-0.216301,2.3190002-1.3692017,2.3990021-2.6649017 	c0.0317078-0.3111954-0.0153046-0.6198959-0.0648956-0.9260025c1.4356995-1.4541931,2.8889923-2.8916931,4.3312988-4.3398972 	c0.742691,1.0624008,1.2483978,2.2898026,1.461792,3.5694046c0.4210052,2.4298935-0.2442932,5.0235977-1.7948914,6.9434967 	c-1.5809021,2.0035019-4.0677032,3.2453003-6.6194,3.3082962l-0.6083984,0.0003052 	c-1.7067108-0.0821991-3.3916016-0.6478043-4.7761078-1.6557999c-2.1203003-1.5117035-3.5029907-4.0064011-3.6373901-6.6100998 	c-0.1165009-1.8843994,0.3951874-3.8018036,1.4440002-5.3725052 	C139.8359985,92.7511978,140.9911041,91.7169037,142.3287964,91.0319977z"/>
<path id="b3" class="st0" d="M195.107193,87.797699c1.5967102-0.3789978,3.3412018-0.0671997,4.7046051,0.8475037 	c-0.9044952,0.9079971-1.8146973,1.8098984-2.716095,2.7201996c-0.4062042-0.0647049-0.8274078-0.1024017-1.2274017,0.0167007 	c-0.9729004,0.2443008-1.717804,1.1689987-1.748703,2.1716003c-0.0697021,1.0688934,0.688797,2.1143951,1.7248993,2.3838959 	c1.0223999,0.3052979,2.2028046-0.1947021,2.7010956-1.1352005c0.2976074-0.5252991,0.3575134-1.1596985,0.2239075-1.7430954 	c0.902298-0.9160995,1.8175964-1.8187027,2.7247009-2.7300034c0.6105957,0.9113007,0.9523926,1.9909973,1.0059967,3.0851974 	v0.5270004c-0.0731049,1.3852997-0.6219025,2.7419052-1.5606995,3.7664032 	c-1.0119934,1.1235962-2.4602051,1.8418961-3.9687958,1.9566956c-1.4726105,0.1267014-2.985199-0.3151932-4.1542053-1.2208939 	c-1.2024994-0.9144058-2.0383911-2.2963028-2.279892-3.7890015c-0.2526093-1.4939041,0.0830994-3.0787048,0.931488-4.3356018 	C192.3054047,89.0597,193.6322937,88.1350021,195.107193,87.797699z"/>
<path id="gear1" class="st1" d="M114.1759033,9.1605997c0.8625946-1.8869996,3.423996-0.7961998,5.0172958-0.8512001 		c1.7520981,2.6620007,2.3636017,5.8980007,3.9388046,8.6691999c1.3716965,0.4323006,2.7248993,0.9251995,4.0477982,1.5074005 		c2.906105-1.1256008,5.4334946-3.0506001,8.3752975-4.0693998c1.463501,0.3239994,2.4848022,1.7072992,3.6907043,2.565999 		c-0.4496002,3.134201-1.5129089,6.1387005-1.9998016,9.2726002c0.908493,1.2178001,1.6163025,2.6008015,2.6611023,3.7259007 		c2.9953918,0.8778992,6.2305908,0.6548004,9.1862946,1.7134991c0.6085968,1.2793007,0.9268951,2.6938019,1.1846008,4.0946999 		c-1.4956055,2.2010994-3.9360046,3.5457993-5.8305969,5.391201c-1.9891052,1.1825981-0.9450989,3.7221985-1.3439026,5.6156998 		c2.0809021,2.4588013,4.7519989,4.3642006,6.6383972,6.9976006c-0.4949036,1.3005981-0.9875946,2.6163979-1.5093994,3.9155006 		c-3.0877991,0.6445999-6.2796021,0.3619995-9.3694,0.9909973c-1.0372009,1.0653-1.8255005,2.3572998-2.8592987,3.4484024 		c0.0861969,3.1259956,1.3054047,6.1366997,1.2378998,9.2672997c-0.8175049,1.2324982-2.3881989,1.8106995-3.5870056,2.6636963 		c-2.8680878-1.3948975-5.3690948-3.4191971-8.2410965-4.8029938c-1.384697,0.4574966-2.7912979,0.8332977-4.2071991,1.178299 		c-1.7356949,2.6693954-2.6653976,5.7939987-4.5172958,8.3889008c-1.4737015,0.1133957-2.9500046-0.0280991-4.4164047-0.096405 		c-1.4729004-2.8005981-2.3526993-5.8568954-3.7799988-8.6745987c-1.387001-0.4671021-2.7574997-0.9685974-4.0945969-1.5382996 		c-2.9651031,1.2024002-5.6291046,3.0186005-8.6001053,4.2164993c-1.1570969-0.8915024-2.3186951-1.7775955-3.4697952-2.6645966 		c0.408699-3.1609039,1.4917984-6.1733017,2.0057983-9.305603c-0.8883972-1.2258987-1.7422028-2.4720001-2.5175018-3.7663002 		c-3.0290985-0.7724991-6.2327957-0.6703987-9.2054977-1.6579971c-0.9098969-1.2280006-0.966301-2.9489021-1.3529968-4.3963013 		c2.2201004-2.1922989,4.7474976-4.037899,7.0182953-6.1679001c-0.0158997-1.5774994,0.254303-3.1665993,0.0084991-4.7129021 		c-1.9490967-2.4283981-4.5209961-4.267498-6.4468002-6.7203979c0.4476013-1.3736,0.9519043-2.7231998,1.4961014-4.0515003 		c3.1408005-0.529501,6.3331985-0.5181999,9.4771042-0.9845009c0.8866959-1.1936989,1.7934952-2.358099,2.7784958-3.4533997 		c-0.3092957-3.1651993-1.030098-6.2642994-1.3852997-9.4124994c1.1928024-0.9371004,2.4457016-1.7812996,3.7545013-2.5264997 		c2.8371964,1.4417,5.3509979,3.4429989,8.2277985,4.8209c1.3544006-0.4855995,2.7451019-0.8591995,4.1451035-1.1648006 		C111.8495026,14.2337999,112.8181,11.5932999,114.1759033,9.1605997L114.1759033,9.1605997L114.1759033,9.1605997z 		 M108.9123001,23.6541996c-8.3658981,2.7968998-14.3666,11.3060017-14.1343994,20.1345005 		c-0.0482025,9.3499985,6.9922028,18.0694008,16.0774994,20.1372986c7.3351974,1.8671989,15.5455017-0.7012978,20.5338974-6.3830986 		c6.0097046-6.510601,7.1660004-16.9140015,2.5926056-24.5301018 		C129.221405,24.4808006,118.1103973,20.2451992,108.9123001,23.6541996z"/>
<path id="gear2" class="st1" d="M141.1365051,70.2154999c0.5121918-1.6791992,2.7830963-1.0511017,4.1133881-1.2755966 		c1.7676086,2.0369949,2.6430054,4.6830978,4.2746124,6.8314972c1.1987915,0.2089005,2.3892975,0.4710999,3.5643005,0.8113022 		c2.3118896-1.2694016,4.2164917-3.1672058,6.5703888-4.3509064c1.2640076,0.1077042,2.2754059,1.154007,3.3832092,1.7393036 		c-0.0263977,2.6796036-0.5820007,5.3187027-0.639801,8.0025024c0.8985901,0.9197998,1.6468964,2.0006943,2.6492004,2.8275986 		c2.6112976,0.4011002,5.3000031-0.1483002,7.8981934,0.4093018c0.6537018,1.0051956,1.0789032,2.1557007,1.4519043,3.3023987 		c-1.0079956,2.0137024-2.9049072,3.4147949-4.2877045,5.1748962c-1.5363007,1.2145996-0.3760986,3.2281036-0.4989014,4.8614044 		c2.0209045,1.8294983,4.4748077,3.1291962,6.3522034,5.1269989c-0.2695923,1.1464005-0.5357971,2.305397-0.8276978,3.4534988 		c-2.5182953,0.8863983-5.2274017,1.0065994-7.7490997,1.8802032c-0.7509003,1.009697-1.2676086,2.1818008-2.0126038,3.2127991 		c0.4224091,2.6127014,1.782196,5.0017014,2.0758057,7.6353989c-0.5478973,1.1252975-1.8007965,1.7863998-2.7108002,2.6362 		c-2.5622101-0.8493042-4.8869019-2.2674026-7.4508057-3.1071014c-1.1105957,0.5391998-2.2485046,1.0117035-3.3975983,1.4596024 		c-1.1571045,2.4334946-1.5874023,5.1587982-2.8504944,7.5429993c-1.2235107,0.259903-2.4777985,0.3067017-3.7154083,0.4132996 		c-1.5491028-2.1847-2.6293945-4.6500015-4.1419983-6.8538971c-1.2158051-0.236702-2.4216003-0.5037003-3.6071014-0.8320007 		c-2.3526917,1.3404999-4.3842926,3.1623993-6.7424927,4.4996948c-1.0702972-0.6184998-2.144104-1.2315979-3.2091064-1.8466949 		c-0.0106964-2.6975021,0.5606995-5.3456039,0.6412048-8.030899c-0.8824005-0.9289017-1.738205-1.8788071-2.5335999-2.8777008 		c-2.6271057-0.3087006-5.303299,0.1352005-7.9075012-0.3603058c-0.9011002-0.9285965-1.1409988-2.3654938-1.6270981-3.5367966 		c1.6168976-2.0874023,3.5305939-3.918602,5.1969986-5.9595032c-0.1899033-1.3214951-0.141098-2.6847-0.520401-3.9543991 		c-1.9068985-1.8189011-4.2701035-3.0737991-6.1603012-4.9157944c0.2217026-1.202507,0.4937973-2.3910065,0.8016968-3.5665054 		c2.5753021-0.7957001,5.2546005-1.1435013,7.8398056-1.8864975c0.6102982-1.1007004,1.2403946-2.1790009,1.9441986-3.2080002 		c-0.6137009-2.6205978-1.5652008-5.1395035-2.2154999-7.740799c0.8955002-0.9196014,1.8520966-1.7680054,2.8666992-2.5399017 		c2.5415039,0.8920975,4.8740997,2.289299,7.4414978,3.123497c1.0820007-0.5589981,2.2068024-1.0280991,3.3471069-1.4410934 		C139.752594,74.7316971,140.2693939,72.4080963,141.1365051,70.2154999L141.1365051,70.2154999L141.1365051,70.2154999z 		 M138.3432007,82.9628983c-6.7050018,3.2827988-10.7863007,11.0922012-9.6035004,18.4721985 		c1.0061035,7.849205,7.8883057,14.3757019,15.740799,15.0934067c6.3623962,0.7451935,12.9626007-2.3283997,16.5113068-7.6529999 		c4.3125916-6.1341019,4.1178894-14.9910049-0.5709076-20.8678055 		C155.4723969,81.3831024,145.677597,79.0737991,138.3432007,82.9628983z"/>
<path id="gear3" class="st1" d="M198.3220062,72.5319977c0.6824951-1.0822983,2.1579895-0.2046967,3.1364899-0.1072006 		c0.8515015,1.7714005,0.9587097,3.7996063,1.6934052,5.6228027c0.8027954,0.3772964,1.5894012,0.7900009,2.3498993,1.2548981 		c1.8688965-0.4487,3.5720062-1.4172974,5.4541931-1.7974014c0.8677063,0.318306,1.3778992,1.2481003,2.0443115,1.8720016 		c-0.5332031,1.8787994-1.4302979,3.6275024-1.9859009,5.5028992c0.454895,0.8189011,0.7734985,1.7226028,1.3194885,2.4962006 		c1.7583008,0.7832031,3.7542114,0.9132996,5.4734039,1.8039017c0.2667084,0.8320007,0.344696,1.7226028,0.3869019,2.6001968 		c-1.0952911,1.2221069-2.6976929,1.842804-4.0075989,2.8148041c-1.3132935,0.5589981-0.8840942,2.197197-1.2837982,3.321701 		c1.0691986,1.6737976,2.5448914,3.0586014,3.480896,4.8233948c-0.4095917,0.7540054-0.8191986,1.5180054-1.2445984,2.2689056 		c-1.9405975,0.1397018-3.8681946-0.2960052-5.8085022-0.1659012c-0.7213898,0.5655975-1.3098907,1.2903976-2.0312958,1.8720016 		c-0.2046967,1.9176941,0.2924957,3.8582993-0.0065002,5.7662964c-0.6013031,0.6856995-1.6089935,0.9099045-2.4118042,1.3325043 		c-1.638092-1.0886993-3.0000916-2.5319061-4.6414032-3.6144028c-0.8840942,0.165802-1.7747955,0.2795029-2.6684875,0.3739014 		c-1.2807007,1.4884949-2.1062012,3.3216019-3.4518127,4.7550964c-0.9101868-0.0518951-1.8005981-0.2598953-2.6911926-0.4225998 		c-0.6694946-1.832901-0.9555969-3.7734985-1.5959015-5.6131973c-0.8092957-0.399704-1.6058044-0.8189011-2.3759918-1.277298 		c-1.9111023,0.4906998-3.6890106,1.3812943-5.6035004,1.8688965c-0.6339111-0.6403961-1.270813-1.277298-1.9015045-1.9144974 		c0.5101929-1.8981018,1.4203949-3.6499023,1.9924927-5.5222015c-0.4422913-0.8223038-0.861496-1.6542969-1.2285919-2.509201 		c-1.787796-0.7214966-3.7541962-0.9229965-5.4898071-1.7714005c-0.4550018-0.8256989-0.3479004-1.881897-0.4648895-2.7984009 		c1.5374908-1.1573944,3.2342987-2.0772018,4.7975922-3.1917953c0.1202087-0.9654999,0.4159088-1.914505,0.3932037-2.8800049 		c-0.9913025-1.6445999-2.4116974-2.9803009-3.3869019-4.6380005c0.3869934-0.8027954,0.8061981-1.5862961,1.2480927-2.3534012 		c1.9633026-0.0648956,3.9136047,0.2050018,5.8734131,0.1789017c0.6403961-0.6564941,1.29039-1.2937012,1.9825897-1.881897 		c0.071701-1.9598999-0.1136932-3.9134979-0.0715027-5.8668976c0.8062134-0.4745026,1.6416016-0.887207,2.5028076-1.2350006 		c1.6154022,1.1147995,2.9871063,2.544899,4.6318054,3.6240997c0.8675995-0.1851044,1.7483978-0.2991028,2.6293945-0.3704987 		C196.4822998,75.4412003,197.2915955,73.9067993,198.3220062,72.5319977L198.3220062,72.5319977L198.3220062,72.5319977z 		 M193.9111938,80.9568024c-5.3434906,1.0205002-9.7117004,5.7268982-10.2967987,11.1418991 		c-0.7996979,5.7108994,2.7853088,11.6197968,8.1679993,13.6317978c4.3294067,1.7453003,9.5590057,0.8515015,13.0756989-2.2101974 		c4.2091064-3.4842987,5.7727051-9.7478027,3.6048126-14.7789993 		C206.2557983,83.1343994,199.813797,79.6307983,193.9111938,80.9568024z"/>
<path class="st2" d="M7.5946002,41.6736984L36.7625999,5.7009001h12.5586014v13.4159002L31.2262001,41.6736984h20.526001v-8.9041977 	h19.3101997v47.3507996H51.7522011V58.6506996H7.5946002V41.6736984L7.5946002,41.6736984z M159.0679016,41.6736984 	l29.1678925-35.9727974h12.5587006v13.4159002l-18.0950012,22.5568981h20.5259094v-8.9041977h19.3105011v36.0121994h-19.3105011 	V58.6506996h-44.1575012V41.6736984z"/>
</svg>
