<?xml version="1.0" encoding="utf-8"?>
<svg version="1.1" id="Слой_1" xmlns="http://www.w3.org/2000/svg" xmlns:xlink="http://www.w3.org/1999/xlink" x="0px" y="0px"
	 viewBox="0 0 321.9644775 312.8454895" style="enable-background:new 0 0 321.9644775 312.8454895;" xml:space="preserve">
<style type="text/css">	
	.st0{clip-path:url(#SVGID_00000119083404937909929640000013819167501974982070_);fill:url(#SVGID_00000008141623172923027500000010372307587121106590_);}
	.st1{clip-path:url(#SVGID_00000101814193365065361400000012504384437796605074_);fill:url(#SVGID_00000013905319333042069810000000384297748891701904_);}
	.st2{clip-path:url(#SVGID_00000101814193365065361400000012504384437796605074_);fill:#FFFFFF;}
	@keyframes shadow {0% {opacity: 0;}30% {opacity: 1;}100% {opacity: 1;}}
	#shadow {animation-name: shadow;animation-timing-function: linear;animation-duration: 3s;}
	@keyframes text {0% {transform: translate(-350px, 0px);}30% {transform: translate(0px, 0px);}100% {transform: translate(0px, 0px);}}
	#text {animation: text 3s ease-in-out;}
</style>
<g id="shadow">
	<defs>
		<rect id="SVGID_1_" width="29.5555553" height="312.8454895"/>
	</defs>
	<clipPath id="SVGID_00000078760085189226845380000014930429977261137282_">
		<use xlink:href="#SVGID_1_"  style="overflow:visible;"/>
	</clipPath>	
		<radialGradient id="SVGID_00000099661239588810939490000012961655748079353277_" cx="146.7939453" cy="322.8730774" r="13.7032557" fx="134.0816803" fy="322.8829956" gradientTransform="matrix(2.5908067 0 0 12.7263718 -379.9723816 -3954.5109863)" gradientUnits="userSpaceOnUse">
		<stop  offset="0.4578317" style="stop-color:#3C3C3C"/>
		<stop  offset="0.5279408" style="stop-color:#6A6A6A;stop-opacity:0.8138648"/>
		<stop  offset="0.6349525" style="stop-color:#A9A9A9;stop-opacity:0.5297549"/>
		<stop  offset="0.7254561" style="stop-color:#D8D8D8;stop-opacity:0.2894729"/>
		<stop  offset="0.7947088" style="stop-color:#F4F4F4;stop-opacity:0.105611"/>
		<stop  offset="0.8344879" style="stop-color:#FFFFFF;stop-opacity:0"/>
	</radialGradient>	
		<rect x="-31.3838539" style="clip-path:url(#SVGID_00000078760085189226845380000014930429977261137282_);fill:url(#SVGID_00000099661239588810939490000012961655748079353277_);" width="52.0505219" height="312.8454895"/>
</g>
<g id="text">
	<defs>
		<path id="SVGID_00000051362073727720074560000007068194051254326940_" d="M0,103.2764893h297.4708557 			c13.8339233-0.0738754,24.1783752,10.7549667,24.4936218,23.327652v55.6966705 			c-0.0975037,13.7288208-12.4044495,23.9697113-24.4936218,24.1798859H0V103.2764893L0,103.2764893z"/>
	</defs>
	<clipPath id="SVGID_00000008109375619904179830000002066773152164734345_">
		<use xlink:href="#SVGID_00000051362073727720074560000007068194051254326940_"  style="overflow:visible;"/>
	</clipPath>	
		<linearGradient id="SVGID_00000127758476175990289610000002319597753470670232_" gradientUnits="userSpaceOnUse" x1="0" y1="154.8784027" x2="321.9644775" y2="154.8784027">
		<stop  offset="0" style="stop-color:#FFC342"/>
		<stop  offset="0.3335457" style="stop-color:#FFB027"/>
		<stop  offset="0.756222" style="stop-color:#FF9C0B"/>
		<stop  offset="1" style="stop-color:#FF9500"/>
	</linearGradient>	
	<rect y="103.2761154" style="clip-path:url(#SVGID_00000008109375619904179830000002066773152164734345_);fill:url(#SVGID_00000127758476175990289610000002319597753470670232_);" width="321.9644775" height="103.2045822"/>
	<path id="o2" style="clip-path:url(#SVGID_00000008109375619904179830000002066773152164734345_);fill:#FFFFFF;" d=" 		M258.3306885,145.178833c-1.7423706-2.8757324-4.1307373-5.1329346-7.163208-6.7710571 		c-3.0326538-1.6381836-6.4483643-2.4577026-10.2477417-2.4577026c-3.7994995,0-7.2250977,0.819519-10.2752075,2.4577026 		c-3.0491943,1.6381226-5.437561,3.8953247-7.163269,6.7710571c-1.7249756,2.8757324-2.5878906,6.109375-2.5878906,9.6994019 		s0.862915,6.8237305,2.5878906,9.6993408c1.725708,2.8756714,4.1140747,5.1329956,7.163269,6.7711792 		c3.0501099,1.6381226,6.475708,2.4575806,10.2752075,2.4575806c3.7993774,0,7.2150879-0.819458,10.2477417-2.4575806 		c3.0324707-1.6381836,5.4208374-3.8955078,7.163208-6.7711792c1.7432251-2.8756104,2.6144409-6.109314,2.6144409-9.6993408 		S260.0739136,148.0545654,258.3306885,145.178833z M250.8803101,160.9433594 		c-0.9938354,1.7783203-2.3615723,3.1636353-4.1048584,4.1567383c-1.7425537,0.9937134-3.6951904,1.4903564-5.8557129,1.4903564 		c-2.1612549,0-4.1132812-0.4966431-5.8565063-1.4903564c-1.7432251-0.993103-3.1110229-2.378418-4.1047974-4.1567383 		c-0.9931641-1.7774658-1.489624-3.7993774-1.489624-6.0651245c0-2.265686,0.49646-4.2875977,1.489624-6.0651245 		c0.9937744-1.7775269,2.3615723-3.1635132,4.1047974-4.1567383c1.7432251-0.9937134,3.6952515-1.4902344,5.8565063-1.4902344 		c2.1605225,0,4.1131592,0.496521,5.8557129,1.4902344c1.7432861,0.9932251,3.1110229,2.3792114,4.1048584,4.1567383 		c0.993103,1.7775269,1.489563,3.7994385,1.489563,6.0651245 		C252.369873,157.1439819,251.8734131,159.1658936,250.8803101,160.9433594z"/>
	<path id="p" style="clip-path:url(#SVGID_00000008109375619904179830000002066773152164734345_);fill:#FFFFFF;" d=" 		M214.6630859,142.7997437c-1.2901611-1.9868774-3.1286011-3.520752-5.5169067-4.6013794 		c-2.3874512-1.0799561-5.2022705-1.6207275-8.4442139-1.6207275h-15.8429565v36.6011353h8.4708862v-10.0914917h7.3720703 		c3.2419434,0,6.0567627-0.5316772,8.4442139-1.5947266c2.3883057-1.0631714,4.2267456-2.5969849,5.5169067-4.6015625 		c1.2892456-2.0043945,1.9344482-4.3484497,1.9344482-7.0322876 		C216.5975342,147.1398315,215.9523315,144.7867432,214.6630859,142.7997437z M206.0351562,154.5386353 		c-1.3242798,1.0982056-3.258667,1.6465454-5.803833,1.6465454h-6.9014282v-12.7053833h6.9014282 		c2.545166,0,4.4795532,0.5490112,5.803833,1.6473999c1.3253174,1.0973511,1.9870605,2.6744995,1.9870605,4.7315063 		C208.0222168,151.8806763,207.3604736,153.4404907,206.0351562,154.5386353z"/>
	<path id="o1" style="clip-path:url(#SVGID_00000008109375619904179830000002066773152164734345_);fill:#FFFFFF;" d=" 		M174.9684448,145.178833c-1.7423706-2.8757324-4.1307373-5.1329346-7.163269-6.7710571 		c-3.0325928-1.6381836-6.4483032-2.4577026-10.2476807-2.4577026c-3.7994995,0-7.2249756,0.819519-10.2752075,2.4577026 		c-3.0491943,1.6381226-5.437561,3.8953247-7.163269,6.7710571c-1.7249146,2.8757324-2.5877686,6.109375-2.5877686,9.6994019 		s0.862854,6.8237305,2.5877686,9.6993408c1.725708,2.8756714,4.1140747,5.1329956,7.163269,6.7711792 		c3.0502319,1.6381226,6.475708,2.4575806,10.2752075,2.4575806c3.7993774,0,7.2150879-0.819458,10.2476807-2.4575806 		c3.0325317-1.6381836,5.4208984-3.8955078,7.163269-6.7711792c1.7432251-2.8756104,2.6144409-6.109314,2.6144409-9.6993408 		S176.7116699,148.0545654,174.9684448,145.178833z M167.5180054,160.9433594 		c-0.9938354,1.7783203-2.3616333,3.1636353-4.1048584,4.1567383c-1.7423706,0.9937134-3.6951294,1.4903564-5.8556519,1.4903564 		c-2.1612549,0-4.1132812-0.4966431-5.8565063-1.4903564c-1.7432861-0.993103-3.1110229-2.378418-4.1049194-4.1567383 		c-0.993042-1.7774658-1.489563-3.7993774-1.489563-6.0651245c0-2.265686,0.496521-4.2875977,1.489563-6.0651245 		c0.9938965-1.7775269,2.3616333-3.1635132,4.1049194-4.1567383c1.7432251-0.9937134,3.6952515-1.4902344,5.8565063-1.4902344 		c2.1605225,0,4.1132812,0.496521,5.8556519,1.4902344c1.7432251,0.9932251,3.1110229,2.3792114,4.1048584,4.1567383 		c0.9931641,1.7775269,1.489624,3.7994385,1.489624,6.0651245 		C169.0076294,157.1439819,168.5111694,159.1658936,167.5180054,160.9433594z"/>
	<polygon id="k" style="clip-path:url(#SVGID_00000008109375619904179830000002066773152164734345_);fill:#FFFFFF;" points=" 		116.3991165,158.4340668 110.5434647,158.4340668 110.5434647,173.1787567 102.1250534,173.1787567 102.1250534,136.577652 		110.5434647,136.577652 110.5434647,151.3749695 116.6086044,151.3749695 126.2295609,136.577652 135.1703339,136.577652 		123.1969147,154.2507782 135.5366669,173.1787567 125.9157028,173.1787567 116.3991165,158.4340668 	"/>
	<path id="c" style="clip-path:url(#SVGID_00000008109375619904179830000002066773152164734345_);fill:#FFFFFF;" d=" 		M79.9087524,173.8065033c-3.7301407,0-7.1023102-0.8103485-10.1182327-2.4316559 		c-3.0150146-1.6206207-5.385025-3.8687744-7.1107483-6.7445831c-1.7257271-2.876297-2.5877724-6.126709-2.5877724-9.7518158 		s0.8620453-6.8754425,2.5877724-9.7510834c1.7257233-2.8765411,4.0957336-5.1246948,7.1107483-6.7453156 		c3.0159225-1.6214294,6.4055557-2.4317474,10.1700516-2.4317474c3.1719513,0,6.0392227,0.5582733,8.6011658,1.6732635 		c2.562767,1.1157074,4.7148361,2.7187042,6.4573746,4.8108368l-5.4375839,5.0194397 		c-2.4751968-2.8580933-5.542038-4.2875061-9.2020721-4.2875061c-2.2663651,0-4.2876663,0.496521-6.0658722,1.4902496 		c-1.7775421,0.9932251-3.1628418,2.3791809-4.1567307,4.156723c-0.992981,1.7775574-1.4903336,3.7994232-1.4903336,6.0651398 		s0.4973526,4.287674,1.4903336,6.0651398c0.9938889,1.7782745,2.3791885,3.1635742,4.1567307,4.156723 		c1.7782059,0.9937286,3.7995071,1.4903412,6.0658722,1.4903412c3.6600342,0,6.7268753-1.446228,9.2020721-4.3394928 		l5.4375839,5.0195923c-1.7425385,2.1263275-3.9038773,3.7468719-6.483284,4.8625946 		C85.9564209,173.2489777,83.0807037,173.8065033,79.9087524,173.8065033L79.9087524,173.8065033z"/>
</g>
</svg>
