<?xml version="1.0" encoding="utf-8"?>
<svg version="1.1" xmlns="http://www.w3.org/2000/svg" x="0px" y="0px" viewBox="0 0 170.6 117.4">
<style type="text/css">
	.st0{fill:#CDCDCD;}
</style>
<path class="st0" d="M104.7,36.6c0.5,0.2,2,1.7,2,3.4c-1.8-1.6-4.4-1.6-5.9-1.1C101.8,37.7,104,36.7,104.7,36.6z M115,18.8 c-0.2-0.6,5.9-0.6,5.9,3.2c-0.1,2.7-6.8,6.6-1.9,8.6c-0.9-4.3,3-2,4-1.2c-2.1-5.8,2.6-5.7,2.2-8.4c-0.3-1.8-4.4-1.3-5.9-2.2 c-2.6-1.7-5.7-8.1-7.8-1.7c3.8,3.6,1.6,8.8-3.3,8.8c0,0,0,0.8,0,0.8C114.1,26.5,116.1,22.2,115,18.8L115,18.8z M47.5,29.3 C47.5,29.3,47.5,29.3,47.5,29.3L47.5,29.3L47.5,29.3z M47.5,29.3c1.1-0.8,5-3,4,1.2c4.8-2-1.8-5.9-1.9-8.6c0-3.8,6.1-3.8,5.9-3.2 c-1.1,3.4,1,7.7,6.7,7.9c0-0.1,0-0.8,0-0.8c-4.8,0-7.1-5.2-3.2-8.8c-2-6.4-5.2,0-7.8,1.6c-1.5,0.9-5.6,0.4-5.9,2.2 C44.9,23.6,49.6,23.6,47.5,29.3L47.5,29.3z M69.8,38.9c-1-1.2-3.3-2.2-3.9-2.3c-0.5,0.2-2,1.7-2,3.4h0 C65.7,38.4,68.3,38.4,69.8,38.9z M104.2,14.8L104.2,14.8l-2-2.4l-2,2.4l2,2.4L104.2,14.8L104.2,14.8z M70.4,14.7L70.4,14.7l-2-2.4 l-2,2.4l2,2.4C68.3,17.1,70.4,14.7,70.4,14.7z M64.6,26.7L64.6,26.7L64.6,26.7L64.6,26.7z M64.6,26.7c7.1,0.4,16.2,0.2,17.5-7.2 l6.4,0c1.3,7.4,10.3,7.7,17.5,7.2c2.1-2,3.4-7.6-0.9-7.3l-2.9,2.6l-2.8-2.6c-3.1-0.3-3.8,3.5-1.7,6.2c-2.7-0.4-6-2.2-6.8-6.1 c2.6-3.2,5.7-11-1.3-10.8l-4.3,5l-4.3-5c-7-0.3-3.9,7.6-1.3,10.8c-0.7,3.9-4.1,5.7-6.8,6.1c2.1-2.6,1.4-6.5-1.7-6.2L68.3,22 l-2.8-2.6C61.2,19.1,62.5,24.7,64.6,26.7L64.6,26.7z M121.9,87.7L121.9,87.7L121.9,87.7L121.9,87.7z M116.8,87.7l2.5,2.4l2.5-2.4 l-2.5-2.7L116.8,87.7L116.8,87.7z M88.1,4.3L88.1,4.3l-2.8-3.4l-2.8,3.4L85.3,8L88.1,4.3z M134.3,53.3c9.3,7.6,25.4,9.6,27.2,9.7 c-6.6,12.8-20.8,0-29.6-7.6c-0.5,0.3-0.9,0.5-1.4,0.8c5.6,9.4,17.9,15.4,19.4,16.1c-8.9,8.6-19.4-8.1-22.8-14.4 c-0.5,0.3-1.5,0.6-2.1,0.8c1.8,7.5,11.3,16.4,12.2,17.4c-8.2,4.9-14.8-8.8-15.8-16.2c-0.8,0.2-1.6,0.5-2.4,0.7 c0.5,7.5,5.7,16.9,6.2,18.1c-7.9,2.2-10.9-10-10.3-16.8c-0.8,0.3-1.7,0.7-2.6,1.1c-1.4,5.3,1.1,14.1,1.3,15.1 c-5.6-0.4-7-8.3-5.6-12.8c-1.1,0.7-2.2,1.4-3.2,2.2c0.8,3.3,0.6,7-0.3,10.2c0.1,0.2,4.6,3.3,4.7,3.4c2-0.8,4.4,0.8,4.4,3 c0.1,4.2-6.5,4.2-6.4,0l-1-0.7c-0.3,2-1.2,4.4-3.1,7c-0.6,0.9,7,4.5,9.3,4.2c0.4-1.7,1.5-3.1,3-4l3.8,3l0,0l0,0l0,0l3.8-3 c5.5,3,3.3,11.6-3,12c-6.6,0.4-9.6-8.3-18.4-8.9c3.2,3.5,4.8,7.9-1,9.5c-1.2-4-3.9-9.3-7.3-12.7c-0.6,0.3-1.3,0.5-1.9,0.8 c3,5.5,9.9,15.9,1.2,17.6c-0.3-4.9-2-12.5-4-16.9c-0.5,0.1-1.1,0.2-1.6,0.2c0.6,4.4,2.3,16.6,2.3,20.9c0,2.4-3.6,4.1-4.3,4.4 c-0.5-0.2-4.1-1.9-4.1-4.4c0-4.2,1.7-16.4,2.3-20.8c-0.6,0-1.1-0.1-1.7-0.2c-1.9,4.4-3.6,11.9-4,16.8c-8.7-1.7-1.8-12,1.1-17.5 c-0.7-0.2-1.3-0.5-2-0.7c-3.4,3.4-6,8.6-7.1,12.6c-5.8-1.6-4.2-6-1-9.5c-3.5,0.3-8.6,3.6-10.8,5.1c0.4,0.5,3.5,2.9,3.5,3.6 c-0.6,3.6-4.2-1-5.3-1.8c-3.4,2.3-8.4-1.9-5.9-5.5c0,0-2.2-2-2.3-2.2c-1.1,0.9-3.2,0.4-3.1-0.6c-0.9,0.8-4.9,1.1-6-3 c0.8,0.1,2.5,0,2.5,0c-2.7-4.1,0.2-6.8,4.3-4.5c0,0-0.1-1.6-0.2-2.4c4.2,0.9,4.1,4.8,3.4,5.7c0.8-0.1,1.7,1.5,0.9,2.7 c0.2,0.1,2.7,2.5,2.7,2.5c1.6-0.6,3.7-0.2,4.8,1c3,0.4,10.8-3.3,10.2-4.2c-1.9-2.7-2.8-5-3.1-7l-1,0.7c0,4.2-6.5,4.1-6.4,0 c0-2.2,2.3-3.8,4.4-3l4.4-3.1c-1.1-3.3-1.2-7.2-0.4-10.6c-1-0.8-2-1.5-3-2.1c1.4,4.5,0,12.4-5.6,12.8c0.2-1,2.7-9.8,1.3-15.1 c-1-0.4-1.9-0.8-2.6-1.1c0.6,6.8-2.4,18.9-10.3,16.8c0.5-1.2,5.7-10.6,6.2-18.1c-0.8-0.2-1.6-0.5-2.4-0.7 c-1.1,7.4-7.6,21.1-15.8,16.2c0.9-1,10.4-9.9,12.3-17.4c-0.6-0.3-1.6-0.6-2.1-0.8c-3.4,6.3-13.9,23-22.8,14.4 C21.7,71.4,34,65.4,39.6,56c-0.5-0.2-0.9-0.5-1.4-0.8c-8.8,7.6-23,20.4-29.6,7.6c1.8-0.1,18-2.1,27.2-9.6c-0.5-0.4-0.9-0.8-1.3-1.3 C23.5,56.2,2.5,63.2,1.2,47.9c2.2,1.2,30.3-0.5,43-3.3c0.1,1.9,8,6.5,11.5,4.9c2.2-1,0.4,7,6.1,9.6c3.2,0.9,4,1,8.3-1.5l-1.9-1.3 c-2,0.7-4.2-0.9-4.2-3.1c-0.1-4.3,6.7-4.1,6.4,0.2l2.6,1.8c0.8-0.6,1.6-1.1,2.4-1.5c4.9-7.8-8.5-24.7-16.2-16.2 c-6-11.5,14.1-5.9,22.4-8.8c0.1,1.9-2.3,4.8-4.6,5.9c3.6,3.2,6.9,9.3,8,16.8c0.2,0,0.3,0,0.5,0c1.1-7.5,4.4-13.6,8.1-16.8 c-2.3-1.1-4.8-4.1-4.6-5.9c8.3,2.9,28.4-2.6,22.4,8.9c-8.2-9.3-24.1,11.9-14.2,17.9l2.8-2c-0.3-4.3,6.5-4.4,6.4-0.2 c0,2.1-2.2,3.7-4.2,3.1l-2,1.4c4.2,2.4,5,2.3,8.1,1.4c5.8-2.5,3.9-10.6,6.1-9.6c3.4,1.6,11.4-3,11.5-4.9c0.1-0.7,0.8-0.6,1.3-0.3 c14.1,5,39.5,3.7,41.9,3.9c-2.5,15.3-22.3,8.1-33.6,3.9C135.2,52.5,134.8,52.9,134.3,53.3L134.3,53.3z M99.5,71.8 c-0.1-19-28.9-19-29,0C70.6,90.7,99.4,90.7,99.5,71.8z M88.1,70.7c0.4,1.9-1.2,0.4-0.4,2.9c1.6,3.2,1.6,0.8,4,1.7 c1.9,0.7,3.3,5.3-1,7.2l-7.9-17.8c0.6-0.1,1.7-0.2,2.1-0.1c-1.1-1.9,2.1-3.1,2.2-1.2c0,0.6-0.5,1.1-0.7,1.2c-0.8,0.7,0.9,1.6,1,2.4 c0.8-1.2,2.4-1.4,3.6-0.5c1.4,1-0.2,5.5-0.8,5.5C89.3,73,88,70.1,88.1,70.7z M90,83c-1.9,0.9-7.4,1.6-10.2-1.1 c-5.3,1.2-3-5.6-2.6-3.7c-0.3,1,0.1,1.2,0.8,1.2c-0.2-6.3,7.8,1.4,5.8-7.2c-0.7,0.3-1.4-1.2-1.3-1.6c-5.1,0.1-7.4-4.3-1.4-5.6 l-1.6-4.6v0C80,57,89.7,83.5,90,83z"/>
</svg>
