<?xml version="1.0" encoding="utf-8"?>
<!-- Generator: Adobe Illustrator 27.3.1, SVG Export Plug-In . SVG Version: 6.00 Build 0)  -->
<svg version="1.1" id="ibdr" xmlns:xodm="http://www.corel.com/coreldraw/odm/2003"
	 xmlns="http://www.w3.org/2000/svg" xmlns:xlink="http://www.w3.org/1999/xlink" x="0px" y="0px" viewBox="0 0 1136 291"
	 style="enable-background:new 0 0 1136 291;" xml:space="preserve">
<style type="text/css">
	.st0{fill:#2499E3;}
	.st1{fill:#FFBF00;}
	@keyframes lm {0% {transform: translate(400px,0px); animation-timing-function:  ease-in-out;}100% {transform: translate(0px,0px);animation-timing-function:  ease-in-out;}}
    #move-line {-webkit-animation: lm 3s ease-out;-moz-animation: lm 3s ease-out;animation: lm 3s ease-out;}
	@keyframes ll {0% {transform: scale(1,1);} 50% {transform: scale(.9,1);} 100% {transform: scale(1,1);}}
    #l-lenta {-webkit-animation: ll 3s alternate infinite linear;-moz-animation: ll 3s alternate infinite linear;-o-animation: ll 3s alternate infinite linear;animation: ll 3s alternate infinite linear;}
    @keyframes lr {0% {transform: scale(1,1);} 50% {transform: scale(1.05,1);} 100% {transform: scale(1,1);}}
    #r-lenta {-webkit-animation: lr 3s alternate infinite linear;-moz-animation: lr 3s alternate infinite linear;-o-animation: lr 3s alternate infinite linear;animation: lr 3s alternate infinite linear;}
    @keyframes gt {0% {transform: translate(0px,0px); animation-timing-function: linear;} 50% {transform: translate(0px,-3px); animation-timing-function: linear;} 100% {transform: translate(0px,0px); animation-timing-function: linear;}}
    #gems-top {-webkit-animation: gt 3s infinite linear;-moz-animation: gt 3s infinite linear;-o-animation: gt 3s infinite linear;animation: gt 3s infinite linear;}

</style>
<polygon id="move-line" class="st0" points="930.9277954,247.8802338 905.6833496,247.8802338 880.4389038,247.8802338 
	855.194458,247.8802338 829.9500122,247.8802338 804.7055664,247.8802338 779.4611206,247.8802338 779.4611206,272.9688416 
	804.7055664,272.9688416 829.9500122,272.9688416 855.194458,272.9688416 880.4389038,272.9688416 905.6833496,272.9688416 
	930.9277954,272.9688416 956.1722412,272.9688416 981.416687,272.9688416 981.416687,247.8802338 956.1722412,247.8802338 "/>
<path id="text" class="st1" d="M1136,107.7891617L1136,107.7891617l-25.2445068-25.2444458H984.3774414v151.4666748h25.4002686
	v-50.3330688h100.9777832L1136,158.4338837l0,0V107.7891617z M1110.7554932,158.2780457H1009.77771v-50.488884h100.9777832
	V158.2780457z M472.6320801,196.4563751V183.989975v-25.2444305v-25.4002838v-25.2444382V82.8563766h-25.4002686v25.2444458
	v25.2444382v25.4002838v25.2444305v25.088623v25.4002686h25.4002686l100.9777832-113.5999908v12.4663849v25.4002838v25.2444305
	v25.088623v25.4002686h25.2444458V209.078598v-25.088623v-25.2444305v-25.4002838v-25.2444382V82.8563766h-25.2444458
	L472.6320801,196.4563751z M775.4095459,209.2344208L775.4095459,209.2344208l-25.2444458,25.2444458H649.6548462
	L623.9429321,208.92276V82.8563766h25.2444458h126.222168v25.4002762h-126.222168v25.0886078h100.9777222l25.2444458,25.2444458l0,0
	V209.2344208z M750.1651001,158.5897064H649.1873779v50.6447144h100.9777222V158.5897064z M828.8592529,209.078598v-25.088623
	v-13.4013672l63.2669067-62.331955l0,0h12.3105469h25.2444458v25.2444458v25.2444458v25.2444305v25.088623v25.2444458h25.2444458
	V209.078598v-25.088623v-25.2444305v-25.2444458v-25.2444458V83.012207h-25.2444458h-25.2444458h-25.2444458l-75.5774536,75.7333374
	v25.2444305v25.088623v25.2444458h25.2444458V209.078598z"/>
<path id="l-lenta" class="st0" d="M135.883667,34.8607712c0.9349823-0.7791519,2.0257874-1.2466393,3.1166077-1.2466393
	c0.6233063,0,1.4024658,0.1558266,1.8699493,0.4674873c2.0257874,1.7141304,3.2724304,4.0515785,3.895752,6.7006874
	c-2.8049469,2.3374481-4.5190735,5.6098747-4.8307343,9.3497925c0,0.1558304,0,0.3116608,0,0.6233215
	c0,3.2724266,1.4024811,6.5448532,4.05159,8.7264709c2.4932709,2.0257912,5.6098633,3.1166,8.7264709,3.1166h0.1558228
	c0,0.6233177,0,1.4024696,0,2.0257912c-5.1423798,0-10.1289368-2.0257912-13.713028-5.7657089
	c-2.4932709-2.6491089-3.7399139-6.0773659-3.7399139-9.6614532c0-1.5583,0.1558228-3.1166,0.7791443-4.5190659
	c-0.9349823-0.4674911-1.8699493-0.6233215-2.8049316-0.6233215c-0.4674988,0-0.7791595,0-1.0908203,0
	c-3.2724152,0.1558304-6.2331924,1.2466393-8.7264709,3.428257c-1.5582962,1.2466393-2.3374481,3.2724304-2.3374481,5.2982178
	c0,0.9349785,0.1558304,1.7141304,0.4674911,2.4932785c1.869957,4.5190659,7.1681747,7.0123444,8.4148178,11.9989052
	c0,0.3116531,0,0.7791443,0,1.2466354c0,2.6491089-1.7141266,4.986557-4.2074051,5.6098785
	c0.3116531-0.7791519,0.4674835-1.5583038,0.4674835-2.4932785c0-0.9349823-0.1558304-1.7141342-0.4674835-2.6491089
	c-0.6233215-0.7791519-1.4024734-1.2466431-2.3374557-1.2466431c-0.3116531,0-0.6233139,0-0.7791443,0.1558304
	c-2.4932785,0.4674911-4.6748962,1.5583038-6.7006836,3.1166c0.7791443-1.869957,1.2466354-3.8957443,1.2466354-5.9215393
	c0-1.5582962-0.3116608-3.2724228-0.7791519-4.8307228c-1.4024658-2.1816177-3.1165924-4.3632393-4.986557-6.2331963
	c-0.6233139-0.7791481-0.9349747-1.7141304-0.9349747-2.8049393c0-0.6233177,0-1.0908089,0.3116608-1.5583
	c0.6233139-1.0908089,1.5582962-1.869957,2.6491089-2.1816177c3.4282532-1.0908089,7.0123444-1.0908089,10.2847672-2.0257874
	c1.5583038-0.7791481,2.9607697-1.7141304,4.0515823-2.9607697c2.4932785-2.8049355,5.1423874-5.298214,7.947319-7.7914925
	V34.8607712z"/>
<path id="r-lenta" class="st0" d="M279.2471619,34.2374496c0.6233215-0.3116608,1.4024963-0.4674911,2.1816406-0.4674911
	c0.934967,0,1.8699646,0.3116608,2.4932556,0.9349823c4.3632507,2.8049355,7.0123596,7.3240051,11.2197571,10.1289406
	c4.0515747,2.0257912,8.7264709,1.2466393,12.4664001,3.1166c1.2466431,0.6233177,2.0257874,1.869957,2.0257874,3.1165962l0,0
	c-0.1558228,2.0257912-1.2466431,3.8957481-2.8049316,5.2982178c-1.7141418,1.5583-2.9607849,3.5840874-3.5840759,5.9215355
	c-0.1558533,0.7791519-0.1558533,1.7141304-0.1558533,2.6491051c0,2.025795,0.311676,4.2074127,1.2466431,6.2332001
	c-1.8699646-1.4024658-4.0515747-2.4932785-6.2331848-3.1166c-0.4674988-0.1558304-0.7791443-0.1558304-1.2466431-0.1558304
	c-0.934967,0-1.7141418,0.3116608-2.3374634,1.0908127c-0.4674683,0.9349747-0.6233215,2.0257874-0.6233215,2.9607697
	c0,0.7791443,0.1558533,1.5582962,0.311676,2.3374481c-1.7141418-0.6233215-3.1166077-1.8699646-3.895752-3.5840912
	c-0.1558228-0.6233215-0.3116455-1.4024658-0.3116455-2.1816177c0-1.0908127,0.3116455-2.1816177,0.934967-3.1166
	c1.8699646-3.5840836,5.4540405-5.7657051,7.3240051-9.3497925c0.6233215-1.0908089,0.7791443-2.1816177,0.7791443-3.428257
	c0-1.869957-0.6233215-3.7399178-2.0257874-4.986557c-2.3374329-2.1816177-5.2982178-3.428257-8.5706482-3.5840874
	c-0.3116455,0-0.7791443,0-1.2466431,0c-0.934967,0-2.0257874,0.1558304-2.9607544,0.4674911
	c0.4674988,1.5582962,0.7791443,2.9607658,0.7791443,4.5190659c0,3.428257-1.0908203,6.544857-3.1166077,9.1939621
	c-3.7398987,3.8957481-8.8822937,6.2332001-14.1805115,6.2332001c-0.1558228,0-0.1558228,0-0.3116455,0
	c0-0.6233215,0-1.4024696,0-2.0257912c0.1558228,0,0.1558228,0,0.1558228,0c2.8049316,0,5.6098633-0.9349785,7.9473267-2.4932785
	c3.1166077-2.0257874,4.830719-5.6098747,4.830719-9.3497925c0-0.1558304,0-0.3116608,0-0.4674911
	c-0.3116455-3.7399178-2.0257874-7.0123444-4.830719-9.3497925C276.1305847,38.2890282,277.3772278,35.95158,279.2471619,34.2374496
	L279.2471619,34.2374496z"/>
<g id="gems-top">
	<path id="lr-dot" class="st0" d="M167.8287964,28.4717445c1.8699646,2.0257874,3.4282532,4.0515747,5.142395,6.3890266
		c-1.7141418,1.869957-3.4282684,3.8957443-4.986557,5.9215355l-4.986557-5.9215355
		C164.556366,32.6791496,166.2705078,30.8091927,167.8287964,28.4717445z M247.3020477,34.8607712l5.1423798-6.0773678
		c1.7141418,1.8699589,3.2724304,4.0515766,4.9865723,6.2331944c-1.7141418,1.8699608-3.4282684,3.8957481-4.9865723,5.9215393
		c-1.8699493-2.1816216-3.4282532-4.3632393-5.1423798-6.2331963V34.8607712z"/>
	<polygon id="c-dot" class="st0" points="203.202179,8.6813469 210.2145386,0.1107025 217.2268829,8.6813469 
		210.2145386,17.5636501 	"/>
</g>
<g id="gerb">
	<path class="st0" d="M217.6943665,175.1076813c0.7791443,4.0515747-2.6491089,0.7791443-0.7791443,6.3890228
		c3.4282532,7.1681671,3.4282532,1.8699646,8.8822937,3.895752c4.2074127,1.5582886,7.3240051,11.6872406-2.3374481,15.7388153
		l-9.3497925-21.5045319v-16.0504761l0,0c0.9349823,1.0908051,1.5583038,2.1816254,2.1816254,3.4282532
		c0.9349823-1.4024658,2.6491089-2.3374481,4.5190582-2.3374481c1.2466431,0,2.3374481,0.4674988,3.4282684,1.2466431
		c3.1165924,2.1816254-0.4674988,12.1547394-1.8699646,12.1547394c-1.8699646,2.0257874-4.830719-4.2074127-4.5190735-3.1166077
		L217.6943665,175.1076813z"/>
	<path class="st0" d="M213.9544525,157.0314026c0.9349823,0.155838,1.5582886,0.9349823,1.7141266,2.0258026
		c-0.155838,0.934967-0.7791443,2.0257874-1.7141266,2.6490936l0,0V157.0314026L213.9544525,157.0314026z"/>
	<path class="st0" d="M213.9544525,204.092041c2.6491089,0,5.2982178-0.6233215,7.6356659-1.7141266l-7.7915039-18.5437622
		L213.9544525,204.092041z"/>
	<path class="st0" d="M213.9544525,179.6267395l-7.9473267-17.7646027c0.9349823-0.155838,2.0257874-0.3116608,2.9607697-0.3116608
		c0.6233215,0,1.0908051,0.1558228,1.7141266,0.1558228c-0.3116608-0.4674835-0.4674835-0.934967-0.4674835-1.5582886l0,0
		c0-0.155838,0-0.155838,0-0.155838c0-1.7141266,1.2466278-2.9607697,2.9607544-2.9607697h0.155838h0.6233215v4.8307343
		c-0.6233215,0.6233215-0.4674988,1.0908051,0,1.7141266V179.6267395L213.9544525,179.6267395z"/>
	<path class="st0" d="M213.9544525,183.8341522l-13.713028-32.1009521c0-0.4674988-0.4674988-0.7791595-0.9349823-0.7791595
		c-0.4674988,0-0.7791595,0.4674988-0.7791595,0.9349823c0,0.1558228,0,0.3116608,0.155838,0.4674835l0,0l3.5840912,10.128952
		c-3.1166077,0.7791443-8.1031647,3.1165924-8.2589874,6.0773621c0,4.0515747,7.1681671,6.7006836,11.3755798,6.2332001
		c-0.3116608,0.9349823,1.2466431,4.2073975,2.8049316,3.5840912c0.6233215,2.8049316,1.5583038,10.5964203-2.1816101,9.973114
		c-11.0639191-1.8699646-10.7522583,3.8957367-10.5964355,6.0773621c-1.7141266,0-2.4932709-0.4674988-1.8699646-2.6491089
		c0.155838-0.7791595-0.3116455-1.4024658-1.0908051-0.4674988c-0.6233215,1.2466431-0.9349823,2.6491089-1.0908051,3.895752
		c0,4.8307343,5.7657013,5.7657013,7.7914886,4.6748962c3.5840912,2.8049469,7.7915039,4.3632355,12.3105621,4.3632355
		c0.7791595,0,1.5583038,0,2.4932861-0.1558228V183.8341522z"/>
	<path class="st1" d="M294.9859924,253.6459503v-22.5953369l9.3497925-7.4798431
		c3.4282532,2.0257874,6.0773621,5.142395,7.3240051,8.882309c0.4674988,1.5583038,0.7791443,3.2724304,0.7791443,4.8307343
		c0,2.8049316-0.7791443,5.6098633-2.1816101,8.1031494c-3.2724304,5.1423798-9.038147,8.2589874-15.115509,8.2589874H294.9859924
		L294.9859924,253.6459503z"/>
	<path class="st1" d="M294.9859924,222.3241425v-12.4664001l0,0c2.1816101,2.3374481,4.2073975,4.5190735,6.2331848,6.7006836
		l-6.2331848,5.9215393V222.3241425z"/>
	<path class="st1" d="M294.9859924,189.2881927v-36.1525269c0.4674988,3.1165924,1.2466431,6.0773621,2.0257874,8.8822937
		c3.2724304,11.0639343,7.7915039,21.8161926,13.0897217,32.1009674c-1.2466431,0.6233215-2.4932861,0.9349823-3.895752,0.9349823
		c-0.7791443,0-1.5582886-0.155838-2.3374634-0.3116608C300.440033,193.8072662,297.3234558,191.9373016,294.9859924,189.2881927
		L294.9859924,189.2881927z"/>
	<path class="st1" d="M294.9859924,148.7724304c1.8699646-0.4674988,3.5840759-1.0908203,5.4540405-1.5583038
		c0.6233215,4.0515747,1.7141418,8.2589874,3.1166077,12.1547241c1.5582886,4.8307343,3.5840759,9.5056305,5.9215393,14.024704
		c2.4932861,4.5190582,5.9215393,8.5706329,10.1289368,11.6872406c3.2724304,2.4932709,7.1681824,4.3632355,11.3755798,4.986557
		c0.6233215,0.1558228,1.2466431,0.1558228,2.0257874,0.1558228c2.4932861,0,5.142395-0.7791443,7.0123596-2.4932709
		c-0.7791443-1.0908203-1.8699646-2.0257874-3.1166077-3.1166077c-5.2982178-5.2982178-10.2847595-11.0639191-14.9596558-16.9854584
		c-5.7657166-6.8565063-10.1289673-14.959671-12.7780762-23.530304c1.7141418-0.7791595,3.4282837-1.4024811,5.142395-2.1816254
		c4.6748962,7.7914886,9.5056152,15.2713318,14.6480103,22.5953369c2.8049316,4.0515747,5.9215393,7.7914886,9.3497925,11.0639191
		c5.7657166,4.986557,13.2455444,7.7915039,20.7253723,7.7915039c0.311676,0,0.4674988,0,0.7791443,0
		c4.5190735,0,8.8823242-1.8699646,11.9989014-5.142395c-1.0907898-0.7791443-2.1816101-1.2466431-3.4282532-1.8699646
		c-5.765686-2.9607544-11.5314026-6.3890228-16.9854431-10.2847595
		c-11.3755798-7.3240051-20.8812256-16.9854584-28.3610535-28.3610535c1.2466431-0.6233063,2.3374634-1.2466278,3.4282532-1.8699493
		c8.5706482,8.1031494,17.7646179,15.2713318,27.5819092,21.6603546c5.142395,3.4282532,10.4405823,6.5448456,16.0504761,9.0381317
		c2.9607544,1.4024658,6.2331848,2.0257874,9.3497925,2.0257874c4.3632507,0,8.5706482-1.0908051,12.1547241-3.2724304
		c4.207428-2.1816101,7.4798279-5.9215393,9.3497925-10.2847748c-2.8049316-0.4674835-5.765686-0.6233215-8.5706482-1.0908051
		c-7.9473267-1.2466431-15.7388-3.1165924-23.530304-5.4540405c-13.0897217-3.4282684-25.4002686-9.5056305-36.3083496-17.6087799
		c1.0907898-1.0908203,2.1816101-2.1816254,3.1165771-3.2724304c9.6614685,3.7399139,19.6345825,7.0123444,29.6076965,9.6614532
		c6.7006836,1.7141266,13.5571899,3.1165924,20.2578735,4.2074127c1.5582886,0.1558228,3.1166077,0.3116608,4.6748962,0.3116608
		c5.7657166,0,11.3755798-1.4024811,16.3621521-4.2074127c4.9865417-2.8049469,8.8822937-7.1681824,11.2197571-12.4663925
		c0.7791443-2.3374481,1.4024658-4.5190659,1.7141113-6.856514v-0.4674911c-0.6233215,0-1.4024658-0.1558304-2.0257874-0.1558304
		c-0.7791443,0-1.4024658,0.1558304-2.1816101,0.1558304c-14.1805115,0.6233215-28.3610535,0.3116608-42.5415649-0.3116608
		c-8.8822937-0.6233215-17.7646179-1.2466354-26.4910889-2.4932785
		c-11.2197571-1.2466354-22.1278381-3.5840836-32.7242737-7.1681747c-0.1558228,0-0.4674988,0-0.6233215,0
		c-0.7791443,0-1.2466431,0.4674911-1.4024658,1.2466354c-0.4674988,1.7141342-1.5582886,3.2724304-3.1166077,4.3632431
		c-3.7398987,2.960762-7.9473267,5.2982178-12.4663696,7.0123444l-0.9349976,0.3116608V148.7724304z"/>
	<path class="st1" d="M294.9859924,120.8788757v27.8935547h-0.4674988c0.1558533,1.4024658,0.311676,2.9607697,0.4674988,4.3632355
		v36.1525269c-0.6233215-0.7791443-1.2466431-1.4024658-1.8699646-2.1816101
		c-3.5840759-4.5190735-6.0773621-9.6614532-7.3240051-15.115509c-0.934967-5.7657013-1.4024658-11.5314026-1.4024658-17.1412811
		c0-0.9349823,0-1.8699646,0-2.8049469c-2.3374329,0.9349823-4.5190735,1.8699646-6.7006836,2.9607697
		c-0.6233215,3.5840912-1.0908203,7.4798431-1.0908203,11.2197571s0.4674988,7.4798431,1.0908203,11.2197571
		c0.7791443,5.1423798,2.1816101,10.2847748,3.1166077,15.5829926c-3.5841064-0.3116608-6.8565063-2.0258026-9.038147-4.8307343
		c-2.9607544-3.895752-4.9865417-8.4148102-5.6098633-13.0897064c-0.311676-1.7141266-0.4674988-3.2724304-0.4674988-4.986557
		c0-3.2724304,0.4674988-6.5448608,1.4024658-9.6614532c-2.8049316,1.5582886-5.4540405,3.2724304-7.9473267,5.1423798
		c0.7791443,3.7399139,1.0908203,7.3240051,1.0908203,11.0639191c0,4.986557-0.6233215,9.8172913-2.0257874,14.4921875
		c3.895752,2.9607697,7.9473267,5.6098785,11.8430786,8.5706482c0.934967-0.3116608,1.8699341-0.4674988,2.8049316-0.4674988
		c0.934967,0,1.8699646,0.155838,2.8049316,0.4674988c3.1166077,1.0908051,5.2982178,4.2073975,5.2982178,7.4798279
		c0,4.5190735-3.5840759,8.1031647-7.9473267,8.1031647c-0.934967,0-1.8699646-0.155838-2.8049316-0.4674988
		c-3.1166077-1.2466431-5.2982178-4.2074127-5.2982178-7.6356659l-2.3374634-1.5583038
		c-1.0907898,5.6098785-3.2724304,10.9080963-6.5448303,15.5829926v-75.2658386
		c1.5582886,0.4674988,3.2723999,0.7791595,5.1423645,0.7791595l0,0c1.5583191-0.155838,3.1166077-0.7791595,4.6748962-1.0908203
		c2.4932861-0.6233215,4.8307495-1.8699493,6.7006836-3.8957367c2.9607849-3.2724304,4.9865723-7.3240051,5.9215393-11.6872559
		c0.4674988-2.3374405,0.9349976-4.6748886,1.5583191-6.8565063c0.3116455-0.9349823,0.7791443-2.0257874,1.8699341-2.0257874
		c0.9349976-0.1558304,2.1816406,0.7791443,3.2724304,0.9349747c0.6233215,0,1.2466431,0,1.8699646,0
		c2.6491089,0,5.2982178-0.4674911,7.9473267-1.4024658V120.8788757z"/>
	<path class="st1" d="M294.9859924,210.0135803c-2.1816101,2.1816101-4.2073975,4.3632355-6.2331848,6.7006836
		c2.1816101,1.8699493,4.2073975,3.8957367,6.2331848,5.7657013V210.0135803L294.9859924,210.0135803z"/>
	<path class="st1" d="M294.9859924,231.2064362v22.5953369h-0.1558228c-5.7657166,0-11.2197571-2.8049316-14.4921875-7.6356659
		c-3.2724304-2.9607697-6.7006836-5.4540405-10.5964355-7.4798279c-4.2073975-2.6491089-8.8822937-4.8307343-13.7130127-6.3890228
		v-7.3240051c0.4674683,0.4674835,1.0907898,0.7791443,1.5582886,1.0908051
		c3.895752,2.3374481,7.9473267,4.2073975,12.1547241,5.7657013c2.6491089,0.9349823,5.4540405,1.5583038,8.2590027,1.5583038
		c1.0907898-4.0515747,3.8957214-7.6356659,7.6356506-9.973114c3.1166077,2.4932709,6.2331848,4.986557,9.3497925,7.4798279
		V231.2064362z"/>
	<path class="st1" d="M256.0285339,250.9968414c0.4674683-0.6233215,1.0907898-1.4024658,1.4024658-2.0257874
		c0.7791443-1.0908203,1.2466431-2.4932861,1.2466431-3.7399292c0-0.7791443-0.1558533-1.4024658-0.311676-2.0257874
		c-0.6233215-1.7141266-1.4024658-3.2724304-2.3374329-4.830719v12.4663849V250.9968414z"/>
	<path class="st1" d="M256.0285339,138.4876556c3.8957214-0.6233215,6.7006836-4.0515747,6.7006836-7.9473267
		s-2.8049622-7.3240051-6.7006836-7.9473267V138.4876556L256.0285339,138.4876556z"/>
	<path class="st1" d="M256.0285339,94.3877869v-4.3632355c0.7791443-0.4674911,1.5582886-0.6233215,2.4932556-0.7791443
		c2.8049622,1.869957,4.5190735,4.986557,4.8307495,8.2589798C261.1708984,95.9460907,258.6776428,94.855278,256.0285339,94.3877869
		L256.0285339,94.3877869z"/>
	<path class="st1" d="M256.0285339,87.0637817c2.6491089-0.9349747,5.4540405-1.4024658,8.2589722-1.4024658
		c1.5582886,0,2.9607544,0.1558304,4.5190735,0.3116608c2.8049316,0.6233215,5.142395,2.6491089,6.2331848,5.2982178
		c1.7141418-2.1816177,2.6491089-4.8307266,2.8049316-7.4798355c0-0.3116608,0-0.6233215,0-0.7791519
		c0-2.6491089-1.0907898-5.1423874-3.1165771-6.7006836c-2.6491089-2.1816177-5.9215393-3.4282608-9.3497925-3.7399216
		c-3.1166077-0.3116531-6.2332153-0.6233139-9.3497925-0.6233139v15.2713242V87.0637817z"/>
	<path class="st1" d="M256.0285339,64.6242828V49.352951l3.1165771-3.1166c0.1558228,0,0.4674988,0,0.6233215,0
		c2.1816101,0,4.207428,0.9349823,5.6098938,2.4932785c0.7791443,1.2466393,1.2466125,2.8049393,1.2466125,4.3632393
		c0,0.7791481,0,1.5582962-0.3116455,2.1816177c-0.934967,3.428257-2.6491089,6.544857-4.830719,9.1939659L256.0285339,64.6242828z"
		/>
	<path class="st1" d="M256.0285339,49.352951v15.2713318h-8.2590027c-0.934967,0-1.8699493,0-2.6491089,0
		c-2.6491089,0-5.1423798-0.1558304-7.6356659-0.4674911c-9.5056152-1.2466393-17.2971191-8.2589874-19.4787292-17.6087799
		h-8.1031494V32.2116623l0,0c3.7399139-4.2074089,7.1681671-8.4148159,10.7522583-12.6222229c0.3116608,0,0.4674835,0,0.7791443,0
		c3.1166077,0,6.0773621,1.2466393,8.2589874,3.4282589c1.4024658,1.7141285,2.0257874,3.7399158,2.0257874,5.9215355
		c0,0.77915-0.1558228,1.7141285-0.3116608,2.6491089c-1.7141266,5.2982159-4.2073975,10.4406033-7.4798279,14.9596691
		c0.9349823,4.5190659,3.4282532,8.414814,7.0123444,11.0639229c2.9607697,2.1816177,6.3890228,3.5840874,9.973114,4.2074089
		c-1.4024658-2.0257912-2.3374481-4.0515785-2.8049469-6.3890266c-0.3116608-0.6233215-0.3116608-1.4024696-0.3116608-2.1816177
		c0-1.5583,0.4674988-3.1166,1.4024811-4.3632393c1.4024658-1.5583,3.4282532-2.4932785,5.6098633-2.4932785
		c0,0,0.155838,0,0.3116608,0c2.3374481,2.1816177,4.6748962,4.3632393,7.0123444,6.544857
		c1.4024811-1.0908089,2.6491089-2.3374481,3.8957672-3.428257V49.352951z"/>
	<path class="st1" d="M256.0285339,71.948288v15.2713242c-2.4932861,0.7791519-4.9865723,2.025795-7.1681824,3.4282608
		c-7.6356659,5.4540482-13.2455444,13.5571976-15.5829926,22.5953369c-0.7791595,2.4932785-1.0908051,4.986557-1.0908051,7.4798355
		c0,4.2074051,0.934967,8.4148178,2.9607544,11.9988937c2.8049469,0,5.7657166,0,8.5706482,0
		c0.9349823-0.4674835,2.0257874-1.2466278,2.8049469-1.8699493c0-0.155838,0-0.3116608,0-0.3116608
		c0-3.4282608,2.0257874-6.3890305,5.1423798-7.6356659c0.9349823-0.3116608,1.8699646-0.4674911,2.9607697-0.4674911
		c0.4674835,0,0.9349823,0,1.4024811,0.1558304v15.7388153c-0.6233368,0.155838-1.0908203,0.155838-1.5583191,0.155838
		c-0.6233063,0-1.0908051,0-1.5582886-0.155838c0,2.1816254,0,4.2074127,0,6.2332001
		c0.9349823,0.6233215,2.0257874,0.9349823,3.1166077,1.2466431v75.5774994l-0.4674988,0.6233215
		c-0.3116608,0.4674835-0.6233215,0.934967-0.9349823,1.5582886c0.4674835,0.6233215,0.7791443,1.0908203,1.4024811,1.4024811
		v7.1681671c-1.7141418-0.3116608-3.2724457-0.6233215-4.9865723-0.9349823
		c1.8699646,2.3374481,3.4282532,4.6748962,4.9865723,7.1681824v12.4663849
		c-2.0258026,2.1816254-4.8307343,3.7399139-7.7915039,4.2074127c-3.1166077-11.8430786-9.1939697-22.9069977-17.7646179-31.7893066
		c-1.5582886,0.6233215-3.1165924,1.4024811-4.830719,1.8699646c5.4540405,8.7264709,9.817276,18.2321014,12.7780457,28.2052155
		c0.6233215,1.5582886,1.0908203,3.1166077,1.0908203,4.830719c0,1.0908203-0.155838,2.1816101-0.4674988,3.1166077
		c-2.0257874,4.0515747-5.6098785,6.8565063-9.817276,8.1031494c-0.6233215,0.3116455-0.7791595-0.4674988-0.7791595-0.7791443
		c-0.4674835-6.3890381-1.4024658-12.7780609-2.8049316-19.0112457c-1.7141266-7.6356659-4.0515747-15.2713318-7.0123444-22.5953369
		c-1.4024658,0.1558228-2.6491089,0.4674835-4.0515747,0.6233063c1.7141266,12.7780609,3.4282532,25.5561066,4.830719,38.3341675
		c0.3116608,4.5190735,0.7791443,9.0381165,0.9349823,13.5571899c-0.3116608,2.6491089-1.5583038,4.9865723-3.5840912,6.5448608
		c-2.0257874,1.8699646-4.3632355,3.4282532-6.8565063,4.5190735v-80.7198944h31.0101471v-64.8252411h-31.0101471v-19.1670685
		h0.934967c1.2466431-9.973114,4.5190735-19.6345673,9.3497925-28.5168762
		c2.6491089-4.986557,6.2332001-9.5056229,10.4406128-13.4013672c-2.8049469-1.5583038-5.4540558-3.5840912-7.4798431-6.0773697
		c-2.3374481-2.3374481-3.7399139-5.4540482-4.0515747-8.7264709c6.5448608,1.7141266,13.4013672,2.6491089,20.102066,2.6491089
		c1.2466278,0,2.4932709,0,3.7399139,0c4.3632355,0,8.7264709,0,12.9338837,0L256.0285339,71.948288z"/>
	<path class="st1" d="M256.0285339,90.1803818l-0.6233368,0.1558304c-2.4932709,1.0908127-4.830719,2.6491089-6.8565063,4.6748962
		c1.7141266-0.4674911,3.4282532-0.7791443,5.1423798-0.7791443c0.7791443,0,1.5583038,0.1558228,2.3374634,0.1558228V90.1803818z"
		/>
	<path class="st1" d="M163.9330444,90.1803818c1.5583038,0.6233215,2.9607697,1.4024734,4.2074127,2.1816177
		c1.2466431,0.7791519,2.3374481,1.7141342,3.1165924,2.8049393c-1.5582886-0.4674911-3.1165924-0.7791519-4.6748962-0.7791519
		c-0.934967,0-1.7141266,0.1558304-2.6491089,0.3116608V89.868721V90.1803818z"/>
	<path class="st1" d="M209.9028778,32.2116623v14.3363495h-7.9473267
		c-1.2466431,5.6098747-4.6748962,10.4406013-9.3497925,13.7130318c-4.3632355,2.8049393-9.5056305,4.2074089-14.6480103,4.2074089
		c-0.3116608,0-0.4674988,0-0.6233215,0h-13.2455444V49.352951l3.7399139,3.428257
		c2.3374481-2.1816177,4.6748962-4.3632355,7.1681824-6.544857c0,0,0.1558228,0,0.3116608,0
		c2.3374481,0,4.3632355,1.0908089,5.921524,2.8049393c0.6233215,1.2466393,1.0908203,2.6491089,1.0908203,4.2074089
		c0,1.0908089-0.3116608,2.0257874-0.6233215,3.1165962c-0.6233215,1.869957-1.4024658,3.7399178-2.6491089,5.2982178
		c5.1423798-0.7791519,9.817276-3.2724304,13.2455444-7.1681747c1.8699493-2.3374519,3.1165924-4.986557,3.7399139-7.9473267
		c-3.2724304-4.6748962-5.7657013-9.8172836-7.3240051-15.2713299c-0.3116608-0.77915-0.4674835-1.5582981-0.4674835-2.4932785
		c0-2.1816177,0.7791443-4.3632374,2.1816101-5.9215355c2.1816254-2.0257893,5.142395-3.2724285,8.1031494-3.2724285
		c0.3116608,0,0.6233215,0,0.7791595,0C202.8905334,23.7968464,206.4746094,28.0042534,209.9028778,32.2116623
		L209.9028778,32.2116623z"/>
	<path class="st1" d="M209.9028778,125.8654327h-0.4674988c-1.5582886-11.8430786-5.7657013-23.0628281-12.3105621-33.0359421
		c-2.1816101-3.2724304-4.6748962-6.2331924-7.6356659-8.8823013c3.895752-2.0257874,7.3240051-5.1423874,9.6614532-8.882309
		c1.2466431-1.7141266,1.8699646-3.7399139,1.8699646-5.7657013c-5.7657013,1.7141266-11.8430786,2.4932785-17.9204407,2.4932785
		c-0.4674835,0-1.0908051,0-1.5583038,0l0,0c-5.7657013,0-11.6872406,0-17.4529419,0V86.907959
		c1.0908051,0.4674835,2.0257874,0.7791443,3.1165924,1.2466354c8.7264862,4.6748962,15.4271698,12.4663925,18.699585,21.9720154
		c1.4024811,3.2724304,2.0258026,6.856514,2.0258026,10.4406052c0,3.8957443-0.7791595,7.6356659-2.1816254,11.2197571
		c-1.0908051,0.4674835-2.0257874,1.2466278-3.1165924,1.0908051c-2.1816254,0-4.2074127,0-6.3890381,0
		c-0.934967-0.4674988-2.0257874-1.2466431-2.9607544-1.8699646c0-0.1558228,0-0.3116608,0-0.3116608
		c0-1.8699493-0.6233215-3.7399139-1.7141418-5.1423798c-1.5582886-2.0257874-3.8957367-3.2724304-6.3890228-3.2724304
		c-0.1558228,0-0.4674835,0-0.6233215,0.1558304h-0.4674835v15.8946457c0.4674835,0,0.9349823,0.155838,1.5583038,0.155838
		c0.4674835,0,0.934967-0.155838,1.4024658-0.155838v5.9215393c-0.9349823,0.4674835-1.8699646,0.9349823-2.9607697,1.2466431
		v76.3566437l0.7791443,1.0908051c0.4674988,0.7791595-0.1558228,1.4024811-0.7791443,1.8699646v7.4798431
		c1.4024658-0.4674988,2.9607697-0.7791595,4.3632355-1.0908203c-1.5583038,2.0257874-3.1165924,4.2074127-4.5190735,6.3890228
		v13.5572052c2.0258026,1.8699646,4.5190735,3.2724304,7.3240051,3.895752
		c0.6233215-2.1816254,1.0908203-4.3632355,1.8699646-6.2332001c3.5840912-9.3497925,8.882309-17.9204407,15.5829926-25.2444458
		c1.7141266,0.6233215,3.2724304,1.2466431,4.986557,1.8699646c-6.0773621,9.6614532-10.5964355,20.4137115-13.5572052,31.4776306
		c0,0.4674988-0.1558228,1.0908203-0.1558228,1.5583191c0,1.2466125,0.4674835,2.4932556,1.0908051,3.5840759
		c1.4024658,2.6491089,3.5840912,4.6748962,6.2332001,5.9215393c1.2466278,0.7791443,2.4932709,1.2466431,3.8957367,1.5582886
		c0.7791595-8.5706482,2.1816254-16.8296204,4.3632507-25.0886078c1.4024658-5.7657013,3.2724152-11.5314178,5.6098633-17.1412811
		c1.4024811,0.3116455,2.8049469,0.4674835,4.05159,0.6233063c-2.0258026,15.5829926-4.3632507,31.1660004-5.6098785,46.7489777
		c-0.155838,0.934967-0.155838,2.0257874-0.155838,2.9607544c0,1.8699646,0.3116608,3.7399292,0.9349823,5.454071
		c1.8699646,2.8049316,4.3632355,5.1423645,7.4798431,6.5448303c0.6233063,0.4674988,1.4024658,0.6233215,1.8699493,1.2466431l0,0
		v-0.1558228l0,0l0,0v-80.8757172h-30.6984863c0-21.6603546,0-43.3207092,0-64.9810638h31.0101471L209.9028778,125.8654327z"/>
	<path class="st1" d="M160.6606293,89.868721c0.4674835-0.3116608,0.934967-0.9349747,1.4024658-0.6233139
		c0.7791443,0.1558228,1.4024658,0.4674835,2.0257874,0.6233139v4.5190659
		c-2.6491089,0.3116608-5.2982178,1.4024734-7.3240051,3.1166C156.9207001,94.5436172,158.3231812,91.7386856,160.6606293,89.868721
		L160.6606293,89.868721z"/>
	<path class="st1" d="M164.0888824,49.352951v15.1155014h-5.6098785c-1.5583038-2.0257912-2.9607697-4.2074089-4.0515747-6.544857
		c-0.7791443-1.4024696-1.0908051-2.9607697-1.0908051-4.5190697c0-1.2466393,0.3116608-2.4932785,0.7791443-3.7399178
		c1.2466431-2.0257874,3.5840912-3.428257,5.9215393-3.428257c0.3116608,0,0.4674835,0.1558304,0.7791443,0.1558304
		c1.0908051,0.9349785,2.1816254,2.0257912,3.2724304,3.1166V49.352951z"/>
	<path class="st1" d="M164.0888824,71.7924576c-2.4932861,0-4.8307343,0.1558304-7.1681824,0.4674911
		c-3.8957367,0.1558228-7.7914886,1.4024658-11.0639191,3.4282532c-2.1816101,1.7141266-3.5840912,4.3632355-3.5840912,7.1681747
		c0,0.3116608,0.155838,0.6233215,0.155838,0.9349823c0.1558228,2.6491089,1.0908051,5.2982178,2.8049316,7.3240051
		c0.9349823-2.6491089,3.4282684-4.5190659,6.2332001-5.1423874c1.5583038-0.3116608,3.1165924-0.4674911,4.6748962-0.4674911
		c2.8049469,0,5.4540405,0.4674911,8.1031494,1.4024734V71.7924576H164.0888824z"/>
	<path class="st1" d="M164.0888824,122.4371719v15.8946457c-4.0515747-0.6233215-7.0123444-3.8957367-7.0123444-7.9473267
		C157.0765381,126.3329163,160.0373077,123.0604935,164.0888824,122.4371719L164.0888824,122.4371719z"/>
	<path class="st1" d="M164.0888824,145.5c-1.8699646,0.7791443-3.7399139,1.0908051-5.7657013,1.0908051
		c-0.3116608,0-0.4674988,0-0.7791595,0c-2.0257874-0.3116608-3.8957367-0.9349823-5.921524-1.4024658
		c-3.7399292-1.7141266-6.8565216-4.6748962-8.5706482-8.4148102c-1.7141266-3.895752-2.8049469-7.9473267-3.5840912-11.998909
		c-0.1558228-1.2466354-0.6233215-2.4932785-1.5583038-3.4282608c-0.6233215-0.6233139-1.5582886,0-2.3374481,0.3116608
		c-1.4024658,0.3116608-2.6491089,0.4674911-4.0515747,0.4674911c-1.8699646,0-3.5840836-0.3116608-5.4540482-0.9349747
		c-4.6748962-1.4024734-9.1939621-3.5840912-13.2455368-6.3890305c-1.869957-1.2466354-3.4282608-2.8049393-4.6748962-4.5190659
		c-0.4674911-0.9349823-0.1558304-2.1816177-1.2466431-2.4932785c-0.9349747-0.4674911-1.7141266,0.1558304-2.4932785,0.4674911
		c-9.6614532,2.9607697-19.6345673,5.1423874-29.7635117,6.2331924c-15.5829849,1.869957-31.321804,2.9607697-47.2164536,3.1166
		c-9.193964,0-18.2320976,0-27.4260616-0.4674911v1.0908127c0.6233196,6.5448532,4.0515771,12.4663849,9.193964,16.5179596
		c5.7657061,4.3632507,12.622221,6.7006989,19.7903976,6.7006989c0.7791481,0,1.4024677,0,2.0257874,0
		c5.4540462-0.6233215,10.9080944-1.5583038,16.2063084-2.8049469c12.3105621-2.9607697,24.6211281-6.7006836,36.3083687-11.2197495
		c1.0908051,1.0908127,2.0257874,2.1816177,3.1166,3.2724228c-10.2847748,7.7915039-21.9720154,13.5572052-34.4384117,17.1412964
		c-10.5964317,3.2724304-21.3486938,5.4540405-32.2567902,6.7006836c-0.6233196,0-1.8699589,0-1.4024677,0.9349823
		c4.0515766,7.9473267,12.1547318,12.9338837,21.0370369,12.9338837c0.7791481,0,1.7141266-0.155838,2.4932785-0.155838
		c3.5840874-0.4674835,7.1681747-1.5583038,10.284771-3.4282532c5.7657051-2.9607697,11.3755836-6.3890228,16.8296318-10.128952
		c8.2589798-5.7657013,16.2063065-11.9989014,23.5303116-19.0112457l3.4282608,1.8699646
		c-5.6098785,8.882309-12.7780533,16.6737976-21.0370407,23.0628204
		c-8.5706406,6.7006836-17.7646065,12.3105621-27.4260597,17.1412964l-0.1558304,0.4674835
		c2.8049393,2.8049469,6.544857,4.5190735,10.5964317,4.8307343c0.6233215,0,1.4024696,0,2.0257912,0
		c5.6098747,0,11.2197533-1.5583038,16.0504799-4.5190735c4.5190659-2.8049316,8.4148102-6.7006836,11.3755798-11.0639191
		c6.0773697-8.2589874,11.843071-16.8296356,16.9854584-25.7119293c1.7141342,0.7791443,3.5840912,1.4024658,5.2982178,2.1816101
		c-2.0257874,6.7006836-5.1423874,13.0897064-9.3497925,18.699585c-6.5448532,8.882309-13.713028,17.2971191-21.5045242,24.932785
		c1.2466354,1.0908051,2.8049393,2.0257874,4.6748962,2.3374481c0.7791443,0.155838,1.7141266,0.155838,2.4932785,0.155838
		c2.8049393,0,5.6098709-0.6233215,7.9473267-2.0257874c4.5190659-2.3374481,8.4148102-5.4540558,11.5314102-9.3498077
		c2.9607697-3.7399139,5.4540482-8.1031494,7.1681747-12.4663849c2.6491089-6.2332001,4.6748962-12.6222229,5.9215317-19.3229065
		c2.025795,0.6233215,3.895752,1.2466431,5.9215393,1.7141266c-1.2466354,10.2847748-4.0515747,20.2578888-8.2589874,29.6076813
		c-2.3374481,5.2982178-4.986557,10.5964355-7.4798355,15.7388153c1.2466431,0.6233215,2.6491089,0.9349823,4.0515823,0.9349823
		c1.4024658,0,2.8049393-0.3116608,4.2074051-0.9349823c3.7399216-1.7141266,7.0123444-4.3632355,9.5056229-7.7914886
		c3.4282608-4.6748962,5.7657089-9.973114,6.856514-15.5829926c0.7791595-5.4540405,1.2466431-11.0639191,1.2466431-16.5179596
		c0-0.7791595,0-1.5583038,0-2.3374481c2.1816254,0.934967,4.3632355,1.8699493,6.5448608,2.8049316
		c0.6233063,2.1816101,0.934967,4.3632355,1.0908051,6.5448608c0,0.7791443,0,1.7141266,0,2.6491089
		c0,6.2331848-0.7791443,12.3105621-2.0257874,18.3879242c-0.6233215,3.5840912-1.7141266,7.0123444-2.3374481,10.5964355
		c2.9607697-0.3116608,5.6098785-1.5583038,7.7914886-3.5840912c3.5840912-3.7399139,6.0773621-8.5706482,7.0123444-13.868866
		c0.3116608-1.7141266,0.4674988-3.5840912,0.4674988-5.4540405c0-3.1166077-0.4674988-6.3890228-1.4024811-9.5056305
		c2.6491089,1.5583038,5.142395,3.2724304,7.6356659,5.142395c-0.934967,3.7399139-1.2466278,7.6356659-1.2466278,11.3755798
		c0,5.1423798,0.7791443,10.2847748,2.1816101,15.1154938l-10.7522583,7.7915039
		c-0.9349823-0.3116608-1.8699646-0.4674988-2.8049469-0.4674988c-4.5190582,0-8.1031494,3.5840912-8.1031494,7.9473267
		c0,4.5190735,3.5840912,8.1031647,8.1031494,8.1031647c2.4932861,0,4.8307343-1.0908203,6.3890381-3.1166077
		c0.934967-1.4024658,1.5582886-3.1165924,1.7141266-4.830719c0.7791443-0.6233215,1.5582886-1.0908203,2.1816101-1.5583038
		c1.0908203,5.7657013,3.4282684,11.2197571,6.8565216,16.0504761V145.5z"/>
	<path class="st1" d="M164.0888824,224.8174133v7.4798431c-3.4282532,1.0908051-6.7006836,2.4932709-9.973114,4.0515747
		c-4.2074127,2.3374481-8.4148102,4.830719-12.4663849,7.6356659c2.4932709,2.3374481,5.1423798,4.6748962,7.6356506,7.1681671
		c0.7791595,0.4674988,1.0908203,1.4024658,1.0908203,2.1816254c0,0.4674835-0.155838,0.9349823-0.3116608,1.4024658
		c-0.6233215,1.0908051-1.8699646,1.7141418-2.9607697,1.7141418c-0.9349823,0-1.7141266-0.311676-2.1816254-0.7791595
		c-2.6491089-2.3374481-5.1423798-4.8307343-7.7914886-7.1681824c-1.7141266,0.9349823-3.5840912,1.5583038-5.6098785,1.5583038
		c-3.2724304,0-6.5448532-1.5583038-8.5706406-4.0515747c-1.4024734-1.7141266-2.1816177-3.7399139-2.1816177-5.9215393
		c0-1.8699646,0.6233139-3.7399139,1.7141266-5.2982178l-5.7657089-5.2982178
		c-0.9349747,0.4674988-1.869957,0.9349823-2.8049393,1.0908051c-0.3116531,0.155838-0.6233139,0.155838-0.9349747,0.155838
		c-1.7141266,0-3.4282608-0.9349823-4.2074051-2.6491089c-1.4024734,0.7791443-2.9607697,1.0908051-4.5190735,1.0908051
		c-2.8049316,0-5.6098709-1.2466431-7.6356583-3.2724304c-1.2466431-1.5582886-2.1816254-3.2724152-2.8049393-5.2982178
		c2.0257874,0,4.0515747,0,6.2331924,0c-1.5582962-2.4932709-2.4932785-5.4540405-2.4932785-8.4148102
		c0-0.1558228,0-0.3116608,0-0.4674835c0.1558304-1.8699646,1.4024734-3.4282684,3.1166-3.895752
		c0.9349747-0.1558228,1.869957-0.3116608,2.8049393-0.3116608c2.6491089,0,5.1423874,0.6233215,7.3240051,2.0257874
		c0-2.0257874-0.1558304-4.0515747-0.4674911-6.0773621c3.2724304,0.6233215,6.0773621,2.4932709,7.7914963,5.1423798
		c1.0908051,1.5583038,1.5582962,3.4282684,1.5582962,5.2982178c0,1.2466431-0.3116608,2.6491089-0.7791519,3.895752
		c1.7141342,0.6233215,2.9607697,2.3374481,2.9607697,4.2074127c0,0.934967-0.3116608,1.8699493-0.7791443,2.6491089
		c2.1816177,2.0257874,4.5190659,4.0515747,6.7006836,6.2331848c1.2466431-0.4674835,2.4932709-0.7791443,3.895752-0.7791443
		c2.9607544,0,5.921524,1.2466431,7.9473114,3.4282532c0.155838,0,0.3116608,0,0.3116608,0
		c3.4282684,0,6.7006989-0.6233215,9.8172913-1.8699493c4.986557-1.5583038,9.6614532-3.7399292,13.868866-6.7006836
		l0.4674835-0.3116608V224.8174133z"/>
	<path class="st1" d="M164.0888824,237.751297c-1.0908051,1.5583038-2.0257874,3.2724304-2.6491089,5.1423798
		c-0.3116608,0.7791595-0.4674835,1.4024811-0.4674835,2.1816254c0,1.0908051,0.3116608,2.1816101,0.934967,3.1165924
		c0.4674988,1.2466431,1.2466431,2.1816254,2.1816254,3.1166077V237.751297z"/>
</g>
</svg>
