<svg xmlns="http://www.w3.org/2000/svg" viewBox="0 0 769.23 98.85">
    <defs>
        <style>.cls-1, .cls-2 {fill:#FFF;}
            @keyframes lm {0% {transform: translate(-10px,0px); animation-timing-function:  ease-out;}50% {transform: translate(10px,0px);animation-timing-function:  ease-out;}100% {transform: translate(-10px,0px);animation-timing-function:  ease-out;}}
            .cls-2 {-webkit-animation: lm 5s infinite ease-out;-moz-animation: lm 5s infinite ease-out;animation: lm 5s infinite ease-out;}
        </style>
    </defs>
    <g id="Слой_2" data-name="Слой 2">
        <g id="Слой_1-2" data-name="Слой 1">
            <path class="cls-1"
                  d="M749.42,19.64h-39.6V79.05h9.9V59.25h39.61l9.9-9.9V29.54l-9.9-9.9Zm9.91,19.8v9.91H719.72V29.54h39.61Z"/>
            <polygon class="cls-1"
                     points="680.12 44.35 670.22 44.35 660.32 44.35 660.32 54.25 670.22 54.25 680.12 54.25 690.02 54.25 699.92 54.25 699.92 44.35 690.02 44.35 680.12 44.35"/>
            <polygon class="cls-2"
                     points="640.51 88.95 630.61 88.95 620.71 88.95 610.81 88.95 600.91 88.95 591.01 88.95 581.11 88.95 581.11 98.85 591.01 98.85 600.91 98.85 610.81 98.85 620.71 98.85 630.61 98.85 640.51 98.85 650.41 98.85 660.32 98.85 660.32 88.95 650.41 88.95 640.51 88.95"/>
            <polygon class="cls-1"
                     points="600.91 69.15 600.91 59.25 600.91 49.35 600.91 44.4 615.76 29.54 620.71 29.54 630.61 29.54 640.51 29.54 640.51 39.44 640.51 49.35 640.51 59.25 640.51 69.15 640.51 79.05 650.41 79.05 650.41 69.15 650.41 59.25 650.41 49.35 650.41 39.44 650.41 29.54 650.41 19.64 640.51 19.64 630.61 19.64 620.71 19.64 610.81 19.64 591.01 39.44 591.01 49.35 591.01 59.25 591.01 69.15 591.01 79.05 600.91 79.05 600.91 69.15"/>
            <path class="cls-1"
                  d="M581.11,59.25v-9.9l-9.9-9.91H531.6v-9.9h29.71v-9.9H521.7V79.05h49.51l9.9-9.9Zm-19.8,9.9H531.6V49.35h39.61v19.8Z"/>
            <polygon class="cls-1"
                     points="462.3 64.2 462.3 59.25 462.3 49.35 462.3 39.44 462.3 29.54 462.3 19.64 452.39 19.64 452.39 29.54 452.39 39.44 452.39 49.35 452.39 59.25 452.39 69.15 452.39 79.05 462.3 79.05 501.9 34.49 501.9 39.44 501.9 49.35 501.9 59.25 501.9 69.15 501.9 79.05 511.8 79.05 511.8 69.15 511.8 59.25 511.8 49.35 511.8 39.44 511.8 29.54 511.8 19.64 501.9 19.64 462.3 64.2"/>
            <polygon class="cls-1"
                     points="386.14 19.54 376.24 19.54 366.34 19.54 356.43 19.54 336.63 39.35 336.63 49.25 336.63 59.15 336.63 69.05 336.63 78.95 346.53 78.95 346.53 69.05 346.53 59.15 346.53 49.25 346.53 44.3 361.38 29.45 361.38 29.44 366.34 29.44 376.24 29.44 386.14 29.44 386.14 39.35 386.14 49.25 386.14 59.15 386.14 69.05 386.14 78.95 396.04 78.95 396.04 69.05 396.04 59.15 396.04 49.25 396.04 39.35 396.04 29.44 396.04 19.54 386.14 19.54"/>
            <path class="cls-1"
                  d="M306.93,19.54h-19.8l-19.8,19.81V79h9.9V59.15h39.6V79h9.9V19.54h-19.8Zm9.9,19.81v9.9h-39.6v-5l14.85-14.86h24.75Z"/>
            <polygon class="cls-1"
                     points="237.62 19.54 227.72 19.54 217.82 19.54 207.92 19.54 207.92 29.44 217.82 29.44 227.72 29.44 227.72 39.35 227.72 49.25 227.72 59.15 227.72 69.05 227.72 78.95 237.62 78.95 237.62 69.05 237.62 59.15 237.62 49.25 237.62 39.35 237.62 29.44 247.52 29.44 257.42 29.44 257.42 19.54 247.52 19.54 237.62 19.54"/>
            <path class="cls-1"
                  d="M178.22,19.54H138.61V79h9.9V59.15h39.61l9.9-9.9V29.44l-9.9-9.9Zm9.9,19.81v9.9H148.51V29.44h39.61Z"/>
            <path class="cls-1"
                  d="M108.91,19.54H79.21l-9.9,9.9V69.05l9.9,9.9h39.6l9.9-9.9V29.44l-9.9-9.9Zm9.9,19.81v29.7H79.21V29.44h39.6Z"/>
            <polygon class="cls-1"
                     points="39.6 19.54 29.7 19.54 19.8 19.54 9.9 19.54 0 19.54 0 29.44 0 39.35 0 49.25 0 59.15 0 69.05 0 78.95 9.9 78.95 9.9 69.05 9.9 59.15 9.9 49.25 9.9 39.35 9.9 29.44 19.8 29.44 29.7 29.44 39.6 29.44 49.5 29.44 49.5 39.35 49.5 49.25 49.5 59.15 49.5 69.05 49.5 78.95 59.4 78.95 59.4 69.05 59.4 59.15 59.4 49.25 59.4 39.35 59.4 29.44 59.4 19.54 49.5 19.54 39.6 19.54"/>
        </g>
    </g>
</svg>