<svg xmlns="http://www.w3.org/2000/svg" viewBox="0 0 357.57 217.47">
    <defs>
      <style>
            .cls-1{fill:#73add4;}.cls-1,.cls-10,.cls-11,.cls-12,.cls-13,.cls-14,.cls-15,.cls-16,.cls-17,.cls-18,.cls-2,.cls-3,.cls-4,.cls-5,.cls-6,.cls-7,.cls-8,.cls-9{fill-rule:evenodd;}.cls-2{fill:#fff;}.cls-3{fill:#ccdee9;}.cls-4{fill:#f65d5d;}.cls-5{fill:#f0a513;}.cls-6{fill:#47d30a;}.cls-7{fill:#eaf3f8;}.cls-8{fill:#f9ae8a;}.cls-9{fill:#1c2458;}.cls-10{fill:#11d02c;}.cls-11{fill:#384ac2;}.cls-12{fill:#28379b;}.cls-13{fill:#a3c4d8;}.cls-14{fill:#243296;}.cls-15{fill:#19b12f;}.cls-16{fill:#3749be;}.cls-17{fill:#2a3475;}.cls-18{fill:#99c2dd;}
      	  @keyframes roll1 {100% {transform: rotate(360deg);}}
			  @keyframes roll2 {100% {transform: rotate(-360deg);}}
			  #gear1 {animation: roll1 15s infinite linear; transform-origin: center; transform-box: fill-box;}
			  #gear2 {animation: roll2 15s infinite linear;transform-origin: center;transform-box: fill-box;}
		</style>
    </defs>
            <path class="cls-1" d="M15.6,160.55a20.44,20.44,0,0,1,7.06-13.15c21.74-18.09,16.94,34.15,16,43.74-.47,1.38-3.84,10.38-4.32,11.76-1.86-4.1-3.55-8.28-5.66-12.26-3.6-6.74-7.63-13.38-13-18.83A45.62,45.62,0,0,1,15.6,160.55Z"/>
            <path class="cls-2" d="M35.74,27.94H36Q173.8,37.77,311.61,47.42q-8.33,38.85-16.68,77.71-4.05,18.94-8.12,37.89c-1.75,7.94-3.35,15.92-5.18,23.83-.61,3.59-1.61,7.1-2.14,10.71,2.78-1.73,5.3-3.83,8.07-5.58a57.92,57.92,0,0,1,10.14-5.6,19.13,19.13,0,0,0,9.16-8.07,49.05,49.05,0,0,0,4.89-12,29.92,29.92,0,0,1,4.89-9.67,3.67,3.67,0,0,1,1.3-1.14c-.06,1.24-1.1,2-1.71,3-4.21,6-4.55,13.73-8.52,19.85a32.28,32.28,0,0,1-5.32,6.4c12.31-2.84,24.87-4.34,37.35-6.3,4.3-.77,8.74-1.32,12.73-3.24-.16.46-.27,1-.8,1.14a33.84,33.84,0,0,1-7.69,2.12c-13.14,2.37-26.49,3.62-39.51,6.65a39.49,39.49,0,0,0-10.62,3.9,106.37,106.37,0,0,0-10.7,6.94,23.86,23.86,0,0,0-4,3.23c-.75,2.38-1,4.91-1.67,7.31-1.27.46-2.77.18-4.12.38-5.78,0-11.57,0-17.35,0-2.94-7.88-5.89-15.76-8.68-23.71a14.77,14.77,0,0,1-.77-3.36,6.41,6.41,0,0,0,5.24-4.53c.85-3.35,1.63-6.73,2.49-10.08.47-1.72.57-3.57,1.48-5.15,2,.51,4,.91,6,1.49.63,1.94,1.63,4.06,3.78,4.65,4.16,1.08,8.35,2.07,12.55,3,1.29-1.19,2.42-2.54,3.67-3.77a9.6,9.6,0,0,0,1.8-2.12c-3.87-1-7.76-1.86-11.63-2.81-.93-.07-1-1.1-1.28-1.79-.53-1.92-1.12-3.83-1.68-5.74,1.73-1.86,3.37-3.82,5.26-5.51,4.1.62,8.09,1.91,12.16,2.73a64.11,64.11,0,0,0-2.13-6.95c-2.91-.91-5.93-1.4-8.87-2.2-2-.45-4.22-1.37-6.28-.51-1.75.66-2.67,2.42-4.17,3.42-1.81-.23-3.55-.84-5.32-1.24,2-6.73,3.37-13.61,5.11-20.41,2.47-10,4.91-20.09,7.4-30.12a9.51,9.51,0,0,0,.42-4.29,5.86,5.86,0,0,0-4.74-4.54c-2.07-.32-4.18-.13-6.26-.31-3.68-.37-7.39-.23-11.07-.61-4.11,0-8.18-.52-12.28-.48-3.84-.4-7.69-.29-11.52-.67-4,0-7.93-.51-11.9-.48-4.34-.36-8.69-.35-13-.71-3.47.09-6.9-.47-10.36-.42-2.67,0-5.33-.61-8-.26a5.83,5.83,0,0,0-4.83,4.73c-2.56,10.81-5.16,21.62-7.61,32.47-2-.39-3.93-.91-5.91-1.24a59.32,59.32,0,0,0-4.79,5.36c2.87.73,5.76,1.34,8.66,1.94.48,1.21,0,2.47-.29,3.66-.81,3.14-1.49,6.32-2.25,9.47-3.17-.65-6.3-1.44-9.48-2,.7,2.58,1.53,5.12,2.38,7.64,1.75.53,3.56.86,5.34,1.26-.46,3.3-1.49,6.47-2.14,9.73-1.34,5.45-2.56,10.92-3.88,16.38a5.92,5.92,0,0,0,5.2,7.08q22.8,1.11,45.58,2.14c2.76.4,5.58,0,8.32.53q-6.52,14.18-13.05,28.35l-166.28-.42C37.19,146.9,35.69,87.53,35.74,27.94Zm6.59,5.81A2.41,2.41,0,0,0,42,37.84a2.43,2.43,0,1,0,.37-4.09Zm8.39.39a2.45,2.45,0,0,0-1.36,4,2.43,2.43,0,0,0,4-.61,2.46,2.46,0,0,0-2.69-3.39Zm7.31.78a2.44,2.44,0,1,0,3.34,2.63A2.47,2.47,0,0,0,58,34.92ZM219.86,51.46A3.24,3.24,0,0,0,218.29,54a3.4,3.4,0,0,0,1.6,2.16c2,.62,4,.47,6,.65,2.42.34,4.86.29,7.27.63,1.81-.08,3.58.39,5.37.31a2.66,2.66,0,0,0,1.44-4.4c-1.36-1.29-3.35-.7-5-1.06-3-.21-6-.53-9.07-.66-2-.16-4.07-.63-6-.16Zm36.8,2.71a2.64,2.64,0,0,0-1.5,3.55,3.25,3.25,0,0,0,2.21,1.55c3.56.31,7.13.5,10.7.84,2.43,0,4.85.67,7.28.36a4,4,0,0,0,1.79-1.6A2.69,2.69,0,0,0,276,55.74c-1.25-.68-2.71-.5-4.07-.59q-5.56-.51-11.13-.85A11.16,11.16,0,0,0,256.66,54.17Z"/>
            <path id="gear2" class="cls-3"     d="M68.17,70.12a4,4,0,0,1,1.3-.15c7.38,0,14.77,0,22.16,0a1.29,1.29,0,0,1,1.3,1.08c.85,3.89,1.62,7.8,2.44,11.69a14.22,14.22,0,0,0,1,3.74,9.75,9.75,0,0,0,4.34,4.11c2,1,3.8,2.09,5.71,3.13,1.62.92,3.17,2.11,5.06,2.39a11,11,0,0,0,5.16-.52c3.94-1.4,7.92-2.67,11.88-4a1.82,1.82,0,0,1,2.14.88q5.48,9.19,11,18.4a2.84,2.84,0,0,1-.14,3.19c-2.59,2.3-5.22,4.57-7.8,6.9-1.74,1.56-3.63,3.12-4.55,5.33a8.14,8.14,0,0,0-.56,3.65c0,3.43,0,6.85,0,10.28,0,2.44,1.51,4.57,3.23,6.18,2.9,2.68,5.88,5.27,8.85,7.87a8.87,8.87,0,0,1,1,1,3,3,0,0,1-.12,3q-5.5,9.18-11,18.37a1.81,1.81,0,0,1-2.1.84c-3.5-1.17-7-2.33-10.5-3.53A19.06,19.06,0,0,0,115,173a8.85,8.85,0,0,0-6.28,1c-2.18,1.34-4.42,2.58-6.66,3.8-.82.46-1.69.83-2.47,1.36a9.39,9.39,0,0,0-3.26,3.62,17.85,17.85,0,0,0-1,3.9c-.84,3.76-1.53,7.55-2.37,11.31a1.29,1.29,0,0,1-1.33,1.1c-7.18,0-14.36,0-21.54,0a4.2,4.2,0,0,1-2.23-.32,2.88,2.88,0,0,1-.57-1.4c-.87-4.31-1.79-8.61-2.65-12.92a8.81,8.81,0,0,0-4.62-5.8c-2.16-1.08-4.24-2.32-6.36-3.49A14.57,14.57,0,0,0,49,172.94a12.05,12.05,0,0,0-6.38.9c-3.58,1.25-7.18,2.41-10.77,3.63a1.81,1.81,0,0,1-2.14-.88c-3.65-6.14-7.33-12.27-11-18.41a2.82,2.82,0,0,1,.17-3.22c3.08-2.68,6.15-5.37,9.17-8.13,1.88-1.64,3.58-3.83,3.7-6.42,0-3.29,0-6.58,0-9.87a11.08,11.08,0,0,0-.3-3.54,11.18,11.18,0,0,0-3.48-4.83c-3-2.75-6.09-5.44-9.17-8.13a2.87,2.87,0,0,1-.12-3.12c3.66-6.14,7.34-12.26,11-18.41a1.84,1.84,0,0,1,2.17-.92c3.86,1.32,7.74,2.57,11.58,3.92a10.7,10.7,0,0,0,5.95.53c1.76-.4,3.21-1.55,4.77-2.4,1.91-1,3.78-2.17,5.73-3.14a8.85,8.85,0,0,0,4.7-5.58c1-4.47,1.84-9,2.79-13.42.12-.52.25-1.21.85-1.38Zm8.44,37.25a27.38,27.38,0,1,0,15,2.25A27.29,27.29,0,0,0,76.61,107.37Z"/>
            <path class="cls-2" d="M1.9,166.28a1.5,1.5,0,0,1,1.34.74c10,12.6,20.16,25.07,30.61,37.29l-.19.6a47.49,47.49,0,0,1-4.06-4.45c-8.85-10.36-17.37-21-25.89-31.6A13.17,13.17,0,0,1,1.9,166.28Z"/>
            <path class="cls-2" d="M215.36,206.91c6.11-8.07,11.56-16.62,17-25.11q2.52,4.22,5.06,8.43a133.76,133.76,0,0,1,8.14,16.67C235.53,206.9,225.44,206.88,215.36,206.91Z"/>
            <path class="cls-2" d="M52.9,184.17a63.36,63.36,0,0,0,15.35,6c.78,5.43,1.3,10.89,2.11,16.31.89.16,1.77.34,2.66.47-10.17-.08-20.35,0-30.53,0C46.4,199.57,50.86,192.34,52.9,184.17Z"/>
            <path class="cls-2" d="M4.23,197.47a10.16,10.16,0,0,1,1.46.14c9.27,2.57,18.5,5.33,27.81,7.75a9.32,9.32,0,0,1-.43,1,10.58,10.58,0,0,0-1.79-.79c-8.57-2.36-17.12-4.82-25.69-7.22A2.32,2.32,0,0,1,4.23,197.47Z"/>
            <path class="cls-4" d="M42.33,33.75A2.43,2.43,0,1,1,42,37.84,2.41,2.41,0,0,1,42.33,33.75Z"/>
            <path class="cls-5" d="M50.72,34.14a2.46,2.46,0,0,1,2.69,3.39,2.43,2.43,0,0,1-4,.61A2.45,2.45,0,0,1,50.72,34.14Z"/>
            <path class="cls-6" d="M58,34.92a2.44,2.44,0,1,1-.47,4.24A2.44,2.44,0,0,1,58,34.92Z"/>
            <path class="cls-7" d="M219.86,51.46c2-.47,4,0,6,.16,3,.13,6,.45,9.07.66,1.67.36,3.66-.23,5,1.06a2.66,2.66,0,0,1-1.44,4.4c-1.79.08-3.56-.39-5.37-.31-2.41-.34-4.85-.29-7.27-.63-2-.18-4.07,0-6-.65a3.4,3.4,0,0,1-1.6-2.16A3.24,3.24,0,0,1,219.86,51.46Z"/>
            <path class="cls-7" d="M256.66,54.17a11.16,11.16,0,0,1,4.11.13q5.57.35,11.13.85c1.36.09,2.82-.09,4.07.59a2.69,2.69,0,0,1,1.17,3.13,4,4,0,0,1-1.79,1.6c-2.43.31-4.85-.37-7.28-.36-3.57-.34-7.14-.53-10.7-.84a3.25,3.25,0,0,1-2.21-1.55A2.64,2.64,0,0,1,256.66,54.17Z"/>
            <path class="cls-7" d="M178.55,84.15a5.83,5.83,0,0,1,4.83-4.73c2.67-.35,5.33.27,8,.26,3.46-.05,6.89.51,10.36.42,4.33.36,8.68.35,13,.71,4,0,7.92.53,11.9.48,3.83.38,7.68.27,11.52.67,4.1,0,8.17.5,12.28.48,3.68.38,7.39.24,11.07.61,2.08.18,4.19,0,6.26.31a5.86,5.86,0,0,1,4.74,4.54,9.51,9.51,0,0,1-.42,4.29c-2.49,10-4.93,20.08-7.4,30.12-1.74,6.8-3.15,13.68-5.11,20.41q-5.91-1.36-11.8-2.81c-3-4.57-6.63-9-11.62-11.42a27.43,27.43,0,0,0-10.62-2.82,12.73,12.73,0,0,1-.78-2.22c-.25-2.74,1.92-5.29.92-8-1.56-3.25-6.85-3.18-8.73-.24-1.71,2-2.82,4.85-1.72,7.38.69,1.66,2.47,2.37,4.1,2.76,0,.52,0,1,0,1.55-2.09.93-4.26,2.12-5.33,4.25-.6,1-1.78.36-2.64.2-9.78-2.39-19.6-4.6-29.37-7-.83-2.16-1.26-4.9-3.64-5.92s-5-1.15-7.41-1.81C173.39,105.77,176,95,178.55,84.15Z"/>
            <path class="cls-7" d="M168.9,122.68a12.41,12.41,0,0,1,3.41,1,68.54,68.54,0,0,1,2.19,7,34.29,34.29,0,0,1-5.08,5.62,9.8,9.8,0,0,1-3.06-.5c.76-3.15,1.44-6.33,2.25-9.47C168.9,125.15,169.38,123.89,168.9,122.68Z"/>
            <path class="cls-7" d="M172.87,144.28c2,.1,3.15-1.68,4.67-2.6a30.4,30.4,0,0,1,4.62,1c6,1.46,12.1,2.8,18.11,4.33a6.77,6.77,0,0,0,6.76,1.61c.2,0,.6.11.8.16,3.85.88,7.69,1.83,11.55,2.68l1.59.37c.26,2.29.6,4.58.94,6.87.65,1.89,1.39,3.75,2.18,5.59a18.25,18.25,0,0,1-1.31,3.17l-5.1,11.09c-2.74-.57-5.56-.13-8.32-.53q-22.8-1-45.58-2.14a5.92,5.92,0,0,1-5.2-7.08c1.32-5.46,2.54-10.93,3.88-16.38.65-3.26,1.68-6.43,2.14-9.73C167.37,143.17,170.06,144.12,172.87,144.28Z"/>
            <path class="cls-7" d="M243.06,157.08l.84.18q5.92,1.38,11.83,2.8c-.91,1.58-1,3.43-1.48,5.15-.86,3.35-1.64,6.73-2.49,10.08a6.41,6.41,0,0,1-5.24,4.53c-.36-2.66-.77-5.31-1.2-8-.7-4.85-1.52-9.68-2.23-14.52Z"/>
            <path class="cls-3" d="M165,115.38c2,.33,3.93.85,5.91,1.24,2.45.66,5,.91,7.41,1.81s2.81,3.76,3.64,5.92c9.77,2.42,19.59,4.63,29.37,7,.86.16,2,.78,2.64-.2l-.24.42a8,8,0,0,0,2.9.94,13.44,13.44,0,0,1,1.11,3.86c.49,5,1.21,10,1.61,15.06-3.86-.85-7.7-1.8-11.55-2.68a2.75,2.75,0,0,0,2.75-1.18,8.23,8.23,0,0,0,2.18-6c-.19-.07-.57-.23-.76-.32l.11-.29a2.71,2.71,0,0,0-.77-3.44c-.58-.36-1.16-1-1.92-.84a4.78,4.78,0,0,0-2.37,2.84c-2.35,2.39-4.41,5-6.78,7.41-6-1.53-12.08-2.87-18.11-4.33a30.4,30.4,0,0,0-4.62-1c-1.52.92-2.66,2.7-4.67,2.6-2.81-.16-5.5-1.11-8.27-1.6-1.78-.4-3.59-.73-5.34-1.26-.85-2.52-1.68-5.06-2.38-7.64,3.18.59,6.31,1.38,9.48,2a9.8,9.8,0,0,0,3.06.5,34.29,34.29,0,0,0,5.08-5.62,68.54,68.54,0,0,0-2.19-7,12.41,12.41,0,0,0-3.41-1c-2.9-.6-5.79-1.21-8.66-1.94A59.32,59.32,0,0,1,165,115.38Z"/>
            <path class="cls-3" d="M247.8,139.91q5.88,1.46,11.8,2.81c1.77.4,3.51,1,5.32,1.24,1.5-1,2.42-2.76,4.17-3.42,2.06-.86,4.24.06,6.28.51,2.94.8,6,1.29,8.87,2.2a64.11,64.11,0,0,1,2.13,6.95c-4.07-.82-8.06-2.11-12.16-2.73-1.89,1.69-3.53,3.65-5.26,5.51.56,1.91,1.15,3.82,1.68,5.74.24.69.35,1.72,1.28,1.79,3.87,1,7.76,1.82,11.63,2.81a9.6,9.6,0,0,1-1.8,2.12c-1.25,1.23-2.38,2.58-3.67,3.77-4.2-.94-8.39-1.93-12.55-3-2.15-.59-3.15-2.71-3.78-4.65-2-.58-4-1-6-1.49q-5.91-1.42-11.83-2.8l.65-.19c-.55-2.94-1.14-5.88-1.68-8.82,2.65.26,4.64,3.49,7.47,2.38,0-.28.14-.86.19-1.14.4-.25,1.13-.21,1.24-.79.35-1.32-.72-2.38-1.56-3.23C250.06,143.41,248.76,141.67,247.8,139.91Z"/>
            <path class="cls-3" d="M307.31,160.83c1.51-5,6.3-8.62,11.37-9.46,2-.32,4.4-.18,5.95,1.33a4.86,4.86,0,0,1,.09,6.23c-2.19,2.72-5.83,3.83-7.88,6.69-1.13,1.52-.95,3.51-.93,5.3.12,1.28.34,2.84,1.6,3.51,2,1.13,4.46.5,6.63.19,2.8-.5,5.51-1.38,8.3-2a73.34,73.34,0,0,1,14.23-1.9A20.33,20.33,0,0,1,354.9,172a4.14,4.14,0,0,1,2.65,3.22,7.38,7.38,0,0,1-3.14,6.22,29,29,0,0,1-9.36,4.44A107.16,107.16,0,0,1,331.48,189c-7.67,1.33-15.4,2.22-23.12,3.19a48.1,48.1,0,0,0-10.69,2.25,31.13,31.13,0,0,0-15.83,12.45c-2.84,0-5.68.22-8.52,0,1.35-.2,2.85.08,4.12-.38.7-2.4.92-4.93,1.67-7.31a23.86,23.86,0,0,1,4-3.23,106.37,106.37,0,0,1,10.7-6.94,39.49,39.49,0,0,1,10.62-3.9c13-3,26.37-4.28,39.51-6.65a33.84,33.84,0,0,0,7.69-2.12c.53-.15.64-.68.8-1.14-4,1.92-8.43,2.47-12.73,3.24-12.48,2-25,3.46-37.35,6.3a32.28,32.28,0,0,0,5.32-6.4c4-6.12,4.31-13.86,8.52-19.85.61-1,1.65-1.79,1.71-3a3.67,3.67,0,0,0-1.3,1.14,29.92,29.92,0,0,0-4.89,9.67,49.05,49.05,0,0,1-4.89,12,19.13,19.13,0,0,1-9.16,8.07,57.92,57.92,0,0,0-10.14,5.6c-2.77,1.75-5.29,3.85-8.07,5.58.53-3.61,1.53-7.12,2.14-10.71.66.26,1.15-.34,1.63-.68a47.32,47.32,0,0,1,12.28-7c1.9-.83,4.17-1.15,5.6-2.81,1.73-1.94,2.6-4.47,3.53-6.86C305.56,166.64,306.44,163.73,307.31,160.83Z"/>
            <path class="cls-3" d="M55.93,173.31c3.35,2.94,6.61,6,9.95,8.92,1.33,1.09,1.69,2.85,2.23,4.4,2,7.31,6.43,13.61,9.36,20.53-1.48-.13-3-.18-4.45-.23-.89-.13-1.77-.31-2.66-.47-.81-5.42-1.33-10.88-2.11-16.31a63.36,63.36,0,0,1-15.35-6l0-.11C54,180.49,55,176.91,55.93,173.31Z"/>
            <path class="cls-3" d="M40.08,211.45a222.58,222.58,0,0,1,39-.29l.2.48c.42,1.07.85,2.14,1.28,3.2,3.29,0,6.57,0,9.86,0a40,40,0,0,1-6.76,1.4A198.3,198.3,0,0,1,58,217.45,161.73,161.73,0,0,1,36.2,216a13.93,13.93,0,0,1-5.39-1.69c3.9-.17,7.79,0,11.68-.09a26.35,26.35,0,0,0-2.58-2.37Z"/>
            <path class="cls-3" d="M212.19,211c5.83-.46,11.68-.57,17.53-.55a168.39,168.39,0,0,1,20.57,1.14c-1.37.93-2.92,1.57-4.25,2.58,4.16.07,8.31-.1,12.46.09-2.53,1.58-5.64,1.66-8.5,2.12a222.68,222.68,0,0,1-36.52.61c-4.69-.38-9.47-.63-14-2,3.26-.35,6.55-.1,9.82-.14C210.32,213.62,211.23,212.31,212.19,211Z"/>
            <path class="cls-3" d="M198.34,213.59c2-1.38,4.52-1.38,6.79-1.91l-.36.58a13.51,13.51,0,0,0-5.69,2.61C198.71,214.6,197.67,214.12,198.34,213.59Z"/>
            <path class="cls-3" d="M88.21,212.36a10.73,10.73,0,0,1,2.86,1.24A4.64,4.64,0,0,1,88.21,212.36Z"/>
            <path class="cls-8" d="M47.05,104.36c.88-1.75,3.9-2,4.91-.28.63,1.58.6,3.46,1.73,4.82.83.77,2.76.39,2.86,1.85-.07,2-2.22,2.75-3.61,3.8a13.84,13.84,0,0,0-4.51-.88l-.37.39a4.2,4.2,0,0,0,0-3.69C47.36,108.46,46.5,106.4,47.05,104.36Z"/>
            <path class="cls-8" d="M215.25,122.61c-1.1-2.53,0-5.41,1.72-7.38a28.76,28.76,0,0,1,2.58,1.49c.46.72.16,1.72.67,2.42.79.46,2-.41,2.6.52s-.27,1.62-.77,2.23a3.62,3.62,0,0,0,2.73,1.56,12.73,12.73,0,0,0,.78,2.22,8.43,8.43,0,0,1-3.89,2.88,1.88,1.88,0,0,1-2.34-1.63c0-.52,0-1,0-1.55C217.72,125,215.94,124.27,215.25,122.61Z"/>
            <path class="cls-8" d="M87.19,126.1a56.68,56.68,0,0,1,.83,9.19c0,.91-.12,2.08-1.11,2.48-1.77.74-3.73-.09-5.55.32A13.74,13.74,0,0,0,79,139.72a54.18,54.18,0,0,0-5.38-5,14.74,14.74,0,0,0,2.26-2.41,9.25,9.25,0,0,0,4.32,2.23,4.7,4.7,0,0,0,3.14-1.27c-.36-.7-1-1.35-.93-2.19.66-1,2.06-.33,3-.27a6.43,6.43,0,0,1,.47-2.22C86.43,127.81,87.36,127.18,87.19,126.1Z"/>
            <path class="cls-8" d="M207.05,139.59a4.78,4.78,0,0,1,2.37-2.84c.76-.16,1.34.48,1.92.84a12.36,12.36,0,0,1-.07,3A21.87,21.87,0,0,0,207.05,139.59Z"/>
            <path class="cls-8" d="M250.21,145.47c.84.85,1.91,1.91,1.56,3.23-.11.58-.84.54-1.24.79-1-.86-2.84-.07-3.33-1.51A6.82,6.82,0,0,0,250.21,145.47Z"/>
            <path class="cls-9" d="M217,115.23c1.88-2.94,7.17-3,8.73.24,1,2.69-1.17,5.24-.92,8a3.62,3.62,0,0,1-2.73-1.56c.5-.61,1.37-1.39.77-2.23s-1.81-.06-2.6-.52c-.51-.7-.21-1.7-.67-2.42A28.76,28.76,0,0,0,217,115.23Z"/>
            <path class="cls-9" d="M78.14,122.08c3.37-1.42,8.38,0,9,4,.17,1.08-.76,1.71-1.32,2.48a6.43,6.43,0,0,0-.47,2.22c-1-.06-2.35-.72-3,.27-.08.84.57,1.49.93,2.19a4.7,4.7,0,0,1-3.14,1.27,9.25,9.25,0,0,1-4.32-2.23c1.49-2-.18-4.35.06-6.56A4,4,0,0,1,78.14,122.08Z"/>
            <path class="cls-9" d="M242,162.14c.41-1.59.63-3.22,1.1-4.8.71,4.84,1.53,9.67,2.23,14.52a15.13,15.13,0,0,0-1.14,2.49c-1.16,3.33-2.48,6.61-3.89,9.85a51.64,51.64,0,0,1-2.82,6q-2.53-4.22-5.06-8.43C236.15,175.54,240,169.22,242,162.14Z"/>
            <path class="cls-9" d="M221.91,158.69a19.79,19.79,0,0,0,4.46.67,22.9,22.9,0,0,1-2.28,4.92C223.3,162.44,222.56,160.58,221.91,158.69Z"/>
            <path class="cls-9" d="M46.47,165.18a8.21,8.21,0,0,1,1.8,1.29c2.45,2.4,5.11,4.56,7.66,6.84-1,3.6-1.94,7.18-3,10.75-.42-3-.7-6.05-1.31-9s-2.5-5.57-4.4-7.92A3.12,3.12,0,0,1,46.47,165.18Z"/>
            <path class="cls-9" d="M31.58,210.44c3,0,6-.08,9,.06l-.46.95-.17.36a26.35,26.35,0,0,1,2.58,2.37c-3.89.08-7.78-.08-11.68.09l-.61-.22C30.68,212.86,31.14,211.65,31.58,210.44Z"/>
            <path class="cls-9" d="M79.26,211.64c2.75,0,5.51,0,8.27,0a9.46,9.46,0,0,0,.68.74,4.64,4.64,0,0,0,2.86,1.24,3.65,3.65,0,0,1,.73,1.23l-1.4,0c-3.29-.08-6.57,0-9.86,0C80.11,213.78,79.68,212.71,79.26,211.64Z"/>
            <path class="cls-10" d="M48.43,113.67a13.84,13.84,0,0,1,4.51.88l.28.31a74,74,0,0,0-2,13.74c1.34.22,2.69.38,4,.54a73,73,0,0,1,12.51,2.46,17.89,17.89,0,0,1,5.88,3.11,54.18,54.18,0,0,1,5.38,5c2.46,2.61,4.76,5.37,7,8.17a10.72,10.72,0,0,0,2.9,2.46,44.61,44.61,0,0,0,10,4.15,25.56,25.56,0,0,1-8.06,5.13c-6.14-3-12-6.68-17.79-10.25a17,17,0,0,0-5.47-2.55c.1,1.18,1,2,1.47,3.06a26.55,26.55,0,0,1,.26,3.57c-1,1.21-2,2.45-3,3.69q-1,1.26-2,2.55c-1.25,1.6-2.49,3.21-3.7,4.84-6.32-2.21-11.6-6.69-15.77-11.83-.22-.29-.42-.6-.63-.9,3.67-4.58,7.73-8.83,11.77-13.08a51.53,51.53,0,0,0,3.58-3.81c-1.87-.14-3.55.83-5.37,1.07-2.87,0-5.44-1.58-8.28-1.77-2.11-1.33-5-3.3-4.23-6.2,1.46-4.93,4-9.43,6.43-14Z"/>
            <path class="cls-1" d="M301.38,117.62a7.42,7.42,0,0,1,3.53-2.22c1.1,0,1.31,1.37,1.37,2.24.11,3.11-.75,6.15-1.51,9.14a214.65,214.65,0,0,1-8,22.41c2-1.95,3.9-4.28,6.56-5.42a1.84,1.84,0,0,1,2.57.85c.78,1.9.49,4,.3,6a89.87,89.87,0,0,1-3.07,13.56,8.22,8.22,0,0,0-5.59-3.49c-3.76-.51-7.3,1.14-10.76,2.3q4.05-18.95,8.12-37.89A66,66,0,0,1,301.38,117.62Z"/>
            <path class="cls-1" d="M2.65,195.22a23,23,0,0,1,4.62-12c3.69,4.88,8.52,8.69,12.87,12.93a30.64,30.64,0,0,1,4.15,4.06c-2.64-1.18-5.05-2.83-7.77-3.87C12.21,194.52,7.12,193.17,2.65,195.22Z"/>
            <path class="cls-1" d="M2.39,200c4,2.36,8.58,3.35,13.05,4.34A120.66,120.66,0,0,0,33,206.59l-.19.64-.57-.41q-14.64,0-29.27,0A47.86,47.86,0,0,1,2.39,200Z"/>
            <path class="cls-11" d="M225.56,125.67a27.43,27.43,0,0,1,10.62,2.82c5,2.44,8.66,6.85,11.62,11.42,1,1.76,2.26,3.5,2.41,5.56a6.82,6.82,0,0,1-3,2.51c-2.58-2.31-5.53-4.19-8.27-6.3-1.91-2-4-3.83-6.1-5.64a13.87,13.87,0,0,0-4.21-2.67,9.75,9.75,0,0,0,1.74,2.45c2.94,3.21,5.87,6.44,8.58,9.85a5.32,5.32,0,0,0,1.81,1.52c.79,2.48,1.41,5,1.95,7.55-5,2.61-10.57,4.69-16.33,4.62a19.79,19.79,0,0,1-4.46-.67c-.34-2.29-.68-4.58-.94-6.87-.68-5.93-1.69-11.81-2.43-17.73a2.93,2.93,0,0,0-.51-1.38c-.74-1.73-2.77-1.76-4.27-1.12l.24-.42c1.07-2.13,3.24-3.32,5.33-4.25a1.88,1.88,0,0,0,2.34,1.63A8.43,8.43,0,0,0,225.56,125.67Z"/>
            <path class="cls-11" d="M200.27,147c2.37-2.36,4.43-5,6.78-7.41a21.87,21.87,0,0,1,4.22,1l.84.4-.11.29a15.93,15.93,0,0,1-1.34,4.05,8.15,8.15,0,0,1-3.63,3.24A6.77,6.77,0,0,1,200.27,147Z"/>
            <path class="cls-12" d="M213.76,131.59c1.5-.64,3.53-.61,4.27,1.12l-1.37-.18A8,8,0,0,1,213.76,131.59Z"/>
            <path class="cls-13" d="M216.66,132.53l1.37.18a2.93,2.93,0,0,1,.51,1.38c.74,5.92,1.75,11.8,2.43,17.73l-1.59-.37c-.4-5-1.12-10-1.61-15.06A13.44,13.44,0,0,0,216.66,132.53Z"/>
            <path class="cls-13" d="M211.34,137.59a2.71,2.71,0,0,1,.77,3.44l-.84-.4A12.36,12.36,0,0,0,211.34,137.59Z"/>
            <path class="cls-13" d="M212,141.32c.19.09.57.25.76.32a8.23,8.23,0,0,1-2.18,6,2.75,2.75,0,0,1-2.75,1.18c-.2-.05-.6-.12-.8-.16a8.15,8.15,0,0,0,3.63-3.24A15.93,15.93,0,0,0,212,141.32Z"/>
            <path class="cls-13" d="M238.93,141.68c2.74,2.11,5.69,4,8.27,6.3.49,1.44,2.31.65,3.33,1.51-.05.28-.14.86-.19,1.14-2.83,1.11-4.82-2.12-7.47-2.38.54,2.94,1.13,5.88,1.68,8.82l-.65.19-.84-.18a20.33,20.33,0,0,0-.36-2.34c-.54-2.55-1.16-5.07-1.95-7.55C240.19,145.34,239.56,143.51,238.93,141.68Z"/>
            <path class="cls-14" d="M228.62,133.37a13.87,13.87,0,0,1,4.21,2.67c2.1,1.81,4.19,3.63,6.1,5.64.63,1.83,1.26,3.66,1.82,5.51a5.32,5.32,0,0,1-1.81-1.52c-2.71-3.41-5.64-6.64-8.58-9.85A9.75,9.75,0,0,1,228.62,133.37Z"/>
            <path class="cls-15" d="M45.86,134.22c2.84.19,5.41,1.82,8.28,1.77,1.82-.24,3.5-1.21,5.37-1.07a51.53,51.53,0,0,1-3.58,3.81A45.28,45.28,0,0,1,45.86,134.22Z"/>
            <path class="cls-15" d="M67.54,146.83A17,17,0,0,1,73,149.38a48.08,48.08,0,0,0-3.74,4.08,26.55,26.55,0,0,0-.26-3.57C68.52,148.87,67.64,148,67.54,146.83Z"/>
            <path class="cls-16" d="M43.56,157.11a14.36,14.36,0,0,1,1.23-4.4c4.17,5.14,9.45,9.62,15.77,11.83,1.21-1.63,2.45-3.24,3.7-4.84,3.77,4.82,7.53,9.65,11,14.71a20.31,20.31,0,0,1,3.15,6.16c2.36,8.8,4.46,17.67,6.63,26.52a19.14,19.14,0,0,0,2.52,4.53c-2.76,0-5.52,0-8.27,0l-.2-.48c-.53-1.33-1.07-2.66-1.59-4-2.93-6.92-7.35-13.22-9.36-20.53-.54-1.55-.9-3.31-2.23-4.4-3.34-2.95-6.6-6-9.95-8.92-2.55-2.28-5.21-4.44-7.66-6.84a8.21,8.21,0,0,0-1.8-1.29,3.12,3.12,0,0,0,.75,1.93c1.9,2.35,3.77,4.89,4.4,7.92s.89,6,1.31,9l0,.11c-2,8.17-6.5,15.4-10.41,22.76-.64,1.2-1.32,2.37-2,3.57-3-.14-6-.06-9-.06.38-1.08.8-2.14,1.21-3.21l.19-.64.09-.2a9.32,9.32,0,0,0,.43-1l.16-.45.19-.6c.17-.48.33-.95.5-1.41.48-1.38,1.08-2.71,1.55-4.09.61-1.76,1.27-3.52,1.93-5.27A78.82,78.82,0,0,0,42,177.91C42.94,171,42.64,164,43.56,157.11Z"/>
            <path class="cls-16" d="M206.27,209.77c2.31,0,4.61.06,6.91-.05-.34.43-.67.86-1,1.3-1,1.29-1.87,2.6-2.89,3.85-3.27,0-6.56-.21-9.82.14l-.4-.14a13.51,13.51,0,0,1,5.69-2.61l.36-.58C205.52,211,205.89,210.4,206.27,209.77Z"/>
            <path class="cls-16" d="M249.63,209.78c2.46,0,4.93.08,7.39-.09.55,1.5,1.08,3,1.66,4.5l-.18.09c-4.15-.19-8.3,0-12.46-.09,1.33-1,2.88-1.65,4.25-2.58C250.05,211,249.84,210.39,249.63,209.78Z"/>
            <path class="cls-17" d="M226.37,159.36c5.76.07,11.29-2,16.33-4.62a20.33,20.33,0,0,1,.36,2.34l0,.26c-.47,1.58-.69,3.21-1.1,4.8-2,7.08-5.84,13.4-9.58,19.66-5.49,8.49-10.94,17-17,25.11-.72,1-1.45,1.88-2.18,2.81-2.3.11-4.6,0-6.91.05h-3c.43-1,.87-1.92,1.31-2.88q6.54-14.17,13.05-28.35l5.1-11.09a18.25,18.25,0,0,0,1.31-3.17A22.9,22.9,0,0,0,226.37,159.36Z"/>
            <path class="cls-17" d="M245.32,171.86c.43,2.65.84,5.3,1.2,8a14.77,14.77,0,0,0,.77,3.36c2.79,7.95,5.74,15.83,8.68,23.71l1,2.8c-2.46.17-4.93.06-7.39.09-1,0-2,0-3-.06-.31-1-.67-1.9-1-2.82a133.76,133.76,0,0,0-8.14-16.67,51.64,51.64,0,0,0,2.82-6c1.41-3.24,2.73-6.52,3.89-9.85A15.13,15.13,0,0,1,245.32,171.86Z"/>
            <path class="cls-18" d="M286.81,163c3.46-1.16,7-2.81,10.76-2.3a8.22,8.22,0,0,1,5.59,3.49,15.35,15.35,0,0,1,1.51,5.33c-.93,2.39-1.8,4.92-3.53,6.86-1.43,1.66-3.7,2-5.6,2.81a47.32,47.32,0,0,0-12.28,7c-.48.34-1,.94-1.63.68C283.46,178.94,285.06,171,286.81,163Z"/>
            <path class="cls-18" d="M1.53,164.71a5.71,5.71,0,0,1,3.69.24,27.66,27.66,0,0,1,10.42,6.86c5.42,5.45,9.45,12.09,13.05,18.83,2.11,4,3.8,8.16,5.66,12.26-.17.46-.33.93-.5,1.41C23.4,192.09,13.24,179.62,3.24,167a1.5,1.5,0,0,0-1.34-.74,13.17,13.17,0,0,0,1.81,2.58c8.52,10.62,17,21.24,25.89,31.6a47.49,47.49,0,0,0,4.06,4.45l-.16.45c-9.31-2.42-18.54-5.18-27.81-7.75a10.16,10.16,0,0,0-1.46-.14,2.32,2.32,0,0,0,1.36.91c8.57,2.4,17.12,4.86,25.69,7.22a10.58,10.58,0,0,1,1.79.79l-.09.2a120.66,120.66,0,0,1-17.54-2.3c-4.47-1-9.07-2-13-4.34-.81-.62-1.84-1.39-1.73-2.55s1.19-1.62,2-2.18c4.47-2.05,9.56-.7,13.87,1.09,2.72,1,5.13,2.69,7.77,3.87a30.64,30.64,0,0,0-4.15-4.06c-4.35-4.24-9.18-8.05-12.87-12.93A46,46,0,0,1,1,172.07,12.89,12.89,0,0,1,0,167.13,2.65,2.65,0,0,1,1.53,164.71Z"/>
            <path class="cls-18" d="M315.91,170.92a15.79,15.79,0,0,1,8.23,3.7c-2.17.31-4.59.94-6.63-.19C316.25,173.76,316,172.2,315.91,170.92Z"/>
            <path class="cls-18" d="M308.36,192.17c7.72-1,15.45-1.86,23.12-3.19.07,1.22.1,2.45.06,3.67,3.73-.37,7.79.16,10.79,2.57,3.5,2.77,5.08,7.28,5.42,11.6-22,0-43.94-.07-65.91.05a31.13,31.13,0,0,1,15.83-12.45A48.1,48.1,0,0,1,308.36,192.17Z"/>
            <path id="gear1" class="cls-3"     d="M101.1,9.55a2.76,2.76,0,0,1,.71-.55c4.32-2.63,8.62-5.32,13-7.94a.88.88,0,0,1,1.15.17c1.89,2,3.74,4,5.62,5.95A9.84,9.84,0,0,0,123.47,9a6.74,6.74,0,0,0,4,.83c1.48-.13,3-.14,4.46-.22a10.37,10.37,0,0,0,3.81-.41A7.7,7.7,0,0,0,138.58,7c1.8-2.23,3.67-4.41,5.49-6.62a1.24,1.24,0,0,1,1.56-.25q6.51,3.41,13,6.8a1.93,1.93,0,0,1,1.06,1.91c-.69,2.28-1.41,4.55-2.08,6.83a11.07,11.07,0,0,0-.74,4.75,5.72,5.72,0,0,0,1,2.33c1.23,2,2.45,4,3.7,6a6.14,6.14,0,0,0,4.1,2.45c2.66.52,5.33,1,8,1.42a4.58,4.58,0,0,1,1,.21,2.06,2.06,0,0,1,1,1.8c0,4.88.12,9.77.18,14.66a1.23,1.23,0,0,1-.92,1.25c-2.47.57-4.93,1.15-7.4,1.7a12.16,12.16,0,0,0-2.15.57A6,6,0,0,0,162,55.67c-.79,1.56-1.65,3.09-2.52,4.61-.32.56-.69,1.09-1,1.67a6.47,6.47,0,0,0-.61,3.29,11.63,11.63,0,0,0,.82,2.63c.86,2.5,1.81,5,2.68,7.46a.9.9,0,0,1-.39,1.12c-4.17,2.6-8.39,5.15-12.57,7.75a2.91,2.91,0,0,1-1.42.61,2,2,0,0,1-.83-.61c-2.06-2.2-4.13-4.39-6.18-6.59a6.09,6.09,0,0,0-4.78-1.74c-1.66.15-3.31.17-5,.25a10,10,0,0,0-3.54.38,8.18,8.18,0,0,0-3.4,2.82c-1.64,2-3.33,4-5,6a1.25,1.25,0,0,1-1.57.26q-6.5-3.42-13-6.81a1.94,1.94,0,0,1-1.06-1.94c.84-2.67,1.67-5.35,2.44-8a6.49,6.49,0,0,0-.15-5.08c-1.16-1.93-2.35-3.85-3.53-5.77a7.56,7.56,0,0,0-1.45-2,7.68,7.68,0,0,0-3.76-1.57c-2.75-.53-5.51-1-8.27-1.45a2,2,0,0,1-1.2-1.79c-.06-4.89-.11-9.79-.19-14.69a1.26,1.26,0,0,1,.94-1.31c2.72-.62,5.44-1.28,8.17-1.87a7.4,7.4,0,0,0,3.66-1.83,12.72,12.72,0,0,0,1.92-3.11c.75-1.3,1.43-2.63,2.22-3.89a6.06,6.06,0,0,0,.75-4.95c-1.05-2.95-2.14-5.89-3.19-8.84-.11-.34-.28-.79,0-1.11Zm18.3,18.73A18.79,18.79,0,1,0,129,24.22,18.76,18.76,0,0,0,119.4,28.28Z"/>
</svg>