<?xml version="1.0" encoding="UTF-8"?>
<!DOCTYPE svg PUBLIC "-//W3C//DTD SVG 1.1//EN" "http://www.w3.org/Graphics/SVG/1.1/DTD/svg11.dtd">
<!-- Creator: CorelDRAW 2021.5 -->
<svg xmlns="http://www.w3.org/2000/svg" xml:space="preserve" width="257.1412mm" height="237.452mm" version="1.1" style="shape-rendering:geometricPrecision; text-rendering:geometricPrecision; image-rendering:optimizeQuality; fill-rule:evenodd; clip-rule:evenodd"
viewBox="0 0 1519907 996191"
 xmlns:xlink="http://www.w3.org/1999/xlink"
 xmlns:xodm="http://www.corel.com/coreldraw/odm/2003">
 <defs>
  <style type="text/css">
   <![CDATA[
    .fil0 {fill:whitesmoke;fill-rule:nonzero}
   ]]>
  </style>
 </defs>
 <g id="Слой_x0020_1">
  <metadata id="CorelCorpID_0Corel-Layer"/>
  <path class="fil0" d="M812609 612190c2072,-2319 4889,-3974 5139,-7211 -4588,3357 -8865,7131 -12768,11275 -4314,4309 -9209,8294 -13103,12773 0,575 0,1992 583,2820 7549,-6139 13675,-13355 20149,-19657zm223217 -388308c2072,4727 -1160,8788 -2820,13097 2463,-1620 4676,-3602 6551,-5884 3647,3482 6549,7794 10033,11440 1907,1492 827,3735 662,5809l2820 -830c4751,5458 8639,11605 11525,18242 1410,2072 0,5557 2902,6549 3234,-5307 6966,-10613 10201,-16582 -3234,2405 -6301,5304 -9618,8294 -3351,-7083 -7408,-13808 -12108,-20072 1069,-4096 2812,-7988 5142,-11520 -2753,2245 -5184,4868 -7214,7791 -3649,-4479 -7796,-8291 -11693,-13100 3317,-5974 6136,-12358 9453,-18327 -4312,4727 -8291,10116 -11940,15175l-3897 -82zm-45937 -34161c-2804,758 -5009,2929 -5807,5719 500,3040 2806,5471 5807,6136 1053,-473 2139,-886 3232,-1245 830,-1825 3567,-3899 2072,-6136 -1492,-2237 -3232,-3484 -5304,-4474zm253897 713099c4362,-10645 7456,-21779 9203,-33166 1700,-19202 -2061,-38489 -10860,-55640 4798,29371 5346,59282 1657,88807zm-423802 -268901l-7376 -585 662 -7458 6714 0 0 8044zm-8294 -9621c0,3232 0,6549 -660,9781 -750,1088 -1575,1915 -2407,2907 4788,253 9570,253 14348,0 0,-4477 0,-8794 827,-13103 -4011,513 -8065,649 -12108,415zm196690 -424131l-1910 4312c5389,1242 10531,2820 15837,4062l-1822 8294c1708,841 3482,1535 5307,2072 412,-2484 830,-4727 1410,-7211 5123,-2990 9717,-6799 13597,-11281 -4312,0 -7626,3320 -11523,4727 2072,-10448 4724,-20729 7376,-31180 0,-2649 2655,-4559 4147,-6796l-2655 -1325c747,-5309 2242,-10698 3234,-16005 -9453,-2240 -18489,-4727 -27860,-6966 -771,1535 -1458,3117 -2072,4727 8291,2240 16582,3899 24378,5886 -830,3070 -1410,6219 -2240,9453 -6551,-2072 -13350,-3897 -20066,-5721 -830,1657 -1907,3317 -2734,4892l20729 7211c-830,3735 -1410,7634 -2237,11531 -5972,-1080 -12108,-2490 -18079,-3484 -1410,1410 -2652,2820 -4064,4314l20069 5474c-1410,5554 -2820,11108 -4312,16582 -4892,-1083 -9618,-2572 -14510,-3567zm-21644 -38226c3532,989 7304,473 10448,-1410 995,-1822 3067,-3482 3067,-5969 -247,-3697 -2926,-6785 -6551,-7546 -5155,-1742 -10829,375 -13597,5059 -455,4461 2330,8607 6634,9866zm5389 -25870c1998,-1625 3003,-4171 2655,-6716 0,-4144 -5972,-6966 -8294,-3317 -3979,4144 -330,11940 5639,10033zm4314 37148c-1529,-1442 -3328,-2546 -5309,-3237 -3067,-830 -5804,1410 -8291,3237 -290,2117 -290,4267 0,6384 2040,1468 4312,2583 6716,3317 2620,-649 5075,-1830 7214,-3482 306,-2075 192,-4192 -330,-6219zm40545 693865c0,-2820 415,-7131 -3482,-7796 215,-5692 -862,-11360 -3152,-16582 -5307,-13342 -12031,-26072 -20066,-37978 -1226,348 -2386,849 -3482,1498 0,995 415,3232 580,4306 -1532,319 -3035,793 -4477,1410 -662,-2484 -1077,-4721 -1492,-6966 3274,-1543 5854,-4261 7214,-7626 348,-3272 -540,-6549 -2487,-9203 7214,0 14427,0 21806,0 3524,4453 4527,10395 2655,15757l-5142 -2657c1412,7214 2905,14600 4562,21806 0,2827 2405,4647 4062,6719 -904,4354 -904,8842 0,13185 2487,8291 7796,15337 10448,23551 -1907,412 -4562,577 -7214,577l-332 0zm-15257 -20479c-1575,-1492 -3234,-2657 -4892,-4147l0 5972c1825,2487 4727,5554 2237,8291 -2386,1367 -5421,545 -6788,-1843 -290,-505 -500,-1059 -588,-1639 205,-3508 620,-6990 1242,-10448 -1825,2237 -3732,4309 -5557,6301 -2487,-6136 -4892,-12520 -7131,-18657 4644,-583 9621,-997 14512,-1410 0,-2655 -2655,-3320 -4312,-4729 -3564,-2088 -6094,-5575 -6966,-9618l6966 0c6924,8161 12528,17372 16582,27283l-5719 -1245c412,1742 580,4397 745,5889l-332 0zm-11855 40048c-3484,-1708 -7514,-1857 -11113,-418l16585 -12350c-1492,4147 -3317,8456 -5142,12768l-330 0zm-18077 747c-830,-3652 -4727,-3652 -7796,-3894 6136,-2242 12105,-5474 18244,-8294 -3152,4392 -6634,8123 -10118,12023l-330 165zm-16585 -2822c-1120,-2370 -3375,-3995 -5972,-4309 6527,-4147 14419,-5554 21974,-3897 -4958,3117 -10140,5860 -15505,8206l-497 0zm-16585 -24211c0,-5184 3359,-9775 8294,-11360 4147,-255 8240,1021 11523,3567 0,2652 668,5056 997,7794 -2240,-2075 -4477,-4312 -6551,-6384l0 6964 -6301 -3317c583,2737 1410,5559 1990,8291 -3149,-1904 -6716,-3562 -9868,-5554l-82 0zm-4144 4479c-1577,122 -3160,122 -4727,0 -2298,-3128 -4099,-6594 -5309,-10283 -572,-8533 1958,-16981 7131,-23798 4314,-2240 9041,-4062 13350,-5972 4562,3067 4147,9703 4147,14845 6618,1359 12339,5458 15755,11278 -4602,-2522 -9594,-4253 -14760,-5142 -5365,-798 -10797,1027 -14595,4892 -1931,4487 -2253,9485 -912,14180l-80 0zm-12108 -25873c1088,-5870 1561,-11850 1410,-17824 1492,-1662 3067,-3072 4727,-4729 -412,-5969 -1660,-12108 -1825,-18074 1527,-9392 7804,-17321 16585,-20981 2487,9036 5557,18074 7796,27120 -2099,11110 -10666,19870 -21726,22218 -2827,3769 -5134,7895 -6881,12270l-85 0zm-4892 -44772c239,7536 -2096,14935 -6634,20976 0,-1407 -580,-4144 -830,-5554 -2237,3524 -5041,6658 -8291,9280 646,-6057 3000,-11813 6799,-16585l-3317 0c3290,-4647 5158,-10145 5392,-15829 0,-3072 3067,-4144 5307,-5312 4261,-1564 9054,-266 11940,3240 -4336,2139 -7929,5554 -10283,9783l-82 0zm30350 -28280c1027,1029 2139,1979 3317,2820 -2322,1498 -4314,2737 -6634,3985 -580,-1662 -997,-3572 -1660,-5144 1742,-410 3399,-1075 5059,-1660l-82 0zm-1825 -20729c0,-1660 827,-3320 1162,-4969 2069,1234 3979,2734 5801,3891 0,-2657 0,-5304 0,-8294 -3333,-207 -6690,-207 -10033,0 -827,-2240 -1407,-4474 -2237,-6549l12933 -4317c1444,2639 2607,5421 3484,8294 0,2907 -830,5562 -1242,8291 1242,1500 2652,2657 3897,3902 -6551,2072 -830,12933 -7381,15175 -2237,-5142 -4312,-10283 -6301,-15425l-82 0zm-15837 14592c-2072,-2314 -3897,-4309 -5724,-6631 -2319,2072 -4309,4317 -6631,6631 -1412,-1077 -2820,-1904 -4312,-2897 0,-1412 0,-3072 662,-4564 -2487,-1575 -4727,-3237 -7214,-4889 1077,-1657 3067,-2907 3317,-4727 -1242,-1822 -2655,-3655 -3897,-5315 5307,-4971 10448,-9863 15755,-14419 662,4147 827,8291 1907,12768 3458,3687 8541,5370 13515,4482 1077,2734 2240,5139 3482,7788 -3564,3891 -7461,7876 -10778,11773l-82 0zm-4894 -53648c747,-2402 3484,-2817 5474,-3649 827,3240 1492,6386 2319,9456 -3729,827 -3897,3647 -2319,6551 -1577,0 -3234,0 -5056,0 -723,-4080 -864,-8243 -418,-12358zm18077 15255c-1665,1258 -3439,2365 -5307,3322 -412,-1498 -995,-2905 -1410,-4314 2240,-80 4477,992 6716,992zm5142 -8291c5487,-5886 13366,-8940 21394,-8291 2655,0 4062,2405 4724,4647 798,5307 375,10722 -1242,15834 -662,0 -2075,420 -2902,665 2189,-3721 2987,-8099 2240,-12353 -995,-2495 -3649,-5724 -6716,-4314 -3700,3165 -6336,7392 -7549,12103 -495,-1705 -1798,-3067 -3479,-3641l1822 -3732c-2788,646 -5713,325 -8291,-918zm15175 13848c-2995,-5221 -1402,-11879 3647,-15175 3218,5232 1633,12076 -3564,15348l-82 -173zm7544 117249c-2676,-3700 -5139,-7544 -7379,-11523 2072,-4724 3732,-9453 5721,-14183 4312,10283 8871,20566 12355,31015 -3681,-1402 -7230,-3131 -10616,-5144l-82 -165zm-17412 -29347c3649,995 7379,2234 11028,3479 -854,3596 -2370,6996 -4477,10033 -1567,2288 -1335,5362 580,7379 5804,5304 9451,12935 16582,17082 2423,1527 4240,3830 5142,6549 -2899,0 -5969,580 -8871,830 -580,-2322 -1242,-4312 -1825,-6634l-2240 0c-3439,-6892 -8988,-12496 -15837,-16005 250,-5825 -1242,-11616 -4309,-16587 1298,-2080 2742,-4070 4309,-5964l-82 -162zm-4312 -39058c1295,125 2593,125 3897,0 2652,7208 5724,14180 8291,21394 -2405,0 -4892,577 -7131,745 -3216,-6881 -4908,-14380 -4971,-21976l-85 -162zm15175 32416c992,2075 2072,3902 2902,5977 -5514,654 -10996,-1492 -14595,-5727 3979,-82 7876,-82 11775,-82l-82 -168zm2072 -45357c-556,8562 1069,17119 4727,24876 407,5663 1585,11241 3484,16585 2237,6299 -665,15175 6134,19242 -995,662 -2237,1240 -3484,1904 -7794,-20564 -16002,-40878 -23796,-61439l10198 -5474c912,1652 1742,3070 2737,4306zm4977 -8291l6964 1992c-1657,1080 -2817,2487 -4477,3564l-3070 -1660c165,-987 415,-2820 583,-3897zm11110 44780c-2487,0 -2240,-2405 -2655,-4064 -314,-3157 -125,-6357 580,-9448 1412,4477 5721,10193 2075,13927l0 -415zm-1080 -41460c6253,5889 13898,10116 22224,12270 1410,2322 2820,4729 4062,7214 -1904,2309 -4022,4447 -6301,6392 -5554,0 -10943,0 -16582,0 -5987,-4950 -9645,-12158 -10116,-19904 1990,-1825 4477,-3655 6714,-5729l0 -242zm4562 -16585c2655,-3285 5846,-6086 9453,-8288 -1077,-3655 2820,-5727 5719,-7134 5567,-1857 11536,-2139 17250,-825 -995,2232 -1825,4474 -2902,6708l3482 4147c0,2075 0,3897 -580,5727l5557 4309c-1194,5926 463,12063 4477,16582 -2051,1303 -4330,2208 -6716,2655 -2322,-5724 -8871,-7626 -11693,-12770 -2072,-3067 1825,-7546 -1657,-10031 -4652,5668 -6344,13198 -4562,20314 -7254,-1764 -14079,-4977 -20066,-9456 1162,-3232 2822,-6549 3897,-10033l-1657 -1904zm61194 117579c-2213,1269 -4229,2862 -5969,4729 -2490,-3487 -4562,0 -6551,1657 -1013,-747 -2067,-1434 -3152,-2072 -1822,1487 -3482,3482 -5886,3482 -332,-3615 1527,-7075 4727,-8791 995,412 3234,995 4312,1407 0,-1407 580,-2817 995,-4309 1242,1077 2487,1907 3484,2902 322,-1138 511,-2306 580,-3482 1764,561 3482,1261 5139,2072 -1575,-2737 -3234,-5139 -4892,-7794 -5549,2346 -10887,5115 -16002,8294 -5126,-8881 -7224,-19183 -5972,-29352 -2926,-4235 -4825,-9086 -5557,-14177 6551,-1418 11940,-7137 18907,-7137 -580,4479 -1410,9036 -2240,13355 -2487,0 -4727,572 -7214,745 -1237,3570 -1790,7336 -1660,11105 5674,559 11294,-1380 15425,-5307 971,-8139 3125,-16108 6384,-23631 1279,-3232 258,-6913 -2487,-9036 -6692,3256 -13906,5328 -21309,6139 -3897,-3240 580,-7549 0,-11283 -2870,-4168 -4761,-8929 -5557,-13927 1907,-1410 3732,-2907 5807,-4144 3008,450 6075,-40 8788,-1410 1748,-1952 3373,-4001 4889,-6139 -1160,-2899 -2405,-5557 -3479,-8291 -2655,-5724 0,-12520 -3652,-17832 1660,-2072 3234,-3894 4894,-5716l-7794 -2325c0,-2234 995,-4479 1407,-6711l-4309 825c-4397,-7764 -13723,-11257 -22141,-8294 896,1713 1918,3349 3070,4892 -5862,109 -11501,2218 -16002,5972 1407,1248 4144,1830 4971,3899 -3314,1822 -10528,3647 -7626,8788 -1585,1926 -2506,4304 -2655,6801l-7794 -1248c-1907,-4479 -3732,-9201 -5807,-13512l3317 -1662c1245,0 2655,1827 3897,583 4314,-995 3899,-5724 4479,-9038 1859,-6639 -588,-13741 -6136,-17829 -6317,90 -12547,1564 -18242,4317 -4562,1237 -5719,6381 -6799,10275 2237,2072 6384,3237 6551,6722 -2822,-1160 -5471,-3067 -8294,-4067 -2817,-995 -6799,-583 -9038,-3309 415,-1952 971,-3865 1657,-5729 -2072,-3317 -3067,-7626 -6796,-9203 -1968,-1112 -3649,-2673 -4894,-4559l-5389 0c662,2072 1242,4144 1907,6389 -1476,1838 -2413,4048 -2737,6381 2208,3019 3234,6727 2902,10448l-21724 16582c995,2857 2213,5626 3649,8291 -888,1545 -1511,3229 -1827,4979 2282,2689 5102,4868 8294,6381l-3649 4317c4727,3229 11861,6549 16587,1410 2367,2867 5753,4703 9451,5139 2820,-2905 5721,-5977 8291,-9286 2487,1716 4777,3716 6801,5966 -3998,689 -7738,2405 -10866,4971 1825,1992 3899,4064 5724,5889 -4338,1787 -8411,4163 -12108,7051 -2022,-1636 -4328,-2899 -6799,-3729 -6817,-1737 -13879,1795 -16582,8288 -2522,5862 -5698,11427 -9453,16585l2902 1410c-2455,6980 -3684,14332 -3649,21724 6998,27 13659,-3003 18244,-8291 4144,-5490 6389,-12185 6384,-19069 -176,-2503 694,-4966 2405,-6801 -93,5035 325,10062 1242,15013 575,5812 -1285,11603 -5139,16002 638,9940 -1636,19856 -6551,28520 1665,4338 2431,8967 2240,13597 0,1420 -1144,2575 -2572,2575 -309,0 -612,-59 -912,-168 -3490,-2820 -5280,-7238 -4727,-11693 0,-3644 1907,-8291 -2652,-10443 -82,4285 -928,8530 -2487,12515 -1758,5759 -450,12020 3479,16587 10573,6097 23551,6320 34329,580 1827,1825 3652,3899 5724,5724 -1660,1657 -3234,3067 -4727,4724 5769,-947 11560,1551 14842,6384 4817,-3043 10946,-3043 15755,0 3314,-415 6549,-2487 9453,0 3173,-1532 6865,-1532 10033,0 3208,-5506 6780,-10802 10696,-15845 2189,-16 4362,396 6386,1253 2237,1410 3647,5142 6799,4727 1407,-1492 2652,-2902 4062,-4147 2655,-412 4727,1825 7214,2655 1037,-1790 2208,-3508 3484,-5142 4062,-580 8291,-1418 12105,-1992 2538,-4376 4354,-9137 5389,-14095zm-28607 -556055c0,995 0,2822 665,3897 -1412,-827 -2905,-1657 -3317,-3314 -3484,-995 -6964,-2075 -10198,-3322 0,3322 -2737,3735 -5142,2905 0,-833 995,-2072 1160,-2905 -4062,0 -8291,-575 -12273,-989 0,825 0,2487 0,3317 -1939,-402 -3905,-681 -5886,-830 0,-830 0,-2237 0,-2902 -4759,255 -9496,806 -14180,1657l0 2240 -1242 0c82,-883 82,-1774 0,-2657 -4559,-575 -9038,-825 -13515,-1240 0,830 0,2237 0,2902l-5972 575 0 -2812 -12520 739c0,833 1077,2327 1242,2905 -2484,1242 -5307,0 -5307,-2905 -4958,1061 -9618,3248 -13597,6389 0,-827 662,-2655 827,-3649 -4062,1242 -8288,2240 -12520,3070 1825,2402 3484,5716 830,8291 4312,-580 8291,-830 12688,-1242 -806,-684 -1561,-1434 -2240,-2240 1378,120 2769,120 4147,0l-1495 2487c4006,-934 8086,-1495 12190,-1660 862,-1442 2378,-2373 4062,-2484l-577 2484c4724,-583 9201,-992 13927,-1657l-1242 -2405 4727 0 -1410 3070c4727,0 9453,0 13930,0 0,-1245 -580,-2490 -830,-3735l5721 0c0,1245 -580,2490 -745,3482 4477,0 9203,0 13683,0 -242,-1072 -633,-2107 -1162,-3064l4312 0 0 2237c4312,1245 9203,992 13683,1825l-747 -2487c5110,2136 10499,3538 16002,4147l-1242 -2075 4062 0c-577,580 -1575,1822 -2237,2405 4144,0 8291,665 12520,1242 -1716,-2657 -1261,-6160 1080,-8294 -3402,-1157 -7714,-2155 -11861,-3397zm121146 323055l6551 0c0,2487 412,4971 662,7629 -2452,-130 -4916,-130 -7381,0 0,-2242 0,-4892 168,-7629zm11275 11110c-859,-912 -1657,-1886 -2405,-2907 0,-3232 -412,-6549 -827,-9781 -3982,242 -7988,104 -11940,-415 122,4392 537,8762 1245,13103 4477,253 9203,0 13927,0zm-4724 -25208c6796,6714 13347,13515 20149,19896 0,-654 830,-1902 992,-2487 -4724,-5716 -10860,-10445 -15999,-15587 -3234,-2899 -5721,-6964 -10036,-8294 580,2740 3067,4564 4894,6472zm-276038 -419237c2269,3798 5059,7259 8291,10278 0,-5304 -4312,-9198 -6634,-13762 3732,-4479 7216,-9038 10696,-13518 3317,3070 5142,8291 9868,9618 -2139,-4455 -4692,-8703 -7626,-12682 4708,-4370 9110,-9049 13183,-14015 -3184,-4636 -7240,-8607 -11940,-11690 1825,3729 4727,6799 6799,10281 -2240,4727 -7379,7379 -10863,11278 -4312,-4479 -8291,-9456 -12935,-13765 3649,5801 6966,11525 10281,17494 -3314,4479 -6631,8291 -10281,12690 -3317,-1827 -5801,-4729 -9036,-6389 2405,3320 4727,6799 6964,10283 -3490,5283 -6567,10829 -9203,16582 -3899,-3229 -6384,-7376 -9868,-10863 3234,7634 7381,14598 11028,21979 971,2011 2389,3766 4147,5139 -697,-4219 -1809,-8355 -3317,-12355 3234,-5721 7131,-11193 10448,-16582zm23548 78606c239,-3724 1434,-7328 3482,-10451 2290,-4772 5341,-9145 9041,-12930 827,0 2319,410 2899,410 0,-2072 -995,-4474 997,-6136 3314,-3479 6219,-7376 9451,-10860 1942,2221 4128,4197 6551,5892 -1410,-4317 -4892,-8294 -2655,-13105 -1293,-88 -2596,-88 -3897,0 -3407,-4910 -7081,-9610 -11028,-14098 2652,5721 5474,11440 8291,17412 -3897,4312 -7794,8294 -11523,12938 -2000,-3000 -4487,-5639 -7381,-7791 2530,3455 4354,7371 5389,11520 -4684,6360 -8873,13068 -12520,20072 -2902,-2657 -5804,-5307 -8873,-7799 2655,5559 6386,10283 9453,15592 798,-154 1569,-380 2322,-665zm25043 -104479c0,2905 3317,4312 3897,6964 2487,10696 5389,21146 7379,31845 -3897,-1410 -7129,-4897 -11443,-4479 3907,4240 8408,7897 13350,10866 830,2487 995,4889 1825,7373 1657,-412 3317,-1240 4892,-1654 0,-3070 -995,-5969 -1575,-9041 5307,-1242 10448,-2820 15755,-4062l-1825 -4312c-4894,995 -9621,2484 -14592,3482 -1412,-5554 -3070,-11108 -4064,-16582 6551,-1822 13350,-3649 19901,-5721l-4314 -4062c-5969,992 -11940,2399 -18074,3484 -580,-3902 -1410,-7796 -2075,-11531 6966,-2487 13765,-4892 20729,-7214 -1011,-1639 -1904,-3357 -2652,-5139 -6799,2072 -13515,3897 -20149,5969 -747,-3067 -1575,-6136 -2240,-9203 8291,-2487 16585,-4147 24878,-5972 -798,-1676 -1487,-3391 -2075,-5139 -9453,2487 -18657,4974 -27945,7214 1080,5307 2322,10860 3484,16167l-3067 747zm-23136 66503c-1184,-4841 -3144,-9461 -5804,-13683 4727,-5554 9701,-10948 14427,-16585 1162,-1407 3234,-3067 2655,-5307 -1245,0 -3735,995 -4977,1407 -3482,-2402 -5721,-6134 -9203,-8791 2264,4208 4312,8528 6136,12938 -3897,3735 -7546,8291 -11443,11938 -1801,-2583 -4046,-4833 -6634,-6629 1865,3200 3399,6594 4562,10118 -4330,6389 -8185,13103 -11528,20064 -3697,-3929 -7065,-8177 -10033,-12688 3998,10036 8748,19766 14180,29105 1992,-3647 -1660,-7794 -2322,-11440 3062,-7653 7283,-14786 12520,-21149 1942,3921 4455,7530 7464,10701zm38973 -7796c-152,3242 48,6498 580,9703 912,2644 3780,4051 6426,3147 66,-29 133,-51 207,-80 -830,-2902 -3897,-4727 -3317,-8291 7786,-2051 16029,-1378 23383,1907 -995,-7216 5139,-11943 7379,-18079 2487,5886 8873,10863 7796,18079 7293,-3269 15489,-3945 23216,-1907 1245,3729 -3482,5142 -2652,8291 7626,997 6799,-8291 6799,-13183 -8291,0 -17082,-3072 -24878,1245 -1649,-6804 -5221,-12991 -10281,-17829 -5025,4862 -8589,11041 -10283,17829 -7376,-3899 -16167,-833 -24375,-833zm222470 373223c0,-1833 -412,-2657 -2322,-2487 -745,1902 82,2729 2322,2487zm-7711 -14350c0,1822 0,2655 2240,2242 165,-1833 -665,-2657 -2240,-2242zm3647 4477c0,1936 830,2761 2490,2487 165,-2487 -665,-3070 -2490,-2487zm-13347 -11693c-407,2170 -407,4389 0,6554 1245,-1162 3067,-2820 1825,-4892l4062 992c-1210,-2030 -3556,-3091 -5886,-2655zm13347 17502c0,-1936 -827,-2764 -2484,-2490 -168,1825 662,2649 2484,2490zm-7958 -8214c-689,-787 -1327,-1612 -1907,-2487 -1657,997 250,3894 1907,2487zm3732 4317c0,-1936 -830,-2772 -2487,-2495 59,1830 886,2657 2487,2495zm-99502 -371149c-2487,4259 -4461,8794 -5889,13518 3649,-2490 5059,-6969 8294,-10448 4993,6514 9062,13685 12105,21309 -995,3735 -3649,7381 -2652,11528 5804,-9198 10605,-18984 14345,-29187 -3070,4309 -6136,8291 -9453,12518 -3897,-6554 -7131,-13518 -11443,-19901 819,-3785 2280,-7403 4312,-10696 -2820,1886 -5150,4415 -6801,7379 -3479,-4474 -7794,-8291 -11523,-12270 1899,-4857 4261,-9528 7046,-13933 -3317,3070 -6384,6554 -9451,9786 -1966,-332 -3907,-803 -5807,-1407 0,660 830,2240 1080,3064 4394,6551 10366,12358 15837,18742zm98425 363097c0,-1819 -415,-2647 -2322,-2484 -332,1910 415,2737 2322,2484zm184909 361283c-4479,-1410 -9206,-3067 -13765,-4314 2322,-4889 4727,-9616 7214,-14590 -5721,-585 -11525,-1412 -16582,-1992 995,-4727 2652,-9286 4062,-13762l15007 7794c997,-4727 2072,-9453 2902,-14183 5059,1415 10198,3317 15175,4977 -2322,4317 -4727,8294 -6964,12938 5056,577 10448,1407 15752,2237 -1657,4064 -2817,8294 -4312,12688 -5139,-2072 -10033,-4727 -15172,-6964 -1412,5139 -2240,10031 -3317,15172zm5969 4729c93,-3886 399,-7754 912,-11611 4644,3232 9368,6549 14095,10031 3484,-10696 7214,-21144 9868,-31839 -5304,0 -10696,-827 -16002,-1407 2487,-3732 5142,-7634 7629,-11531l-32172 -10528c0,4724 -418,9286 -747,14012 -5557,-3317 -10946,-6964 -16585,-10445 -3897,10613 -7379,21724 -10863,32416 5972,585 11858,1000 17829,1412 -1410,2905 -2902,5721 -4477,8294 -33228,-4274 -65689,12156 -81925,41460 -1657,3732 -5721,4974 -8871,6964 -4048,2572 -7456,6027 -9953,10113l18242 0c2258,-1380 4926,-1904 7549,-1492l-1492 1492 52488 0c-16114,-5152 -32605,-9012 -49339,-11523 14044,-24096 40016,-38715 67910,-38226 -5721,16582 -11608,33166 -17329,49748l8291 0c5557,-15587 10366,-31422 15755,-47014 8897,-59 17595,2671 24878,7796 -5059,12770 -8956,26038 -13270,39218l7464 0c3897,-11355 8294,-22801 11775,-34326 11517,8725 20165,20673 24876,34326l9368 0c-5471,-19792 -18324,-36723 -35904,-47341zm-291875 -763021c4314,-2240 6551,-6551 9868,-10039 3482,4479 6966,9038 10613,13518 -2240,4564 -6386,8294 -6549,13762 3149,-3091 5937,-6543 8291,-10278 3482,5389 7214,10860 10448,16582 -997,3729 -2405,7216 -3484,10696l1492 1410c4892,-8788 9371,-18077 14345,-26868 -2676,2519 -5091,5301 -7211,8291 -995,750 -1660,2657 -3070,2242 -2902,-5392 -5969,-10698 -9203,-15837 2237,-3479 4477,-6966 6964,-10698l-9036 7051c-3484,-4312 -7214,-8291 -10283,-12935 3317,-5972 6549,-11693 10033,-17500 -4479,4562 -8294,9288 -12685,13768 -3484,-3649 -8294,-6551 -10866,-11113 1825,-3649 4894,-6551 6551,-10448 -4344,3203 -8341,6841 -11940,10863 4064,4974 8294,9701 13103,14430 -2769,4181 -5243,8562 -7381,13103zm-273054 409116c-4086,5440 -9254,9993 -15175,13353 -1822,-1660 -3724,-2902 -5384,-4729 -1662,-1822 -583,-4054 -1995,-5557 -2322,0 -4312,0 -6631,0 -1016,-2170 -1418,-4575 -1162,-6961 -2551,-82 -5075,-585 -7458,-1492 -1162,-1822 -750,-3894 -1162,-5966 -2072,-583 -4977,0 -6636,-1992 -918,-2008 -1665,-4088 -2237,-6219 -1248,-1165 -3070,-997 -4474,-1580 -2657,-2899 -5974,-6219 -4564,-10528 1851,-8129 9073,-13911 17412,-13933 3899,4979 -1827,10283 -4724,14430 -1825,1407 -830,5139 1657,4312 4144,-2240 5551,-7384 9618,-9459 2322,585 4724,3322 3149,5729 -2902,4556 -9036,8291 -7464,14175 5809,-2240 7464,-8791 12111,-12355 2383,301 4165,2330 4147,4729 -2655,5144 -9459,8291 -9209,14845 0,2232 2822,0 3897,0 3482,-3484 6136,-7802 9209,-11446 2226,992 4040,2716 5142,4892 -3676,4157 -6972,8626 -9868,13347 -109,1192 766,2232 1947,2349 665,56 1327,-197 1782,-689 3482,-3482 6299,-7629 9621,-11110 1601,670 3115,1561 4479,2657 -3070,4719 -6724,9038 -9791,13768 -633,1056 -277,2434 782,3064 708,415 1583,415 2285,0 4729,-2822 6389,-9203 10871,-12276 3309,-80 1075,3232 -173,4642zm5144 -11270c-2099,-3171 -5511,-5211 -9291,-5554 0,-2075 0,-4729 -1572,-6392 -2061,-982 -4354,-1410 -6639,-1240 -314,-1862 -793,-3692 -1407,-5474 -1410,-2487 -4477,-1910 -6793,-2325 -577,-4227 -4038,-7480 -8296,-7788 -2306,-4088 -6163,-7078 -10693,-8294 -6046,-104 -11738,2820 -15175,7791 -3772,3942 -5187,9586 -3732,14845 1902,3226 4309,7131 8291,7373 540,1960 1234,3870 2075,5727 1407,2237 4309,2237 6546,2899 665,1992 0,4729 2322,6139 1982,904 4123,1383 6304,1407 412,2322 0,5804 2734,7051 1894,285 3830,285 5724,0 311,3173 2133,6019 4894,7629 2072,1240 0,3897 -423,5557 5267,-2660 10172,-5977 14603,-9871 -843,1521 -1814,2963 -2907,4314 -6301,6796 -13103,13345 -19484,20149 -1657,3652 3482,5886 5554,3070 15920,-15590 32504,-31839 47679,-48014l0 -1910c0,-412 1000,-995 1410,-1410 -1157,-1529 -3099,-2242 -4971,-1819 -6073,6916 -12736,13294 -19904,19069 3067,-4721 5620,-9751 7626,-15005 -1569,662 -3070,1237 -4474,2075zm-57050 229184c-6120,12528 -10150,25979 -11940,39806 -309,17593 2905,35071 9456,51408 -2609,-20625 -3168,-41455 -1660,-62191 527,-9778 1912,-19492 4144,-29022zm737565 19404c-7554,2381 -15547,3024 -23383,1907 -26227,-1285 -51568,-9903 -73134,-24876 -5972,-4147 -3649,-12518 -5554,-18736 -3774,-6631 -7190,-13475 -10201,-20487 6716,6136 12688,13100 20066,18909 11924,8307 24410,15763 37396,22306 8913,5224 18516,9193 28525,11773 7796,1572 16997,3482 23383,-2737 3093,-2607 7610,-2607 10698,0 -2240,4309 -3234,10118 -7796,12105l0 -165zm-109620 -27698c-1657,4147 -2487,9288 -6384,12108 -2240,1910 -5307,3482 -5969,6631 -1245,4647 1657,8959 2652,13270 -747,2322 -3482,2899 -4892,4974 -2248,3160 -4296,6450 -6136,9868 -2687,-16476 -2687,-33278 0,-49748 -4221,3748 -6865,8964 -7379,14590 -2804,14771 -1519,30025 3732,44112 -8254,-7575 -15124,-16526 -20316,-26450 -1865,-10307 -1410,-20899 1327,-31015 2902,-7376 13350,-2647 17497,-8786 1657,-2737 0,-6389 1657,-8873 1660,-2484 4727,-4064 6301,-6793 2902,-6136 -3067,-12528 0,-18659 830,-2069 1825,-4727 4312,-5142 4727,1077 6799,6381 7796,10698 1657,6549 -4314,12105 -3735,18659 2322,3891 8294,3309 10946,7211 1742,4405 1221,9395 -1410,13345zm-62436 -34906c819,-1734 1367,-3580 1660,-5474 -1080,-2317 -3735,-2317 -5807,-2737 -1825,-1806 -3540,-3719 -5142,-5719 -1242,-5554 415,-11108 -830,-16582 -580,-2910 -4477,-1662 -6549,-2490 0,-2905 -1245,-7634 2902,-8288 8208,-1394 16550,-1897 24876,-1498 4147,0 7381,-5054 11690,-3484 6006,5362 11552,11214 16585,17500 1851,3093 2306,6833 1245,10283 -218,4610 -2455,8892 -6136,11688 -4378,1149 -9022,-497 -11693,-4147 -4865,-7283 -10719,-13842 -17412,-19484 -1657,-1245 -4977,-1245 -4977,1410 1628,6924 5259,13214 10448,18074 4248,6679 10847,11531 18492,13605 2655,0 6799,2647 6136,6136 -4362,3676 -9179,6775 -14345,9198 -2240,1492 -4064,-827 -5721,-1822 -6120,-4519 -11392,-10076 -15587,-16422l165 253zm10198 32502c-870,11863 -1120,23766 -745,35656 197,12132 -856,24240 -3152,36156 -2237,2237 -5721,2652 -8294,4974 830,1987 4064,4227 2075,6549 -1990,2325 -2902,4312 -5392,4064 -580,-16582 -992,-32422 0,-48591 583,-13185 2655,-26120 3072,-39470l-583 0c-242,3027 -878,6014 -1907,8876 -1500,4849 -2439,9863 -2820,14919 -4288,17258 -5823,35087 -4559,52823 2069,8291 3482,17414 5721,25870 -3652,2820 -6966,-2322 -8294,-5139 -1327,-2825 0,-7049 0,-10531 -1660,-4729 -9453,-4729 -9866,-10451 -3011,-15255 -3708,-30887 -2075,-46349 415,-6224 7629,-8294 10116,-12935 0,-1910 0,-3735 0,-5392 1412,-3234 5721,-3234 7546,-6139 1660,-7626 -1990,-15175 -1990,-22963 -383,-3461 564,-6924 2652,-9701 5514,3602 10291,8216 14098,13592 3309,3758 6384,7719 9203,11855 -1657,835 -3317,1248 -4974,2075l165 250zm-39968 9791c-5969,-1415 -9036,-7387 -11275,-12688 -1660,-3735 -2737,-8294 -7216,-9874 -992,-827 -3729,-827 -3479,-2647 521,-7086 56,-14204 -1410,-21152 -3152,-4721 -9288,-8288 -9288,-14342 2189,-2652 4825,-4894 7794,-6629 4080,48 7919,1934 10448,5134 2737,2905 0,6969 830,10533 830,3564 6634,4642 8294,8291 2899,8788 -1660,18407 2237,26870 415,1657 2655,995 3897,1240 1992,-8610 2561,-17492 1660,-26285 -580,-5557 -8294,-5807 -9453,-10860 -830,-3147 -2237,-6804 -415,-9701 1825,-2905 6551,-3067 8871,-6139 2322,-3067 5309,-6549 9206,-4477 4477,5304 2490,13103 3317,19654 415,3894 6136,4727 5474,9033 1075,5557 -5889,7802 -5059,13355 705,7645 -524,15337 -3567,22383 -2240,4152 -5886,8711 -11028,8049l165 250zm-5804 62271c0,5304 -6301,7129 -9036,11023 -2740,3902 -997,9456 -4479,12938 -2240,2652 -5721,4974 -6549,8291 -830,3317 412,9868 -3070,13350 -3732,-827 -1657,-5307 -1907,-8288 -5929,-9876 -10664,-20433 -14095,-31432 -1660,-4971 -2737,-10278 -4562,-15175 -6549,-5389 -14180,-9698 -20149,-15670 1128,-2163 2370,-4269 3732,-6301 995,-9038 1407,-17912 2237,-26700 3317,0 9038,2237 10281,-2234 1248,-4477 6801,-8291 10283,-11693 3484,-3402 2075,-8294 6136,-9871 4064,-1569 9868,-5554 12770,-662 6615,11821 12512,24035 17659,36569 3030,15031 3218,30504 583,45607l165 250zm-63599 30759c-4062,5288 -10001,8823 -16585,9868 -3234,-827 -5056,-4144 -7379,-6551 9701,-17348 17571,-35661 23466,-54643 14196,13911 14430,36699 516,50884 -61,69 -117,128 -184,192l165 250zm-27942 -6799l-12935 -8291c9677,-18077 16651,-37465 20729,-57547 5142,830 10116,1904 15257,2905 -4312,22005 -12156,43173 -23216,62684l165 250zm-46767 58045c-3320,-3649 -6799,-7549 -10116,-11446 15680,-13667 29070,-29767 39633,-47679 4314,2737 8294,5389 12938,7799 -11368,19276 -25764,36606 -42622,51326l168 0zm74129 24873c-6823,1404 -13906,1064 -20564,-992 -5972,-4727 -11278,-10701 -17082,-16005 665,-3067 1245,-6136 1657,-9451l-10281 1242c-3482,-3317 -6964,-6801 -10613,-10033 3070,-3567 6136,-6799 9453,-10283 15587,14927 31592,29935 47261,45274l168 247zm-39635 -14760l-9286 1080c0,-3317 412,-6384 662,-9453 3070,0 6301,-662 9453,-830 -415,2820 -830,5886 -995,8953l165 250zm-98590 28940c-1825,-4727 -3897,-9453 -5721,-14345 19252,-7605 37265,-18050 53400,-31012 3232,3899 6714,7796 10031,11693 -17420,14079 -36874,25431 -57710,33664zm-13103 -36151c16792,-6594 32555,-15582 46767,-26700 3070,3482 5972,7211 8788,10860 -15489,11775 -32470,21444 -50496,28775 -2322,-4314 -4229,-8623 -5807,-12935l747 0zm-7049 -20152c14419,-5852 27972,-13640 40300,-23133 2652,3482 5307,6714 8291,10198 -13507,10166 -28275,18526 -43947,24878 -2652,-3732 -4144,-7796 -5389,-11943l745 0zm-53315 46019l0 -13760c17851,-476 35539,-3578 52488,-9209 1907,4312 3567,8294 5142,12938 -18731,6682 -38484,10084 -58377,10031l747 0zm-16585 -67580c-29070,-3000 -56135,-16223 -76369,-37313 -15348,-16284 -26184,-36289 -31427,-58039 -15787,-66570 25392,-133334 91959,-149117 66578,-15789 133342,25386 149123,91956 3740,15776 4344,32116 1790,48126 -5969,36332 -27581,68222 -59122,87227 -22894,13930 -49719,19960 -76369,17162l415 0zm-87229 -17247c3482,-3644 6964,-7129 10696,-10858 23266,21787 53714,34294 85572,35156 0,5059 0,10201 0,15337 -36037,-721 -70506,-14850 -96683,-39635l415 0zm96433 62689c-16906,-705 -33640,-3700 -49751,-8871 1660,-4064 3070,-8291 4312,-12108 14635,5166 30009,7966 45522,8291l-82 12688zm0 22138c-19792,106 -39444,-3290 -58042,-10031l4892 -12938c17042,5615 34802,8719 52738,9209l412 13760zm-101574 -58954c2655,-3484 5307,-6966 8294,-10198 12169,9552 25660,17287 40048,22968 -1242,4059 -2902,8291 -4312,12523 -15715,-6480 -30515,-14986 -44030,-25293zm36071 46022c-18220,-7009 -35241,-16768 -50501,-28940 2822,-3484 5724,-7214 8294,-10696 14188,11031 29876,19960 46599,26533 -1242,4479 -3067,8788 -4727,13103l335 0zm-8873 22968c-20731,-8294 -40098,-19646 -57465,-33667 3317,-3897 6801,-7794 10033,-11690 16146,12959 34145,23415 53400,31012 -2405,4892 -4227,9618 -6301,14592l332 -247zm-64016 -38806c-16515,-14869 -30765,-32076 -42287,-51081l12930 -8294c10552,17864 23937,33885 39641,47434 -3647,4392 -7131,8291 -10613,11940l330 0zm-31589 -418c-3322,-577 -6631,-995 -10113,-1407 859,3274 1271,6650 1237,10031 -5307,5144 -10698,10533 -16585,15425 -6714,2064 -13845,2402 -20729,995 15348,-15592 31594,-30347 47346,-45522l9206 10201c-3320,3317 -7043,6796 -10696,10278l332 0zm-6219 10281c0,-3067 -583,-6134 -995,-9201 3320,0 6386,580 9616,830 0,3067 0,6134 662,9451l-9283 -1080zm-9118 -67658c-10906,-19463 -18747,-40497 -23224,-62354 4979,-1495 10283,-2075 15428,-3152 4070,20090 11057,39476 20729,57542l-12933 7964zm-11693 16582c-6594,-1194 -12502,-4809 -16585,-10113 -13350,-13268 -14595,-38728 827,-50916 5075,19098 12869,37356 23136,54233 -2075,2237 -3897,5719 -7379,6384l0 412zm-54810 -2649c0,1819 0,3644 0,5469 0,1825 -2075,3317 -2822,1657 -4147,-4724 0,-12103 -4559,-16582 -2120,-1926 -4040,-4062 -5724,-6384 -1657,-3317 -1242,-7214 -2649,-10451 -1410,-3232 -8871,-5804 -9456,-11275 -2011,-13342 -2378,-26873 -1075,-40298 958,-5062 2785,-9911 5386,-14348 4517,-9863 9581,-19476 15175,-28772 3482,-3067 8291,0 11690,1910 3399,1907 3320,7544 6554,10448 3229,2899 8294,5969 9868,11108 1572,5144 6384,2237 9618,2237 2737,10866 -418,23383 6381,33169 -6376,5541 -13073,10690 -20066,15425 -3687,16401 -9863,32153 -18321,46687zm-37398 -102992c-4474,-4987 -7083,-11374 -7379,-18071 295,-4809 -35,-9629 -997,-14350 -2075,-2899 -4974,-5384 -4312,-9286 -662,-4482 5144,-5144 5557,-9038 -513,-6152 165,-12339 1990,-18244 641,-1716 2548,-2580 4267,-1944 101,35 199,77 293,125 4312,1819 6307,6549 10451,8291 1654,995 4147,1577 4892,3649 407,3234 -21,6511 -1245,9533 -1662,4892 -9286,5059 -9453,10866 -742,8812 -69,17686 1990,26285 1492,-665 3729,0 4147,-2487 3072,-8291 -827,-17667 1825,-26043 1492,-4144 7214,-5136 8291,-9698 0,-3232 -1987,-7549 1083,-10033 2726,-3173 6884,-4737 11023,-4147 2075,2325 6384,3897 6804,7376 -1412,5567 -6386,8876 -9453,13193 -2652,7208 0,15005 -1660,22381 -2405,1412 -5721,1660 -7131,4479 -3317,5974 -4727,13191 -10281,17500 -3091,2607 -7607,2607 -10698,0l0 -335zm1077 68578c-827,5304 -8291,5056 -9698,10031 0,3237 2487,6554 0,9621 -2492,3067 -4314,8294 -8294,6384 1819,-9866 4147,-19484 5966,-29352 2072,-20314 -3729,-40465 -6549,-60532 -1490,-4729 -2655,-9286 -3897,-14015 580,14015 2652,27695 3237,41460 825,16005 0,32089 0,48091 -2466,-1375 -4525,-3378 -5972,-5801 0,-2240 2484,-3899 2072,-5886 -2072,-2072 -5557,-2322 -7381,-4559 -2272,-12252 -3301,-24695 -3062,-37151 -668,-11531 739,-23213 -1085,-34906l-4724 -1662c2429,-3918 5203,-7599 8294,-11028 3899,-6168 9360,-11206 15837,-14592 5136,9863 -1248,20319 0,30592 0,4729 6384,4067 7794,8294 0,1662 0,3482 0,5142 2322,5144 9701,6966 10113,13191 1572,15709 678,31573 -2652,47014l0 -332zm-43942 -89972c-6086,-2434 -11698,-5916 -16587,-10283 0,-2647 2242,-4309 4147,-5463 3506,-527 6897,-1654 10033,-3320 6304,-5426 11874,-11640 16585,-18497 2753,-3248 4147,-7432 3894,-11685 -2072,-1657 -4479,0 -6386,1240 -5796,5676 -11065,11874 -15749,18497 -2907,2817 -7384,5886 -11698,3891 -3471,-2758 -5636,-6852 -5966,-11278 -1394,-3820 -771,-8091 1654,-11360 5099,-5945 10640,-11486 16585,-16585 3735,-1822 6966,2072 10448,3072 9594,-465 19205,279 28610,2240 1825,2234 992,5142 747,7626 -1942,130 -3857,463 -5721,1000 -2242,5554 0,11693 -1410,17659 -1415,2277 -3147,4349 -5142,6136 -2075,665 -4894,0 -5719,2737 112,1862 649,3679 1572,5307 -5338,7583 -12097,14058 -19896,19066zm2072 46104c-4780,8437 -10331,16404 -16585,23798 3649,-13863 4134,-28373 1404,-42452 -420,-4971 -2841,-9544 -6711,-12688 2333,17444 2056,35127 -830,52488 -2197,-6996 -6589,-13103 -12520,-17414 577,-5139 4477,-10278 2237,-15590 -2237,-5304 -8291,-5807 -9618,-10940 -1330,-5142 -5974,-11861 -4147,-18242 1657,-4482 7214,-5144 10696,-7546 1822,-1248 1245,-3735 833,-5394 -1250,-4892 -4729,-9863 -3322,-15007 505,-4525 3378,-8443 7549,-10283 2649,0 3647,3072 4721,5394 2407,6136 -3147,12270 0,18244 1583,3059 4894,4719 6719,7538 1827,2827 0,5554 1083,8291 4062,6136 14592,1410 17659,8794 2444,10164 2729,20731 833,31009zm-52823 -43115c-1410,5966 0,13595 -4889,17915 -10512,8070 -22434,14111 -35161,17819 -2817,-4889 -5889,-9618 -8291,-14590 11730,-5740 23032,-12310 33831,-19654 9137,-6777 17603,-14411 25290,-22801 -2322,7796 -7876,13927 -10781,21311zm13600 145356c-1498,2652 -2490,5886 -5392,7376 -3423,1154 -7089,1346 -10613,585 -19734,-44117 -39218,-88477 -58954,-132669 -2240,-2907 2072,-3320 3482,-4317 24046,42787 47429,85907 71477,128860l0 165zm5721 4309c3317,995 9448,2407 7629,7384 -2492,11688 -17085,16582 -27777,13097 -4062,-1987 -1410,-6964 -583,-10281 8198,176 15952,-3705 20731,-10366l0 165zm17829 29772c207,4431 -1591,8730 -4892,11688 -6464,4572 -15036,4796 -21729,580 -4147,-3232 -2490,-9036 -1660,-13347 6746,-979 13073,-3857 18242,-8291 3899,2405 9456,4062 10039,9371zm-130599 -136158c-4447,186 -8762,-1529 -11858,-4724 -1593,-2708 -3035,-5501 -4314,-8376 2240,-995 4562,-3229 6969,-2655 4559,2072 8294,6551 13350,6551 8062,98 16063,-1516 23466,-4724 1819,4147 3482,8294 5056,12768 -10754,1311 -21591,1777 -32422,1412l-247 -253zm-22559 -17657c-20809,9626 -43093,15680 -65915,17909 -26777,3274 -53823,3697 -80683,1242 -5142,-1660 -4892,-8294 -7544,-12190 4788,-2873 9951,-5075 15340,-6549 6631,-585 11108,5554 17247,6801 17944,2163 36146,492 53398,-4894 32254,-10320 63349,-23968 92788,-40713 -1809,5338 -1141,11209 1819,15999 2522,2657 5844,4405 9456,4982 -11773,6793 -23546,12105 -35656,17662l-250 -250zm-207295 9036c-20513,1676 -41133,1479 -61606,-583 -4564,-657 -5807,-6134 -9703,-7629 -2655,0 -4892,833 -7379,1248 5,-4487 2048,-8730 5554,-11525 6666,-4469 13925,-7985 21559,-10451 80931,-27948 160534,-59534 239140,-93198 -1660,4147 -3234,8294 -5142,12353l-33169 4312c2322,3484 4312,6966 6384,10618 -1436,2487 -2929,4974 -4477,7458 -48921,20064 -98752,38146 -149256,54560 -18071,6136 -36728,10283 -54805,16582 4658,2157 9815,3014 14925,2487 16340,-1561 32339,-5644 47429,-12105 28522,-10031 57465,-18074 86070,-27695 22303,-7626 43865,-17077 65423,-26120 0,1498 -992,2907 -1410,4564 3729,0 7216,0 10866,0l0 8294c3314,-833 6549,-1830 10110,-2657 418,3070 753,6139 1162,9209l8294 -3482c0,654 995,2072 1407,2899 -34906,15840 -71225,28357 -107375,40633 -26703,9610 -54395,19894 -83750,20476l-250 -247zm-141707 -29355c-6719,-1819 -13105,-5304 -19651,-7791 1822,-5721 3897,-11448 6134,-16585 2939,-4745 7950,-7820 13518,-8291 14430,-3902 29350,-4064 43777,-7546 30544,-7094 60686,-15813 90301,-26123 18462,-7240 36954,-14760 55473,-22551 21795,-8951 43104,-19021 63849,-30182 22386,-12526 44945,-24876 67333,-36989 3894,-2234 8288,-2820 12105,-4892 11855,-6128 23633,-12347 34909,-19066 7530,-5732 15489,-10895 23798,-15430 4527,-1859 9302,-3067 14177,-3559 -2530,6453 -3245,13480 -2072,20316 1490,4282 5780,6948 10281,6381 11693,0 22138,-6131 33166,-9198 3982,-1388 8328,718 9709,4703 229,646 364,1319 410,2006 1107,10999 -5910,21178 -16582,24051 -12677,3572 -24891,8610 -36404,15007 -15755,7796 -31759,14760 -48179,21141 -2072,-3482 -3482,-8291 -8291,-8291 -8113,-1216 -16082,2939 -19731,10283 -1577,3482 1075,6722 830,10036 -16005,6964 -31594,14590 -47182,21976 -47597,17247 -93616,38138 -140962,55635 -24357,9411 -49286,17273 -74627,23548 -21795,4173 -44136,4647 -66088,1410zm-56382 -33831c-15271,-82 -30461,-2147 -45195,-6139 -8908,-2014 -16827,-7094 -22391,-14337 20191,3155 40699,3713 61032,1657 22556,-3144 44761,-8389 66338,-15678 26604,-7360 52717,-16388 78186,-27030 18231,-7634 35398,-17577 51081,-29602 33169,6389 67745,1418 100582,-5719 16005,-3320 31759,-8294 47844,-11108 -45969,27296 -94448,50115 -144777,68158 -50775,18013 -103261,30791 -156637,38138 -11946,1641 -24022,2194 -36063,1660zm112682 -69405c19683,-7847 38250,-18244 55230,-30924 4112,2487 8626,4219 13347,5144 -17473,11472 -35856,21479 -54978,29927 -27581,12866 -56138,23506 -85407,31847 -17194,5086 -34917,8179 -52821,9201 -6724,332 -13459,-511 -19901,-2484 49373,-9826 97749,-24117 144529,-42710zm138970 -73874c35723,-13635 70560,-29475 104317,-47434 7485,-487 14997,447 22136,2734 -17590,14103 -37138,25556 -58042,34004 -25455,10938 -51573,20396 -77196,31004 -2423,777 -4650,2051 -6546,3735 23958,-5969 46926,-14763 70392,-22801 29932,-10701 60697,-21729 84992,-43285 31690,-1636 63024,-7434 93203,-17247 6086,-2016 12323,-3538 18657,-4559 -36284,26075 -74664,49094 -114762,68820 -47429,22301 -99505,32424 -150663,40215 -24046,3479 -51573,1245 -70227,-16002 28522,-8041 56215,-18494 83739,-29185zm160372 -86237c26320,-11307 53422,-20699 81090,-28107 15098,-4219 30969,-4838 46352,-1827 25261,5671 47870,19697 64181,39795 -19322,-11855 -37811,-27110 -60779,-31419 -21165,-2030 -42511,513 -62606,7458 -30094,8796 -59037,21726 -88557,32009 -12233,4514 -24910,7735 -37808,9621 18877,-10195 38276,-19388 58127,-27530zm177110 162106c2484,-2075 2484,-5554 3484,-8294 1657,-1248 3899,-1248 5554,-2072 2072,-2487 2902,-5972 5972,-7379 3070,-1410 6134,2234 8294,4309 2152,2072 0,6551 3067,8288 3067,1745 7794,3072 10036,6554 827,4317 -5064,4892 -6304,8294 -1165,4631 -3713,8791 -7296,11943 -9456,8291 -28525,3897 -29935,-9621 -1242,-5392 4064,-8461 7129,-11943l0 -80zm-31592 -2237c1415,-5166 4094,-9903 7796,-13765 11523,-11190 23883,-21473 36981,-30762 609,4913 1833,9733 3647,14340 -5964,5557 -11855,11278 -18239,16585 -8727,7067 -19119,11781 -30185,13683l0 -80zm-155219 43115l34741 -17250c5554,11278 11440,22389 16585,33669 1654,6964 -6139,8291 -10701,11278 -583,2075 -1404,4144 -1987,6381 -2242,-825 -4562,-1410 -6554,-2237 -3147,1575 -6216,3234 -9283,4482 -2628,410 -5219,-934 -6384,-3320 -5307,-10948 -10863,-21809 -16417,-32919l0 -85zm5966 28113c2075,4881 4631,9546 7626,13930 -10693,4727 -20729,10283 -31422,15013 -24078,11180 -49371,19529 -75374,24873 -7482,1037 -15076,1037 -22556,0 -3067,-583 -5139,-3237 -7629,-4729 5993,-2264 12111,-4179 18321,-5724 21152,-6381 42293,-12520 62774,-20731 16667,-6299 32254,-14510 48259,-22548l0 -82zm27692 -68990c-575,5966 -1575,11523 -2649,17247 -6966,3320 -13933,6381 -20899,9448 7961,-8373 15757,-17571 23548,-26615l0 -80zm1083 -4892c-4729,-827 -9701,-1490 -14430,-2245 11773,-5799 23878,-11110 35741,-16582 -6966,6389 -14180,12528 -21311,18907l0 -80zm27283 -1662c-2492,3735 -4729,7216 -6972,10866l9044 665 -7799 7379 8291 4309c-2734,1407 -5389,2817 -7791,4312 1822,2075 3644,4309 5474,6554 -2822,995 -5727,2234 -8294,3482 1827,2234 3647,4729 5719,7216 -2652,1407 -5554,2814 -8291,4306 -3234,-6793 -6964,-13185 -10281,-19484 -766,-1303 -1112,-2809 -992,-4314 0,-6219 992,-12350 1242,-18736 4312,-4892 8294,-10036 12933,-14592 -830,3562 -1827,7214 -2649,10946 3564,-753 7043,-1827 10366,-2907zm87642 -7126c-1245,4059 -577,9201 -4067,12270 -6610,6317 -13768,12033 -21386,17077 -21029,14930 -42814,28772 -65261,41457 -1657,-2897 -2899,-5716 -4312,-8288 4312,-3484 10698,-4892 12685,-10448 22639,-13345 44615,-27942 66336,-41460 5554,-4227 10863,-7126 16005,-10775l0 168zm1662 -29772c-1248,2907 -3322,5557 -4729,8291 -1410,2737 0,8294 -1000,11943 -1293,3913 -3937,7232 -7458,9371 -13901,9674 -28349,18542 -43282,26535 -9209,4889 -17832,10445 -27115,15005 -1415,-1516 -2907,-2958 -4477,-4309l9203 -6219c-1971,-1870 -4072,-3594 -6299,-5142l7129 -10283 -5557 -665c17175,-8057 33792,-17255 49751,-27522 3820,-2381 7163,-5450 9868,-9046 -1646,-1803 -4373,-2120 -6384,-745 -18077,9209 -36154,18244 -54233,27280 0,-1077 1080,-3312 1498,-4306 -3072,575 -6219,1410 -9291,2075 0,-4320 -583,-8876 -827,-13185 16582,-6551 31259,-16585 48256,-20731 15005,-2679 30395,-2168 45192,1492l-245 162zm54555 -41457c-3437,9600 -5913,19513 -7376,29602 -5530,3051 -10749,6642 -15595,10696 -7373,7379 -12682,17409 -22383,22553 -3508,2014 -7982,830 -10036,-2649 13656,-24016 32597,-44604 55390,-60202zm-121888 4144c-5719,1657 -12358,4314 -17824,992 -5479,-3309 -2075,-10445 0,-15002 5182,-11611 13401,-21612 23793,-28940 7876,-6769 16404,-12738 25458,-17829 7129,-1572 14478,-1915 21721,-989 6607,583 12994,2679 18657,6126 3155,1412 8294,2910 7216,7219 -1077,4314 -6551,6136 -9616,9621 -5573,6192 -11924,11626 -18912,16170 -16092,9094 -32996,16672 -50493,22633zm40630 -3899c13733,-15260 29395,-28671 46599,-39877 9451,0 15999,7631 24461,10696 4575,4900 8812,10116 12688,15590 -22389,9863 -37148,31669 -59702,41460 -10813,3224 -21926,5333 -33166,6299 18657,-14925 37976,-29099 55805,-44939 2905,-2415 5466,-5200 7623,-8294 -5328,-128 -10517,1702 -14592,5142 -12768,8291 -22553,20731 -35071,29764 -5554,4067 -10946,8788 -16585,13103 2405,-10225 6437,-19992 11940,-28943zm-134664 82920c4729,-2548 9605,-4814 14595,-6801 0,5807 0,11281 580,17087 -5304,-3067 -10031,-6801 -15175,-10286zm26703 11283c-6384,8291 -12938,15840 -19484,23798 -3482,-2987 -7137,-5756 -10948,-8294 10113,-5642 20396,-10533 30432,-15505zm-51906 40875c1575,-2484 3482,-5142 5056,-7799 -4067,-654 -8294,-1075 -12273,-1490 2652,-1822 5309,-3894 7794,-5884 -3314,-2075 -6549,-4147 -9616,-6384 6966,0 13930,-1077 20894,-1410 4727,4479 10031,8294 14595,12850 3897,6796 6799,14010 10445,20973 -3237,1830 -6384,3905 -9456,5729 -825,-3072 -1407,-6142 -2237,-9211 -2484,1830 -4727,3655 -7208,5727 0,-2820 -1000,-5727 -1412,-8294 -2905,1077 -5724,2237 -8291,3484 0,-3072 1160,-6139 1822,-9453 -3402,335 -6631,747 -10113,1160zm85319 67413c-1035,1354 -2609,2202 -4306,2325 -7589,1378 -15414,572 -22559,-2325 5724,-2902 11693,-5386 17664,-8294 793,4562 4588,7977 9201,8294zm-12520 -21061c-5889,-4892 -1990,-14510 4314,-16585 6299,-2072 14015,-412 15010,6386 -5,6820 -5541,12353 -12363,12353 -2484,0 -4908,-755 -6961,-2155zm70482 -31347c-14510,9791 -29764,18412 -45195,26868 1431,-4908 511,-10203 -2484,-14340 -2463,-2804 -5977,-4453 -9701,-4562 3389,-2250 6626,-4719 9701,-7384 8871,-5716 17915,-11110 27113,-16582 19737,-13515 38228,-29514 59707,-40383 9847,-4341 20308,-7142 31009,-8291 -4059,7341 -8929,14217 -14510,20487 -17561,15925 -36146,30695 -55640,44187zm-42287 33166l43697 -30512c7214,-5801 13765,-11935 20894,-17659 -1774,6464 -3878,12829 -6299,19069 -14012,12520 -28940,24048 -44197,35494 -4131,2655 -8520,4876 -13103,6631 0,-4309 3735,-9451 -992,-12930l0 -93zm170314 -82918c-5886,8291 -6301,18744 -12520,26535 -1162,1248 -3897,2820 -5139,585 -2202,-5652 -2381,-11898 -500,-17664 923,-5884 3415,-11416 7211,-15999 5096,-2663 10938,-3538 16585,-2492 3860,3109 6477,7490 7379,12355 2649,9921 88,20503 -6796,28107 -4479,4147 -13103,5977 -16585,0 6964,0 9036,-8291 10616,-13757 1769,-5775 1681,-11954 -250,-17670zm-12685 -145521c8254,13230 11648,28908 9616,44365 -1987,4309 -8291,4059 -10613,7791 638,12044 2327,24003 5059,35741 1623,8586 6573,16180 13765,21146 9562,4176 20152,5448 30432,3644 6477,-423 12911,-1362 19234,-2820 7799,-3732 9456,-14180 17662,-17247 3902,-1240 5977,3649 6964,6551 1593,5408 -356,11235 -4892,14600 -6112,4259 -13119,7094 -20479,8288 -13382,5315 -27738,7743 -42122,7129 -11212,210 -21803,-5086 -28357,-14180 -3359,-6453 -6134,-13198 -8294,-20146 -4344,-11310 -5261,-23655 -2652,-35491 2652,-9863 7376,-20146 4727,-30592 -3564,-10544 -11214,-19210 -21226,-24051 -6307,-3059 -12236,-6844 -17664,-11283 -13879,-11746 -31568,-18029 -49754,-17657 -24873,992 -48836,9206 -72882,15840 -19497,6950 -40082,10355 -60782,10031 -6711,-380 -13305,-1928 -19489,-4556 17502,-10203 37813,-12690 56888,-18659 24046,-8291 47179,-19654 72222,-24876 15584,-4437 32095,-4437 47676,0 6456,2724 12693,5937 18657,9621 11943,6631 24876,12347 36566,19322 7775,4325 14510,10289 19739,17489zm69980 68993c835,-1410 2072,-2899 2910,-4317 10028,8794 20061,17417 30177,26041 0,665 -1662,2325 -2072,3152 -10445,-8294 -20561,-16837 -31015,-24876zm33669 -36401c8876,9701 17659,19322 26700,28935 -8900,8259 -17212,17125 -24876,26533 -1000,1825 -2902,0 -3897,-825 -8876,-8873 -17502,-17659 -26458,-26533 7892,-10813 17532,-20229 28530,-27868l0 -242zm7791 -5142c8294,9863 16587,19566 24878,29355l-4727 3724c-8294,-9866 -17244,-19484 -25708,-29597 1912,-971 3774,-2048 5557,-3240l0 -242zm11693 -6136c6386,10283 12935,20316 19157,30600l-4147 3059c-6966,-10273 -14595,-20146 -21311,-30339 2072,-835 4312,-2075 6301,-3070l0 -250zm80931 5554c1825,4729 3647,9621 5721,14350 -19348,7405 -37380,17880 -53400,31001 -3234,-3891 -6719,-7788 -10033,-11517 17255,-14302 36749,-25655 57712,-33584l0 -250zm-70647 -101244c-7315,-4767 -13757,-10738 -19069,-17659 17029,9344 33355,19928 48836,31677 -5479,-10172 -10142,-20766 -13930,-31677 6136,6629 12108,13183 18242,19566 3484,3237 3732,8294 5721,12523 2072,2817 4974,4889 6799,7791 1742,5870 3176,11815 4312,17829 -15672,-14095 -31177,-30097 -50911,-39806l0 -245zm-36569 -9618c-19029,-15428 -36002,-33233 -50498,-52983 0,-2657 0,-5309 830,-8294l4312 -830c3203,8871 7642,17244 13185,24873 9892,13260 22216,24511 36318,33169 9456,5724 18242,11855 27942,16585 11834,6378 22181,15199 30350,25868 1410,6142 2487,12278 3732,18497 -14427,-25458 -41710,-40303 -66171,-56885zm19731 25708c-13869,-11962 -28770,-22668 -44527,-32009 -4421,-2585 -9280,-4328 -14342,-5142 -9286,-827 -18739,-1827 -27942,-1827 -7176,314 -13850,3772 -18247,9456 -6006,-7482 -8969,-16960 -8291,-26533 561,-5320 3647,-10044 8291,-12688 8607,-5884 19247,-7982 29440,-5801 19901,29764 49177,51741 77943,72052l-2325 2492zm-28687 -4729c-9054,-1075 -18196,1037 -25873,5969 -4737,4008 -8605,8948 -11358,14512 -1021,-12496 7767,-23665 20154,-25623 8783,0 17659,0 26442,0 -2647,2487 -5301,6134 -9366,5142zm-56052 9206c-4322,2285 -9129,3508 -14012,3564 -11360,1633 -22734,-2841 -29932,-11778 14164,2303 28690,8 41460,-6546 7836,-3870 16223,-6503 24876,-7799 5615,-1146 11390,-1338 17077,-575 -5307,1819 -10693,3232 -15834,5554 -8459,5033 -16380,10924 -23633,17579zm22138 -164433c2123,-2700 5011,-4695 8291,-5719 2075,2905 5142,5392 5554,9036 2245,13518 4482,27115 6807,40636l-13023 0c-3149,-9453 -6219,-19074 -9283,-28530 -1963,-5102 -1351,-10842 1654,-15422zm29605 -2814c1825,15587 2649,31422 3897,47014 -1194,80 -2381,80 -3562,0 -2657,-14760 -4897,-29602 -7389,-44362 2492,-1245 4732,-1825 7054,-2652zm4639 -24048c2413,-1660 5721,-1051 7384,1365 513,753 825,1625 907,2532 -912,2827 -3958,4378 -6785,3463 -1016,-335 -1918,-963 -2580,-1806 -1242,-1817 -771,-4290 1045,-5527 8,-11 21,-16 29,-27zm11110 23301l7216 1907c-2237,14925 -4724,29935 -7216,44689l-4309 0c1218,-15366 2514,-30871 3897,-46514l412 -82zm16585 6799c0,-3649 3484,-6136 5559,-9038 3000,1000 5687,2774 7794,5139 3234,4628 3995,10536 2072,15837 -3067,9621 -6136,19239 -9286,28693l-13020 0c1987,-13435 4477,-27033 6716,-40550l165 -80zm-56465 51493l0 -5721c20981,0 41460,0 62604,0l0 5884 -62604 -162zm32504 33166l-7214 5142 -3070 -4564c1662,-1572 3070,-3232 4729,-5056 1662,1577 3479,3070 5392,4479l162 0zm98675 -22389c-3990,8440 -11228,14901 -20069,17909 -16002,0 -32007,0 -48091,-662 -16085,-665 -33172,-3479 -49756,-4892 -410,4727 -825,9203 -1237,13933 3482,3809 6777,7794 9860,11940 5554,-4314 10536,-9044 16585,-12940 12690,-1237 25458,-1902 38396,-2899 16582,-580 34244,-830 51328,-1660 -4727,2490 -8873,6801 -14430,6969 -13103,1075 -26203,2317 -39553,3317 8294,4889 16170,10028 24378,15005 1907,5972 3897,11855 5804,17829 -12933,-9038 -24873,-19069 -37976,-28360 -4727,-583 -9703,0 -14430,0 9272,5487 18013,11818 26123,18909 5296,7333 9775,15233 13350,23548 -17731,-10967 -34821,-22958 -51161,-35904 0,662 -995,2072 -1415,2899l12276 18659c-8788,-5972 -17832,-11446 -26618,-17667 -6727,-6171 -12337,-13467 -16585,-21559 -2899,-6714 -4729,-13760 -7214,-20481l3732 -4554c41545,80 84080,6464 126535,660l168 0zm18492 162606c1075,2072 2069,3897 3067,5969 -2240,995 -4479,1819 -6551,2820 830,-3152 2072,-5892 3317,-8788l168 0zm-33172 -114512l-662 6716c-8291,-6966 -16582,-13930 -25455,-21144 4727,0 9453,0 14177,0 4644,4309 7796,10195 11940,14427zm3897 -1242c-4141,-4564 -7461,-9709 -11358,-14430 3282,-332 6583,-332 9866,0 7216,4312 14180,9451 21394,13933 3218,2652 6900,4679 10866,5969 9036,1822 18074,3479 27113,5142 -7123,4737 -15962,6155 -24213,3899 -11924,-3011 -23290,-7911 -33667,-14512zm21976 29514c-4562,-4721 -9288,-9201 -14015,-13927 -1822,-1495 -1410,-4147 -2072,-6384 5142,2237 10698,3727 15672,6134 5075,4663 9858,9621 14345,14840 8294,14765 17250,29355 24876,44117 -12603,-14763 -24293,-31015 -38806,-44780zm11028 39638c-1221,-4397 -1841,-8948 -1825,-13515 5607,8033 9759,16984 12273,26445 622,11613 1865,23186 3732,34669 -2655,825 -5307,1490 -7796,2317 -2189,-4352 -4982,-8368 -8291,-11938 -1822,-1822 -1660,-4562 -2072,-6801 -580,-7379 -1410,-14763 -2072,-22138 3897,4892 7461,10031 11358,15013 -1285,-7985 -3051,-15872 -5307,-23639l0 -412zm26285 45354l-8294 1410c-1242,-8294 -1904,-16587 -3729,-25450 290,277 630,500 995,662 2072,3484 4727,6793 6631,10275 1910,3482 2987,9209 4397,13518l0 -415zm-26285 -63426c-2056,-2782 -4618,-5144 -7546,-6972 149,-1867 431,-3727 830,-5554 3285,1803 6118,4325 8291,7381 13518,21971 27445,43694 40798,66336l-9618 1240c-10616,-20729 -20646,-41875 -32754,-62021l0 -410zm-35324 -8296c-6136,-13185 -9621,-27527 -15175,-40880 500,74 995,74 1492,0 11031,10281 22553,20066 33169,30347 4147,12355 7629,24876 10860,37396 -9201,-9121 -20479,-17159 -30347,-26533l0 -330zm-4477 51493c-3184,-9432 -5107,-19247 -5721,-29190 2032,1870 3937,3860 5721,5966 1407,5809 1657,11531 3067,17247 1410,5729 5721,8294 5307,13768 1511,12486 -928,25128 -6966,36156 0,-7626 0,-15175 0,-22803 939,-6961 458,-14039 -1407,-20809l0 -335zm6551 -18494c5554,6801 10031,14592 15172,21567 -811,-12778 -3008,-25429 -6549,-37736 4309,3905 8288,8294 12105,12526 1077,11443 1660,22716 2652,34076 168,6698 -928,13369 -3234,19654 -2609,1442 -5394,2556 -8291,3320 -1899,-18090 -5886,-35901 -11855,-53073l0 -332zm98340 58045c-20553,436 -40912,4048 -60364,10696 -2072,-4727 -3897,-9451 -5721,-14427 21386,-7216 43764,-11079 66336,-11446 -82,4892 -82,10033 -250,15177zm-52571 32259c-1660,-4314 -3234,-8291 -4892,-13188 18657,-6511 38276,-9850 58042,-9866l0 13768c-18077,476 -35986,3610 -53150,9286zm7381 20066c-1577,-3905 -3070,-8294 -4477,-12105 16108,-5158 32842,-8113 49748,-8794l0 13103c-15414,149 -30703,2785 -45272,7796zm-50913 42122c830,-2072 3152,-3067 4559,-4729 25514,-22107 57962,-34598 91711,-35321 0,5134 0,10278 0,15417 -31858,838 -62301,13313 -85575,35079 -3647,-3482 -7293,-6801 -10696,-10445zm-46352 101819c1468,-35938 15731,-70163 40218,-96515 3897,3484 7214,7214 11110,10860 -22075,23205 -34927,53653 -36154,85655l-15175 0zm40463 105061c-24567,-26277 -38920,-60489 -40463,-96435l15175 0c1343,31948 14177,62330 36154,85572 -3735,3899 -7381,7216 -10866,10863zm-38226 -12935c3484,-2075 7216,-4062 10866,-5972 8424,12845 18266,24695 29352,35326 -2572,3314 -5341,6466 -8294,9451 -12411,-11368 -23157,-24429 -31924,-38806zm-7214 4144c9092,15491 20532,29488 33917,41460l-8294 10863c-14635,-13018 -27296,-28102 -37561,-44774 3732,-2655 7876,-5142 11938,-7549zm-22966 -56882c3772,17399 10054,34164 18657,49754 -4064,2237 -8294,4642 -12108,7129 -9344,-17119 -16114,-35539 -20066,-54643 4309,-827 9038,-1577 13518,-2240zm-15177 -64673c4479,992 9036,2069 13768,2897 -2780,17670 -2780,35654 0,53321 -4559,665 -9041,1242 -13597,2075 -3006,-19311 -3054,-38968 -170,-58292zm18244 -73884l-12933 -8291c11302,-19154 25578,-36390 42287,-51078 3482,3649 6799,7546 10281,11438 -15680,13768 -29065,29945 -39635,47932zm54228 -29597c-12818,11626 -23979,24966 -33166,39627 -4511,-1333 -8788,-3341 -12685,-5964 10307,-16627 23019,-31640 37726,-44532 1992,3735 4809,7219 7714,10868l412 0zm6551 -5724c-3067,-3482 -5969,-7219 -8788,-10860 15366,-11970 32371,-21660 50498,-28780l4889 12943c-16856,6812 -32677,15936 -47011,27110l412 -412zm5557 6381c13507,-10153 28283,-18521 43947,-24876 1410,4144 2817,8291 4309,12355 -14366,5934 -27892,13741 -40213,23216 -3152,-3974 -5807,-7206 -8044,-10696zm-39056 44365c8740,-14414 19675,-27371 32422,-38388 2652,3067 5392,6128 7796,9448 -11246,10488 -21106,22357 -29355,35321 -3814,-2484 -7296,-4559 -11031,-6964l168 583zm-21559 54643c3258,-16460 9105,-32299 17329,-46934l10613 5889c-7057,13653 -12347,28139 -15752,43117 -4147,-912 -8211,-1740 -12358,-2322l168 250zm12105 64423c3474,15265 8858,30030 16005,43952l-10863 5972c-7943,-14778 -13757,-30605 -17247,-47014 3979,-1080 7876,-2155 11940,-3152l165 242zm-20726 -66336c-4477,-652 -9044,-1234 -13523,-2072 3796,-19199 10565,-37691 20072,-54802l12105 7376c-8687,15483 -15026,32164 -18822,49498l168 0zm7206 10041c4070,827 8299,1410 12278,2237 -1825,15287 -1825,30733 0,46019 -4312,833 -8294,1407 -12520,2072 -2710,-16664 -2679,-33669 80,-50328l162 0zm-41460 -75542l8294 -2655c-1904,3894 -3897,8294 -6219,11863 269,-3213 -455,-6418 -2075,-9209zm-3226 59119c4211,-21976 11964,-43117 22971,-62598 4306,2647 8291,5139 12933,8291 -9648,17901 -16518,37170 -20399,57127 -5474,-995 -10618,-1992 -15505,-2820zm-10283 -11690c-1120,2979 -1950,6067 -2490,9206 601,2939 1721,5751 3320,8294 -2804,17231 -3588,34738 -2322,52153 -7381,-3729 -9624,-12768 -15590,-18321l-4479 825c-830,-4062 1412,-8291 1000,-12268 -418,-3985 -7384,-3320 -9044,-7214 -1242,-2495 -3232,-5144 -2649,-8291 1918,-4368 5543,-7759 10033,-9371 5386,0 8291,6131 12933,7379 2902,-1490 5389,-5392 3482,-8294 -2817,-4892 0,-10033 0,-15175 1149,-8251 1149,-16624 0,-24876 -745,-2484 -5309,-5142 -6549,-1822 -2301,9483 -2583,19338 -833,28935 -412,2921 -1367,5732 -2814,8291 -4314,-1490 -4977,-6543 -7796,-9451 -2820,-2899 -4147,-3732 -4312,-6551 1521,-4139 3298,-8177 5309,-12108 -6386,-4062 -2075,-12930 2240,-16582 4309,-1902 9445,0 14175,0 7379,1248 8294,-10031 16585,-8291 130,3596 -202,7190 -995,10696 -2261,5370 -5035,10512 -8291,15345 -846,5791 -1149,11642 -912,17492zm23796 84327c-5142,662 -10036,1500 -15002,2072 -1894,-11116 -2835,-22381 -2820,-33659 362,-10868 1450,-21702 3229,-32424 4971,585 10113,1412 15175,2075 -2971,20524 -3168,41362 -583,61936zm139638 -446930c2189,-1569 4551,-2881 7049,-3899 6168,-4900 11318,-10951 15175,-17829 22551,0 45107,583 67745,583 3141,5711 7304,10794 12270,15010 638,-51 1269,-51 1907,0 25208,12089 51094,22724 77529,31839 -8068,-1157 -16061,-2734 -23963,-4724 -13597,-6554 -27113,-13520 -40628,-20149 -3777,-2272 -7855,-4001 -12108,-5144 886,1689 2131,3157 3647,4314 17845,14257 38766,24139 61112,28852 -15656,1516 -31451,-1112 -45769,-7629 4293,10286 11682,18978 21141,24876l-20314 1245c9038,6136 18492,11528 27695,17497 -8392,9030 -19370,15252 -31424,17829 -10467,2830 -21189,4551 -32007,5142 5139,12270 19899,14592 31589,14342 -9874,13518 -18614,27831 -26118,42787 -2032,5320 -4354,10525 -6964,15587 -5458,10315 -9520,21298 -12108,32672 -12728,-912 -25498,-912 -38226,0l-580 0c-3458,-12682 -8302,-24942 -14427,-36569 -8443,-18705 -18750,-36510 -30765,-53150 7943,218 15829,-1484 22971,-4977 3580,-2264 6323,-5647 7794,-9618 -12829,-1003 -25533,-3133 -37978,-6384 -9403,-3660 -17885,-9315 -24876,-16582 8291,-5554 17497,-10948 26120,-16585 0,0 0,-585 0,-827 -6551,-583 -12938,-830 -19489,-1412 9903,-5652 17680,-14390 22144,-24873 -14382,6509 -30225,9139 -45939,7626 19577,-4445 38018,-12917 54145,-24876 1609,-1035 3011,-2359 4147,-3899 -14757,5721 -28357,13930 -42952,20319 -8044,1857 -16186,3296 -24378,4309 22803,-7131 45099,-15773 66751,-25873l82 170zm-4312 -15180c-1535,1955 -3381,3636 -5471,4979 -10698,7549 -21811,14760 -33169,21724 -3149,1551 -6602,2405 -10116,2487 15449,-11004 31725,-20819 48674,-29355l82 165zm-25455 -15002c56138,-16694 115919,-16694 172057,0 -4918,327 -9852,327 -14760,0l-126865 0c-10116,80 -20399,989 -30517,-165l85 165zm-5307 -58045c1242,-2820 2652,-5972 3729,-9038 -3317,662 -3729,4309 -5139,6801 -3665,-8876 -8137,-17393 -13353,-25461 0,-3314 2490,-5966 2905,-9203 -1657,2242 -3149,4479 -4727,6716 -6434,-9280 -11493,-19449 -15010,-30179 1245,-3652 2487,-7381 3484,-11031 -3317,1407 -3317,5551 -4894,8294 -5961,-13265 -8655,-27770 -7876,-42293 1285,1561 2471,3192 3567,4894 2817,-2822 -1492,-5142 -2905,-7379 1700,-9193 5788,-17768 11858,-24878 2381,2740 4519,5682 6384,8791 -830,2319 -1822,4559 -2652,6631 1410,-2487 3070,-4974 4562,-7379 -2322,-3317 -4727,-6384 -7216,-9451 7288,-6908 15707,-12515 24878,-16585 -1162,1990 -2405,4312 -3649,6301 3482,-2817 5554,-7544 10033,-9038 9866,-3234 19734,-6716 29602,-9368 0,1575 830,3482 1242,5059l2820 -747c-199,-1875 -529,-3732 -992,-5557 4477,-1245 9036,-2902 13515,-3732 1492,5392 2902,10448 4309,15840 7549,-1859 15225,-3112 22968,-3735 0,-4892 0,-10031 0,-14925 3469,-1724 6652,-3963 9456,-6634 -11129,-1665 -19008,-11765 -17912,-22968 1378,-8099 6924,-14877 14595,-17824l-5309 0c3583,-8243 6203,-16869 7796,-25708 173,-1825 -1162,-3447 -2976,-3623 -450,-48 -904,0 -1346,141 -6251,1716 -12254,4277 -17819,7629l0 -28028c5381,3830 11427,6642 17819,8291 1694,614 3543,-247 4157,-1931 181,-489 239,-1027 165,-1548 -1229,-6378 -3567,-12499 -6884,-18077l24213 0c-3426,5596 -5780,11781 -6964,18242 -317,1849 928,3607 2777,3921 431,77 862,66 1285,-24 6445,-1742 12555,-4554 18077,-8294l0 26950c-5674,-3439 -11815,-6011 -18242,-7629 -2655,-830 -4562,2240 -3735,4727 1835,8357 4397,16542 7631,24461 -1851,125 -3708,125 -5557,0 8134,3187 13824,10632 14760,19322 458,10860 -7331,20332 -18077,21971 3051,2439 6301,4628 9703,6551 0,4894 0,9868 0,14760 7536,598 15007,1907 22303,3899 2072,-5309 3152,-10866 4974,-16587 4479,1245 8791,2655 13353,3649 0,1907 -830,3897 -1080,5807l2902 745c415,-1825 830,-3482 1245,-5059 9866,2655 19484,6136 29187,9371 4642,1245 6716,5972 10198,8871 -830,-1407 -2405,-4559 -3482,-6134 9171,4080 17587,9682 24876,16582 -2487,3070 -4727,6136 -7214,9453l4312 7379c-878,-2075 -1625,-4211 -2237,-6384 1607,-3248 3522,-6325 5721,-9203 6392,6948 10677,15579 12353,24876 -1492,1660 -2902,3479 -4309,5142l1407 2072c1245,-1662 2240,-3317 3482,-4977 697,14590 -1974,29145 -7794,42537 -995,-2649 -2240,-5139 -3317,-7629l-1822 0c1492,3482 2487,6804 3729,10283 -3474,10834 -8592,21072 -15175,30347 -1492,-2234 -2899,-4471 -4559,-6711 654,3120 1684,6158 3067,9033 -5506,7895 -9991,16446 -13347,25458 -1210,-1827 -2240,-3769 -3070,-5801 -723,-274 -1476,-468 -2240,-583 1245,2820 2487,5972 3649,8788 -1450,6881 -5972,12717 -12273,15837 -1242,4479 -1410,9203 -2240,13768 1404,636 2843,1189 4314,1654 48,6871 1133,13696 3234,20231 -27126,-6980 -54927,-11041 -82920,-12103 -28674,1083 -57156,5139 -84992,12103 1891,-6126 2870,-12494 2902,-18904l4312 -1825c-665,-4727 -1245,-9448 -2240,-14177 -6631,-2718 -11337,-8743 -12353,-15837l82 0zm173299 82170c10201,6304 20481,12938 30517,19654 -4048,290 -8078,-790 -11446,-3070 -12337,-7815 -24195,-16369 -35489,-25620 5687,2556 11153,5578 16335,9036l82 0zm110035 63186c1822,-1410 3647,-2902 5721,-4312l3647 4889 -3067 4564c-2075,-1825 -4397,-3479 -6384,-5142l82 0zm28690 -23216c1242,1657 2487,3064 3732,4556 -2197,7325 -4812,14523 -7796,21559 -4594,7921 -10347,15106 -17082,21311 -8291,5557 -17247,10448 -24876,16585 3484,-6384 8294,-12270 11861,-18657 -814,-769 -1569,-1599 -2242,-2484 -6647,6083 -13778,11626 -21309,16582 -9703,6386 -19322,12935 -29020,19239 3298,-8669 7940,-16755 13762,-23968 6799,-8288 16585,-11688 24463,-18324 -4365,-372 -8743,-372 -13103,0 -12938,9453 -25458,19154 -38226,28775 2072,-5972 3897,-12108 5972,-18242 7794,-4979 15752,-9701 23381,-15010 -13100,-995 -26035,-2242 -39220,-3317 -5142,0 -9038,-4312 -13100,-6716 29767,583 59952,1407 89716,4479 5309,4147 10198,8288 15342,12768 3482,-4147 6634,-8294 10116,-12105 -415,-4559 -830,-9288 -1492,-13768 -16585,1660 -33169,3487 -50251,4897 -17079,1407 -31674,662 -47429,662 -9211,-2732 -16843,-9238 -20979,-17909 42122,5719 84992,-665 127780,-912zm-59372 -70153c2506,1785 4503,4181 5807,6966 2655,14180 5059,28275 7794,42458l-13183 0c-3070,-9453 -6551,-19074 -9621,-28530 -3008,-8232 912,-17393 8956,-20894l247 0zm62439 54560l0 5721 -61777 0c0,-1819 0,-3894 0,-5721 20234,0 40965,-165 61529,0l247 0zm-39633 -52568c1657,15672 3067,31257 4477,46849l-3649 0c-2902,-14763 -5307,-29767 -7796,-44530 2075,-1077 4479,-1654 6719,-2319l250 0zm-4894 -38143l0 -10036 9783 1995c-747,-3070 -1822,-6142 -2652,-9209l11525 0c-665,3067 -1410,6139 -2072,9209 3067,-585 6134,-1412 9286,-1995l0 9371c-3317,0 -6799,-992 -10116,-1410 1080,3314 1907,6804 2902,10033l-11525 -583c830,-3312 1904,-6384 2652,-9451 -3482,830 -6799,1410 -9783,2075zm16585 19896c-1303,2317 -4237,3141 -6551,1841 -1170,-654 -2008,-1774 -2322,-3080 -332,-1891 705,-3761 2487,-4479 2224,-1186 4985,-351 6179,1867 638,1192 713,2601 207,3852zm3814 19574l6549 2237c-2237,14763 -4724,29767 -7214,44524l-3149 0c1160,-16026 2460,-31837 3897,-47424l-82 662zm16002 6134c580,-3647 3647,-6134 5557,-9036 8408,3179 12752,12488 9786,20973 -3070,9621 -6551,19242 -9621,28690l-12935 0c2322,-14177 5059,-27775 7296,-41293l-82 665zm16585 69403l4312 830 0 8294c-10805,15358 -23269,29482 -37148,42122 -16585,15172 -36569,24873 -53565,38811 -10206,8312 -18657,18574 -24876,30177 1162,-6219 1410,-12518 3067,-18739 9719,-11983 21982,-21638 35904,-28275 8791,-5389 17664,-11113 26453,-16585 8248,-5237 15728,-11597 22224,-18904 7171,-7301 13135,-15696 17662,-24878 1740,-5142 3812,-9203 5884,-13515l85 662zm36898 16585c5357,2407 9262,7206 10533,12938 1357,9961 -1394,20050 -7631,27942 -2636,-3147 -5910,-5695 -9618,-7466 -8076,-2373 -16616,-2772 -24876,-1154 -7514,-221 -14991,1104 -21974,3897 -17329,9302 -33475,20668 -48091,33831l-3234 -1660c17130,-12366 33573,-25647 49254,-39803 10331,-9932 19742,-20787 28107,-32424 9272,-2192 19013,-952 27448,3490l82 410zm-18657 58042c13749,7653 29629,10571 45189,8294 -9451,12773 -27695,14180 -41457,9451 -7379,-4309 -13103,-10858 -20066,-15587 -6732,-4072 -14063,-7070 -21726,-8868 13020,-902 26062,1399 37978,6711l82 0zm-29767 12773c-8788,-4942 -18971,-6812 -28940,-5309 -2072,-1654 -4312,-3317 -6384,-5142 9038,0 18074,-830 27115,0 12188,2181 20920,12999 20479,25376 -3115,-5695 -7278,-10757 -12270,-14925zm-121478 24293c1412,-5972 2655,-12108 4314,-17912 2237,-3482 5721,-5969 7129,-9613 1410,-3649 1827,-8296 5142,-11113l18492 -19077c-4229,10794 -9155,21293 -14760,31430 8291,-5554 16585,-11938 25623,-17492l24046 -14348c-5025,6990 -11400,12911 -18739,17414 -19984,8788 -35571,25038 -51328,40048l82 662zm14927 10866c-1726,6190 -3774,12276 -6136,18236 0,12526 580,24876 0,37151 -2389,-3117 -4014,-6751 -4727,-10616 -1875,-9605 -2431,-19428 -1660,-29185 1080,-4314 4562,-7629 5392,-11943 827,-4306 1567,-10195 2405,-15334 2072,-2075 4312,-3897 6634,-5809 -332,5554 -1327,11110 -1990,16837l82 662zm23216 83912c-3482,3899 -6799,7794 -10283,11525 -15853,-13241 -33821,-23718 -53150,-31012 1827,-4729 3897,-9621 5724,-14342 20936,7740 40415,18957 57627,33166l82 662zm19072 -39141c2314,817 4586,1766 6801,2817 -6801,10698 -15425,20319 -21561,31430l-4477 -3727c6466,-10698 13018,-20899 19154,-31185l82 665zm17494 9621c-8288,10033 -17659,19734 -26118,29937 -1591,-1620 -3317,-3123 -5139,-4479 3772,-3093 7089,-6690 9866,-10698 5554,-6136 10531,-12515 16002,-18494l5389 3735zm2655 1822c10863,7666 20449,17010 28357,27698 -10116,9701 -19734,19739 -29600,29357 -8102,-10203 -17098,-19659 -26868,-28278 9206,-8291 17000,-18085 25623,-26948 739,-891 1543,-1716 2405,-2487l82 657zm33166 35741c-10693,8294 -20976,16585 -31589,25458 -415,-995 -1080,-2655 -1492,-3490 9868,-9038 20149,-17659 30432,-26285l2649 4317zm-32254 185987c2777,-17606 2777,-35542 0,-53153 4562,-825 9041,-1904 13765,-2899 2753,19247 2753,38795 0,58045 -4724,-997 -9203,-1662 -13765,-2657l0 665zm-20314 58042c8847,-15494 15223,-32286 18907,-49751 4477,827 9036,1410 13762,2240 -4128,19064 -10903,37460 -20149,54645 -4312,-2655 -8376,-5062 -12520,-7549l0 415zm-4062 7214l12103 7134c-10073,16763 -22692,31866 -37396,44774l-8291 -10863c13151,-12113 24461,-26078 33584,-41460l0 415zm-18079 -10116c3649,1907 7131,3897 10866,5804 -8799,14539 -19729,27674 -32424,38973l-8291 -9451c11384,-10640 21410,-22639 29850,-35741l0 415zm-26698 -181845c24453,25987 38563,60029 39633,95690l-15007 0c-1293,-31581 -13824,-61654 -35324,-84825 3484,-4064 6966,-7626 10698,-11275l0 410zm-6386 -6551c-3482,3652 -7131,7387 -10860,10868 -23296,-21766 -53709,-34318 -85575,-35321l0 -15430c35962,612 70373,14691 96435,39470l0 412zm-46602 -53807c-1649,3950 -3083,8001 -4309,12108 -14661,-5049 -30025,-7679 -45524,-7799l0 -13515c16933,686 33690,3644 49834,8794l0 412zm7796 -20899c-1575,4317 -3234,8294 -5142,12940 -16938,-5663 -34635,-8786 -52488,-9291l0 -14177c19651,24 39146,3442 57630,10113l0 415zm49751 42455c-14302,-10983 -30033,-19971 -46767,-26698l4894 -12938c17960,7075 34840,16614 50166,28363 -2572,3641 -5474,7126 -8294,11273zm51908 38803c-4064,2325 -8294,4567 -12273,6642 -9387,-14941 -20803,-28506 -33914,-40303l8294 -10858c14949,12922 27918,27985 38473,44692l-580 -173zm-31842 -51733c3317,-3905 6799,-7549 10116,-11446 16808,14635 31145,31882 42455,51073l-12935 8294c-10390,-17896 -23575,-34026 -39056,-47759l-580 -162zm23631 66333c4147,-2325 8294,-4727 12108,-7214 9751,17018 16609,35539 20314,54802 -4477,838 -9036,1420 -13762,2072 -3367,-17399 -9461,-34169 -18077,-49661l-583 0zm-580 107796c1827,-15287 1827,-30738 0,-46027 4064,-825 8294,-1407 12273,-2234 2902,16648 2902,33677 0,50334 -3482,-503 -7629,-1327 -11693,-1910l-580 -162zm10863 10696c-3434,16449 -9302,32297 -17414,47017 -3562,-2075 -7214,-4147 -10693,-5977 7073,-13925 12363,-28687 15752,-43947 4727,1168 8791,2242 12938,3070l-583 -162zm-17247 -114182c7985,14614 13789,30318 17247,46599 -4147,827 -8291,1662 -12355,2245 -3407,-14989 -8698,-29475 -15752,-43120 4227,-1830 7708,-3905 11440,-5394l-580 -330zm-51078 -41460c-12430,-9440 -26035,-17247 -40465,-23216 1660,-4147 3070,-8294 4314,-12103 15779,6200 30629,14574 44112,24873 -1907,3652 -4727,6884 -7381,10778l-580 -332zm14345 -4559c12863,10996 24030,23822 33166,38058 -3482,2487 -7214,4562 -10860,6804 -8326,-13063 -18276,-25014 -29602,-35574l7296 -9288zm-41460 -77614c-1822,4729 -3897,9701 -5721,14427 -19526,-6565 -39933,-10169 -60532,-10696l0 -15177c22548,391 44894,4256 66253,11446zm-16582 -39630c-1080,8294 -2490,17247 -3484,25870 -2734,-583 -5389,-995 -8291,-1415 1660,-4479 2655,-9451 4559,-13760 1910,-4317 5307,-7131 7216,-10696zm13515 -43290c2296,-3543 5506,-6410 9286,-8288l0 5719c-2487,2234 -5804,3897 -7461,6801 -11443,20484 -21309,41460 -32174,62351 -3317,-583 -6551,-995 -9866,-1657 12850,-22056 26700,-43362 40133,-65341l82 415zm-2820 -12355c4477,-7320 10076,-13898 16585,-19484 4727,-2240 10033,-3897 14925,-5972 114,1713 114,3434 0,5147 -8873,8291 -17662,16582 -26285,25620 -9618,11520 -18904,23216 -28525,34736 7546,-13515 15590,-26857 23218,-40210l82 162zm36898 -34076c-11509,7528 -24429,12632 -37976,15005 -6849,710 -13725,-955 -19487,-4727 10586,-1508 21088,-3639 31427,-6384 9203,-5721 18074,-11855 27280,-17662 3317,-2237 7629,-830 11278,-1242 -3806,5267 -8028,10235 -12605,14840l82 170zm5972 7379c0,-2820 -1660,-6384 830,-8294 2974,-4264 6184,-8363 9618,-12268 4727,0 9453,0 14177,0l-24625 20561zm-34496 107793c1609,2647 3003,5416 4147,8291l-6799 -2484c686,-2056 1551,-4059 2569,-5969l82 162zm2490 -36981c0,8291 -1492,16007 -2072,24051 0,3891 -3735,6136 -5721,8783 -2008,2373 -3351,5240 -3897,8291 -2740,-827 -5392,-1490 -8294,-2072 1245,-11693 2072,-23213 2902,-34738 3176,-9286 7437,-18162 12685,-26453 -16,4540 -763,9054 -2237,13350 -2147,7881 -3641,15920 -4477,24046 4062,-5309 7544,-10448 11025,-15420l85 162zm-1660 -8294c3317,-11270 6966,-22631 10283,-33911 332,-1827 1266,-3490 2655,-4724 10860,-10036 21724,-20316 33166,-30187 -4064,13183 -8291,26120 -13100,39058 -665,2655 -3152,4064 -4977,5964 -10036,7307 -19072,15348 -28110,23559l82 242zm24878 63186c-2655,0 -3070,-3894 -2075,-5557 1990,412 2322,3735 2157,5304l-82 253zm3067 -57462c-5408,17404 -9296,35241 -11608,53315 -2487,-1077 -5142,-2072 -7796,-3067 -830,-5386 -2652,-10528 -3482,-15840 580,-12680 2240,-25450 3482,-38138 3897,-4147 7381,-8294 11525,-12520 -1492,5886 -3317,11693 -4312,17577 -995,5889 -1492,13597 -2072,20402 5139,-7387 9618,-14765 14345,-21979l-82 250zm-5142 347513c21386,-23274 33879,-53334 35324,-84907l15007 0c-1136,35630 -15223,69626 -39635,95605 -3647,-3894 -7129,-7384 -10613,-10943l-82 245zm-42287 71310c-16164,4854 -32887,7639 -49754,8291l0 -13097c15489,-98 30839,-2902 45357,-8291 1660,4147 3067,8538 4477,12853l-80 245zm-49754 -14592l0 -15010c31866,-1003 62279,-13552 85575,-35321 3729,3482 7379,7214 10860,10860 -26144,24620 -60529,38611 -96435,39220l0 250zm207963 -187641c-5142,825 -10118,1819 -15257,2897 -4014,-20106 -11004,-39500 -20731,-57542 4314,-2827 8294,-5312 12938,-8291 11001,19516 18779,40683 23051,62681l0 255zm-7631 -59125c-1649,3218 -2280,6863 -1822,10448 -2075,-4477 -3897,-8796 -6222,-13103l8044 2655zm-6134 69980c4892,-992 10031,-1657 15175,-2234 1466,9921 2436,19912 2899,29929 35,12113 -934,24205 -2899,36156 -4977,-583 -10033,-1407 -15010,-2072 2718,-20505 2671,-41282 -165,-61779zm26035 -59944c5721,2647 12688,-835 18409,1075 4312,4059 8871,12935 2319,16585 1827,4147 4064,7629 5474,11693 -580,4306 -5056,6381 -6716,10278 -1245,2072 -2487,6136 -5804,5139 -2048,-3099 -2820,-6871 -2155,-10525 1341,-8956 580,-18098 -2240,-26706 -2487,662 -5554,1498 -5972,4564 -1367,11055 -896,22263 1410,33169 665,3152 -1822,5969 -1990,9036 -165,3072 2820,6636 5969,4974 3152,-1660 6551,-6381 11031,-6964 4102,1548 7536,4479 9701,8291 1825,3320 -665,6804 -2322,9701 -1660,2907 -7379,3070 -8791,6964 -1407,3902 1827,7802 997,11693 -1825,838 -4064,-825 -5557,997 -5307,5142 -7546,13595 -14510,17077 1168,-17409 388,-34906 -2322,-52148 1657,-2511 2785,-5336 3317,-8291 -716,-3554 -1676,-7046 -2902,-10456 0,-3894 415,-8288 0,-11932 0,-5729 -4727,-9621 -6716,-14512 -2431,-5176 -3434,-10898 -2902,-16585 5886,-1580 8206,4639 12105,7458l165 -575zm38143 -835c2905,-2820 7381,-1819 10863,-995 3482,833 7214,1248 9286,4314 3192,5573 5275,11709 6136,18074 955,4626 463,9435 -1410,13765 -1492,1992 -4147,0 -5389,-1075 -5721,-7549 -6551,-17662 -11690,-25620 -2075,0 -1660,2234 -1825,3644 -242,8179 1684,16265 5554,23466 1420,2285 3865,3743 6551,3894 -2487,4479 -8291,4064 -12523,2405 -6341,-3237 -10586,-9488 -11273,-16582 -1859,-8650 173,-17686 5554,-24708l165 -583zm20149 -6299c2405,-4147 8294,-4147 11028,-7629 -48,-5189 3027,-9903 7794,-11943 3899,-1160 5972,3732 7464,6386 1492,2649 4314,1662 6301,3072 1992,1407 1080,6216 3484,8291 3152,3482 8873,6711 7214,12520 -2163,9464 -11595,15385 -21053,13222 -364,-90 -729,-181 -1088,-293 -7206,-1766 -12826,-7384 -14592,-14592 -995,-3399 -7794,-3562 -6716,-8291l165 -745zm14512 -99505c5804,-5884 9036,-14760 17497,-17659 5910,-4139 12635,-6964 19734,-8291 15263,10241 29485,21968 42455,34986 7961,9552 13350,20968 15670,33169 -5804,-4144 -10943,-8873 -16582,-13183 -12520,-8786 -22389,-20894 -34909,-29767 -4197,-3035 -9179,-4793 -14345,-5059 4136,5772 9219,10818 15007,14922 15587,13353 32172,25458 48011,38399 -10972,-1024 -21835,-3086 -32424,-6136 -22883,-9288 -37643,-31265 -60282,-41128l168 -253zm47844 -33169c4775,-4971 10930,-8405 17662,-9866 7421,-1314 14975,-1652 22471,-989 5166,753 10015,2931 14015,6299 10903,7208 21027,15547 30182,24878 6150,6339 10355,14305 12105,22963 1311,3764 -673,7876 -4429,9187 -98,35 -199,66 -301,98 -7288,561 -14600,-872 -21141,-4144 -16295,-5913 -32025,-13265 -47017,-21968 -8291,-5144 -13350,-14600 -22553,-18909 -2354,-1426 -3109,-4477 -1684,-6833 157,-250 325,-495 524,-716l165 0zm10283 106971c-2075,3508 -6594,4679 -10100,2615 -120,-64 -242,-138 -348,-207 -9286,-4902 -14345,-14512 -21561,-21979 -5147,-4219 -10703,-7911 -16582,-11028 -1237,-10025 -3625,-19883 -7131,-29357 22870,15470 41872,35981 55555,59957l168 0zm-33169 10445c-7049,-5554 -13597,-12103 -20399,-18074 1891,-4607 3203,-9424 3897,-14348 12704,9100 24777,19045 36154,29764 3947,4221 6799,9347 8291,14925 -10089,-2006 -19635,-6195 -27942,-12268zm80018 86562c12353,8294 24211,17502 36733,25713 14177,6964 29185,12930 43365,20314 -3192,1849 -6841,2772 -10531,2649 -5615,311 -11243,-452 -16585,-2234 -9036,-4144 -18489,-7799 -27527,-12355 -15837,-11693 -31592,-23801 -46187,-36904 -2362,-6275 -4413,-12664 -6134,-19149 8538,7764 17510,15047 26865,21803l0 162zm-673554 -373130c-2242,-3897 -4314,-8294 -6134,-12105 -830,-6554 0,-13355 -995,-19904 2402,-2072 4886,-3897 7379,-5801l1242 20976c258,7059 3224,13744 8294,18657 1575,1660 3647,3072 3234,5721 -4514,-2202 -8860,-4724 -13020,-7544zm-18657 -18489c830,-4900 995,-10451 5139,-13520 -583,8443 606,16922 3484,24876 1524,2585 2639,5378 3317,8294 -5389,-5392 -12765,-11193 -11940,-19649zm830 -17829c830,-7799 5309,-14427 6551,-21976 1242,-6219 1662,-12576 1242,-18901 2072,2652 3899,5554 5972,8291 0,-2737 0,-5389 0,-7881 997,1662 1990,3567 3070,5144 0,-2237 0,-4479 577,-6964 5807,1410 3902,9036 5972,13347 1950,-3285 2953,-7043 2902,-10863 0,0 830,0 1245,0 747,3317 992,6386 1575,9701 -8408,9419 -16140,19423 -23133,29940l0 -4482c-2085,1423 -4080,2974 -5972,4644zm-34496 -29602c-11110,1242 -22138,1407 -33166,2655 -5793,2476 -10669,6708 -13930,12105 -165,7966 1359,15882 4479,23216 -4062,-4724 -9616,-9201 -10451,-15752 -505,-4147 -165,-8347 997,-12358 4450,-4830 10214,-8262 16585,-9866 10118,-2075 20566,-2237 30850,-3897 8948,-3232 17574,-7214 26450,-10451 6134,-3245 12507,-6017 19066,-8291 5839,-186 11677,-51 17494,418 4314,0 7381,3647 10453,6136 5554,4309 4309,12103 4309,18242 -4953,7687 -10493,14981 -16582,21809 0,-1827 -665,-3737 -830,-5557 4833,-5727 9084,-11919 12682,-18489 710,-4147 710,-8379 0,-12523 -2444,-2285 -5243,-4163 -8288,-5557 -8538,-306 -17079,388 -25458,2075 -11871,4639 -23447,10012 -34661,16085zm1827 51743c665,1410 665,4144 -1410,4309 -2242,-2237 -4314,-4892 -6799,-6966 -120,1301 -120,2604 0,3899 5307,2902 5892,9203 6301,14592 1662,-2734 2075,-5969 4312,-8294 285,4865 -53,9738 -995,14512 -2072,11528 -13930,19322 -13103,31427 -80,4532 827,9036 2655,13185 -7179,-2482 -11757,-9517 -11116,-17082 -575,-4312 3899,-6969 3490,-11278 -2926,2176 -5471,4806 -7546,7799 -325,5522 -325,11055 0,16585 -5211,-3785 -7573,-10360 -5974,-16585 3902,-10283 12273,-18329 15175,-29193 1665,-5253 146,-11004 -3894,-14760 543,6174 -1229,12318 -4977,17247 -4945,4767 -12039,6565 -18657,4727 -4298,-1338 -8764,-2064 -13268,-2152 -3735,577 -4724,4724 -6136,7626 -2809,-4955 -2418,-11110 995,-15675 4147,-5134 11525,-2237 16585,-3062 3314,0 8294,0 9288,-3487 -176,-6240 -1585,-12382 -4147,-18077 4312,4562 9866,8873 10445,15428 583,6549 -6299,10858 -10445,15420 4974,-1490 11108,-2319 14012,-7211 2857,-5780 2213,-12677 -1657,-17829 -4309,-6634 -11528,-10536 -15840,-16585 -481,-6147 24,-12334 1492,-18327l1992 835c-210,4030 -210,8070 0,12103 3482,-3482 2072,-9036 2072,-13350l4312 0c0,3320 827,6801 1162,10278 2479,-4482 5248,-8804 8291,-12930 0,412 1245,1657 1657,2075 -934,4998 -1136,10113 -580,15169 1330,-4019 2410,-8118 3234,-12273 4147,2822 1077,8956 2072,13268 3873,9312 9666,17702 17000,24631zm23381 -97265c2748,-468 5551,-468 8291,0l3652 4892c-6067,888 -11648,3812 -15837,8288 2487,0 5389,1580 7464,-662 3665,-2407 7783,-4046 12103,-4809 2407,997 4892,1827 7129,2822 -7339,806 -14414,3213 -20729,7043 8294,-1075 16582,-1242 24216,-2732 1910,1490 3484,2902 5139,4314 -7059,-891 -14215,-524 -21144,1075 -13127,4402 -25998,9525 -38555,15342 -2591,250 -5203,250 -7791,0 9741,-13970 21966,-26027 36063,-35574zm560867 113185c4086,-4442 6940,-9874 8291,-15755 415,-8291 415,-16085 830,-23883 2487,1904 4727,3735 7214,5804 0,6301 0,12523 0,18824 -2030,4554 -4386,8961 -7049,13183 -4022,2851 -8267,5373 -12685,7549 -82,-2322 1825,-3982 3399,-5642l0 -80zm-9038 -64016c-2902,-3064 -1825,-7794 -1660,-11940 830,-6549 7049,-10031 11528,-14175 6908,-418 13821,-418 20729,0 6841,2229 13499,4998 19899,8291 8294,3312 17250,7211 26123,10281 13100,2652 27445,660 39385,7796 3067,1822 6964,3894 7629,7626 1617,4873 1617,10134 0,15007 -2498,4386 -5690,8334 -9456,11690 2623,-7368 4357,-15021 5144,-22803 -3195,-5852 -8368,-10384 -14595,-12765 -11028,-1412 -22389,-1412 -33166,-2655 -11310,-6472 -23125,-12017 -35326,-16585 -7799,-1341 -15717,-1897 -23631,-1654 -2902,1721 -5671,3663 -8291,5799 -415,4083 -415,8193 0,12276 3591,6639 7927,12839 12935,18492 -580,1822 -995,3729 -1660,5551 -6301,-6384 -10610,-13595 -15587,-20231zm19901 -34409c8291,1242 16002,1242 24046,2649 -6046,-4064 -13052,-6466 -20316,-6964 3019,-2511 7131,-3290 10866,-2075 5719,420 9866,6554 15999,4147 -4261,-4386 -9924,-7142 -15999,-7794 1085,-2053 2644,-3820 4559,-5139 2652,0 5886,-833 8291,995 13475,9655 25216,21511 34744,35074 -3474,356 -6990,-72 -10281,-1242 -6969,-3237 -14180,-5889 -20896,-9371 -5373,-2285 -10922,-4136 -16585,-5557 -6519,-1133 -13161,-1359 -19734,-662 1657,-1412 3482,-2820 5307,-4062zm90134 63928c-5655,4466 -10698,9653 -15010,15422 -3086,5056 -3253,11379 -415,16582 3647,4014 8756,6373 14177,6554 -4062,-4482 -10610,-8294 -10860,-15172 1559,-6216 5440,-11595 10860,-15010 -2511,5573 -3969,11560 -4309,17662 830,3894 6219,3067 9286,3484 5307,827 12108,-2075 16585,2649 3947,4562 4179,11251 580,16090 614,-3514 -1660,-6881 -5142,-7631 -6551,-580 -12935,2902 -19651,2657 -5620,229 -11028,-2202 -14592,-6554 -2870,-5049 -4304,-10781 -4147,-16582 -3141,3269 -4727,7751 -4312,12270 1907,12355 12355,21146 15837,33169 1665,6022 -529,12448 -5554,16164 0,-5719 992,-11520 0,-16582 -1899,-2918 -4423,-5378 -7381,-7211 532,2984 1724,5817 3482,8294 415,8291 -2487,18071 -11525,19731 2902,-6211 3716,-13191 2322,-19899 -3152,-8291 -9868,-14842 -12770,-23466 -771,-5224 -1237,-10485 -1410,-15755 997,992 2072,1990 3070,2820 995,827 415,4144 2072,5389 0,-2905 0,-5554 415,-8294 1825,-3314 4892,-5554 6136,-9288 -3732,0 -5142,4729 -8291,5974 -11,-1176 -152,-2341 -418,-3482 5724,-6652 11012,-13653 15837,-20984 3484,-4889 418,-10858 997,-16164 830,0 2322,-420 2899,-665 606,4402 1628,8730 3070,12935 -40,-5554 -513,-11102 -1410,-16582 755,-782 1585,-1479 2487,-2072 2822,4144 5724,8291 8294,12933 0,-3479 415,-6969 580,-10448l4312 0c665,4312 -995,9866 1825,13353 1250,-4312 -415,-9703 2487,-13188 1245,5674 1992,11448 2237,17250 -162,1327 -1822,2072 -2649,3317l0 330zm-75707 -13347c1426,3213 2370,6623 2817,10110l-7129 -4971 0 4562c-8291,-9453 -13765,-20729 -22389,-29600 -43,-3336 372,-6655 1245,-9868 2652,0 1407,3147 1575,4721 -293,2503 830,4963 2902,6389 827,-4067 1245,-8291 2237,-12108l3484 -992 0 6711c1077,-1575 2072,-3479 3149,-5304 0,2655 0,5142 580,7791 2075,-2897 4314,-5554 6386,-8288 -862,10440 904,20934 5142,30512l0 335zm-9038 47424c1245,-3479 3234,-6708 4477,-10281 2163,-7371 3200,-15034 3070,-22721 2793,3894 4304,8562 4309,13355 830,8044 -6301,14092 -11855,19322l0 325zm249585 431180c-12653,-4048 -25017,-8977 -36981,-14752 -43766,-19247 -84960,-43875 -122638,-73307 -8788,-6964 -17162,-14342 -25623,-21726 -5862,-6429 -10954,-13523 -15175,-21141 8956,1099 17771,3157 26285,6136 24216,10858 44115,28770 65841,43532 17909,10858 35739,21724 54228,31589 18492,9871 35574,18494 53983,26376l0 -8294c-27192,-12302 -53661,-26139 -79273,-41460 -20481,-11281 -39968,-24876 -59287,-37393 -10432,-6706 -20223,-14342 -29270,-22803 -3317,-3070 -2902,-8294 -3899,-12108l66336 41460c20896,13597 43450,23628 65426,35153 13515,6631 26865,13433 40463,19731l0 -8533c-17412,-7549 -34579,-15678 -51326,-24878 -23963,-12685 -47432,-26615 -71227,-39806 -12861,-6852 -25373,-14350 -37481,-22471 -3564,-2165 -6432,-5296 -8291,-9036 -1825,-3735 0,-8294 -995,-11938 -1575,-3312 -3344,-6525 -5309,-9618 11619,-2788 23583,-3766 35491,-2907 16585,833 30597,9456 44942,16585 31118,14098 62330,27918 93616,41460l0 -10608 -20896 -9038c-21144,-9459 -42952,-17832 -63431,-28278 -10980,-5767 -22540,-10323 -34496,-13603 -7198,-2301 -12560,-8341 -14012,-15749 -1657,-4211 -1202,-8967 1242,-12773 3125,-2381 7347,-2766 10863,-992 9477,4149 19502,6937 29770,8291 4615,638 9070,-2019 10696,-6389 1051,-6836 340,-13832 -2075,-20311 4721,561 9347,1734 13768,3482 7985,4455 15686,9419 23051,14848 14675,8953 30100,16582 45522,24873l0 -12193c-3399,-1490 -6716,-2820 -10033,-4392 -40000,-19476 -78135,-42569 -113932,-68990 36154,9448 72057,21556 109620,22389 2820,0 4477,1992 6551,3482 2072,1490 5139,4064 7786,5969l0 -22471c-15614,3937 -31967,3937 -47589,0 -32254,-6966 -63266,-20066 -96268,-22803 -19436,-1399 -38633,4947 -53400,17662 -8291,7796 -20316,10696 -28525,18907 -6349,5307 -10339,12909 -11110,21146 -415,12938 7629,24211 7214,36978 -1019,14797 -4993,29232 -11690,42458 -6485,10613 -18159,16946 -30597,16585 -18077,1245 -34744,-5972 -51751,-10448 -6112,-1617 -11251,-5748 -14177,-11363 -1628,-4176 -997,-8905 1665,-12518 814,-2144 3203,-3213 5349,-2402 122,48 247,104 372,162 7794,3729 9453,13933 17486,17247 5623,1125 11302,1958 17010,2484 11382,2325 23224,809 33661,-4309 7855,-6972 12781,-16654 13765,-27115 1875,-9491 3027,-19106 3484,-28772 -2487,-4067 -8294,-3644 -10448,-8294 -3266,-21335 4876,-42825 21476,-56635 13042,-8451 26615,-16071 40630,-22801 7852,-4924 16194,-9038 24876,-12268 15265,-3822 31270,-3620 46434,575 20646,5628 40870,12696 60532,21152 20066,8291 42455,10275 62189,19564l0 -4639c-14677,-4399 -28940,-10203 -43285,-15507 -20976,-8294 -41872,-16585 -63681,-22221 -18143,-5493 -37188,-7373 -56052,-5557 -22553,4147 -41460,19154 -60282,30847 10283,-12520 23083,-22748 37561,-30020 20101,-10507 43258,-13619 65423,-8791 29520,7115 58367,16736 86237,28775 11360,4971 22801,9863 34079,15090l0 -7541c-22389,-9621 -44527,-19907 -67495,-27945 -21716,-8224 -44229,-14199 -67166,-17829 -11501,-646 -23043,388 -34246,3067 -26067,7477 -49219,22753 -66333,43785 -5142,6549 -12770,10858 -17250,18236 -4136,6041 -8597,11853 -13347,17417 1825,-835 3482,-1822 5304,-2820 -4360,12065 -5753,25006 -4062,37728 583,5392 6551,6549 9453,10031 -82,5392 -588,10770 -1492,16092 -779,9052 -3617,17821 -8291,25620 -3195,4083 -7820,6801 -12938,7626 -12023,1008 -24128,162 -35904,-2487 -4336,-6855 -9964,-12800 -16582,-17497 4724,-3232 9203,-6719 13765,-10203 1019,2889 2319,5671 3897,8294 1987,583 3234,-2072 4892,-3062 8791,-9456 19484,-17085 27527,-27371 -2479,1069 -4775,2527 -6796,4317 -7631,7626 -15840,15005 -23386,22633 -3830,-6844 -8001,-13483 -12520,-19899 -14818,-18396 -33467,-33337 -54643,-43782 9286,-10033 18324,-20064 27363,-30350 -4977,0 -9703,-1077 -14595,-1490 -10860,21556 -21394,43362 -32422,64673 -4309,-3226 -9286,-6136 -13762,-9203 -2487,-1652 -2487,-4971 -3070,-7379 -2338,-12228 -1657,-24836 1992,-36731 8538,-20681 21931,-39000 39053,-53403 1660,1660 2820,4067 5307,4317 6966,1652 12938,-3322 19734,-3322 12273,-1245 26285,-1990 36486,6219 5679,5588 8929,13185 9038,21146 2655,1878 6309,1327 8294,-1242 3788,-8972 3024,-19229 -2075,-27530 7629,4892 14345,12690 24046,12355 9057,513 18127,146 27115,-1075 3889,-561 7528,-2261 10448,-4900 5894,-4990 10366,-11454 12935,-18739 1660,-4455 1410,-9397 -665,-13680 -1410,-2487 -3897,0 -4727,1407 -2793,5463 -7434,9757 -13100,12108 -8980,1923 -18324,1146 -26865,-2240 -9701,-1660 -18077,-6549 -27363,-8871 -7107,-1769 -14395,-2710 -21726,-2817 7977,-3785 16643,-5900 25455,-6219 6817,-1229 13840,-362 20152,2487 4062,2487 5471,7623 8294,11275 2405,1827 5719,0 7129,-2405 7504,-9299 12089,-20606 13185,-32507 231,-7038 -2838,-13789 -8294,-18239 -9983,-8600 -23032,-12760 -36151,-11528 0,-2237 -747,-4477 -1162,-6964 -3897,-1822 -10283,-1410 -11775,-6136 14247,-678 28270,-3790 41460,-9203 3732,-1245 8294,-1245 10863,-4312 4551,-4519 8557,-9562 11940,-15010 1676,-2232 2479,-5006 2240,-7791 388,-14805 -1923,-29554 -6801,-43535 -1476,-3716 -2107,-7708 -1825,-11693 11940,6384 25705,9621 35326,19242 5272,6394 6466,15233 3067,22801 -3067,10281 -15007,15175 -16005,26118 -992,10946 5144,20899 11278,29520 4088,6174 5639,13693 4314,20979 -418,4477 -4727,6969 -8294,9618 7677,4737 17039,5868 25623,3070 7626,-2234 13233,-8722 14345,-16582 -258,-9390 -4155,-18306 -10863,-24878 2072,798 4203,1410 6384,1825 8291,2737 16170,-2240 24213,-1407 0,5554 -997,11105 -1660,16582 6344,-1253 11744,-5389 14595,-11198 904,-7012 1418,-14071 1575,-21141 689,-3253 -1266,-6490 -4477,-7381 -8177,-1734 -16585,-2075 -24876,-997 3748,-7339 8613,-14050 14427,-19896 5721,-6277 8150,-14880 6549,-23218 -2072,-6136 -2899,-14760 -10031,-16585 -10946,-3894 -22389,-6136 -32672,-10863 -2569,-1383 -4868,-3208 -6799,-5386 -9038,-9374 -18242,-18657 -27280,-28110 -6942,-7974 -19045,-8815 -27025,-1867 -173,149 -340,301 -505,458 -8291,6549 -15755,13103 -23798,19901 -3482,3067 -8291,5554 -9036,10445 -2812,7716 -2365,16249 1242,23631 5307,8291 10863,17000 16585,25461 1774,2812 2288,6245 1410,9445 -447,4908 -1194,9786 -2240,14598 -1458,3540 -4086,6472 -7461,8294 -8451,4764 -17795,7730 -27448,8703 -1907,-10031 4479,-18239 8294,-27115 5503,-10347 4360,-22974 -2905,-32166 -6466,-6264 -15050,-9876 -24046,-10118 -1575,3482 -2820,7046 -4312,10281 -2405,-580 -4892,-997 -7381,-1660l3070 -9868c-2240,-122 -4479,-122 -6716,0 1825,-2072 4727,-4147 4312,-7208 -415,-3072 -2240,-3655 -3482,-5309 2237,0 4312,0 6551,0 -1245,-3237 -2655,-6554 -4147,-9786l9866 1825 0 -18742c-3482,833 -6964,1827 -10696,2657 1492,-3067 2902,-6139 4312,-9206l-22471 0c1410,3067 2652,6139 4064,9206 -3897,-1248 -7546,-2237 -11278,-3487 0,6549 0,12938 0,19487 3732,-745 7214,-1407 10946,-1990 -1660,3232 -3317,6554 -4977,10036 2322,0 4562,0 6966,0 -1410,2072 -3897,3894 -3232,6799 662,2902 2069,3894 3479,5719 -1904,-122 -3814,-122 -5721,0 415,3322 830,6801 1412,10286l-5721 1242c-1660,-3479 -3320,-7214 -4977,-10698 -10722,883 -20497,6472 -26700,15257 -4280,7645 -4708,16864 -1160,24876 3482,9871 10033,19319 8291,30185 -11509,-564 -22686,-4011 -32504,-10033 -16393,-9879 -31823,-21261 -46104,-33999 9618,0 19074,0 28528,0 -5815,-14387 -10009,-29379 -12523,-44689 0,-2737 -995,-5972 1245,-8294 20314,-20152 28357,-48509 41872,-72887 6666,-12230 9852,-26051 9206,-39971 -1684,-12398 -6562,-24144 -14183,-34076 -5096,-6783 -11424,-12555 -18654,-17000 -21346,-12760 -44977,-21218 -69570,-24873l-4559 2487c-1245,3647 -2240,7544 -3484,11275 -3482,-662 -6964,-1410 -10445,-2240 1035,-4386 388,-9004 -1825,-12933 8889,-7456 12587,-19431 9451,-30600 -1657,-5554 -6634,-9451 -8291,-15007 -2288,-5655 -4144,-11475 -5557,-17412l21559 10610c0,-17659 -827,-35074 -827,-52485 -6642,4902 -13566,9403 -20731,13515 3492,-7743 7778,-15108 12770,-21974l-31012 0c-6964,415 -13930,580 -21144,830 3482,6551 7214,13100 10531,19734 -6799,-3447 -13382,-7304 -19737,-11523 0,17244 -827,34659 -827,52153 7214,-3317 14345,-6964 21394,-10531 -1657,5142 -3317,10281 -5142,15257 -1825,4977 -7381,9206 -9038,14925 -3814,11454 -580,24072 8291,32257 -1109,4312 -1806,8733 -2069,13183l-9621 1825c-1245,-5969 -2737,-13765 -9701,-15007 -18822,3623 -37140,9501 -54563,17497 -17279,7179 -31334,20455 -39468,37311 -6716,18963 -5737,39800 2737,58045 8107,20173 17553,39787 28275,58704 4833,9312 11225,17728 18904,24878 -1748,15316 -5197,30392 -10281,44942 8291,0 16582,0 24876,0 -13848,13084 -28863,24884 -44859,35239 -10049,6722 -21750,10560 -33831,11113 -1907,-10451 4477,-19734 7794,-29185 4189,-8339 3774,-18239 -1077,-26205 -6458,-8698 -16260,-14286 -27033,-15420 -1426,3737 -3232,7323 -5386,10696 -1825,0 -3484,-665 -5312,-1080 583,-3482 1415,-6716 2072,-10281 -1846,-128 -3703,-128 -5557,0 1412,-2237 3905,-4312 3240,-7214 -662,-2905 -1990,-3649 -3240,-5309 2107,-114 4203,-114 6312,0 -1583,-3482 -3242,-6799 -4900,-10033 3487,583 7214,1245 10698,1992l0 -19569c-3484,1245 -7211,2237 -10698,3484 0,-830 830,-2410 992,-3484 -992,2655 -1819,5392 -2647,7796l10113 -1995 0 10036 -10696 -2075c825,3067 1819,6139 2820,9288 -3873,332 -7770,580 -11693,745 1248,-3229 2492,-6719 3735,-10033 -3735,418 -7216,1077 -10863,1410l0 -9371 10039 1995c-585,-3070 -1412,-6142 -2075,-9209 3891,0 7786,0 11690,0 657,-1407 1490,-3067 2072,-4479 -7214,0 -14345,0 -21564,0 1077,2907 2245,5972 3322,9041 -3484,-827 -6964,-1822 -10539,-2822 0,6554 0,13103 0,19492 3484,-668 6804,-1245 10036,-2075 -1410,3479 -2820,6799 -4306,10033 2487,0 4971,0 7373,0 -1404,1825 -3891,3729 -3641,6384 694,2112 1732,4104 3067,5886l-5312 0c833,3567 1410,6804 2245,10116 -2245,580 -4317,997 -6551,1415 -1498,-3487 -2910,-6801 -4144,-10283 -9052,263 -17699,3764 -24383,9866 -7559,8961 -8972,21601 -3562,32004 3727,8873 10110,17250 8291,27530 -9900,-1128 -19463,-4261 -28110,-9201 -3152,-1591 -5586,-4317 -6801,-7631 -899,-4825 -1508,-9695 -1825,-14598 -598,-3266 -98,-6650 1410,-9613 5142,-8294 10283,-16582 15837,-24046 4059,-6807 4939,-15050 2407,-22556 -511,-3232 -2155,-6171 -4644,-8294 -10531,-8786 -20984,-17659 -31677,-26283 -7171,-4751 -16688,-3814 -22803,2237l-26035 26865c-2580,3354 -5791,6168 -9451,8291 -11028,5144 -23218,6966 -34664,11448 -4147,1242 -5136,5969 -6549,9451 -2990,6312 -3381,13550 -1077,20149 4312,11275 15834,18079 19731,29767 -7629,-787 -15329,-787 -22963,0 -3564,617 -6315,3469 -6801,7049 0,6136 1242,12273 1825,18409 1351,7666 7669,13475 15422,14177 -1064,-5463 -1623,-11015 -1662,-16582 4971,109 9919,721 14763,1822 5330,718 10754,-53 15678,-2237 -6639,5985 -10509,14449 -10701,23381 226,7653 4985,14438 12108,17247 9089,3756 19423,2990 27860,-2075 -3320,-2649 -7629,-5301 -8294,-9866 -1633,-7365 3,-15074 4477,-21146 6219,-8288 13350,-17824 11528,-29102 -1825,-11275 -12935,-15590 -16585,-25290 -3825,-7833 -2615,-17194 3064,-23798 9874,-9448 23386,-12685 35159,-19069 410,4740 -301,9512 -2072,13933 -4192,13409 -6208,27402 -5969,41460 782,5969 3524,11509 7794,15752 3070,3482 5727,8291 10693,9703 15592,3891 30602,11275 47022,10858l0 2655c-3703,1005 -7328,2253 -10863,3735 -665,2237 -1495,4474 -2072,6714 -12909,-1176 -25737,2921 -35576,11358 -5434,4543 -8493,11329 -8291,18407 803,12172 5416,23774 13188,33172 1657,2484 5969,3484 7541,0 3564,-5142 6801,-11440 13765,-12270 13664,-1825 27559,309 40056,6128 -7323,-85 -14622,753 -21726,2492 -10118,2487 -18907,7549 -28943,9206 -10033,1657 -20729,5969 -29764,0 -5557,-3072 -7051,-10036 -12526,-13353 -5799,7216 -2322,17085 1995,23801 4163,7376 11031,12845 19157,15257 8799,1346 17712,1811 26612,1407 3482,56 6934,-646 10118,-2072 5450,-3498 10709,-7299 15749,-11363 -5809,8440 -6905,19266 -2899,28690 2163,2242 5565,2756 8291,1250 325,-7655 3250,-14967 8294,-20729 10281,-8796 24873,-8294 37311,-6804 6392,0 11943,4729 18324,3320 2657,-646 5019,-2170 6719,-4317 16800,14536 30139,32642 39056,52991 3740,12044 4229,24854 1407,37143 -580,2657 -827,5969 -3479,7549 -4314,2899 -8294,5557 -12688,8291 -10698,-21556 -21391,-42867 -32254,-64261 -4729,662 -9459,1075 -14350,1487 9038,10286 17994,20319 27283,30190 -27525,14512 -53395,35068 -66748,63841 -8791,-7626 -16585,-15999 -25455,-24043 -1620,-1311 -3522,-2218 -5559,-2655 10118,11028 21811,20479 32259,31174 1636,-2905 3080,-5926 4309,-9036 4729,3070 9209,6801 13768,10033 -6828,4445 -12510,10445 -16587,17497 -11132,2407 -22543,3306 -33911,2657 -7336,-317 -13930,-4567 -17247,-11116 -4801,-12294 -7304,-25362 -7381,-38555 2487,-2655 6384,-3894 8291,-6964 1599,-4979 2163,-10225 1660,-15425 -250,-10307 -2649,-20447 -7051,-29764 -6323,-10916 -14260,-20811 -23548,-29355 -8847,-9775 -18776,-18513 -29600,-26035 -10767,-6908 -22545,-12081 -34909,-15345 -11201,-2889 -22774,-4064 -34332,-3482 -19013,2503 -37715,6977 -55802,13353 -23843,8036 -47211,17417 -69985,28105 -21021,9049 -41386,19550 -60947,31430 -4306,2163 -8485,4567 -12518,7214 9781,-1075 19487,-3320 29352,-4314 -18572,9929 -37640,18891 -57130,26868 -25591,11063 -51520,21394 -77781,31015 -18654,6711 -37811,12103 -56632,17829 3899,3482 8291,6791 12108,10031 -6785,5184 -13845,10004 -21144,14425 -12361,6969 -25705,12276 -38643,18242 -50248,19984 -103814,31677 -156549,43612 -4998,1500 -10206,2200 -15425,2075 -4892,-825 -9868,-1652 -14760,-2317l0 0c4136,7565 9089,14651 14760,21146 7315,5706 15816,9701 24873,11693 10331,2801 20976,4251 31677,4306 14552,1037 29153,1037 43700,0 -3070,8294 -6384,16585 -9286,24878 8871,3317 17494,7626 26538,10693 23083,3168 46543,2471 69400,-2072 -4947,4695 -7323,11491 -6389,18247 0,5964 7551,6378 11863,5554 2830,2979 6283,5304 10118,6796 22609,1617 45301,1617 67908,0 13996,-1093 27873,-3421 41460,-6958 1827,5158 4458,10007 7794,14337 2878,2075 6320,3237 9863,3317 20894,1623 41880,1623 62771,0 19370,-1101 38574,-4219 57297,-9283 8294,-2405 16587,-5969 24876,-9036 1117,4102 3157,7905 5974,11108 2907,2519 6474,4163 10283,4724 14028,1551 28227,856 42035,-2072 16582,36154 33166,72310 49259,108376 -3203,3500 -4634,8259 -3899,12935 2072,5804 8291,7629 14010,8294 -3724,7206 -910,16050 6288,19776 1811,936 3793,1492 5820,1617 -926,1801 -1758,3665 -2487,5554l9701 0c665,-1080 1498,-2072 2237,-3152 5009,-207 9820,-1971 13770,-5056 3157,-2785 7977,-2482 10762,681 93,106 178,213 261,314 902,2519 253,5341 -1654,7214l5884 0c1240,-2796 1266,-5972 82,-8788 -2641,-4958 -7732,-8126 -13347,-8291 2415,-4753 2625,-10331 580,-15257 -2354,-3532 -5926,-6073 -10036,-7131 3860,-4612 5025,-10906 3072,-16585 -3192,-4660 -8533,-7381 -14180,-7216 -14590,-25870 -29099,-51491 -43947,-77358 -3647,-7219 -8291,-14018 -11693,-21396 1750,-1077 3612,-1976 5557,-2652 11983,-4511 23178,-10892 33169,-18909 1697,5581 5631,10203 10863,12773 -2237,5554 -5309,13100 0,18077 4407,4692 8198,9932 11273,15587 -2487,5307 -5136,10445 -7373,16005 4474,-1657 8783,-3484 13347,-5142 11108,-3070 16582,-13930 23213,-22556 -112,9100 694,18186 2407,27115 0,3484 3314,5474 5972,7381 247,5788 3357,11063 8288,14098 -995,3152 -2655,6631 -827,9701 1732,4926 7123,7520 12049,5793 753,-266 1466,-620 2131,-1069 7142,-4203 10911,-12403 9451,-20564 2971,-1740 5562,-4046 7629,-6799 2407,2075 4894,3732 7134,5804 896,4024 2202,7937 3894,11693 1660,2902 4562,4892 6136,7629 -681,6607 1846,13143 6801,17577 3897,3317 8873,415 12108,-1987 1654,-4147 665,-8873 2652,-12938 3897,-8291 8294,-16585 11773,-24876 3250,15223 13222,28145 27118,35159 4618,1904 9871,1543 14180,-995 2405,5721 6299,10613 9195,16582 838,1495 1833,3899 0,5389 -12512,11858 -24876,23801 -37223,35656 -5594,5400 -9977,11932 -12853,19157l23793 0c332,-1769 1005,-3461 1992,-4977 2269,-1676 4979,-2647 7799,-2817 -277,2750 -1160,5413 -2575,7794l9366 0c-5,-3461 418,-6918 1250,-10281 258,-1628 1229,-3064 2647,-3902 4979,-4724 9709,-9451 14603,-14175 2647,0 5301,577 8291,992 -412,-3003 -412,-6043 0,-9036 3482,-3652 7376,-7131 11025,-10616 3317,3484 6799,6716 10283,9868 -5721,6136 -11940,11858 -17827,17992 -3482,-1160 -8291,-3232 -11363,0 -3000,5011 -4607,10741 -4647,16582l-2487 2490 6724 0c-372,-4072 45,-8190 1237,-12105 665,-1907 1912,-4559 4320,-3897 3729,995 5801,4479 9280,5471 11685,2838 23750,3817 35739,2902 4892,0 9618,-2237 14512,-1657 4892,577 6964,6796 11940,8291 2237,580 4477,0 6799,995l23798 0c1575,-4147 3397,-8291 4974,-12518 19529,6573 39936,10156 60532,10613l0 1904 7046 0 0 -1660c20590,-718 40973,-4386 60532,-10858 1575,4227 3317,8288 4977,12518l18407 0c2804,-479 5565,-1117 8294,-1904 3067,-1577 4727,-5144 7794,-6719 5557,-2322 11278,1162 16997,995 12143,66 24272,-628 36321,-2075 4974,-577 6384,-7376 11110,-7376 4977,2240 4727,8871 5139,13347 -628,1197 -1160,2439 -1575,3732l8294 0 -2322 -2319c231,-6160 -1575,-12214 -5142,-17247 -3070,-2822 -7379,-747 -10696,412 -6136,-5886 -11858,-11858 -17994,-17824 3482,-3317 6966,-6801 10448,-10039 3897,3484 7379,7384 11275,10866 0,2902 0,5969 -412,8788 2652,0 5557,-583 8291,-995 5307,5724 11443,10863 16582,16582 907,3774 1351,7647 1330,11528l9368 0 0 0c-1359,-2314 -2197,-4876 -2487,-7546 2737,192 5365,1101 7626,2655 1319,1407 2117,3213 2242,5139l19566 0c-2737,-6724 -6732,-12858 -11773,-18074 -13515,-13185 -27115,-26288 -40630,-39635 4477,-6799 10448,-12523 14345,-19737 4245,3351 9943,4237 15007,2325 14095,-7017 24163,-20144 27283,-35576 3897,8291 8288,16585 11940,24876 1987,4147 580,9041 2817,12938 3062,4003 8783,4769 12786,1716 192,-157 380,-309 564,-473 4974,-4309 4727,-11108 5804,-16582 5123,-4900 8384,-11446 9206,-18494 2484,-2072 4889,-4144 7379,-5966 2338,2487 4892,4751 7629,6796 -1202,8054 2522,16055 9453,20316 4485,2934 10491,1692 13433,-2796 364,-553 673,-1141 912,-1766 1822,-3232 0,-6546 -830,-9863 4966,-3080 8216,-8286 8791,-14098 2487,-2075 5389,-4147 5801,-7381 1710,-8937 2607,-18018 2655,-27115 4479,7373 10068,14007 16585,19651 6384,3149 13350,5144 19899,8291 -2237,-5307 -4892,-10696 -7379,-15999 3160,-5607 6950,-10831 11275,-15590 5392,-4974 2075,-12358 0,-17909 5309,-2817 9304,-7610 11113,-13353 13467,10866 29054,18774 45772,23221 17297,5171 35388,7195 53400,5969 5025,-335 9783,-2349 13515,-5727 2170,-3320 4038,-6844 5557,-10525 9078,4120 18481,7501 28107,10113l0 -9206zm-338309 -223962c0,-1819 -827,-2657 -2487,-2484 -165,1934 662,2758 2487,2484zm-2487 -8783c0,1819 662,2647 2487,2405 247,-1833 -580,-2657 -2487,-2405zm6386 12680c0,-1825 -583,-2649 -2240,-2234 -250,1819 580,2647 2240,2234zm16002 1660c-7472,-3974 -13550,-10140 -17414,-17659 1021,104 2048,104 3070,0 2777,4014 5796,7860 9036,11520 1660,1660 4479,1248 4479,-1492 -2405,-4889 -6716,-8783 -9371,-13512 -1492,-2245 1825,-3479 3484,-3652 3897,3070 6301,7799 10033,11028 1822,1500 4477,-995 3070,-2817 -2913,-4293 -6073,-8413 -9456,-12358 1053,-2056 2705,-3761 4729,-4892 4559,4320 6964,10868 13183,13273 2237,-7134 -5972,-10866 -8873,-16582 0,-3072 2240,-4567 4727,-5144 3168,4626 6751,8951 10698,12935 3647,-6804 -4977,-10445 -6966,-15840 -415,-2649 2240,-3897 4312,-4892 3234,3732 5471,8291 10448,10448 2237,-3484 -1245,-6381 -3067,-9038 -2083,-2234 -3136,-5243 -2905,-8294 0,-3070 3899,-2817 5721,-2072 6708,2436 11626,8243 12935,15257 665,3902 -2652,6549 -4724,9041l-4314 1160c-1160,2325 -992,5807 -3234,7216 -1889,612 -3830,1037 -5801,1240 0,2072 0,4727 -1410,6386 -1412,1662 -4735,997 -7134,1410 11,2155 -271,4301 -827,6381 -2564,575 -5174,851 -7796,833 747,4974 -3314,7376 -6631,10116zm-12935 -6381c960,399 1883,891 2734,1490 -827,2152 -3979,162 -2734,-1490l0 0zm21971 -1660c2240,0 5144,665 6966,-1165 904,-2008 1410,-4179 1495,-6381 2014,16 4027,-269 5969,-827 2237,-1418 1990,-4317 2655,-6551 2107,-309 4126,-1011 5969,-2075 1269,-2006 2163,-4227 2655,-6549 6352,-1402 10374,-7677 8972,-14023 -53,-253 -117,-497 -184,-739 -1998,-6517 -6807,-11813 -13103,-14430 -6607,-2301 -13861,934 -16582,7387 -4304,207 -7812,3514 -8291,7788 -2075,0 -4977,0 -6386,1912 -936,1841 -1551,3830 -1825,5886 -2322,0 -4974,0 -6799,1240 -1825,1245 -995,4559 -1410,6634 -3516,-93 -6756,1894 -8291,5056 -1660,-583 -3317,-1157 -4977,-1569 2663,6639 6176,12906 10448,18657 -1407,-992 -4312,-3067 -5721,-3902 9453,11110 20316,20899 30182,31839 662,1830 0,2407 -1825,1992 -8291,-7546 -15422,-16585 -24211,-23548 3157,4227 6708,8139 10613,11693 4727,4729 9288,9863 14592,14342 1248,-997 4314,-2899 2490,-4892 -5721,-6634 -12108,-12518 -18242,-18736 -3732,-585 580,-4729 1575,-1580 2854,2218 5969,4056 9286,5474 -412,-995 -1242,-3067 -1657,-4309 2157,-2242 5636,-4477 5636,-8623zm-168905 -317498c3607,-1535 6360,-4559 7546,-8294 -6458,-1537 -13193,-1537 -19651,0 4857,-2383 9395,-5362 13515,-8873 2072,-2484 3482,-5386 5307,-8291 -8514,-718 -17005,1766 -23798,6969 -125,-2322 -125,-4652 0,-6969 -6964,1612 -13324,5179 -18324,10283 3697,-9621 5448,-19878 5142,-30182 -6591,7605 -11866,16268 -15590,25618 149,-10515 -1742,-20960 -5557,-30762 -4402,9932 -6442,20745 -5969,31594 -3431,-9693 -8631,-18665 -15340,-26450 -458,10291 1210,20561 4892,30182 -5033,-4966 -11259,-8560 -18077,-10451 -165,2378 -165,4761 0,7137 -6706,-5176 -15098,-7661 -23548,-6969 1575,2490 3067,5307 4892,7791 4179,3445 8650,6522 13350,9209 -6094,-1612 -12478,-1809 -18654,-583 0,4729 4309,6969 8288,8291 -8812,-1120 -17744,-785 -26450,1000 6261,5432 14121,8669 22389,9201 8291,0 16002,-2407 23796,-3232 20707,-1367 41487,-1367 62191,0 6136,825 12355,2407 18657,2820 9618,989 19205,-2210 26285,-8788 -8357,-1545 -16906,-1631 -25290,-250z"/>
 </g>
</svg>
