<?xml version="1.0" encoding="utf-8"?>
<!-- Generator: Adobe Illustrator 27.3.1, SVG Export Plug-In . SVG Version: 6.00 Build 0)  -->
<svg version="1.1" id="Слой_1" xmlns="http://www.w3.org/2000/svg" xmlns:xlink="http://www.w3.org/1999/xlink" x="0px" y="0px"
	 viewBox="0 0 4.6296296 4" style="enable-background:new 0 0 4.6296296 4;" xml:space="preserve">
<style type="text/css">
	.st0{fill-rule:evenodd;clip-rule:evenodd;fill:#2499E3;}
</style>
<path class="st0" d="M4.2887473,0.2392947c0.0446196-0.0198619,0.087285-0.0454785,0.134696-0.0582545
	C4.3927164,0.2038009,4.3675079,0.2328316,4.3400664,0.2590708C3.9771833,0.6145244,3.6374259,0.9931896,3.3162851,1.3864346
	C3.0164666,1.7571765,2.7318504,2.14063,2.4723139,2.5407033L2.467139,2.5405314
	C2.4608047,2.5646877,2.4435194,2.5834332,2.4308722,2.6044977C2.1799674,2.9975064,1.9475291,3.404279,1.7652931,3.8340697
	C1.6766123,3.7250545,1.5943086,3.610929,1.5082474,3.499788C1.2602845,3.1753619,1.0103031,2.8509574,0.7264814,2.5565283
	C0.6996409,2.5332952,0.6756563,2.5067983,0.6504478,2.4817829C0.5309755,2.3671205,0.4041812,2.2585993,0.2620555,2.1727741
	c0.0712883-0.28511,0.1442084-0.5698336,0.2153464-0.8549223c0.3389843,0.2379783,0.6496465,0.5181497,0.9076585,0.8428121
	c0.1007913,0.1254416,0.1931225,0.2574108,0.2788831,0.3932018C1.6823883,2.5844638,1.6984496,2.6177032,1.7217686,2.644479
	C1.813971,2.4881818,1.9097162,2.3337741,2.0139861,2.1851852c0.1422544-0.2042667,0.2978861-0.3991499,0.463567-0.5848644
	c0.1588526-0.1732177,0.3238676-0.3413892,0.5017233-0.4952602c0.3354843-0.2958248,0.7065911-0.5508521,1.1011245-0.7613242
	L4.0782752,0.356448c0.0037789-0.0004724,0.0113802-0.0013313,0.0151596-0.0017608
	C4.0905147,0.3500707,4.0874653,0.3454327,4.0845451,0.3408805C4.1527843,0.307448,4.2199712,0.271718,4.2887473,0.2392947z"/>
</svg>
