<?xml version="1.0" encoding="utf-8"?>
<!-- Generator: Adobe Illustrator 27.3.1, SVG Export Plug-In . SVG Version: 6.00 Build 0)  -->
<svg version="1.1" id="Слой_1" xmlns:xodm="http://www.corel.com/coreldraw/odm/2003"
	 xmlns="http://www.w3.org/2000/svg" xmlns:xlink="http://www.w3.org/1999/xlink" x="0px" y="0px" viewBox="0 0 17.5 259.4"
	 style="enable-background:new 0 0 17.5 259.4;" xml:space="preserve">
<style type="text/css">
	.st0{fill:#999999;}
	.st1{fill:#2499E3;}
	.st2{fill:#B40E0E;}
	.st3{fill:none;stroke:#999999;stroke-width:1.1;stroke-miterlimit:10;}
</style>
<g id="icons-dt">
	<g id="search">
		<path class="st0" d="M7.1,198.9c-3.6,0-6.4-2.9-6.4-6.4c0-3.6,2.9-6.4,6.4-6.4s6.4,2.9,6.4,6.4c0,0,0,0,0,0
			C13.5,196.1,10.7,198.9,7.1,198.9L7.1,198.9L7.1,198.9z M7.1,187c-3,0-5.5,2.5-5.5,5.5c0,3,2.5,5.5,5.5,5.5s5.5-2.5,5.5-5.5
			S10.1,187,7.1,187L7.1,187L7.1,187L7.1,187z"/>
		
			<rect x="13.4" y="195.7" transform="matrix(0.7071 -0.7071 0.7071 0.7071 -136.8683 68.2162)" class="st0" width="0.9" height="7.2"/>
	</g>
	<g id="pen">
		<path class="st1" d="M3.6,99.9H0.3v-3.3l7.3-7.4c0.4-0.4,1-0.6,1.6-0.6s1.2,0.2,1.6,0.6c0.4,0.4,0.7,1,0.7,1.6
			c0,0.6-0.2,1.2-0.7,1.6L3.6,99.9L3.6,99.9z M2.2,99.2h1.2l7.1-7.1c0.3-0.3,0.5-0.7,0.5-1.1c0-0.4-0.2-0.8-0.5-1.1
			s-0.7-0.5-1.1-0.5c-0.4,0-0.8,0.2-1.1,0.5l-7.1,7.1v1.2L2.2,99.2C2.2,99.2,2.2,99.2,2.2,99.2z"/>
		
			<rect x="8.2" y="89.7" transform="matrix(0.7071 -0.7071 0.7071 0.7071 -62.2847 32.9294)" class="st1" width="0.8" height="3.9"/>
	</g>
	<g id="recycle">
		<rect x="0.7" y="61.4" class="st2" width="10.1" height="0.7"/>
		<rect x="4" y="64.3" class="st2" width="1" height="3.8"/>
		<rect x="6.5" y="64.3" class="st2" width="1" height="3.8"/>
		<path class="st2" d="M8.3,71.1h-5c-0.9,0-1.6-0.7-1.6-1.6L1,61.8l0.7-0.1l0.6,7.7c0,0,0,0,0,0c0,0.5,0.4,0.9,0.9,0.9h5
			c0.5,0,0.9-0.4,0.9-0.9l0.6-7.6l0.7,0.1l-0.7,7.6C9.8,70.4,9.1,71.1,8.3,71.1L8.3,71.1L8.3,71.1z"/>
		<path class="st2" d="M8,61.8H7.3v-1.9l0,0c0-0.2-0.1-0.3-0.3-0.3c0,0,0,0,0,0H4.5c0,0,0,0,0,0c-0.2,0-0.3,0.1-0.3,0.3l0,0v1.9H3.5
			v-1.9c0,0,0,0,0,0c0-0.5,0.4-1,1-1c0,0,0,0,0,0H7c0.5,0,1,0.4,1,1L8,61.8L8,61.8z"/>
	</g>
	<path id="check" class="st1" d="M4.5,259.4L4.5,259.4c-0.1,0-0.2,0-0.3-0.1L1.4,256c-0.1-0.1-0.1-0.2-0.1-0.3
		c0-0.2,0.2-0.4,0.4-0.4c0.1,0,0.2,0,0.3,0.1l2.7,3l5.6-6.2c0.1-0.1,0.2-0.1,0.3-0.1c0.1,0,0.2,0,0.3,0.1c0.1,0.1,0.1,0.2,0.1,0.3
		s0,0.2-0.1,0.3l-5.9,6.5C4.7,259.4,4.6,259.4,4.5,259.4L4.5,259.4L4.5,259.4L4.5,259.4z"/>
	<g id="close">
		<path class="st2" d="M2.4,12.5c-0.1,0-0.2,0-0.3-0.1S2,12.2,2,12.2C2,12,2,12,2.1,11.9l7-7c0.1-0.1,0.2-0.1,0.3-0.1
			c0.1,0,0.2,0,0.3,0.1C9.7,4.9,9.8,5,9.8,5.1c0,0.1,0,0.2-0.1,0.3l-7,7C2.6,12.5,2.5,12.5,2.4,12.5L2.4,12.5L2.4,12.5z"/>
		<path class="st2" d="M9.4,12.5c-0.1,0-0.2,0-0.3-0.1l-7-7C2,5.3,2,5.2,2,5.1C2,5,2,4.9,2.1,4.9c0.1-0.1,0.2-0.1,0.3-0.1
			c0.1,0,0.2,0,0.3,0.1l7,7c0.1,0.1,0.1,0.2,0.1,0.3C9.8,12.4,9.6,12.5,9.4,12.5L9.4,12.5L9.4,12.5z"/>
	</g>
	<g id="search-mini">
		<path class="st1" d="M5.2,229.9c-2.6,0-4.7-2.1-4.7-4.7c0-2.6,2.1-4.7,4.7-4.7c2.6,0,4.7,2.1,4.7,4.7
			C9.9,227.8,7.8,229.9,5.2,229.9L5.2,229.9L5.2,229.9L5.2,229.9z M5.2,221.4c-2.1,0-3.8,1.7-3.8,3.8c0,2.1,1.7,3.8,3.8,3.8
			s3.8-1.7,3.8-3.8C8.9,223.1,7.2,221.4,5.2,221.4L5.2,221.4z"/>
		<path class="st1" d="M11.8,232.3L11.8,232.3c-0.1,0-0.2,0-0.3-0.1l-3.6-3.6c-0.1-0.1-0.1-0.2-0.1-0.3s0-0.2,0.1-0.3
			c0.1-0.1,0.2-0.1,0.3-0.1s0.2,0,0.3,0.1l3.6,3.6c0.1,0.1,0.1,0.2,0.1,0.3c0,0.1,0,0.2-0.1,0.3S12,232.3,11.8,232.3L11.8,232.3
			L11.8,232.3z"/>
	</g>
	<path id="filter" class="st1" d="M7.5,41c-0.1,0-0.2,0-0.3-0.1l-2.7-2.1c-0.1-0.1-0.2-0.2-0.2-0.4l0,0v-2.6L1,32.3
		c-0.2-0.2-0.2-0.4-0.2-0.7c0-0.4,0.2-0.7,0.5-1c0.1-0.1,0.2-0.1,0.2-0.2c0,0,0.1,0,0.1,0s0.1,0,0.1,0h9c0,0,0,0,0.1,0
		c0,0,0,0,0.1,0c0.5,0.1,0.8,0.6,0.8,1.1c0,0.1,0,0.3-0.1,0.4c0,0.1-0.1,0.2-0.1,0.3L8,35.9v4.6l0,0c0,0.2-0.1,0.3-0.3,0.4
		C7.7,41,7.7,41,7.5,41C7.6,41,7.5,41,7.5,41L7.5,41L7.5,41z M5.3,38.2l1.8,1.4v-3.9v0c0-0.1,0-0.2,0.1-0.3l3.4-3.8c0,0,0,0,0,0
		c0-0.1,0-0.2-0.1-0.2H1.8c-0.1,0-0.1,0.1-0.1,0.1c0,0,0,0.1,0,0.1c0,0,0,0.1,0,0.1l3.4,3.8c0.1,0.1,0.1,0.2,0.1,0.3L5.3,38.2
		L5.3,38.2z"/>
	<g id="plus-mini">
		<path class="st1" d="M6.1,165.6c-0.1,0.1-0.2,0.1-0.3,0.1c-0.2,0-0.4-0.2-0.4-0.4v-9.9c0-0.2,0.2-0.4,0.4-0.4
			c0.2,0,0.4,0.2,0.4,0.4v9.9C6.2,165.4,6.2,165.5,6.1,165.6L6.1,165.6L6.1,165.6z"/>
		<path class="st1" d="M11.1,160.6c-0.1,0.1-0.2,0.1-0.3,0.1H0.9c-0.2,0-0.4-0.2-0.4-0.4c0-0.2,0.2-0.4,0.4-0.4h9.9
			c0.2,0,0.4,0.2,0.4,0.4C11.2,160.5,11.2,160.6,11.1,160.6L11.1,160.6L11.1,160.6z"/>
	</g>
	<g id="plus">
		<rect x="5.3" y="126.3" class="st0" width="6.9" height="0.7"/>
		<rect x="8.4" y="123.2" class="st0" width="0.7" height="6.9"/>
		<path class="st3" d="M4.5,119h8.4c1.9,0,3.5,1.6,3.5,3.5v8.4c0,1.9-1.6,3.5-3.5,3.5H4.5c-1.9,0-3.5-1.6-3.5-3.5v-8.4
			C1.1,120.6,2.6,119,4.5,119z"/>
	</g>
</g>
</svg>
