<?xml version="1.0" encoding="utf-8"?>
<!-- Generator: Adobe Illustrator 27.3.1, SVG Export Plug-In . SVG Version: 6.00 Build 0)  -->
<svg version="1.1" id="men" xmlns:xodm="http://www.corel.com/coreldraw/odm/2003"
	 xmlns="http://www.w3.org/2000/svg" xmlns:xlink="http://www.w3.org/1999/xlink" x="0px" y="0px" viewBox="0 0 300 289"
	 style="enable-background:new 0 0 300 289;" xml:space="preserve">
<style type="text/css">
	.st0{fill:#929292;}
	.st1{fill:#EBEBEB;}
	.st2{fill:#CCCCCC;}
	.st3{fill:#B3B3B3;}
</style>
<path class="st0" d="M133.2059631,4.4732594c-5.6171188,16.8513565,10.8903351-0.114635,16.5074463-4.356133
	c16.0489044,1.490256,29.8051147,12.0366831,37.2563934,26.0221634
	c24.5319214,11.3488731,30.3782959,41.4978943,23.2709351,65.6858978
	c-3.782959,10.3171539-2.5219727,23.7294617-11.2342377,31.6392822
	c-4.2415009-14.9025574,3.4390411-32.9002686-8.0244598-45.8540344c-9.5147095-11.0049667-8.712265-25.3343506-9.0561676-38.9759216
	c-18.5708923,17.3098946-47.8028259,0.2292671-67.0615234,16.8513565
	c-18.9147873,13.7562103-15.2464676,40.236908-17.5391693,60.4126816c-0.8024445,3.0951462,0.1146317,8.712265-4.7000351,6.8781052
	c-2.7512436-10.3171539-4.8146744-20.7489471-7.9098206-30.9514694
	C71.9908295,55.141964,100.8788681,18.0001984,133.2059631,4.4732594z"/>
<path class="st1" d="M114.8643494,55.4858704c19.2586975-16.6220894,48.4906311,0.4585381,67.0615234-16.8513565
	c0.3439026,13.641571-0.4585419,27.9709549,9.0561676,38.9759216c11.463501,12.9537659,3.782959,30.9514771,8.0244598,45.8540344
	c8.712265-7.9098206,7.4512787-21.3221283,11.2342377-31.6392822c15.24646,35.1929703-23.9587402,61.100502-24.3026428,94.803215
	c-0.8024445-16.3928223-12.7244873,2.751236-20.6343079,5.2732086c-14.6732941,5.6171112-31.1807404,3.8975983-44.822319-3.4390564
	c13.2976608,20.6343231,41.6125259,24.0733643,64.1956406,23.0416565
	c-12.7244873,12.8391266-32.3270874,20.061142-37.1417694,39.2052002
	c-4.2415009-16.9660034-19.1440582-24.7611847-32.5563583-33.702713
	c-9.9732513-5.9610291-5.2732086-19.7172394-7.5659103-29.1173096c4.4707642-16.163559-8.9415359-28.4295044-12.2659531-43.446701
	C79.90065,131.7182007,78.5250244,109.7082596,84.7153244,91.8251877
	c3.0951462,10.2025223,5.158577,20.6343155,7.9098206,30.9514694c4.8146667,1.8341599,3.8975906-3.782959,4.7000351-6.8781052
	C99.6178818,95.7227783,95.9495621,69.2420807,114.8643494,55.4858704z"/>
<path class="st2" d="M165.3037872,191.9016113c7.9098206-2.5219727,19.8318634-21.6660309,20.6343079-5.2732086
	c1.4902496,1.146347,2.9805145,2.2926941,4.5854034,3.3244171c-9.4000702,2.1780548,0.2292633,16.6220856-5.8463898,21.5513916
	c-22.5831146,1.0317078-50.8979797-2.4073334-64.1956406-23.0416565
	C134.1230469,195.7992096,150.6304932,197.5187225,165.3037872,191.9016113z"/>
<path class="st3" d="M68.5517731,216.3188782c17.7684402-1.3756104,25.5636215-19.4879608,38.8612976-28.4294891
	c2.2927017,9.4000702-2.407341,23.1562805,7.5659103,29.1173096c13.4123001,8.9415283,28.3148575,16.7367096,32.5563583,33.702713
	c4.814682-19.1440582,24.4172821-26.3660736,37.1417694-39.2052002c6.0756531-4.929306-3.5536804-19.3733368,5.8463898-21.5513916
	c11.348877,6.9927368,16.278183,22.4684753,29.919754,25.9075165c20.2904053,5.6171265,40.4661713,12.3806,58.2346344,23.7294617
	c-2.063446,7.1073761,2.4073181,20.2904205-7.1073914,21.8953094c-84.9445953,1.7195129-170.118454,0.2292786-255.0630493,0.8024292
	c-7.5659161,0.5731812-7.795186-9.5146942-9.0561714-14.7879181c0.6878104-0.9170837,2.0634313-2.5219727,2.7512422-3.4390411
	C27.6270542,231.2214355,48.0320969,222.8530884,68.5517731,216.3188782z M278.677887,239.589798l1.3756104,0.6878204
	c1.7195129,1.7195129,3.5536804,3.4390411,5.2732239,5.2732086c-1.6049194,8.1390839-1.4902649,19.8318634-11.6927795,22.1245575
	c-85.6324158,1.6048889-171.4940796,0.1146545-257.2411194,0.8024597
	c-8.9415359,0.9170837-13.7562103-8.8269043-12.6098595-16.6220856c1.1463509-1.4902649,2.4073367-2.9805145,3.6683226-4.3561401
	c1.2609859,5.2732239,1.4902558,15.3610992,9.0561714,14.7879181c84.9445877-0.5731506,170.118454,0.9170837,255.0630493-0.8024292
	C281.0852051,259.8802185,276.6144409,246.6971741,278.677887,239.589798z M285.3267212,245.550827
	C300,255.1801758,301.3756104,272.8339844,299.0829163,288.8828735H0
	c0.5731754-12.3805847-1.375621-25.4489746,3.7829576-37.0271149c-1.1463509,7.7951813,3.6683226,17.5391693,12.6098595,16.6220856
	c85.7470398-0.6878052,171.6087036,0.8024292,257.2411194-0.8024597
	C283.8364563,265.3826904,283.7218018,253.6899109,285.3267212,245.550827z"/>
</svg>
