<?xml version="1.0" encoding="utf-8"?>
<!-- Generator: Adobe Illustrator 27.3.1, SVG Export Plug-In . SVG Version: 6.00 Build 0)  -->
<svg version="1.1" id="women" xmlns:xodm="http://www.corel.com/coreldraw/odm/2003"
	 xmlns="http://www.w3.org/2000/svg" xmlns:xlink="http://www.w3.org/1999/xlink" x="0px" y="0px" viewBox="0 0 300 288"
	 style="enable-background:new 0 0 300 288;" xml:space="preserve">
<style type="text/css">
	.st0{fill:#EBEBEB;}
	.st1{fill:#CCCCCC;}
	.st2{fill:#B3B3B3;}
	.st3{fill:#929292;}
</style>
<path class="st0" d="M110.0178833,56.3434715c55.8139496-48.1216431,82.468689,6.0822906,86.6726227,11.0017891
	c38.0143127,43.1127014,10.7334595,76.4758453-10.7334442,118.1574249
	c-0.8050079-16.457962-12.7906952,2.7727966-20.6618958,5.2772827c-14.6690521,5.6350555-31.1270142,3.9355927-44.8121643-3.4883728
	c13.3273621,20.6618958,41.6815796,24.0608215,64.221817,23.0769196
	c-12.7012482,12.8801422-32.3792419,20.1252136-37.2092896,39.2665405
	c-4.203949-16.9946289-19.0518799-24.8658295-32.4686966-33.810379
	c-10.0178909-5.9033966-5.2772827-19.5885468-7.6028671-29.0697632
	c4.4722748-16.100174-15.1162796-20.6618958-18.3363113-35.6887207
	c-15.2951736-12.7012634-10.5545654-42.4865875-4.3828278-60.3756714
	C90.2504425,85.1449051,80.1431122,78.1681595,110.0178833,56.3434715z"/>
<path class="st1" d="M165.295166,190.7799683c7.8712006-2.5044861,19.8568878-21.7352448,20.6618958-5.2772827
	c1.5205688,1.1627808,2.9516907,2.3255768,4.5617218,3.3989258c-9.3917847,2.1466827,0.2683258,16.5474091-5.8139648,21.4669037
	c-22.5402374,0.983902-50.894455-2.4150238-64.221817-23.0769196
	C134.1681519,194.7155609,150.6261139,196.4150238,165.295166,190.7799683z"/>
<path class="st2" d="M68.6046524,215.1985626c17.7101898-1.3416748,25.4919434-19.4990997,38.819313-28.4436493
	c2.3255844,9.4812164-2.4150238,23.1663666,7.6028671,29.0697632c13.4168167,8.9445496,28.2647476,16.8157501,32.4686966,33.810379
	c4.8300476-19.1413269,24.5080414-26.3863983,37.2092896-39.2665405c6.0822906-4.9194946-3.5778198-19.3202209,5.8139648-21.4669037
	c11.3595581,6.9767456,16.279068,22.4508057,29.9642181,25.8497314
	c20.2146606,5.5456085,40.4293213,12.3434601,58.2289734,23.7030334c-2.057251,7.1556396,2.4150391,20.3041077-7.0661926,21.9141235
	c-85.0626068,1.6994629-170.1252136,0.2683411-255.1878204,0.7155762c-7.5134163,0.6261292-7.7817526-9.4812164-9.033989-14.7584991
	c0.7155638-0.8050079,2.0572453-2.5044708,2.7728081-3.3094788
	C27.6386395,230.0465088,48.0321999,221.7280884,68.6046524,215.1985626z M278.7119751,238.4543762l1.3416748,0.7155609
	c1.7889099,1.7889099,3.5778198,3.4883728,5.2772827,5.1878357c-1.6100159,8.1395416-1.5205688,19.9463348-11.6278992,22.2719269
	c-85.7781677,1.5205688-171.5563354,0.089447-257.2450867,0.7155457c-9.033989,0.8944702-13.8640423-8.8551025-12.701252-16.6368408
	c1.1627905-1.5205688,2.4150264-2.9517059,3.6672628-4.3828278c1.2522364,5.2772827,1.5205727,15.3846283,9.033989,14.7584991
	c85.0626068-0.4472351,170.1252136,0.9838867,255.1878204-0.7155762
	C281.1270142,258.7584839,276.6547241,245.6100159,278.7119751,238.4543762z M285.3309326,244.3577728
	C300,254.1073303,301.3416748,271.7280884,299.1949768,287.7388H0c0.5366726-12.3434448-1.3416815-25.4919434,3.7567084-37.0303955
	c-1.1627908,7.7817383,3.6672628,17.531311,12.701252,16.6368408c85.6887283-0.6260986,171.4669037,0.8050232,257.2450867-0.7155457
	C283.8103638,264.3041077,283.7209167,252.4973145,285.3309326,244.3577728z"/>
<g>
	<path class="st3" d="M155.2772827,0.2611847h2.6833496c5.2772827,0.1788909,10.5545654,0.8944544,15.5635071,2.4150267
		c1.967804,0.6261182,3.8461609,1.1627908,5.6350708,2.0572453c1.6994629,0.894454,3.2200317,2.1466904,4.4722748,3.577817
		c3.0411377,3.2200356,5.6350555,6.7084084,8.3184204,10.1073341c3.8461456,5.1878357,7.6923065,10.2862263,11.0912323,15.7423954
		c0.4472198,0.7155647,1.073349,1.6994629,2.057251,1.6100197c1.6100159-0.089447,3.2200317-0.5366745,4.8300476-0.983902
		c1.3416748-0.3577805,2.5044708-0.9838982,3.9355927-1.0733452c-1.0733337,0.8050117-2.5044708,1.1627922-3.7566986,1.6100197
		c-1.4311371,0.5366707-3.1306,0.6261177-4.4722748,1.3416824c-0.6261139,0.3577805-0.3577881,1.0733452,0,1.6100159
		c0.5366669,0.8050117,0.983902,1.7889099,1.7889099,2.4150276c0.894455,0.6261177,1.967804,0.6261177,2.9516907,0.8050079
		c3.7567139,0.4472275,7.4239807,1.6994629,10.5545654,3.8461533c2.146698,1.4311295,3.9356079,3.2200356,5.5456238,5.1878357
		c1.7889099,1.9678001,2.5044708,4.561718,3.2200317,7.0661888c0.4472351,1.7889099,0.8050079,3.667263,0.6261139,5.54562
		c-0.7155609-0.7155647-0.894455-1.6994629-1.3416748-2.5939178c-2.146698-5.7245102-5.5456238-11.2701263-10.8229065-14.5796051
		c-1.8783417-1.1627922-4.1144867-1.6994667-6.3506165-1.8783569c-0.894455,0-1.967804-0.0894432-2.6833649,0.6261177
		c-0.089447,0.3577843,0.089447,0.8050117,0.178894,1.1627922c1.1627808,4.472271,2.2361298,8.9445419,3.3094788,13.4168167
		c0.6261139,2.6833611,1.4311218,5.3667221,3.1305847,7.5134125c1.967804,2.6833649,4.4722748,4.8300552,6.8872986,6.9767456
		c7.4239807,6.6189651,14.7584991,13.3273697,20.8407898,21.1985703c2.4150238,3.1305923,4.5617218,6.4400711,6.1717377,10.1073303
		c1.073349,2.6833649,1.8783569,5.5456161,1.7889099,8.4078751c-0.089447,0.9838943-0.089447,1.9677963-0.4472351,2.9516983
		c-0.089447,0-0.2683258-0.089447-0.4472198-0.089447c-0.6261139-1.9677963-1.6994629-3.7567062-2.7728119-5.6350632
		c-0.8050079-1.2522354-1.5205688-2.5939178-2.5044708-3.6672592c-0.2683411,0.6261139-0.3577881,1.3416824-0.4472351,1.9677963
		c-0.8050079-0.4472275-1.6100159-0.894455-2.3255768-1.4311295c0.8050079,2.5044785,1.6994629,5.0089493,2.6833649,7.4239731
		c1.073349,2.5044708,2.057251,4.9195023,2.6833649,7.6028671c0.4472198,1.7889023,0.983902,3.5778122,0.894455,5.5456085
		c-0.983902-1.3416748-1.3416901-2.8622513-2.146698-4.2933731c-1.1627808-2.4150314-2.4150238-4.9195023-4.2933807-6.8872986
		c-1.6100159-1.6994629-3.6672516-2.9516983-5.7245026-4.1144943c-0.983902-0.4472275-1.8783569-1.0733414-2.9517059-1.1627884
		c0.2683411,1.1627884,1.073349,2.1466904,1.5205841,3.3094788c1.6994629,4.8300552,2.4150238,9.9284439,3.1305847,14.9373856
		c0.894455,6.2611847,1.252243,12.6118164,0.983902,18.8729858c-0.178894,5.3667297-0.5366669,10.8229065-1.7889099,16.0107422
		c-0.5366669,2.5044708-1.6100159,4.7406006-2.5939178,7.0661774c-1.7889099,4.114502-3.6672668,8.1395416-5.4561768,12.2540283
		c-1.0733337,2.5939178-1.9677887,5.1878357-2.5044708,7.9606476c-0.178894,0.8050079,0.6261292,1.252243,1.252243,1.5205688
		c3.2200317,1.4311371,6.4400635,2.7728119,9.3917694,4.7406158c1.8783569,1.3416748,3.5778198,3.0411377,4.7406006,5.0089417
		c1.162796,1.8783569,2.236145,3.9355927,2.325592,6.1717377c0.089447,2.8622437,0.089447,5.7245026-0.089447,8.5867615
		c-0.089447,3.0411377-2.236145,5.3667297-3.1306,8.1395264c0.5366821,0.983902,1.6994629,1.4311371,2.5939178,1.967804
		c1.4311371,0.7155609,2.9517059,1.6100159,4.6511688,1.252243c2.7728119-0.4472351,5.1878357-2.325592,8.0500946-2.4150391
		c1.7889099-0.089447,3.3989258,0.7155762,4.7406006,1.8783569c1.4311218,1.3416901,2.6833801,2.8622589,3.3989258,4.6511688
		c1.5205688,3.2200317,2.6833801,6.5295105,3.6672668,9.8389893c0.4472351,1.6994629,0.7155762,3.3989258,0.8049927,5.0983887
		c-0.8944397-2.1466827-1.6994629-4.2933807-3.0411377-6.3506165c-0.9838867-1.4311371-1.967804-3.1306-3.7567139-3.7567139
		c-4.0250244-1.4311218-8.2289734-2.0572357-12.3434601-3.1305847c-2.7728119-0.7155609-5.5456085-1.5205688-8.1395264-2.7728119
		c-1.162796-0.4472198-2.325592-0.894455-3.4883728-1.252243c0.8050079,1.6100311,1.9677887,3.1306,3.1305847,4.5617218
		c1.3416901,1.6100159,3.1305847,2.8622589,4.9194946,3.8461609c3.309494,1.6994629,6.0822906,4.2039337,8.7656555,6.7978516
		c3.6672516,3.6672668,7.1556244,7.5134125,10.5545502,11.4490204c2.4150391,2.7727966,4.8300781,5.7244873,6.350647,9.1234131
		c1.3416748,3.1306152,2.4150085,6.350647,2.5939026,9.6601257v1.7889099
		c-0.089447,1.8783569-0.7155457,3.7567139-1.2522278,5.6350708c-0.3577881-3.2200623-0.2683411-6.440094-0.8944397-9.5706787
		c-0.6261292-3.5778198-1.967804-6.9767456-3.9356079-9.9284363c-1.5205688-2.4150391-3.4883728-4.47229-5.4561768-6.5295105
		c-1.4311218-1.5205688-3.1305847-2.8622589-4.9194946-3.9356079c-1.1627808-0.6261139-2.4150391-1.4311218-3.7567139-1.6100159
		c0.6261139,2.2361298,1.7889099,4.2039185,2.7727966,6.2611694c2.146698,4.382843,4.5617371,8.7656555,4.9195251,13.7745972
		L260.912323,287.7388h-7.5134125l-0.8944397-10.4650879c-0.178894-0.8944702-0.2683411-1.967804-0.983902-2.7728271
		c-2.8622589,2.057251-5.3667297,4.5617065-7.5134277,7.3345337l-4.0250397,5.9033813h-6.6189575l0.5366669-5.5455933
		c-0.178894-2.236145-0.8050079-4.8300781-2.7728119-6.1717529c-0.5366669,0.9839172-0.3577728,2.146698-0.4472198,3.3094788
		c-0.089447,1.967804,0.178894,4.0250549-0.8050079,5.9034119l-1.6100159,2.5044556h-6.4400787l1.4311371-3.8461304
		c0.8944397-3.4883728,0.8944397-7.2450867,0.0894318-10.7334595c-0.3577728-1.967804-1.5205688-3.6672668-3.0411377-5.0089417
		c-2.5044708-2.146698-5.7245026-3.3989258-8.8551025-4.382843c-7.7817535-2.3255615-16.100174-2.1466675-23.9713745-4.1144714
		c-2.6833649-0.6261292-5.5456085-1.4311218-7.7817535-3.1305847c-2.4150238-1.6994781-4.2933807-3.9356079-5.7245026-6.4400787
		c-1.6994629-2.7728119-2.8622589-5.9034119-3.2200317-9.2128906c-0.983902-9.4812164,0.3577728-19.2307587,4.3828125-27.9069672
		c1.073349-2.5044708,2.146698-4.9195099,3.3989258-7.3345337c0.178894-0.3577728,0.3577881-0.894455,0.2683411-1.3416748
		c-0.178894-3.041153-0.4472198-6.1717377-0.5366669-9.2128754c-0.178894-3.220047,0.089447-6.4400787,0.4472198-9.6601105
		c0.4472351-3.2200317,0.8050079-6.4400787,1.5205841-9.5706635c1.1627808-4.8300476,4.1144867-8.9445496,6.6189575-13.2379303
		c2.2361298-3.5778198,4.1144867-7.3345184,4.8300476-11.5384521c1.073349-6.1717377,1.162796-12.4329224,1.5205688-18.60466
		c1.7889099-0.2683258,3.6672668-0.2683258,5.3667297-0.894455c0.894455-0.3577728,1.6994629-0.9838867,2.325592-1.6994629
		c2.3255768-2.5939102,3.5778046-6.17173,3.5778046-9.6601028c-0.089447-1.5205688-0.3577728-3.1305923-1.1627808-4.3828278
		c-0.5366821-0.894455-1.073349-1.6994629-1.4311371-2.5939178c-0.3577728-0.8050079-0.5366669-1.7889023-1.2522278-2.3255768
		c-1.6100159,1.6994629-2.236145,4.0250397-3.9356079,5.6350632c-0.4472198-3.4883728-0.2683258-6.9767456-0.089447-10.4651184
		c0.3577881-2.7728119,0.178894-5.6350632-0.8944397-8.228981c-0.6261292-1.4311295-1.8783569-2.4150238-2.7728119-3.6672592
		c-1.967804-2.6833649-3.3094788-5.8139572-3.8461609-9.123436c-0.178894-1.4311295-0.178894-2.9516983,0.2683411-4.2933807
		c0.2683411-1.1627884,1.073349-2.1466904,0.894455-3.3094788c-0.178894-1.162796-1.073349-1.967804-1.7889099-2.6833649
		c-1.7889099-1.5205765-3.7567139-2.8622589-5.5456238-4.2933807c-1.1627808-1.073349-2.4150238-1.967804-3.3989258-3.3094864
		c-1.6994629-2.4150238-4.6511536-3.5778122-6.4400635-5.9928398c-0.6261139-0.8050079-1.6100159-0.983902-2.5939178-1.0733452
		c0.4472198-0.5366745,0.983902-1.0733452,1.2522278-1.7889099c-2.8622437-0.1788902-5.8139496-0.0894432-8.5867615,0.2683372
		c-1.9677887,0.2683372-3.3989258,1.9678001-5.3667145,2.0572433c-0.983902-0.7155609-1.252243-2.0572433-1.6100311-3.2200356
		c-0.1788788-1.0733452-0.1788788-2.2361336-0.9838867-3.0411453c-0.7155762-0.1788902-1.4311371,0.3577843-1.7889099,0.983902
		c-0.983902,2.0572433-0.178894,4.6511612-1.5205841,6.6189613c-0.5366669,0.8050079-1.6100159,0.6261177-2.2361298,0
		c-0.5366669-0.3577805-0.6261139-1.0733452-0.894455-1.6100159c-2.8622589-0.8050117-5.5456085-2.2361374-8.3184204-3.3094826
		c-0.6261139-0.1788902-1.3416901-0.3577805-1.967804-0.3577805c0.2683411,0.5366707,0.983902,0.8944511,0.894455,1.6100159
		c-0.4472198,0.1788902-0.894455,0.1788902-1.3416748,0.1788902c-2.4150391,0.089447-4.8300629-0.1788902-7.1556396-0.0894432
		c-1.3416901,0.0894432-2.4150238,0.6261177-3.5778198,1.1627884c-2.8622513,1.4311295-5.4561691,3.2200356-8.139534,4.9195023
		c-3.8461533,2.5044708-7.6028595,5.0983887-11.1806793,7.7817535c-1.3416824,0.9838943-2.6833649,1.9677963-3.7567062,3.2200317
		c-2.0572433,2.6833649-3.6672668,5.7245102-4.6511612,8.8551025c-0.5366745,1.5205688-0.6261215,3.2200317-0.6261215,4.8300476
		c-0.178894,6.4400711-0.178894,12.8801422-0.178894,19.3202133c-0.0894394,2.4150314,0,4.8300552-0.0894394,7.2450867
		c-0.983902-1.073349-1.5205765-2.4150314-2.5044785-3.3989334c-0.9838943-0.8944473-2.4150238-0.6261139-3.5778122-0.4472198
		c-0.8050079,0.1788864-1.073349,0.9838943-1.3416824,1.6100159c-0.5366745,2.1466904-0.7155609,4.3828278-0.089447,6.4400711
		c0.5366745,1.7889099,0.8050079,3.6672592,1.2522354,5.4561691c0.5366745,1.7889099,1.7889099,3.3094864,3.1305923,4.5617142
		c1.1627884,0.983902,2.7728043,0.6261292,4.2039337,0.7155609c0.8050079,0.089447,1.8783569,0.089447,1.967804,1.073349
		c0.9838943,5.9033966,1.6100159,11.8067932,2.5939178,17.6207581c0.5366669,3.2200317,1.0733414,6.4400635,2.2361298,9.4812164
		c1.6100235,3.3989258,3.9356003,6.5295105,6.1717377,9.5706635c1.9677963,2.7727966,4.3828278,5.2772675,5.5456161,8.4973145
		c0.983902,2.9516907,0.983902,6.1717377,0.894455,9.2128754c0,3.3989258-0.3577805,6.7978516-1.5205688,10.0178833
		c-0.983902,2.7728119-2.2361374,5.4561768-3.5778198,8.1395416c-1.6100159,3.3094788-3.9356003,6.1717377-6.3506241,8.9445343
		c-2.2361374,2.5044861-4.2039413,5.4561768-5.0089493,8.7656555c-1.1627884,4.3828278-0.6261139,9.1234436,0.5366745,13.5062714
		c0.983902,3.3094788,3.1305923,6.1717224,5.6350632,8.4973145c3.3094788,3.3094788,7.3345261,5.8139496,10.6440048,9.1234283
		c2.3255844,2.3255768,3.6672668,5.2772675,4.8300552,8.3184357c0.983902,2.5044556,0.8050079,5.1878357,0.894455,7.8711853
		c0,2.8622437,0.089447,5.7245178,0,8.5867615c-0.8050079,1.7889099-1.7889099,3.4883728-2.5939178,5.2772827l-2.5044708,4.5617065
		h-6.9767456l1.8783569-4.2039185c0.2683334-2.236145,0.1788864-4.5617065,0.1788864-6.7978516
		c-0.089447-2.5939331-1.4311218-4.8300476-2.5044708-6.9767456c-1.7889099-3.5778198-4.4722748-6.5295105-7.245079-9.3023376
		c-1.073349-1.0733337-2.2361374-2.2361145-3.5778198-3.1305847c-0.2683334,0.7155762-0.3577805,1.4311218-0.2683334,2.146698
		c0.1788864,1.7889099,0.4472275,3.6672668,1.1627884,5.2772827c0.894455,2.057251,1.3416824,4.2933655,1.5205765,6.4400635
		c0.0894394,1.2522278-0.178894,2.4150391-0.4472275,3.5778198c-0.7155685-2.236145-1.4311295-4.4722595-2.5939178-6.5295105
		c-2.1466904-3.8461609-5.4561768-6.7084045-8.4973221-9.8390198c-2.8622513-2.9516907-5.6350632-6.1717224-7.155632-10.1073151
		c-0.6261215-1.3416901-0.8050079-2.9517059-1.5205688-4.2933807c0,0-0.178894,0-0.2683411,0
		c-0.8050079,2.3255768-0.983902,4.8300476-1.5205688,7.1556244c-0.3577805-1.8783417-0.089447-3.9355927-0.983902-5.7245026
		c-0.5366745,0.4472351-0.6261215,1.073349-0.7155609,1.6994629c-0.8050079,5.9928436-2.7728119,11.8067932-5.1878357,17.352417
		c-1.3416824,3.1305847-2.7728119,6.1717224-4.7406082,8.9445496c0.3577805-2.4150391,1.3416824-4.8300476,1.7889099-7.2450867
		c0.894455-4.3828125,0.3577805-8.8551025-0.5366745-13.1484833c-0.4472275-2.5044708-1.7889099-4.7406006-3.0411453-6.8872986
		C67.5313034,244,66.189621,241.763855,65.0268326,239.4382782c-1.3416824-2.5044708-0.894455-5.6350555,0.2683334-8.2289734
		c0.3577805-0.6261292,0.8050079-1.252243,0.894455-2.057251c-1.2522354-0.089447-2.4150238,0.5366669-3.3989258,1.252243
		c-2.1466904,1.5205688-3.9356003,3.4883575-5.4561729,5.5456085c-1.4311256,1.7889099-2.593914,3.7567139-3.3989258,5.9033966
		c-0.894455,2.5044708-0.9838982,5.1878357-0.894455,7.8712006c0.2683372,2.5044708,1.2522392,4.9194946,2.6833649,6.9767303
		c1.2522354,1.7889099,2.9516983,3.1306152,4.0250435,5.0089722c-0.894455,0.6260986-1.9678001,0.4472046-2.9516983,0.3577576
		c-2.3255806-0.4472046-4.6511612-1.0733337-6.8872986-1.967804c-3.3989258-1.2522278-6.7084084-2.7727966-9.6601067-4.9194794
		c-0.8050079-0.5366821-1.5205727-1.073349-2.4150276-1.6100159c0.1788902,1.5205688,0.6261177,3.041153,0.983902,4.4722748
		c0.8944511,3.6672668,1.3416786,7.5133972,1.5205688,11.2701111c0.089447,5.2772827,0.178894,10.7334595-1.3416786,15.8318481
		c-0.2683372,0.8944397-0.7155647,1.6994629-1.4311295,2.325592c-0.0894432-1.3417053,0-2.7728271-0.2683334-4.114502
		c-0.983902-5.2772827-2.6833649-10.5545654-5.5456181-15.116272c-2.7728081-4.114502-6.4400711-7.6028748-9.7495537-11.2701416
		c-2.5939159-2.9516907-5.0983887-5.9928284-6.7084064-9.5706482c-1.5205727-3.4883728-2.1466913-7.3345337-2.6833639-11.0912323
		c-0.6261177-4.7406158-0.4472265-9.7495575,0.7155638-14.4007263c0.9839001-4.1144867,2.8622532-7.9606323,5.0089455-11.5384521
		c2.3255806-3.8461609,5.0983887-7.4239807,8.3184242-10.6440125c1.5205727-1.5205688,3.1305904-3.0411377,4.2933807-4.9194946
		c1.1627922-1.7889099,1.9678001-3.7567139,2.6833649-5.7245026c0.6261177-1.6994629,0.8050079-3.398941,0.9838982-5.0984039
		c0.5366745-8.9445343,0.4472275-17.8890839,1.1627922-26.7441711c1.5205727-8.4973297,3.2200356-17.1735229,7.245079-24.9552765
		c0.3577805-0.983902,0.8050079-1.8783569,0.894455-2.8622589c-1.5205727,0.8050079-2.5939178,2.2361298-3.8461533,3.4883728
		c-2.2361374,2.6833649-4.561718,5.2772827-6.0822906,8.4973145c-3.2200356,6.2611847-4.9194984,13.1484833-5.3667259,20.1252289
		c-0.2683372,3.2200317-0.1788902,6.4400635-0.2683372,9.6600952c-0.0894451,1.073349,0,2.146698-0.3577805,3.220047
		c-0.7155647-1.162796-1.1627922-2.5044861-1.6100178-3.8461609c-0.894455-2.7728119-1.5205727-5.6350555-1.6994648-8.5867615
		c-0.2683353-3.8461456,0.2683372-7.6028595,0.5366726-11.4490204c0.1788921-1.9677887,0.3577824-4.0250397-0.2683353-5.9033966
		c-0.894455-2.3255768-1.0733452-4.7406006-1.2522354-7.2450714c-0.089447-2.057251-0.1788921-4.2039337,0.0894451-6.2611847
		c0.894453-5.1878357,3.1305904-10.107338,6.350626-14.1323776c2.2361336-3.0411453,5.0983887-5.5456161,7.9606438-8.0500946
		c3.2200356-3.0411453,6.5295143-5.9928436,9.4812164-9.3023224c-3.0411453-0.6261215-6.1717377-0.5366745-9.2128792-0.983902
		c-6.7084084-0.7155609-13.5062618-2.3255768-19.3202152-5.9928436c-2.3255825-1.5205688-4.4722719-3.3094788-7.0661898-4.3828278
		c-1.9677992-0.894455-4.2039351-1.2522354-6.350626-1.2522354l-5.5456166,0.178894v-1.7889099h2.4150269
		c2.5044723,0.089447,4.9194989,0.5366745,7.3345256,0.8050079c4.1144905,0.5366745,8.2289801,0.983902,12.2540255,1.7889099
		c4.8300533,1.073349,9.7495518,1.9677963,14.579607,2.8622513c1.2522354,0.178894,2.593914,0.2683411,3.8461533,0.178894
		c1.6994629-0.089447,3.3989258-0.178894,5.0983887-0.8050079c-0.6261177-0.7155685-1.6100197-0.7155685-2.4150276-0.894455
		c-6.3506241-0.983902-12.701252-2.4150238-18.6940956-4.7406082c-7.0661888-2.6833649-13.6851511-6.4400711-20.6618958-9.4812164
		l-3.7567084-1.6994629l0.0894454-1.073349l12.3434696,4.2039413c2.683363,0.5366669,5.456172,0.5366669,8.2289801,0.7155609
		c-2.3255806-1.6100159-5.0089445-2.9516983-7.4239712-4.4722748C8.3184252,69.581398,4.561717,64.3041153,0.0894454,60.5474091
		c5.3667259,0.6261177,10.1967802,2.1466904,15.8318424,2.0572433c1.0733452,0,1.9678001-0.8050079,2.9517002-1.0733452
		c7.0661888-2.3255806,14.400713-3.577816,21.6457958-5.1878357c6.7084045-1.4311256,13.3273697-3.2200356,19.856884-5.3667259
		s12.969593-4.472271,19.4991035-6.7978516c1.5205765-0.4472275,2.2361374-2.0572472,2.8622589-3.3989258
		c4.5617142-9.6601086,10.7334518-18.6940975,18.5152054-26.1180687c6.17173-5.8139534,13.5062561-10.5545616,21.7352371-12.8801422
		c3.5778198-0.9838998,7.2450867-1.6100179,10.9123383-1.431127c3.309494,0.2683363,6.3506317,1.3416815,9.4812164,2.236136
		c0.7155762,0.1788909,1.4311371-0.3577816,2.057251-0.5366726C148.5688629,0.7084119,151.9677887,0.4400756,155.2772827,0.2611847
		L155.2772827,0.2611847z M208.9445343,42.8372116c0.089447,0.3577805,0.4472351,0.2683372,0.7155609,0.2683372
		c0.4472351,0,0.983902,0.1788902,1.4311371-0.1788902C210.3756561,42.7477646,209.6600952,42.8372116,208.9445343,42.8372116
		L208.9445343,42.8372116z M59.8389969,57.4168167c-1.5205727,0.2683372-3.0411453,0.2683372-4.561718,0.4472275
		c-7.3345261,0.6261177-14.8479424,0.8050079-22.1824684,1.9678001c-2.9516983,0.4472275-5.9928436,0.9838982-8.7656517,2.1466904
		c-0.6261177,0.3577805-1.2522373,0.5366745-1.7889099,0.9838982c1.9678001,0.7155647,4.1144905,0.4472275,6.2611809,0.6261215
		c2.5939178,0.0894432,5.2772827,0.0894432,7.8712006,0c3.7567062-0.178894,7.5134163,0,11.1806793-0.894455
		c4.6511612-0.894455,9.3023224-2.1466904,13.7745934-3.8461533c0.6261215-0.3577843,1.5205727-0.4472275,1.7889099-1.2522392
		C62.3434677,57.1484833,61.0017853,57.0590363,59.8389969,57.4168167L59.8389969,57.4168167z M52.0572433,105.9856873
		c-1.8783531,0.4472275-3.4883728,1.5205765-5.0983887,2.5044708c-2.3255844,1.4311295-4.561718,3.0411453-6.7084084,4.8300552
		c-2.4150276,2.0572433-4.472271,4.4722748-6.3506279,6.9767456c-2.9516983,3.7567062-5.366724,8.050087-6.3506241,12.7012558
		c-0.3577824,2.1466827-0.5366726,4.3828278-0.5366726,6.5295105c0,0.7155609,0,1.4311218,0.2683353,2.057251
		c0.3577824,0.178894,0.4472275-0.3577881,0.6261196-0.5366821c1.788908-3.3094788,3.1305885-6.8872986,5.0089436-10.1967773
		c2.4150276-4.5617142,5.5456161-8.5867615,8.9445419-12.3434677c2.7728081-3.0411453,5.7245102-5.7245102,8.5867615-8.6762085
		c1.0733452-1.0733414,2.1466904-2.1466904,3.0411453-3.4883728
		C53.6672592,105.4490128,52.5044708,105.8068008,52.0572433,105.9856873L52.0572433,105.9856873z M222.5402374,171.9964142
		c-1.2522278,1.3416901-2.2361298,2.8622589-3.3989258,4.2933807c-1.6994629,1.967804-3.4883728,3.8461609-5.2772827,5.7245178
		c1.6100311,3.5778198,4.114502,6.8872986,7.5134277,8.8550873c0.983902,0.5366821,2.2361298,1.073349,3.3094788,0.5366821
		c0.4472198-1.162796-0.2683411-2.3255768-0.6261139-3.4883728c-1.252243-3.041153-1.7889099-6.3506317-1.6100311-9.6601105
		c0-2.3255768,0.8050232-4.5617218,0.894455-6.8872986C222.9874725,171.3703003,222.7191315,171.7280884,222.5402374,171.9964142
		L222.5402374,171.9964142z M216.5473938,192.747757c-0.089447,1.5205841,0.3577881,2.9517059,0.7155609,4.3828278
		c0.983902,4.2039337,2.146698,8.4973145,4.6511688,12.0751343c1.4311218,1.967804,3.2200317,3.6672668,5.0089417,5.3667297
		c3.5778198,3.3094788,7.3345337,6.5295105,11.1806793,9.5706635c0.4472351,0.3577728,0.983902,0.894455,1.6100159,0.983902
		c0.2683411-0.8050079,0.4472351-1.6100159,0.5366821-2.4150391c0.2683258-2.9516907,0.2683258-6.0822754-0.983902-8.8550873
		c-1.6994629-3.9356079-4.9194946-6.9767456-8.2289886-9.6601105c-1.2522278-0.894455-2.4150238-1.967804-3.8461456-2.6833649
		c-0.5366669-0.2683411-0.8050079,0.2683411-1.162796,0.5366669c-0.089447-0.3577728-0.089447-0.8050079-0.178894-1.2522278
		c-0.3577728-0.894455-1.2522278-1.4311218-2.0572357-2.057251c-2.057251-1.6100159-3.9356079-3.4883728-5.9033966-5.2772827
		C217.5312958,193.105545,217.0840759,192.747757,216.5473938,192.747757z M270.3041077,251.8712006
		c-0.4472351-0.2683411-0.4472351-1.252243,0-1.5205841C270.3041077,250.8872986,270.3041077,251.3345184,270.3041077,251.8712006z"
		/>
</g>
</svg>
