<?xml version="1.0" encoding="utf-8"?>
<svg version="1.1" xmlns:xodm="http://www.corel.com/coreldraw/odm/2003" xmlns="http://www.w3.org/2000/svg" xmlns:xlink="http://www.w3.org/1999/xlink" x="0px" y="0px" viewBox="0 0 50 50">
<style type="text/css">
	.st0{fill:none;}
	.st1{fill:#CF2637;}
</style>
<rect class="st0" width="50" height="50"/>
<path class="st1" d="M35.9,24.3h1.6c0,0,0.2,0,0.2,0.2c0,0.2,0,0.2,0,0.4c1.4,0,2.8,0,4.2,0c0.4,0,0.6,0,0.8,0c1,0.4,1.6,1,2,1.8v0.2 c-0.4,0.8-1.2,1.6-2,1.8c-0.2,0.2-0.4,0.2-0.8,0.2c-1.4,0-2.8,0-4.2,0v0.2c0,0.2-0.2,0.4-0.2,0.4c-0.6,0-1,0-1.6,0l-0.2-0.2 c-0.2-0.2-0.2-0.4-0.2-0.4c-0.2,0-0.4,0-0.6,0c-0.2,0-0.4-0.2-0.4-0.4s0.2-0.4,0.4-0.4c0.2,0,0.4,0,0.6,0c0-0.2,0-0.6,0-1 c-0.6,0-1.2,0-1.6,0c-0.4,0-0.4-0.2-0.4-0.4c0-0.2,0.2-0.2,0.4-0.2c0.6,0,1.2,0,1.6,0c0-0.6,0-1.2,0-2 C35.5,24.3,35.7,24.3,35.9,24.3L35.9,24.3z M36.3,24.9c0,0.6,0,1,0,1.6l0.2,0.2c0,0.2,0,0.4-0.2,0.4c0,0.6,0,1.2,0,1.6 c0.2,0,0.4,0,0.8,0c0-1.2,0-2.6,0-3.8C36.7,24.9,36.5,24.9,36.3,24.9L36.3,24.9z M37.8,25.5c0,0.8,0,1.8,0,2.6 c1.2,0,2.2,0,3.4,0c0-0.8,0-1.8,0-2.6C40,25.5,39,25.5,37.8,25.5L37.8,25.5z M41.8,28.1c0.2,0,0.6,0,0.8,0 c0.6-0.2,1.2-0.8,1.4-1.2c-0.2-0.6-0.8-1.2-1.4-1.4c-0.4,0-0.6,0-0.8,0C41.8,26.3,41.8,27.3,41.8,28.1z"/>
<path class="st1" d="M32.7,24.9c0.2,0,0.2,0,0.2,0c0.4,0,0.8,0,1.2,0c0.2,0,0.4,0.2,0.4,0.4c-0.2,0-0.2,0.2-0.4,0.2c-0.4,0-0.8,0-1.2,0 c-0.2,0-0.4-0.2-0.4-0.2C32.5,25.1,32.7,24.9,32.7,24.9z"/>
<path class="st1" d="M30.5,30.3c0.2,0,0.2,0,0.4,0c0.4,0,1,0,1.4,0c0.2,0,0.4,0,0.4,0.2v0.2c0,0,0.2,0,0.4,0.2c0,0.2,0,0.4,0,0.4 c-0.2,0.2-0.4,0.2-0.4,0.2c0,0.8,0,1.8,0,2.6c1,0,2.2,0,3.2,0c0-0.8,0-1.8,0-2.6c-0.2,0-0.2,0-0.4-0.2v-0.4 c0.2-0.2,0.4,0,0.6-0.2c0.4,0.2,1,0,1.4,0.2c0.8,0.2,1.6,0.8,1.8,1.6c0.2,0.2,0.2,0.2,0.2,0.4c-0.4,0.8-0.8,1.2-1.4,1.6 c-0.4,0.2-0.8,0.4-1.2,0.4c-1.4,0-2.8,0-4.2,0c0,0,0,0.2,0,0.4c-0.2,0-0.2,0.2-0.4,0.2c-0.6,0-1,0-1.4,0c-0.2,0-0.4-0.2-0.4-0.4 c0-0.6,0-1.4,0-2c-0.6,0-1.2,0-1.8,0c-0.2,0-0.4-0.2-0.4-0.4c0.2,0,0.2-0.2,0.4-0.2c0.6,0,1.2,0,1.8,0c0-0.4,0-0.6,0-1 c-0.2,0-0.4,0-0.8,0c0,0-0.2-0.2-0.2-0.4s0.2-0.2,0.2-0.2c0.4-0.2,0.6,0,0.8-0.2C30.5,30.7,30.5,30.5,30.5,30.3L30.5,30.3z M31.1,30.9c0,0.6,0,1,0,1.6c0.2,0,0.4,0.2,0.4,0.4c0,0-0.2,0.2-0.4,0.2c0,0.6,0,1.2,0,1.6c0.4,0,0.6,0,0.8,0c0-1.2,0-2.6,0-3.8 C31.7,30.9,31.5,30.9,31.1,30.9L31.1,30.9z M36.5,31.5c0,0.8,0,1.8,0,2.6c0.4,0,0.6,0,1,0c0.6-0.2,1-0.8,1.4-1.2 c-0.4-0.6-0.8-1.2-1.4-1.4C37.1,31.5,36.9,31.5,36.5,31.5z"/>
<path class="st1" d="M34.1,30.9c0.4-0.2,0.6,0,0.6,0.2c-0.2,0.4-0.4,0.4-0.6,0.2C33.9,31.3,33.9,30.9,34.1,30.9z"/>
<path class="st1" d="M27.5,34.5c0-0.2,0.2-0.4,0.4-0.4c0.2,0,0.6,0,1,0c0,0,0.2,0,0.2,0.2c0.2,0,0.2,0.2,0.2,0.4c0,0-0.2,0.2-0.4,0.2 c-0.4,0-0.8,0-1,0C27.7,34.9,27.5,34.7,27.5,34.5L27.5,34.5z"/>
<path class="st1" d="M35.7,36.3l0.2-0.2c0.6,0,1,0,1.4,0c0.2,0,0.4,0.2,0.4,0.2c0,0.2,0,0.4,0,0.4c1.4,0,2.8,0,4.4,0c0.4,0,1,0.2,1.4,0.6 c0.6,0.4,0.8,0.8,1.2,1.4V39c-0.2,0.4-0.6,0.8-0.8,1c-0.4,0.4-1,0.8-1.6,0.8c-0.2,0.2-0.6,0-0.8,0c-1.2,0-2.6,0-3.8,0 c0,0.2,0,0.4,0,0.6h-0.2h-1.6c-0.2,0-0.4,0-0.4-0.2c0-0.6,0-1.4,0-2c-0.6,0-1,0-1.6,0c-0.2,0-0.4-0.2-0.4-0.2 c0-0.2,0.2-0.4,0.4-0.4c0.6,0,1,0,1.6,0c0-0.4,0-0.8,0-1c-0.2,0-0.4,0-0.6,0c-0.2,0-0.4-0.2-0.4-0.4c0-0.2,0.2-0.4,0.4-0.4 c0.2,0,0.4,0,0.6,0C35.5,36.7,35.5,36.5,35.7,36.3L35.7,36.3z M36.3,36.9c0,0.4,0,1,0,1.6c0.2,0,0.2,0.2,0.2,0.4 c0,0,0,0.2-0.2,0.2c0,0.6,0,1,0,1.6c0.2,0,0.4,0,0.8,0c0-1.2,0-2.6,0-3.8C36.7,36.9,36.5,36.9,36.3,36.9L36.3,36.9z M37.8,37.6 c0,0.8,0,1.8,0,2.6c1.2,0,2.2,0,3.4,0c0-0.8,0-1.8,0-2.6C40,37.6,39,37.6,37.8,37.6L37.8,37.6z M41.8,40.2c0.2,0,0.6,0,0.8,0 c0.6-0.2,1.2-0.8,1.4-1.4c-0.2-0.4-0.8-1-1.4-1.2c-0.2,0-0.6,0-0.8,0C41.8,38.4,41.8,39.4,41.8,40.2z"/>
<path class="st1" d="M32.7,40.2c0.2,0,0.2,0,0.2,0c0.4,0,0.8,0,1.2,0c0.2,0,0.4,0.2,0.4,0.4c-0.2,0.2-0.2,0.2-0.4,0.2c-0.4,0-0.8,0-1.2,0 c-0.2,0-0.2,0-0.4-0.2C32.5,40.6,32.7,40.4,32.7,40.2z"/>
<path class="st1" d="M33.1,7.6c0.6-0.2,1-0.2,1.4-0.2c2.4,0,4.6,0,6.8,0c0.8,0,1.8,0.6,2,1.2c0.4,0.8,0.2,1.4,0.2,2.2c1,0,1.8,0,2.8,0 c0.6,0,1.2,0.4,1.6,1c0.2,0.4,0,1,0,1.4c0,1,0,2.2,0,3.2c-0.4,1.2-0.8,2.2-1.2,3.2c-0.2,0.8-1,1.2-1.6,1.2c-4.8,0-9.6,0-14.5,0 c-0.8,1.2-0.8,3-1.8,4.2c-1.4,1.8-3.4,3.2-5.8,3.6c-1.6,0.4-3.2,0.4-4.8-0.2c-0.8,1.4-1.4,2.8-1.8,4.2c-0.4,2.2-0.6,4.2-0.8,6.4 c0,0.6,0,1.2-0.2,1.6c-0.4,1-1.2,1.6-2.4,1.6c-3,0-6,0-9,0c-1.2,0-2.2-0.6-2.6-1.8c-0.2-0.4,0-1,0-1.6c0.2-3.2,1.2-6.4,2.8-9.2 c0.8-1.2,1.4-2.6,1.6-4c0.2-1.2,0-2.2-0.2-3.2c-0.4-0.8-1-1.4-1.6-2.2c-0.4-0.6-0.4-1.2,0-1.8c-1.6-1.2-2.8-3-3-4.8 c0-0.6-0.2-1.2,0.2-1.6c0.4-0.6,1.2-1,1.8-0.6C3.8,11.8,4.8,12,5.8,12c0.2-0.6,1-1.2,1.8-1.2c7.2,0,14.3,0,21.5,0 c0.2,0,0.6,0,0.8,0.2c0.4,0.4,0.2,1-0.2,1.2c0,0.2-0.2,0.2-0.6,0.2c-1.4,0-2.8,0-4.2,0c0,0.6,0.2,1.2-0.2,1.6 c-0.6,0.4-1.4,0.2-1.4-0.2c-0.2-0.6,0-1-0.2-1.4c-0.4,0-1,0-1.6,0c0,0.6,0.2,1.2-0.2,1.6c-0.4,0.4-1.2,0.2-1.4-0.2 c-0.2-0.6,0-1,0-1.4c-0.6,0-1.2,0-1.8,0c0,0.6,0.2,1.2-0.2,1.6c-0.6,0.4-1.2,0.2-1.4-0.4c0-0.4,0-0.8,0-1.2c-0.6,0-1.2,0-1.8,0 c0,0.6,0.2,1.2-0.2,1.6c-0.4,0.4-1.2,0.2-1.4-0.2c0-0.6,0-1,0-1.4c-1.8,0-3.4,0-5.2,0c0,0-0.2,0-0.4,0.2c-0.2,1-0.6,2-0.8,3 c10.2,0,20.5,0,30.7,0c0.2-0.2,0.6,0,0.8,0.4c0.2,0.2,0,0.8-0.2,1c-0.4,0.2-0.8,0.2-1.2,0.2c-9,0-18.3,0-27.3,0 c-0.2,0.6-0.4,1-0.6,1.6c1.2,1.4,1.8,3,2,4.8c0.2,2.6-0.6,5-1.8,7.2c-0.8,1.6-1.6,3.4-2,5.4c-0.2,0.6,0.2,1.2,0.8,1.2 c2.2,0,4.2,0,6.2,0c0.4-3.4,1-6.8,2.6-9.6c-1-0.6-1.8-1.6-2.2-2.8c-0.2-1.2,0-2.6,0.6-3.6c0.6-1.4,2.2-2.4,3.8-2.4 c8.6,0,17.5,0,26.3,0c0.2-0.6,0.4-1.2,0.8-1.8c-1.8,0-3.4,0-5.2,0c-0.4,0-0.8-0.4-0.8-0.8c0-0.4,0.4-0.8,0.8-0.8 c1.8,0,3.8,0,5.6,0c0-1.2,0-2.2,0-3.2c-4.6,0-9.2,0-13.7,0c-0.4,0-0.6-0.2-0.8-0.4c-0.2-0.2-0.2-0.6-0.2-0.8c0-0.6,0-1.2,0-1.8 C31.9,8.6,32.5,7.8,33.1,7.6L33.1,7.6z M33.5,9.6c0,0.4,0,0.8,0,1.2c2.8,0,5.6,0,8.4,0c0-0.4,0-0.8,0-1.2S41.8,9,41.4,9 c-2.4,0-4.8,0-7.2,0C33.7,9,33.5,9.2,33.5,9.6L33.5,9.6z M2.6,13.3c0.2,1.2,0.8,2.6,1.8,3.4c0.4-1,0.6-1.8,1-2.8 C4.4,13.7,3.4,13.5,2.6,13.3L2.6,13.3z M6,17.3c-0.2,0.6-0.4,1.4-0.6,2C6,20.1,6.8,20.9,7,21.9c0.8,2,0.6,4.4-0.2,6.4 c-0.6,1.4-1.4,2.6-2,3.8c-0.6,1.6-1.2,3.2-1.4,5C3.2,38,2.8,39,3,40c0.2,0.4,0.6,0.8,1,0.8c3,0,6,0,9,0c0.4,0,0.8-0.2,1-0.6 c0-0.4,0-0.6,0-1c-2.2,0-4.2,0-6.2,0c-1.2,0-2.4-1-2.6-2.2c0-0.4,0-1,0.2-1.4c0.4-1.4,1-2.8,1.6-4.2c1-1.8,1.8-3.8,2-5.8 c0.2-2.2-0.4-4.2-1.6-5.8c-0.2-0.4-0.4-0.6-0.2-1c0-0.4,0.2-1,0.4-1.4C7,17.3,6.6,17.3,6,17.3L6,17.3z M20.3,20.9 c0,1,0,2.4,0.8,3.2c0.2,0.4,0.8,0.6,0.8,1c0.2,0.4-0.2,1-0.6,1c-0.6,0-1-0.4-1.2-0.6c-1.2-1.2-1.6-3-1.4-4.6 c-0.4,0-1,0.2-1.2,0.4c-1.6,0.8-1.8,3-0.8,4.4c0.8,0.8,1.8,1.2,2.8,1.4c1.8,0.4,3.8,0.2,5.4-0.6c1.4-0.8,2.4-1.8,3-3.2 c0.4-0.8,0.6-1.6,1-2.4C26.1,20.9,23.1,20.9,20.3,20.9z"/>
</svg>
